<svg width="454" height="512" viewBox="0 0 454 512" fill="none" xmlns="http://www.w3.org/2000/svg">
<g clip-path="url(#clip0_2003_92)">
<path d="M81.826 358.478C10.6506 249.376 1.81907 118.454 0 0H453.552C451.734 118.453 442.902 249.376 371.726 358.478C314.484 446.219 226.776 512 226.776 512C226.776 512 139.067 446.219 81.826 358.478Z" fill="black"/>
<path d="M443.247 10.1313C441.148 121.709 431.772 247.893 363.241 352.943C316.264 424.949 247.432 482.647 226.776 499.139C206.119 482.647 137.287 424.948 90.3108 352.943C21.7789 247.893 12.4037 121.709 10.3047 10.1313C29.5322 10.1313 424.018 10.1313 443.247 10.1313Z" fill="white"/>
<path d="M384.357 67.0197C379.583 154.559 364.935 246.226 315.594 321.859C288.787 362.951 253.636 399.214 226.776 424.039C199.915 399.215 164.764 362.952 137.958 321.859C88.616 246.227 73.9696 154.56 69.194 67.0206C150.686 67.0197 302.865 67.0197 384.357 67.0197Z" fill="black"/>
<path d="M104.572 225.29C103.673 222.376 102.8 219.431 101.948 216.455L101.96 216.435C102.204 216.099 102.399 215.953 102.687 215.953C103.101 215.953 103.323 216.252 103.768 216.985C104.263 217.8 104.94 218.915 106.47 218.915C107.999 218.915 108.677 217.8 109.171 216.985C109.617 216.252 109.839 215.953 110.253 215.953C110.666 215.953 110.889 216.252 111.335 216.985C111.829 217.8 112.507 218.915 114.036 218.915V217.356C113.442 217.356 113.176 217.015 112.666 216.176C112.21 215.424 111.584 214.395 110.253 214.395C108.922 214.395 108.297 215.425 107.839 216.176C107.329 217.015 107.064 217.356 106.47 217.356C105.876 217.356 105.61 217.015 105.101 216.177C104.644 215.425 104.018 214.395 102.687 214.395C102.204 214.395 101.814 214.53 101.492 214.739L101.465 214.751C100.511 211.368 99.5879 207.946 98.694 204.481L98.6839 204.438H164.44C164.44 204.438 164.626 194.145 167.354 187.131C169.505 181.599 173.759 174.688 178.589 174.695C183.418 174.687 187.673 181.599 189.824 187.131C191.774 192.146 192.426 198.837 192.639 202.243L192.652 202.303L180.318 211.412L180.308 211.35V210.011C179.714 210.011 179.448 209.669 178.938 208.83C178.481 208.078 177.856 207.049 176.524 207.049C175.192 207.049 174.567 208.079 174.111 208.831C173.601 209.669 173.334 210.012 172.741 210.012C172.148 210.012 171.881 209.67 171.371 208.831C170.915 208.079 170.289 207.049 168.958 207.049C167.626 207.049 167.001 208.079 166.544 208.831C166.035 209.67 165.769 210.012 165.175 210.012C164.581 210.012 164.315 209.67 163.806 208.831C163.349 208.079 162.723 207.049 161.392 207.049C160.061 207.049 159.436 208.079 158.979 208.83C158.47 209.669 158.203 210.011 157.61 210.011V211.569C159.139 211.569 159.816 210.454 160.311 209.64C160.756 208.906 160.979 208.608 161.391 208.608C161.805 208.608 162.027 208.906 162.473 209.64C162.968 210.454 163.645 211.569 165.174 211.569C166.703 211.569 167.381 210.454 167.875 209.64C168.321 208.906 168.543 208.608 168.957 208.608C169.371 208.608 169.593 208.906 170.038 209.64C170.532 210.454 171.211 211.569 172.739 211.569C174.269 211.569 174.946 210.454 175.441 209.64C175.887 208.906 176.109 208.608 176.522 208.608C176.936 208.608 177.158 208.906 177.604 209.64C178.073 210.412 178.705 211.453 180.071 211.56L180.112 211.562L163.849 223.572L163.824 223.55C163.818 223.541 163.812 223.531 163.806 223.521C163.349 222.77 162.723 221.74 161.392 221.74C160.061 221.74 159.436 222.77 158.979 223.521C158.47 224.36 158.203 224.701 157.61 224.701V226.26C159.139 226.26 159.816 225.144 160.311 224.33C160.756 223.597 160.979 223.298 161.391 223.298C161.805 223.298 162.027 223.598 162.473 224.33C162.502 224.377 162.531 224.426 162.562 224.475L162.582 224.507L156.284 229.158L156.254 229.149C156.085 229.107 155.901 229.084 155.703 229.084C154.371 229.084 153.746 230.114 153.29 230.865C152.781 231.703 152.514 232.045 151.921 232.045C151.327 232.045 151.061 231.703 150.551 230.865C150.094 230.113 149.469 229.084 148.138 229.084C146.807 229.084 146.181 230.113 145.724 230.865C145.215 231.703 144.949 232.045 144.355 232.045V233.604C145.884 233.604 146.562 232.488 147.056 231.674C147.501 230.941 147.724 230.642 148.137 230.642C148.551 230.642 148.773 230.941 149.219 231.674C149.546 232.213 149.954 232.883 150.634 233.276L150.674 233.298L144.601 237.783L144.583 237.766C144.145 237.108 143.53 236.427 142.448 236.427C141.117 236.427 140.492 237.457 140.035 238.208C139.525 239.047 139.259 239.389 138.665 239.389C138.072 239.389 137.805 239.047 137.295 238.208C136.839 237.457 136.214 236.427 134.883 236.427C133.551 236.427 132.926 237.457 132.469 238.208C131.959 239.047 131.693 239.389 131.099 239.389V240.948C132.629 240.948 133.306 239.833 133.801 239.019C134.246 238.285 134.469 237.987 134.883 237.987C135.295 237.987 135.518 238.285 135.963 239.019C136.457 239.833 137.136 240.948 138.665 240.948C140.194 240.948 140.871 239.833 141.366 239.019C141.811 238.285 142.034 237.987 142.446 237.987C142.788 237.987 142.999 238.191 143.313 238.674L143.333 238.719L136.482 243.779L136.437 243.794C135.522 243.918 134.98 244.561 134.585 245.169L134.572 245.189L132.574 246.664L132.541 246.651C132.213 246.505 131.973 246.159 131.606 245.555C131.15 244.803 130.524 243.774 129.193 243.774C127.862 243.774 127.236 244.803 126.779 245.555C126.27 246.393 126.003 246.736 125.41 246.736C124.816 246.736 124.55 246.394 124.04 245.555C123.583 244.803 122.958 243.774 121.626 243.774C120.295 243.774 119.67 244.803 119.213 245.555C118.703 246.394 118.437 246.736 117.843 246.736V248.294C119.373 248.294 120.049 247.18 120.544 246.364C120.99 245.631 121.212 245.333 121.626 245.333C122.039 245.333 122.262 245.631 122.707 246.364C123.202 247.179 123.879 248.294 125.409 248.294C126.938 248.294 127.616 247.18 128.11 246.364C128.556 245.631 128.778 245.333 129.192 245.333C129.606 245.333 129.828 245.631 130.274 246.364C130.517 246.766 130.806 247.24 131.218 247.618L131.252 247.641L125.326 252.019L125.305 252.007C124.893 251.521 124.337 251.119 123.505 251.119C122.173 251.119 121.549 252.149 121.091 252.9C120.582 253.739 120.316 254.08 119.722 254.08C119.128 254.08 118.862 253.739 118.353 252.9C117.896 252.148 117.271 251.118 115.939 251.118C115.006 251.118 114.42 251.624 113.995 252.185C113.975 252.212 113.935 252.279 113.915 252.307L113.898 252.26C113.276 250.65 112.664 249.032 112.059 247.402L112.114 247.458C112.557 247.925 113.154 248.292 114.033 248.292V246.734C113.439 246.734 113.173 246.392 112.664 245.553C112.275 244.914 111.764 244.072 110.799 243.836L110.752 243.823C110.069 241.928 109.398 240.019 108.739 238.097L108.779 238.118C108.984 238.27 109.175 238.559 109.455 239.017C109.949 239.831 110.627 240.946 112.157 240.946C113.686 240.946 114.363 239.831 114.858 239.017C115.303 238.284 115.526 237.985 115.939 237.985C116.353 237.985 116.575 238.284 117.02 239.017C117.515 239.831 118.192 240.946 119.722 240.946C121.251 240.946 121.929 239.831 122.424 239.017C122.869 238.284 123.092 237.985 123.505 237.985C123.918 237.985 124.141 238.284 124.586 239.017C125.081 239.831 125.759 240.946 127.288 240.946V239.387C126.695 239.387 126.427 239.046 125.918 238.207C125.462 237.456 124.837 236.426 123.505 236.426C122.173 236.426 121.549 237.456 121.091 238.207C120.582 239.046 120.316 239.387 119.722 239.387C119.128 239.387 118.862 239.046 118.353 238.207C117.896 237.455 117.271 236.426 115.939 236.426C114.608 236.426 113.982 237.456 113.526 238.207C113.017 239.045 112.75 239.387 112.157 239.387C111.563 239.387 111.296 239.046 110.786 238.207C110.329 237.456 109.704 236.426 108.373 236.426C108.315 236.426 108.259 236.427 108.203 236.432L108.172 236.434C107.843 235.462 107.516 234.485 107.192 233.506L107.237 233.494C108.243 233.195 108.766 232.334 109.169 231.671C109.614 230.938 109.837 230.64 110.25 230.64C110.664 230.64 110.886 230.939 111.332 231.671C111.827 232.486 112.504 233.601 114.033 233.601V232.043C113.439 232.043 113.173 231.701 112.664 230.862C112.207 230.11 111.581 229.081 110.25 229.081C108.919 229.081 108.294 230.11 107.837 230.862C107.414 231.558 107.159 231.912 106.744 232.011L106.705 232.017C106.086 230.119 105.477 228.209 104.88 226.285L104.856 226.244C106.2 226.124 106.828 225.092 107.293 224.326C107.739 223.592 107.961 223.294 108.375 223.294C108.787 223.294 109.011 223.593 109.456 224.326C109.951 225.14 110.628 226.256 112.158 226.256C113.687 226.256 114.365 225.14 114.859 224.326C115.305 223.592 115.527 223.294 115.941 223.294C116.354 223.294 116.577 223.593 117.022 224.326C117.516 225.14 118.194 226.256 119.724 226.256C121.253 226.256 121.931 225.14 122.426 224.326C122.87 223.592 123.094 223.294 123.506 223.294C123.92 223.294 124.142 223.593 124.588 224.326C125.083 225.14 125.76 226.256 127.289 226.256V224.701C126.696 224.701 126.429 224.36 125.92 223.521C125.463 222.769 124.838 221.74 123.506 221.74C122.174 221.74 121.55 222.77 121.093 223.521C120.584 224.36 120.317 224.701 119.724 224.701C119.13 224.701 118.864 224.36 118.355 223.521C117.898 222.77 117.273 221.74 115.941 221.74C114.61 221.74 113.984 222.77 113.527 223.521C113.018 224.36 112.752 224.701 112.158 224.701C111.565 224.701 111.298 224.36 110.788 223.521C110.331 222.77 109.706 221.74 108.375 221.74C107.043 221.74 106.418 222.77 105.961 223.521C105.451 224.36 105.185 224.701 104.591 224.701V225.328L104.572 225.29Z" fill="white"/>
<path d="M246.414 162.542L234.202 159.608L234.134 159.586V144.536L234.18 144.533C235.168 144.468 236.081 144.379 236.959 144.244C237.706 144.13 237.282 145.577 237.885 146.2C238.486 146.822 238.928 147.394 238.597 147.882C237.945 148.836 237.329 149.133 236.542 149.133C235.755 149.133 235.246 149.711 235.246 150.023C235.246 150.333 235.662 150.2 236.866 150.2C238.07 150.2 239.134 150.112 239.782 149.044C240.349 148.112 240.881 147.519 240.912 146.908C240.916 146.82 241.011 146.732 241.212 146.85C241.529 147.038 242.056 147.309 242.653 147.444C243.624 147.668 244.051 148.163 244.051 149.051C244.051 149.94 244.087 150.244 243.393 150.244C242.699 150.244 242.466 150.466 242.466 150.776C242.466 151.088 243.161 151.266 244.04 151.221C244.921 151.176 245.799 150.866 245.846 149.755C245.892 148.644 246.077 147.176 245.289 146.732C244.503 146.288 243.809 145.888 244.04 144.511C244.272 143.133 244.272 142.244 244.272 142.244C244.272 142.244 245.167 143.281 246.324 144.57C247.481 145.858 248.462 147.222 250.545 147.622C252.627 148.022 253.804 147.246 254.311 146.713C254.82 146.179 254.501 145.356 253.297 145.444C252.094 145.533 250.057 145.711 248.807 144.334C247.557 142.957 246.409 141.088 243.726 140.155C241.041 139.221 238.997 139.129 236.679 139.179C235.758 139.198 234.938 139.232 234.166 139.273L234.133 139.276V122.448L234.166 122.443C235.16 122.38 236.077 122.29 236.958 122.155C237.705 122.041 237.282 123.488 237.884 124.11C238.485 124.733 238.927 125.304 238.596 125.792C237.944 126.747 237.328 127.043 236.542 127.043C235.754 127.043 235.245 127.621 235.245 127.932C235.245 128.243 235.661 128.11 236.866 128.11C238.069 128.11 239.134 128.021 239.781 126.954C240.348 126.021 240.88 125.429 240.911 124.818C240.915 124.731 241.01 124.642 241.211 124.761C241.529 124.949 242.055 125.219 242.652 125.355C243.623 125.578 244.05 126.074 244.05 126.963C244.05 127.852 244.086 128.155 243.392 128.155C242.698 128.155 242.466 128.378 242.466 128.689C242.466 129 243.16 129.178 244.039 129.134C244.92 129.089 245.799 128.778 245.845 127.667C245.892 126.556 246.076 125.09 245.289 124.645C244.502 124.202 243.808 123.801 244.039 122.423C244.271 121.045 244.271 120.157 244.271 120.157C244.271 120.157 245.166 121.193 246.323 122.482C247.48 123.77 248.461 125.134 250.544 125.534C252.627 125.934 253.803 125.158 254.31 124.625C254.819 124.092 254.5 123.268 253.296 123.357C252.093 123.446 250.056 123.623 248.807 122.246C247.556 120.87 246.408 119.001 243.725 118.067C241.04 117.133 238.997 117.042 236.679 117.091C235.761 117.111 234.947 117.144 234.178 117.185L234.132 117.189V110.821L234.164 110.814C239.629 109.496 243.93 105.194 245.246 99.7292L245.259 99.7012H250.97C251.297 99.7012 251.566 99.4332 251.566 99.1042V93.2833C251.566 92.9552 251.297 92.6871 250.97 92.6871H245.259L245.244 92.6474C243.924 87.1868 239.624 82.8907 234.163 81.574L234.132 81.5613V79.0445C234.132 78.7164 233.864 78.4483 233.536 78.4483H227.714C227.386 78.4483 227.118 78.7164 227.118 79.0445V81.5613L227.1 81.5723C221.637 82.8839 217.334 87.1783 216.01 92.6372L215.998 92.688H210.283C209.955 92.688 209.687 92.9561 209.687 93.2842V99.105C209.687 99.4332 209.955 99.7021 210.283 99.7021H215.998L216.011 99.7537C217.334 105.206 221.627 109.496 227.082 110.814L227.118 110.823V117.678L227.09 117.674C224.758 117.792 222.295 117.807 221.434 117.374C220.214 116.76 219.723 115.932 219.502 114.939C219.346 114.245 219.225 113.645 219.167 113.348C219.141 113.22 219.055 113.196 218.947 113.274C218.743 113.422 218.413 113.673 218.223 113.888C218.223 113.888 218.222 113.684 218.198 113.44C218.192 113.375 218.101 113.273 217.979 113.346C217.78 113.466 217.453 113.69 217.112 114.042C216.682 114.486 216.929 114.846 216.199 115.029C215.47 115.212 214.966 115.815 214.219 115.878C213.473 115.94 212.913 116.141 213.004 116.497C213.095 116.853 213.414 117.964 214.435 118.067C215.457 118.171 216.151 118.238 216.643 118.457C217.136 118.676 217.609 119.204 218.202 120.145C218.795 121.087 219.236 121.775 218.98 122.057C218.726 122.339 218.095 122.63 217.477 122.717C216.86 122.802 215.464 123.324 214.814 123.783C214.164 124.241 213.563 124.5 214.166 124.856C214.435 125.015 215.126 125.076 215.669 124.755C216.212 124.433 217.746 123.709 219.256 123.738C220.812 123.769 221.395 123.728 222.195 124.355C222.676 124.731 223.703 125.657 223.779 126.388C223.899 127.559 223.697 128.817 223.162 128.891C222.627 128.965 221.962 129.017 221.993 129.545C222.025 130.073 222.296 129.913 223.29 129.815C224.283 129.718 224.905 129.058 225.082 128.214C225.258 127.37 225.251 126.715 225.43 125.584C225.514 125.055 225.63 124.761 225.709 124.587C226.064 123.81 226.189 123.236 227.086 122.911L227.12 122.898V139.751L227.092 139.761C224.76 139.88 222.296 139.895 221.436 139.462C220.216 138.848 219.725 138.02 219.504 137.026C219.348 136.332 219.226 135.733 219.169 135.435C219.143 135.307 219.056 135.283 218.949 135.361C218.745 135.509 218.415 135.761 218.225 135.975C218.225 135.975 218.223 135.771 218.2 135.528C218.194 135.463 218.103 135.36 217.981 135.434C217.782 135.554 217.455 135.778 217.114 136.129C216.683 136.574 216.931 136.934 216.201 137.117C215.471 137.3 214.967 137.903 214.221 137.966C213.475 138.029 212.915 138.229 213.005 138.585C213.097 138.941 213.416 140.052 214.437 140.155C215.459 140.259 216.153 140.327 216.645 140.544C217.137 140.764 217.611 141.291 218.204 142.233C218.797 143.175 219.237 143.865 218.982 144.145C218.728 144.427 218.096 144.719 217.479 144.805C216.862 144.891 215.465 145.412 214.816 145.871C214.166 146.33 213.564 146.589 214.167 146.945C214.437 147.104 215.128 147.165 215.671 146.844C216.214 146.523 217.748 145.8 219.257 145.827C220.814 145.858 221.396 145.817 222.196 146.444C222.677 146.82 223.705 147.746 223.78 148.477C223.901 149.648 223.698 150.906 223.164 150.98C222.628 151.054 221.964 151.105 221.995 151.634C222.026 152.162 222.298 152.001 223.291 151.905C224.285 151.807 224.907 151.147 225.083 150.304C225.26 149.46 225.253 148.805 225.432 147.674C225.516 147.145 225.631 146.851 225.711 146.677C226.065 145.9 226.19 145.327 227.085 145.002L227.121 145V157.907L227.029 157.885L188.911 148.727C188.592 148.65 188.108 148.737 187.834 148.918L164.938 164.104C164.664 164.285 164.441 164.164 164.441 163.837V123.273C164.441 122.945 164.172 122.677 163.844 122.677H137.745C137.417 122.677 137.148 122.945 137.148 123.273V152.668C137.148 152.996 136.879 153.265 136.551 153.265H88.1154L88.1027 153.206C84.4011 130.042 81.7313 105.049 79.946 77.1527C97.4602 77.1527 307.905 77.1527 362.108 77.1527L362.04 77.2069L246.469 162.559L246.414 162.542Z" fill="white"/>
<path d="M37.578 177.892C37.3759 178.151 36.942 178.363 36.6139 178.363H28.163C27.8349 178.363 27.7325 178.151 27.9338 177.892L44.3925 156.818C44.5946 156.559 44.5946 156.136 44.3925 155.878L27.9338 134.802C27.7325 134.543 27.8349 134.332 28.163 134.332H36.6139C36.942 134.332 37.375 134.543 37.578 134.802L49.2155 149.704C49.4176 149.963 49.7474 149.963 49.9504 149.704L61.587 134.802C61.7891 134.543 62.223 134.332 62.5511 134.332H71.002C71.3301 134.332 71.4333 134.543 71.2312 134.802L54.7716 155.878C54.5695 156.136 54.5695 156.559 54.7716 156.818L71.2304 177.892C71.4325 178.151 71.3293 178.363 71.0012 178.363H62.5502C62.2221 178.363 61.7883 178.151 61.5862 177.892L49.9487 162.991C49.7466 162.733 49.4167 162.733 49.2138 162.991L37.578 177.892Z" fill="black"/>
<path d="M415.973 177.892C416.175 178.151 416.609 178.363 416.936 178.363H425.388C425.716 178.363 425.82 178.151 425.617 177.892L409.159 156.818C408.957 156.559 408.957 156.136 409.159 155.878L425.617 134.802C425.82 134.543 425.716 134.332 425.388 134.332H416.936C416.609 134.332 416.175 134.543 415.973 134.802L404.336 149.704C404.134 149.963 403.804 149.963 403.601 149.704L391.964 134.802C391.763 134.543 391.329 134.332 391.001 134.332H382.549C382.221 134.332 382.119 134.543 382.32 134.802L398.779 155.878C398.981 156.136 398.981 156.559 398.779 156.818L382.32 177.892C382.119 178.151 382.221 178.363 382.549 178.363H391.001C391.329 178.363 391.762 178.151 391.964 177.892L403.602 162.991C403.804 162.733 404.134 162.733 404.336 162.991L415.973 177.892Z" fill="black"/>
<path d="M114.231 143.002C108.61 143.002 103.786 145.783 101.725 149.745H126.738C124.678 145.783 119.854 143.002 114.231 143.002Z" fill="black"/>
<path d="M219.308 182.616L196.344 199.575L196.345 199.538C196.695 195.944 197.426 191.029 198.943 187.13C201.094 181.598 205.348 174.687 210.178 174.694C213.722 174.688 216.957 178.409 219.278 182.577L219.308 182.616Z" fill="white"/>
<path d="M120.514 268.17L373.251 81.5199L373.321 81.4615C370.316 125.649 365.022 162.537 356.839 196.534C345.657 242.988 329.39 282.171 307.11 316.324C282.746 353.67 251.144 387.009 226.776 410.146C202.408 387.009 170.806 353.67 146.443 316.324C136.653 301.316 128.023 285.338 120.476 268.196L120.514 268.17Z" fill="white"/>
<path d="M208.211 391.842C214.681 398.473 220.936 404.602 226.776 410.146C232.03 405.158 237.622 399.694 243.404 393.817L243.422 393.802V177.412L243.399 177.419L208.211 203.405L208.193 203.422V391.817L208.211 391.842Z" fill="#EE2523"/>
<path d="M275.492 358.625V153.718L275.515 153.699L310.697 127.717L310.722 127.709V310.661L310.704 310.685C309.523 312.58 308.325 314.459 307.109 316.324C297.417 331.179 286.58 345.402 275.508 358.599L275.492 358.625Z" fill="#EE2523"/>
<path d="M140.923 307.559C142.72 310.518 144.56 313.439 146.442 316.324C155.564 330.307 165.7 343.727 176.092 356.261L176.122 356.298V227.105L176.089 227.127L140.916 253.104L140.892 253.127V307.492L140.923 307.559Z" fill="#EE2523"/>
<path d="M342.793 243.86V104.025L342.812 104L373.25 81.5199L373.32 81.4615C370.315 125.649 365.021 162.537 356.839 196.534C352.827 213.2 348.16 228.929 342.798 243.826L342.793 243.86Z" fill="#EE2523"/>
<path d="M151.415 91.9641L164.173 117.466C164.32 117.759 164.171 117.999 163.843 117.999H137.744C137.416 117.999 137.268 117.759 137.415 117.466L150.168 91.9734L150.21 91.8846V86.8925L150.188 86.8671C149.395 86.0544 148.82 83.8743 148.82 82.9956C148.82 81.9047 149.704 81.0209 150.794 81.0209C151.884 81.0209 152.768 81.9047 152.768 82.9956C152.768 83.8768 152.19 86.0654 151.394 86.873L151.378 86.8917V91.9091L151.415 91.9641Z" fill="black"/>
<path d="M147.601 208.83C147.092 209.668 146.825 210.011 146.232 210.011C145.638 210.011 145.372 209.669 144.862 208.83C144.405 208.078 143.78 207.048 142.448 207.048C141.117 207.048 140.492 208.078 140.035 208.83C139.525 209.669 139.259 210.011 138.665 210.011C138.072 210.011 137.805 209.669 137.295 208.83C136.839 208.078 136.214 207.048 134.883 207.048C133.551 207.048 132.926 208.078 132.469 208.829C131.959 209.668 131.693 210.01 131.099 210.01V211.569C132.629 211.569 133.306 210.453 133.801 209.639C134.246 208.905 134.469 208.607 134.883 208.607C135.295 208.607 135.518 208.905 135.963 209.639C136.457 210.453 137.136 211.569 138.665 211.569C140.193 211.569 140.871 210.453 141.366 209.639C141.811 208.905 142.034 208.607 142.446 208.607C142.86 208.607 143.082 208.905 143.528 209.639C144.023 210.453 144.7 211.569 146.23 211.569C147.759 211.569 148.436 210.453 148.931 209.639C149.377 208.905 149.599 208.607 150.013 208.607C150.426 208.607 150.649 208.905 151.094 209.639C151.588 210.453 152.266 211.569 153.795 211.569V210.01C153.201 210.01 152.935 209.668 152.425 208.829C151.969 208.078 151.344 207.048 150.012 207.048C148.683 207.048 148.058 208.078 147.601 208.83Z" fill="black"/>
<path d="M121.094 208.83C120.585 209.668 120.318 210.011 119.724 210.011C119.131 210.011 118.864 209.669 118.355 208.83C117.899 208.078 117.274 207.048 115.942 207.048C114.611 207.048 113.985 208.078 113.528 208.83C113.019 209.669 112.753 210.011 112.159 210.011C111.565 210.011 111.299 209.669 110.789 208.83C110.331 208.078 109.707 207.048 108.375 207.048C107.044 207.048 106.418 208.078 105.962 208.829C105.452 209.668 105.185 210.01 104.592 210.01V211.569C106.122 211.569 106.798 210.453 107.293 209.639C107.739 208.905 107.961 208.607 108.375 208.607C108.787 208.607 109.011 208.905 109.456 209.639C109.951 210.453 110.628 211.569 112.158 211.569C113.687 211.569 114.365 210.453 114.859 209.639C115.305 208.905 115.527 208.607 115.941 208.607C116.354 208.607 116.577 208.905 117.022 209.639C117.516 210.453 118.194 211.569 119.724 211.569C121.253 211.569 121.931 210.453 122.426 209.639C122.87 208.905 123.094 208.607 123.506 208.607C123.92 208.607 124.142 208.905 124.588 209.639C125.083 210.453 125.76 211.569 127.289 211.569V210.01C126.696 210.01 126.429 209.668 125.92 208.829C125.463 208.078 124.838 207.048 123.506 207.048C122.175 207.048 121.55 208.078 121.094 208.83Z" fill="black"/>
<path d="M182.946 201.484C182.436 202.323 182.171 202.664 181.576 202.664C180.983 202.664 180.716 202.323 180.207 201.484C179.75 200.732 179.125 199.703 177.794 199.703C176.462 199.703 175.837 200.732 175.38 201.484C174.871 202.322 174.604 202.664 174.011 202.664C173.417 202.664 173.151 202.323 172.641 201.484C172.184 200.732 171.559 199.704 170.227 199.704C168.896 199.704 168.271 200.733 167.814 201.484C167.304 202.323 167.037 202.664 166.444 202.664V204.223C167.973 204.223 168.651 203.107 169.146 202.293C169.591 201.559 169.815 201.261 170.227 201.261C170.641 201.261 170.864 201.56 171.309 202.293C171.804 203.107 172.481 204.223 174.011 204.223C175.54 204.223 176.217 203.107 176.712 202.293C177.158 201.559 177.38 201.261 177.794 201.261C178.207 201.261 178.43 201.56 178.874 202.293C179.369 203.107 180.046 204.223 181.575 204.223C183.105 204.223 183.783 203.107 184.277 202.293C184.723 201.559 184.946 201.261 185.359 201.261C185.773 201.261 185.994 201.56 186.441 202.293C186.935 203.107 187.613 204.223 189.142 204.223V202.664C188.548 202.664 188.282 202.323 187.772 201.484C187.315 200.732 186.689 199.704 185.358 199.704C184.029 199.704 183.403 200.732 182.946 201.484Z" fill="black"/>
<path d="M147.601 223.521C147.092 224.359 146.825 224.701 146.232 224.701C145.638 224.701 145.372 224.359 144.862 223.521C144.405 222.77 143.78 221.74 142.448 221.74C141.117 221.74 140.492 222.77 140.035 223.521C139.525 224.36 139.259 224.701 138.665 224.701C138.072 224.701 137.805 224.359 137.295 223.521C136.839 222.77 136.214 221.74 134.883 221.74C133.551 221.74 132.926 222.77 132.469 223.521C131.959 224.36 131.693 224.701 131.099 224.701V226.26C132.629 226.26 133.306 225.144 133.801 224.33C134.246 223.597 134.469 223.298 134.883 223.298C135.295 223.298 135.518 223.598 135.963 224.33C136.457 225.144 137.136 226.26 138.665 226.26C140.193 226.26 140.871 225.144 141.366 224.33C141.811 223.597 142.034 223.298 142.446 223.298C142.86 223.298 143.082 223.598 143.528 224.33C144.023 225.144 144.7 226.26 146.23 226.26C147.759 226.26 148.436 225.144 148.931 224.33C149.377 223.597 149.599 223.298 150.013 223.298C150.426 223.298 150.649 223.598 151.094 224.33C151.588 225.144 152.266 226.26 153.795 226.26V224.701C153.201 224.701 152.935 224.36 152.425 223.521C151.969 222.769 151.344 221.74 150.012 221.74C148.683 221.74 148.058 222.77 147.601 223.521Z" fill="black"/>
<path d="M134.347 216.176C133.838 217.014 133.572 217.356 132.978 217.356C132.384 217.356 132.118 217.014 131.609 216.176C131.152 215.424 130.526 214.394 129.195 214.394C127.864 214.394 127.238 215.424 126.782 216.176C126.273 217.015 126.005 217.356 125.413 217.356C124.819 217.356 124.553 217.014 124.043 216.176C123.586 215.424 122.961 214.394 121.629 214.394C120.297 214.394 119.673 215.424 119.215 216.175C118.705 217.014 118.439 217.356 117.845 217.356V218.914C119.375 218.914 120.052 217.799 120.547 216.984C120.992 216.251 121.215 215.952 121.628 215.952C122.042 215.952 122.264 216.251 122.71 216.984C123.205 217.799 123.882 218.914 125.412 218.914C126.941 218.914 127.618 217.799 128.113 216.984C128.559 216.251 128.781 215.952 129.195 215.952C129.608 215.952 129.83 216.251 130.276 216.984C130.771 217.799 131.448 218.914 132.977 218.914C134.506 218.914 135.184 217.799 135.679 216.984C136.124 216.251 136.347 215.952 136.761 215.952C137.174 215.952 137.396 216.251 137.842 216.984C138.336 217.799 139.014 218.914 140.543 218.914V217.356C139.949 217.356 139.683 217.014 139.174 216.175C138.717 215.423 138.091 214.394 136.76 214.394C135.43 214.394 134.804 215.424 134.347 216.176Z" fill="black"/>
<path d="M160.856 216.176C160.346 217.014 160.08 217.356 159.486 217.356C158.892 217.356 158.626 217.014 158.117 216.176C157.66 215.424 157.034 214.394 155.703 214.394C154.371 214.394 153.746 215.424 153.29 216.176C152.781 217.015 152.514 217.356 151.921 217.356C151.327 217.356 151.061 217.014 150.551 216.176C150.094 215.424 149.469 214.394 148.138 214.394C146.807 214.394 146.181 215.424 145.724 216.175C145.215 217.014 144.949 217.356 144.355 217.356V218.914C145.884 218.914 146.561 217.799 147.056 216.984C147.501 216.251 147.724 215.952 148.137 215.952C148.551 215.952 148.773 216.251 149.219 216.984C149.713 217.799 150.391 218.914 151.92 218.914C153.45 218.914 154.127 217.799 154.622 216.984C155.067 216.251 155.29 215.952 155.703 215.952C156.116 215.952 156.338 216.251 156.784 216.984C157.279 217.799 157.956 218.914 159.485 218.914C161.015 218.914 161.693 217.799 162.186 216.984C162.632 216.251 162.854 215.952 163.268 215.952C163.682 215.952 163.904 216.251 164.35 216.984C164.844 217.799 165.522 218.914 167.052 218.914V217.356C166.458 217.356 166.192 217.014 165.682 216.175C165.225 215.423 164.6 214.394 163.268 214.394C161.939 214.394 161.313 215.424 160.856 216.176Z" fill="black"/>
<path d="M134.347 230.867C133.838 231.706 133.572 232.048 132.978 232.048C132.384 232.048 132.118 231.706 131.609 230.868C131.152 230.116 130.526 229.087 129.195 229.087C127.864 229.087 127.238 230.116 126.782 230.868C126.273 231.706 126.005 232.048 125.413 232.048C124.819 232.048 124.553 231.706 124.043 230.867C123.586 230.115 122.961 229.086 121.629 229.086C120.297 229.086 119.673 230.115 119.215 230.867C118.705 231.706 118.439 232.048 117.845 232.048V233.606C119.375 233.606 120.052 232.491 120.547 231.676C120.992 230.943 121.215 230.645 121.628 230.645C122.042 230.645 122.264 230.944 122.71 231.676C123.205 232.491 123.882 233.606 125.412 233.606C126.941 233.606 127.618 232.491 128.113 231.676C128.559 230.943 128.781 230.645 129.195 230.645C129.608 230.645 129.83 230.944 130.276 231.676C130.771 232.491 131.448 233.606 132.977 233.606C134.506 233.606 135.184 232.491 135.679 231.676C136.124 230.943 136.347 230.645 136.761 230.645C137.174 230.645 137.396 230.944 137.842 231.676C138.336 232.491 139.014 233.606 140.543 233.606V232.048C139.949 232.048 139.683 231.706 139.174 230.867C138.717 230.115 138.091 229.086 136.76 229.086C135.43 229.086 134.804 230.115 134.347 230.867Z" fill="black"/>
<path d="M114.646 254.179C115.229 255.665 115.819 257.142 116.417 258.611L116.457 258.573L120.621 255.498L120.545 255.52C120.301 255.598 120.03 255.643 119.725 255.643C118.195 255.643 117.517 254.528 117.023 253.713C116.578 252.98 116.354 252.682 115.942 252.682C115.528 252.682 115.306 252.98 114.86 253.713C114.785 253.838 114.705 253.969 114.618 254.102L114.646 254.179Z" fill="white"/>
<path d="M121.812 254.618L124.068 252.952L124.028 252.914C123.868 252.753 123.71 252.681 123.506 252.681C123.094 252.681 122.87 252.979 122.426 253.712C122.267 253.973 122.09 254.265 121.871 254.541L121.812 254.618Z" fill="white"/>
<path d="M300.51 382.906C299.852 369.911 304.4 363.741 307.745 361.653C311.095 359.564 315.969 359.86 316.63 372.851C317.291 385.841 312.745 392.012 309.396 394.1C306.05 396.19 301.173 395.897 300.51 382.906ZM294.313 386.772C295.42 408.556 305.889 404.76 309.815 402.312C313.74 399.86 323.938 390.768 322.832 368.981C321.722 347.198 311.256 350.994 307.329 353.446C303.401 355.893 293.203 364.99 294.313 386.772Z" fill="black"/>
<path d="M147.417 384.417L155.892 393.603C158.289 396.198 160.684 400.373 160.684 404.514C160.684 409.312 158.821 409.392 155.584 405.882L147.418 397.032V384.417H147.417ZM141.026 398.255L154.519 412.876C161.04 419.945 162.771 420.18 164.59 419.521C166.278 418.918 167.343 416.525 167.343 412.779C167.343 408.113 166.323 402.406 162.418 396.005C163.748 396.464 166.323 397.346 166.323 390.58C166.323 385.715 164.326 376.324 156.515 367.86L141.026 351.076V398.255H141.026ZM147.417 366.15L155.049 374.421C158.066 377.691 159.93 380.893 159.93 384.769C159.93 388.517 157.845 387.766 155.226 384.929L147.416 376.464L147.417 366.15Z" fill="black"/>
<path d="M181.515 443.318L174.557 436.397V389.215L181.515 396.137V443.318Z" fill="black"/>
<path d="M204.088 456.246L219.992 470.935L219.983 479.465L196.881 458.132V410.951L204.088 417.609V456.246Z" fill="black"/>
<path d="M237.166 456.258L245.726 448.743C248.145 446.62 250.566 446.032 250.566 450.069C250.566 454.743 248.683 458.446 245.411 461.318L237.166 468.56V456.258ZM230.71 482.168L244.336 470.205C250.925 464.423 252.67 461.286 254.508 457.112C256.214 453.246 257.288 448.843 257.288 445.192C257.288 440.642 256.257 437.065 252.314 438.412C253.657 436.272 256.257 432.133 256.257 425.533C256.257 420.794 254.241 415.519 246.352 422.443L230.709 436.172V482.168H230.71ZM237.166 438.451L244.873 431.685C247.92 429.009 249.802 428.511 249.802 432.287C249.802 435.939 247.697 439.263 245.052 441.583L237.166 448.51V438.451Z" fill="black"/>
<path d="M279.012 400.503L279.107 400.414L283.427 415.179L274.543 423.192L279.012 400.503ZM272.601 433.09L285.47 421.49L287.703 429.201L294.715 422.882L282.607 386.618L274.932 393.535L262.498 451.921L270.173 445.006L272.601 433.09Z" fill="black"/>
<path d="M48.5305 23.0322C48.4197 23.0322 48.3191 23.0974 48.2726 23.1988L34.7991 53.0076C34.7594 53.0955 34.7678 53.1962 34.8186 53.2773C34.871 53.3577 34.9598 53.4067 35.0562 53.4067H39.7464C39.858 53.4067 39.9587 53.3416 40.0043 53.2401C40.0043 53.2401 44.1964 43.8911 44.341 43.568C44.6928 43.568 56.9299 43.568 57.2859 43.568C57.4288 43.8978 61.4653 53.2359 61.4653 53.2359C61.5101 53.3399 61.6116 53.4067 61.7249 53.4067H66.5732C66.6688 53.4067 66.7584 53.3585 66.81 53.2782C66.8624 53.1978 66.8701 53.0964 66.8312 53.0084L53.559 23.1997C53.5133 23.0974 53.4118 23.0322 53.3002 23.0322H48.5305ZM50.8367 29.3115C51.2782 30.2882 54.7742 38.0195 55.0888 38.7155C54.3311 38.7155 47.3423 38.7155 46.5854 38.7155C46.8992 38.0195 50.3953 30.2882 50.8367 29.3115Z" fill="black"/>
<path d="M68.5885 23.0322C68.432 23.0322 68.3052 23.1583 68.3052 23.3147V27.6006C68.3052 27.7571 68.432 27.8831 68.5885 27.8831C68.5885 27.8831 78.2234 27.8831 78.7579 27.8831C78.7579 28.4362 78.7579 53.1226 78.7579 53.1226C78.7579 53.279 78.8847 53.405 79.0412 53.405H83.3271C83.4836 53.405 83.6096 53.2782 83.6096 53.1226C83.6096 53.1226 83.6096 28.4362 83.6096 27.8831C84.1457 27.8831 93.7798 27.8831 93.7798 27.8831C93.9354 27.8831 94.0614 27.7562 94.0614 27.6006V23.3147C94.0614 23.1583 93.9354 23.0322 93.7798 23.0322H68.5885Z" fill="black"/>
<path d="M122.947 23.0322C122.79 23.0322 122.664 23.1583 122.664 23.3147C122.664 23.3147 122.664 34.5226 122.664 35.063C122.125 35.063 106.282 35.063 105.745 35.063C105.745 34.5234 105.745 23.3147 105.745 23.3147C105.745 23.1583 105.618 23.0322 105.461 23.0322H101.175C101.019 23.0322 100.893 23.1583 100.893 23.3147V53.1226C100.893 53.279 101.019 53.405 101.175 53.405H105.461C105.618 53.405 105.745 53.2782 105.745 53.1226C105.745 53.1226 105.745 40.4559 105.745 39.9138C106.282 39.9138 122.125 39.9138 122.664 39.9138C122.664 40.4559 122.664 53.1226 122.664 53.1226C122.664 53.279 122.79 53.405 122.947 53.405H127.233C127.389 53.405 127.515 53.2782 127.515 53.1226V23.3147C127.515 23.1583 127.388 23.0322 127.233 23.0322H122.947Z" fill="black"/>
<path d="M138.314 23.0322C138.156 23.0322 138.03 23.1583 138.03 23.3147V53.1226C138.03 53.279 138.156 53.405 138.314 53.405H160.683C160.839 53.405 160.965 53.2782 160.965 53.1226V48.8366C160.965 48.6802 160.839 48.5542 160.683 48.5542C160.683 48.5542 143.43 48.5542 142.882 48.5542C142.882 48.0011 142.882 23.3147 142.882 23.3147C142.882 23.1583 142.756 23.0322 142.6 23.0322H138.314Z" fill="black"/>
<path d="M165.558 23.0322C165.402 23.0322 165.275 23.1583 165.275 23.3147V53.1226C165.275 53.279 165.402 53.405 165.558 53.405H190.71C190.866 53.405 190.992 53.2782 190.992 53.1226V48.8366C190.992 48.6802 190.866 48.5542 190.71 48.5542C190.71 48.5542 170.677 48.5542 170.127 48.5542C170.127 48.04 170.127 40.5252 170.127 40.0111C170.662 40.0111 179.98 40.0111 179.98 40.0111C180.136 40.0111 180.262 39.8842 180.262 39.7286V35.4427C180.262 35.2862 180.136 35.1602 179.98 35.1602C179.98 35.1602 170.662 35.1602 170.127 35.1602C170.127 34.6545 170.127 28.3897 170.127 27.8839C170.677 27.8839 189.955 27.8839 189.955 27.8839C190.112 27.8839 190.238 27.7571 190.238 27.6015V23.3156C190.238 23.1591 190.112 23.0331 189.955 23.0331L165.558 23.0322Z" fill="black"/>
<path d="M195.411 23.0322C195.255 23.0322 195.128 23.1583 195.128 23.3147V27.6006C195.128 27.7571 195.255 27.8831 195.411 27.8831C195.411 27.8831 205.046 27.8831 205.581 27.8831C205.581 28.4362 205.581 53.1226 205.581 53.1226C205.581 53.279 205.708 53.405 205.864 53.405H210.149C210.306 53.405 210.432 53.2782 210.432 53.1226C210.432 53.1226 210.432 28.4362 210.432 27.8831C210.967 27.8831 220.602 27.8831 220.602 27.8831C220.759 27.8831 220.885 27.7562 220.885 27.6006V23.3147C220.885 23.1583 220.759 23.0322 220.602 23.0322H195.411Z" fill="black"/>
<path d="M227.462 23.0322C227.305 23.0322 227.18 23.1583 227.18 23.3147V53.1226C227.18 53.279 227.306 53.405 227.462 53.405H231.748C231.905 53.405 232.03 53.2782 232.03 53.1226V23.3147C232.03 23.1583 231.904 23.0322 231.748 23.0322H227.462Z" fill="black"/>
<path d="M248.84 23.6538C246.908 24.4851 245.207 25.6353 243.783 27.0721C242.36 28.5098 241.231 30.2248 240.428 32.1699C239.623 34.115 239.216 36.2309 239.216 38.4567C239.216 40.768 239.665 42.9067 240.551 44.8154C241.436 46.7216 242.633 48.3758 244.111 49.7322C245.587 51.0887 247.308 52.1568 249.226 52.9069C251.145 53.6579 253.153 54.0393 255.191 54.0393C257.345 54.0393 259.229 53.8702 260.794 53.537C262.358 53.2029 263.743 52.7488 264.912 52.1856C266.082 51.6215 267.106 50.9669 267.954 50.2413C268.796 49.52 269.586 48.7639 270.302 47.9944C270.402 47.8861 270.403 47.7187 270.302 47.6096L267.44 44.5101C267.387 44.4526 267.305 44.4298 267.228 44.4289C267.15 44.4281 267.067 44.4687 267.012 44.5245L265.671 45.9038C265.095 46.429 264.357 46.9364 263.481 47.4142C262.601 47.892 261.55 48.3132 260.358 48.6624C259.17 49.0109 257.779 49.1876 256.223 49.1876C254.23 49.1876 252.454 48.8671 250.949 48.2354C249.439 47.6036 248.159 46.7681 247.144 45.7516C246.129 44.7368 245.355 43.5773 244.84 42.3071C244.327 41.0352 244.067 39.7388 244.067 38.4567C244.067 36.652 244.392 35.0342 245.034 33.6464C245.677 32.2578 246.53 31.0781 247.571 30.1402C248.611 29.2015 249.805 28.4776 251.115 27.9888C252.43 27.4992 253.787 27.2505 255.15 27.2505C256.65 27.2505 258.022 27.4332 259.221 27.7952C260.434 28.1605 261.514 28.5884 262.432 29.0662C263.349 29.544 264.129 30.0421 264.749 30.5462L266.224 31.7225C266.33 31.8071 266.478 31.8012 266.58 31.7141L269.801 28.9715C269.863 28.9182 269.901 28.843 269.903 28.7609C269.903 28.6789 269.871 28.6028 269.81 28.5487L268.072 27.0129C267.279 26.327 266.253 25.6353 265.024 24.9545C263.793 24.2737 262.338 23.6707 260.7 23.1659C259.048 22.6568 257.168 22.3988 255.111 22.3988C252.884 22.3988 250.774 22.8208 248.84 23.6538Z" fill="black"/>
<path d="M297.883 23.6538C295.951 24.4851 294.25 25.6353 292.827 27.0721C291.404 28.5098 290.274 30.2248 289.471 32.1699C288.666 34.115 288.259 36.2309 288.259 38.4567C288.259 40.768 288.708 42.9067 289.594 44.8154C290.479 46.7216 291.676 48.3758 293.153 49.7322C294.631 51.0887 296.351 52.1568 298.269 52.9069C300.188 53.6579 302.196 54.0393 304.234 54.0393C306.388 54.0393 308.273 53.8702 309.837 53.537C311.401 53.2029 312.786 52.7488 313.955 52.1856C315.125 51.6215 316.149 50.9669 316.998 50.2413C317.838 49.52 318.629 48.7639 319.344 47.9944C319.446 47.8861 319.446 47.7187 319.346 47.6096L316.483 44.5101C316.431 44.4526 316.349 44.4298 316.271 44.4289C316.193 44.4281 316.11 44.4687 316.056 44.5245L314.714 45.9038C314.137 46.429 313.4 46.9364 312.524 47.4142C311.644 47.892 310.593 48.3132 309.4 48.6624C308.213 49.0109 306.822 49.1876 305.266 49.1876C303.272 49.1876 301.497 48.8671 299.992 48.2354C298.482 47.6036 297.202 46.7681 296.187 45.7516C295.172 44.7368 294.397 43.5773 293.884 42.3071C293.371 41.0352 293.11 39.7388 293.11 38.4567C293.11 36.652 293.435 35.0342 294.077 33.6464C294.721 32.2578 295.574 31.0781 296.613 30.1402C297.654 29.2015 298.848 28.4776 300.159 27.9888C301.472 27.4992 302.83 27.2505 304.194 27.2505C305.695 27.2505 307.065 27.4332 308.265 27.7952C309.478 28.1605 310.559 28.5884 311.475 29.0662C312.394 29.544 313.173 30.0421 313.792 30.5462L315.269 31.7225C315.375 31.8071 315.522 31.8012 315.624 31.7141L318.845 28.9715C318.906 28.9182 318.946 28.843 318.946 28.7609C318.947 28.6789 318.915 28.6028 318.854 28.5487L317.117 27.0129C316.324 26.327 315.298 25.6353 314.069 24.9545C312.837 24.2737 311.381 23.6707 309.743 23.1659C308.092 22.6568 306.212 22.3988 304.155 22.3988C301.927 22.3988 299.817 22.8208 297.883 23.6538Z" fill="black"/>
<path d="M326.938 23.0322C326.78 23.0322 326.655 23.1583 326.655 23.3147V53.1226C326.655 53.279 326.78 53.405 326.938 53.405H349.307C349.464 53.405 349.589 53.2782 349.589 53.1226V48.8366C349.589 48.6802 349.464 48.5542 349.307 48.5542C349.307 48.5542 332.054 48.5542 331.506 48.5542C331.506 48.0011 331.506 23.3147 331.506 23.3147C331.506 23.1583 331.38 23.0322 331.223 23.0322H326.938Z" fill="black"/>
<path d="M376.879 23.0322C376.722 23.0322 376.596 23.1583 376.596 23.3147V41.8775C376.596 42.9312 376.466 43.9215 376.209 44.8213C375.958 45.6983 375.515 46.4662 374.887 47.1055C374.258 47.7466 373.391 48.2574 372.311 48.6261C371.22 48.9982 369.798 49.1868 368.087 49.1868C366.375 49.1868 364.954 48.9982 363.862 48.6261C362.782 48.2574 361.915 47.7466 361.287 47.1055C360.659 46.467 360.216 45.6983 359.965 44.8213C359.709 43.9232 359.579 42.9329 359.579 41.8775V23.3147C359.579 23.1583 359.453 23.0322 359.296 23.0322H355.009C354.853 23.0322 354.728 23.1583 354.728 23.3147V41.8733C354.728 43.2957 354.897 44.7418 355.233 46.171C355.572 47.6265 356.24 48.9559 357.218 50.1229C358.198 51.2925 359.579 52.249 361.323 52.9644C363.06 53.6773 365.335 54.0393 368.089 54.0393C370.842 54.0393 373.117 53.6773 374.854 52.9644C376.598 52.249 377.977 51.2925 378.959 50.1229C379.936 48.9559 380.605 47.6265 380.945 46.171C381.28 44.7385 381.45 43.2923 381.45 41.8733V23.3147C381.45 23.1583 381.324 23.0322 381.167 23.0322H376.879Z" fill="black"/>
<path d="M391.321 23.0323C391.164 23.0323 391.038 23.1583 391.038 23.3147V53.1226C391.038 53.279 391.164 53.405 391.321 53.405H408.327C409.777 53.405 411.155 53.2131 412.421 52.8359C413.695 52.4562 414.815 51.8845 415.754 51.1352C416.697 50.3826 417.446 49.4396 417.978 48.3326C418.511 47.2239 418.781 45.9182 418.781 44.4501C418.781 43.4953 418.642 42.6023 418.369 41.7938C418.097 40.9904 417.746 40.2707 417.324 39.6559C416.901 39.0411 416.437 38.5142 415.945 38.0905C415.561 37.759 415.201 37.5552 414.844 37.3624C415.098 37.0926 415.5 36.6647 415.5 36.6647C415.829 36.296 416.137 35.8579 416.414 35.364C416.689 34.8718 416.92 34.2968 417.099 33.6541C417.278 33.0096 417.369 32.2561 417.369 31.4147C417.369 29.9745 417.105 28.7093 416.583 27.6565C416.065 26.6061 415.377 25.7266 414.542 25.0416C413.709 24.3591 412.739 23.8475 411.661 23.5202C410.59 23.1955 409.473 23.0314 408.338 23.0314H391.321V23.0323ZM408.343 27.884C409.774 27.884 410.841 28.1994 411.514 28.8218C412.19 29.4476 412.518 30.2958 412.518 31.4147C412.518 32.6841 412.169 33.6938 411.48 34.4177C410.797 35.1365 409.741 35.501 408.343 35.501C408.343 35.501 396.43 35.501 395.889 35.501C395.889 34.9928 395.889 28.3922 395.889 27.884C396.43 27.884 408.343 27.884 408.343 27.884ZM408.33 40.3519C409.411 40.3519 410.327 40.4559 411.056 40.6606C411.77 40.8618 412.352 41.1392 412.784 41.486C413.209 41.8259 413.498 42.2335 413.668 42.7316C413.842 43.245 413.931 43.8243 413.931 44.4535C413.931 45.8091 413.499 46.8045 412.609 47.4988C411.71 48.199 410.271 48.555 408.33 48.555C408.33 48.555 396.431 48.555 395.89 48.555C395.89 48.0434 395.89 40.8652 395.89 40.3527C396.43 40.3519 408.33 40.3519 408.33 40.3519Z" fill="black"/>
</g>
<defs>
<clipPath id="clip0_2003_92">
<rect width="453.552" height="512" fill="white"/>
</clipPath>
</defs>
</svg>
