<svg width="399" height="512" viewBox="0 0 399 512" fill="none" xmlns="http://www.w3.org/2000/svg">
<g clip-path="url(#clip0_2015_79)">
<mask id="mask0_2015_79" style="mask-type:luminance" maskUnits="userSpaceOnUse" x="-1" y="0" width="400" height="512">
<path d="M398.779 0H-0.0726318V512H398.779V0Z" fill="white"/>
</mask>
<g mask="url(#mask0_2015_79)">
<path d="M398.634 0H-0.0726318L0.0726164 327.026C0.0726164 337.412 2.46921 347.724 7.04453 357.093C11.6199 366.461 18.3013 374.595 26.5804 380.986L27.1614 381.422L199.426 512L371.69 381.204C380.042 374.813 386.869 366.607 391.517 357.165C396.237 347.724 398.634 337.339 398.706 326.809L398.634 0Z" fill="white"/>
<path d="M298.703 101.311L254.33 146.701V456.443L298.703 422.745V101.311Z" fill="#E8151E"/>
<path d="M343.149 389.047L364.5 372.852C378.444 362.249 387.522 346.562 387.522 329.06L387.377 10.4579L343.149 55.7027V389.047Z" fill="#E8151E"/>
<path d="M121.791 439.303V282.508L77.4173 327.971V405.678L121.791 439.303Z" fill="#E8151E"/>
<path d="M210.392 489.85V191.8L166.019 237.263V472.856L199.426 498.201L210.392 489.85Z" fill="#E8151E"/>
<path d="M398.634 0H-0.0726318L0.0726164 327.026C0.0726164 337.266 2.39659 347.361 6.82666 356.584C11.2567 365.808 17.7203 373.942 25.7816 380.26C25.9994 380.478 26.2899 380.696 26.5078 380.841L27.0888 381.277L199.426 512L371.69 381.277C380.042 374.886 386.869 366.679 391.517 357.238C396.237 347.797 398.634 337.412 398.706 326.881L398.634 0ZM258.106 57.7362L57.8088 262.972L57.7362 57.8814L258.106 57.7362ZM364.5 371.69L199.426 496.967L34.9322 372.344L386.651 12.1282L386.796 326.881C386.796 335.596 384.763 344.093 380.913 351.864C376.992 359.635 371.4 366.461 364.5 371.69Z" fill="#282A6F"/>
<path d="M24.3291 23.8207L28.8318 10.0221L33.3345 23.8207H47.8593L36.0942 32.3903L40.5969 46.2616L28.8318 37.6919L17.0667 46.1889L21.5694 32.3177L9.80426 23.8207H24.3291Z" fill="white"/>
<path d="M169.287 23.7481L173.789 9.87688L178.292 23.7481H192.817L181.052 32.3177L185.555 46.1163L173.789 37.5467L162.024 46.1163L166.527 32.2451L154.762 23.6755L169.287 23.7481Z" fill="white"/>
<path d="M24.4743 315.77L28.977 301.898L33.4797 315.77H48.0046L36.2395 324.339L40.7421 338.138L28.977 329.568L17.2119 338.138L21.7146 324.267L9.94952 315.697L24.4743 315.77Z" fill="white"/>
<path d="M24.4017 170.158L28.9044 156.287L33.4071 170.158H47.9319L36.1668 178.728L40.6695 192.599L28.9044 184.03L17.1393 192.599L21.642 178.728L9.87689 170.158H24.4017Z" fill="white"/>
<path d="M125.858 222.883L130.36 209.012L134.863 222.811H149.388L137.623 231.38L142.125 245.252L130.36 236.682L118.595 245.252L123.098 231.453L111.333 222.883H125.858Z" fill="white"/>
<path d="M223.319 125.204L227.822 111.333L232.325 125.204H246.849L235.084 133.774L239.587 147.645L227.822 139.075L216.057 147.645L220.559 133.774L208.794 125.204H223.319Z" fill="white"/>
<path d="M314.172 23.7481L318.675 9.87688L323.177 23.7481H337.702L325.937 32.3177L330.44 46.1889L318.675 37.6193L306.91 46.1889L311.412 32.3177L299.647 23.7481H314.172Z" fill="white"/>
<path d="M137.332 160.209C137.187 159.192 136.896 158.175 136.533 157.231C133.483 150.114 130.142 151.494 128.182 141.835C127.891 140.019 127.455 138.276 126.874 136.533C126.511 135.517 125.858 133.483 126.003 131.813C126.366 128.399 127.455 124.55 127.964 121.064C127.964 120.992 127.964 120.992 127.964 120.919C128.545 120.774 129.053 120.483 129.416 120.048C129.779 119.612 130.07 119.104 130.215 118.595C130.36 117.506 130.07 117.07 127.455 116.416L127.383 116.344C125.858 113.584 123.316 112.567 120.483 112.059C119.539 111.914 118.595 111.986 117.651 112.204C116.78 112.277 115.981 112.132 115.254 111.769C113.802 110.97 110.679 107.847 109.735 109.227C109.154 110.098 108.791 111.115 108.718 112.204C108.646 113.294 108.791 114.31 109.154 115.327C110.607 118.74 112.858 119.685 110.461 123.679C109.009 126.075 106.104 129.634 105.45 132.83C103.489 131.595 101.819 129.925 100.439 128.036C99.9308 126.802 99.2772 125.567 98.4057 124.55V134.863C99.7129 136.533 101.165 138.349 102.545 139.947C101.238 139.075 99.7129 138.058 98.4057 137.114V145.539C99.4224 146.265 100.948 147.136 102.037 147.717C102.981 148.298 104.07 148.734 105.16 149.097C105.668 154.98 108.21 160.499 112.35 164.639C111.696 167.399 110.97 170.739 111.405 172.264C112.713 177.348 117.215 181.27 117.578 184.247C117.724 185.555 116.271 186.208 115.254 187.08L114.746 187.37L130.723 187.661L130.941 187.37C131.159 186.934 131.232 186.353 131.087 185.845C129.852 177.929 129.707 176.767 134.064 171.974C135.444 170.376 136.388 168.561 136.896 166.527C137.187 166.527 137.405 166.454 137.695 166.309C137.913 166.164 138.131 166.019 138.349 165.801C138.494 165.583 138.639 165.365 138.785 165.075C138.857 164.784 138.93 164.566 138.857 164.276C138.712 162.823 138.131 161.443 137.332 160.209ZM124.696 184.102C124.55 185.119 123.897 185.627 123.098 186.499C123.388 184.974 123.388 183.376 123.025 181.851C122.735 180.544 121.791 177.13 121.863 176.404C121.936 175.532 124.913 182.722 124.696 184.102Z" fill="black"/>
<path d="M103.925 186.789C103.271 186.789 102.545 186.644 101.964 186.426C101.311 186.136 100.73 185.772 100.294 185.337C99.7855 184.828 99.4224 184.32 99.1319 183.666C98.8414 183.013 98.7688 182.359 98.7688 181.706V114.964C98.7688 113.947 98.9867 112.931 99.4224 112.059L100.367 110.607C96.5174 110.97 92.5957 110.97 88.7467 110.534L89.6182 111.986C90.0539 112.931 90.3444 113.947 90.3444 114.964V181.56C90.3444 182.214 90.1991 182.94 89.9813 183.521C89.6908 184.175 89.3277 184.756 88.8919 185.191C88.3835 185.7 87.8752 186.063 87.2216 186.281C86.5679 186.571 85.9143 186.644 85.2607 186.644L70.8085 187.225C70.5906 187.225 70.3728 187.298 70.2275 187.443C70.0823 187.588 70.0096 187.806 70.0096 188.024C70.0096 188.242 70.0823 188.46 70.2275 188.605C70.3728 188.75 70.5906 188.823 70.8085 188.823L130.288 188.677L131.74 187.225L103.925 186.789Z" fill="#7E4F3A"/>
<path d="M94.6292 110.97C111.841 110.97 125.785 100.367 125.785 87.2942C125.785 74.2218 111.841 63.5461 94.6292 63.5461C77.4173 63.5461 63.4734 74.1492 63.4734 87.2942C63.4734 100.439 77.4173 110.97 94.6292 110.97Z" fill="#006A3F"/>
<path d="M85.1155 95.9365C84.825 95.7912 84.5345 95.7912 84.244 95.7912C83.9535 95.7912 83.663 95.8638 83.3725 96.0091C82.7915 96.2269 82.3558 96.7353 82.1379 97.3163C81.92 97.8973 81.92 98.5509 82.1379 99.0593C82.2831 99.3498 82.4284 99.5677 82.6463 99.7855C82.8641 100.003 83.082 100.149 83.3725 100.294C83.663 100.367 83.8809 100.439 84.1714 100.439C84.5345 100.439 84.825 100.367 85.1155 100.221C85.5512 100.003 85.8417 99.7129 86.1322 99.3498C86.3501 98.9867 86.4953 98.5509 86.4953 98.0426C86.4953 97.6068 86.3501 97.1711 86.0596 96.8079C85.9143 96.3722 85.5512 96.0817 85.1155 95.9365Z" fill="#E8151E"/>
<path d="M98.3331 93.5399C98.6235 93.6851 98.9141 93.6851 99.2046 93.6851C99.495 93.6851 99.7855 93.6125 100.076 93.4672C100.367 93.322 100.584 93.1767 100.802 92.9589C101.02 92.741 101.165 92.4505 101.311 92.2326C101.456 91.9421 101.456 91.6516 101.456 91.3611C101.456 91.0706 101.383 90.7801 101.238 90.4897C101.093 90.1992 100.948 89.9813 100.73 89.7634C100.512 89.5455 100.294 89.4003 100.003 89.3277C99.4224 89.1098 98.7688 89.1098 98.1878 89.4003C97.6068 89.6182 97.1711 90.1265 96.9532 90.7075C96.7353 91.2885 96.7353 91.9421 96.9532 92.4505C97.0984 92.741 97.2437 92.9589 97.4616 93.1767C97.7521 93.2494 98.0426 93.3946 98.3331 93.5399Z" fill="#E8151E"/>
<path d="M113.294 86.8584C113.584 87.0037 113.875 87.0037 114.165 87.0037C114.456 87.0037 114.746 86.9311 115.037 86.7858C115.618 86.5679 115.981 86.0596 116.199 85.4786C116.416 84.8976 116.416 84.3166 116.126 83.7356C115.835 83.1546 115.4 82.7189 114.819 82.501C114.528 82.3557 114.238 82.3557 113.947 82.3557C113.657 82.3557 113.366 82.4284 113.076 82.501C112.495 82.7915 112.059 83.2272 111.841 83.8082C111.623 84.3892 111.623 85.0428 111.914 85.6238C112.059 85.9143 112.204 86.1322 112.422 86.3501C112.713 86.5679 113.003 86.7858 113.294 86.8584Z" fill="#E8151E"/>
<path d="M75.747 86.6406C75.4565 86.4953 75.166 86.4953 74.8755 86.4953C74.585 86.4953 74.2945 86.568 74.004 86.7132C73.423 86.9311 72.9872 87.4394 72.7694 88.0204C72.5515 88.6014 72.5515 89.255 72.7694 89.7634C72.9146 90.0539 73.0599 90.2718 73.2777 90.4897C73.4956 90.7075 73.7135 90.8528 74.004 90.998C74.2945 91.0707 74.5123 91.1433 74.8028 91.1433C75.166 91.1433 75.4565 91.0706 75.747 90.9254C76.1827 90.7075 76.4732 90.417 76.7637 90.0539C76.9816 89.6908 77.1268 89.255 77.1268 88.7467C77.1268 88.3109 76.9816 87.8752 76.6911 87.5121C76.5458 87.0763 76.1827 86.7858 75.747 86.6406Z" fill="#E8151E"/>
<path d="M92.0148 81.1211C91.8695 80.8306 91.7243 80.6128 91.5064 80.3949C91.2885 80.177 90.998 80.0318 90.7801 79.9592C90.1992 79.7413 89.5455 79.7413 88.9645 80.0318C88.3835 80.2496 87.9478 80.758 87.7299 81.339C87.5121 81.92 87.5121 82.5736 87.7299 83.082C87.8752 83.3725 88.0204 83.5904 88.2383 83.8082C88.4562 84.0261 88.674 84.1714 88.9645 84.3166C89.255 84.4618 89.5455 84.4618 89.836 84.4618C90.1265 84.4618 90.417 84.3892 90.7075 84.244C90.998 84.0987 91.2159 83.9535 91.4338 83.7356C91.6516 83.5177 91.7969 83.2272 91.9421 83.0094C92.0874 82.7189 92.0874 82.4284 92.0874 82.1379C92.16 81.7021 92.0874 81.4116 92.0148 81.1211Z" fill="#E8151E"/>
<path d="M107.629 102.836C107.919 102.908 108.137 102.981 108.428 102.981C108.791 102.981 109.081 102.908 109.445 102.763C109.735 102.618 109.953 102.473 110.171 102.255C110.389 102.037 110.534 101.746 110.679 101.529C110.824 101.238 110.824 100.948 110.824 100.657C110.824 100.367 110.752 100.076 110.607 99.7855C110.461 99.495 110.316 99.2772 110.098 99.0593C109.88 98.8414 109.662 98.6962 109.372 98.6236C108.936 98.4783 108.5 98.4057 108.065 98.5509C107.629 98.6236 107.193 98.8414 106.903 99.2046C106.612 99.5677 106.394 99.9308 106.322 100.367C106.249 100.802 106.322 101.311 106.467 101.674C106.612 101.964 106.757 102.182 106.975 102.4C107.121 102.618 107.411 102.763 107.629 102.836Z" fill="#E8151E"/>
</g>
</g>
<defs>
<clipPath id="clip0_2015_79">
<rect width="398.706" height="512" fill="white"/>
</clipPath>
</defs>
</svg>
