<svg width="512" height="511" viewBox="0 0 512 511" fill="none" xmlns="http://www.w3.org/2000/svg">
<path fill-rule="evenodd" clip-rule="evenodd" d="M256 1.70669C323.443 1.70669 388.123 28.4315 435.813 76.0019C483.502 123.572 510.293 188.092 510.293 255.366C510.293 305.536 495.379 354.578 467.437 396.292C439.495 438.006 399.78 470.519 353.314 489.718C306.848 508.916 255.718 513.94 206.39 504.152C157.062 494.365 111.751 470.206 76.1874 434.731C40.6239 399.256 16.4048 354.058 6.59283 304.853C-3.21913 255.648 1.81673 204.645 21.0636 158.295C40.3104 111.945 72.9039 72.3286 114.722 44.4561C156.541 16.5836 205.706 1.70669 256 1.70669Z" fill="#0232A0"/>
<path fill-rule="evenodd" clip-rule="evenodd" d="M256 8.44261C321.656 8.44261 384.623 34.4577 431.049 80.7649C477.475 127.072 503.557 189.878 503.557 255.366C503.557 304.203 489.038 351.944 461.836 392.55C434.634 433.156 395.971 464.805 350.736 483.494C305.501 502.183 255.725 507.073 207.704 497.546C159.682 488.018 115.572 464.501 80.9504 429.968C46.3289 395.435 22.7513 351.437 13.1992 303.539C3.64718 255.64 8.54965 205.992 27.2867 160.873C46.0237 115.753 77.7538 77.1891 118.464 50.0568C159.175 22.9244 207.038 8.44261 256 8.44261Z" fill="white"/>
<path fill-rule="evenodd" clip-rule="evenodd" d="M256.121 15.1786C319.879 15.1786 381.026 40.463 426.109 85.4694C471.193 130.476 496.521 191.518 496.521 255.166C496.521 302.632 482.422 349.031 456.006 388.497C429.591 427.962 392.045 458.722 348.118 476.886C304.191 495.05 255.855 499.803 209.222 490.543C162.589 481.283 119.753 458.426 86.133 424.863C52.5125 391.301 29.6166 348.539 20.3408 301.986C11.0649 255.433 15.8256 207.179 34.0209 163.327C52.2162 119.475 83.0288 81.9941 122.562 55.6239C162.096 29.2537 208.575 15.1786 256.121 15.1786Z" fill="#0232A0"/>
<path fill-rule="evenodd" clip-rule="evenodd" d="M256.174 87.8486C300.654 87.8486 343.312 105.478 374.764 136.858C406.216 168.238 423.885 210.799 423.885 255.177C423.885 288.271 414.049 320.623 395.621 348.14C377.193 375.657 351 397.103 320.355 409.768C289.709 422.433 255.988 425.746 223.456 419.29C190.923 412.834 161.04 396.897 137.585 373.496C114.13 350.095 98.1571 320.28 91.686 287.821C85.2148 255.363 88.536 221.718 101.23 191.143C113.923 160.568 135.419 134.435 162.999 116.048C190.579 97.6622 223.004 87.8486 256.174 87.8486Z" fill="white"/>
<path fill-rule="evenodd" clip-rule="evenodd" d="M255.828 94.8738C298.429 94.8738 339.286 111.756 369.41 141.805C399.533 171.855 416.457 212.611 416.457 255.108C416.457 286.799 407.036 317.779 389.386 344.129C371.736 370.479 346.649 391.017 317.298 403.144C287.947 415.272 255.65 418.445 224.491 412.263C193.332 406.08 164.711 390.819 142.246 368.41C119.782 346.001 104.484 317.45 98.2857 286.368C92.0878 255.285 95.2688 223.068 107.426 193.789C119.584 164.51 140.172 139.485 166.588 121.878C193.003 104.271 224.059 94.8737 255.828 94.8738Z" fill="#0232A0"/>
<path fill-rule="evenodd" clip-rule="evenodd" d="M255.832 101.092C296.749 101.092 335.99 117.318 364.922 146.202C393.855 175.085 410.109 214.26 410.109 255.108C410.109 285.569 401.061 315.347 384.109 340.674C367.157 366.002 343.062 385.743 314.871 397.4C286.681 409.057 255.661 412.107 225.734 406.164C195.807 400.222 168.317 385.553 146.741 364.013C125.165 342.474 110.472 315.031 104.519 285.155C98.5661 255.279 101.621 224.311 113.298 196.168C124.975 168.025 144.749 143.971 170.12 127.048C195.491 110.124 225.319 101.092 255.832 101.092Z" fill="white"/>
<path fill-rule="evenodd" clip-rule="evenodd" d="M291.734 324.155C271.586 330.528 252.24 339.14 234.328 350.437C211.922 364.57 194.616 379.357 179.685 401.555L171.716 413.403L71.9316 161.129L79.7814 158.785C113.992 148.567 150.495 146.361 185.889 150.298C211.543 153.151 236.556 159.295 260.671 168.487L263.678 169.634L267.606 178.997C283.855 184.105 300.392 188.587 317.085 191.939C332.236 194.981 347.967 197.212 363.439 197.397C387.995 197.691 404.35 194.109 415.953 181.206C421.421 175.125 425.394 168.254 428.864 155.977C435.522 169.826 439.249 184.204 439.562 200.198C439.939 219.53 434.971 239.474 425.918 255.66C415.792 273.764 401.655 288.207 384.811 300.158C360.834 317.171 332.105 328.515 304.001 336.622L297.464 338.507L291.734 324.155Z" fill="white"/>
<path fill-rule="evenodd" clip-rule="evenodd" d="M81.9316 165.984L173.451 397.362C189.4 373.649 207.559 358.439 230.32 344.082C249.53 331.966 271.374 322.158 296.155 314.965L301.919 329.403C333.217 320.374 359.68 308.777 380.464 294.031C397.149 282.192 410.13 268.496 419.361 251.992C431.206 230.813 436.173 200.976 428.178 176.027C417.717 197.357 394.297 205.28 363.35 204.91C334.278 204.563 298.881 196.911 262.022 185.107L257.995 175.508C233.821 166.293 209.533 160.487 185.059 157.765C151.108 153.988 115.509 155.955 81.9316 165.984Z" fill="#0232A0"/>
<path fill-rule="evenodd" clip-rule="evenodd" d="M413.879 199.546C408.893 204.01 402.424 206.729 394.429 208.639C385.036 210.883 374.04 211.774 363.269 211.646C346.901 211.45 329.165 209.271 313.136 206.052C293.718 202.153 277.29 198.471 256.296 192.006L251.763 180.506C229.605 172.301 207.818 168.361 184.314 165.747C153.259 162.293 120.961 165.365 94.3752 172.598L112.568 218.17C128.284 212.327 146.955 208.737 168.591 207.026C195.656 204.886 227.234 205.781 263.602 210.457L267.515 220.45C306.969 224.733 341.096 225.311 367.384 220.27C387.19 216.471 405.287 209.867 413.879 199.546ZM146.865 304.086L176.268 377.741C190.228 360.909 203.306 349.855 224.438 336.526C248.496 321.352 277.654 310.257 300.922 304.85L306.285 318.267C331.368 311.757 354.31 303.409 375.271 288.537C390.373 277.822 404.141 264.555 413.223 248.316C417.022 241.522 420.197 234.17 422.276 226.266C407.776 242.117 389.645 253.528 370.868 262.027C346.922 272.866 320.612 279.241 292.115 282.537L287.934 271.999C256.553 271.543 233.564 273.647 208.221 279.343C186.571 284.21 162.82 292.704 146.865 304.086Z" fill="white"/>
<path fill-rule="evenodd" clip-rule="evenodd" d="M273.934 197.093C268.324 195.589 262.51 193.919 256.296 192.006L267.552 220.455C273.321 221.081 278.974 221.626 284.507 222.088L273.934 197.093ZM292.116 282.537L306.285 318.267C312.02 316.779 317.642 315.194 323.155 313.457L309.07 280.159C303.509 281.084 297.857 281.873 292.116 282.537Z" fill="#D9E0E7"/>
<path fill-rule="evenodd" clip-rule="evenodd" d="M267.544 220.454L292.115 282.537C297.856 281.873 303.508 281.084 309.07 280.159L284.507 222.088C278.971 221.626 273.315 221.08 267.544 220.454Z" fill="#082E86"/>
<path fill-rule="evenodd" clip-rule="evenodd" d="M475.808 243.39H471.986L466.016 245.349L466.934 249.155L471.061 248.014V267.626H475.808V243.39Z" fill="white"/>
<path fill-rule="evenodd" clip-rule="evenodd" d="M44.4469 243.261H40.6241L34.6543 245.219L35.572 249.026L39.699 247.885V267.497H44.4469V243.261Z" fill="white"/>
<path fill-rule="evenodd" clip-rule="evenodd" d="M69.7349 254.864C69.7334 251.342 69.2007 248.516 67.5421 246.286C65.9845 244.192 63.4259 242.783 59.8683 242.783C55.0124 242.783 50.917 246.373 50.9172 251.472C50.9172 256.34 55.042 259.043 59.5993 259.049C61.9666 259.052 63.7891 258.152 64.9083 256.97C64.7462 260.611 62.7764 263.481 59.611 263.629C57.5006 263.728 55.7414 262.85 54.0435 261.196L51.6099 264.784C54.2313 266.697 56.4412 267.733 59.6493 267.73C62.2655 267.727 64.771 266.46 66.5159 264.545C68.8605 261.972 69.7365 258.174 69.7349 254.864ZM60.247 255.247C58.0141 255.157 55.7425 253.876 55.6233 251.333C55.4938 248.569 57.2565 246.95 59.9558 246.938C63.2109 246.924 64.849 248.926 64.7534 251.12C64.6578 253.317 62.9518 255.356 60.247 255.247Z" fill="white"/>
<path fill-rule="evenodd" clip-rule="evenodd" d="M452.047 263.331C454.946 260.716 459.033 258.134 461.168 254.798C461.924 253.617 462.52 252.084 462.513 250.685C462.496 247.795 460.951 245.326 458.657 244.074C457.282 243.323 455.551 243.01 453.954 243.042C452.403 243.072 450.63 243.678 449.244 244.513C447.722 245.43 446.611 246.781 445.513 248.453L448.815 250.964C450.133 249.021 451.713 247.246 454.076 247.252C456.092 247.257 457.678 248.732 457.696 250.929C457.712 252.803 456.424 254.429 455.092 255.548L445.132 263.914V267.497H462.699V263.331H452.047Z" fill="white"/>
<path fill-rule="evenodd" clip-rule="evenodd" d="M251.104 67.4982L258.971 67.7793L259.357 56.9845L265.148 57.1419L272.083 68.2477L281.318 68.5775L273.234 56.0012C277.621 54.8104 280.77 50.8015 280.968 45.6253C281.121 41.6094 279.7 38.7099 277.679 36.8393C274.908 34.2757 270.784 33.5192 265.998 33.3482L252.341 32.8604L251.104 67.4982ZM266.139 40.4878C269.788 40.6182 273.066 41.6092 272.924 45.5742C272.782 49.5539 269.438 50.2936 265.793 50.1634L259.608 49.9424L259.954 40.2669L266.139 40.4878Z" fill="white"/>
<path fill-rule="evenodd" clip-rule="evenodd" d="M173.04 87.5783L180.304 84.5417L176.287 74.9345L180.178 73.2541C186.395 70.5694 188.835 67.9458 189.954 65.0511C191.073 62.1569 190.921 59.1035 189.629 55.9359C188.111 52.2163 185.124 50.0955 182.507 49.2429C178.92 48.0744 175.212 48.9631 170.795 50.8095L159.621 55.4808L173.04 87.5783ZM174.797 57.0048C178.167 55.5963 180.921 55.9529 182.252 59.1354C183.638 62.4509 182.111 64.7217 178.512 66.2263L173.519 68.3136L169.685 59.1421L174.797 57.0048Z" fill="white"/>
<path fill-rule="evenodd" clip-rule="evenodd" d="M111.437 135.879L120.007 127.109C122.797 124.253 125.159 121.214 126.061 117.216C127.329 111.598 126.094 105.614 121.364 100.992C116.842 96.5737 111.617 95.302 106.435 96.1784C101.862 96.9514 98.5982 99.4246 95.4661 102.63L86.6465 111.657L111.437 135.879ZM101.3 106.72C105.307 102.619 111.496 102.634 115.688 106.731C119.932 110.877 120.051 116.932 115.998 121.08L111.875 125.3L97.1775 110.94L101.3 106.72Z" fill="white"/>
<path fill-rule="evenodd" clip-rule="evenodd" d="M215.892 36.5495C226.15 34.0967 235.81 40.0806 238.123 49.7541C240.437 59.4275 234.442 69.0809 224.27 71.5868C214.098 74.0928 204.352 68.0557 202.039 58.3822C199.726 48.7087 205.634 39.0022 215.892 36.5495ZM217.6 43.6929C223.346 42.3192 228.589 45.9507 229.951 51.6488C231.314 57.3467 228.232 62.925 222.535 64.3307C216.838 65.7365 211.547 62.073 210.184 56.3751C208.822 50.677 211.855 45.0666 217.6 43.6929Z" fill="white"/>
<path fill-rule="evenodd" clip-rule="evenodd" d="M416.774 97.8643C423.578 105.923 422.578 117.243 414.978 123.659C407.378 130.075 396.061 129.062 389.248 121.104C382.435 113.146 383.444 101.726 391.044 95.3096C398.643 88.8934 409.97 89.8052 416.774 97.8643ZM411.162 102.602C414.973 107.116 414.087 113.432 409.611 117.212C405.134 120.991 398.766 120.748 394.948 116.291C391.131 111.835 392.023 105.462 396.5 101.682C400.976 97.9028 407.351 98.0888 411.162 102.602Z" fill="white"/>
<path fill-rule="evenodd" clip-rule="evenodd" d="M323.919 42.5597L295.942 35.9107L294.265 42.9663L304.351 45.3634L298.014 72.0287L305.77 73.8718L312.107 47.2066L322.242 49.6152L323.919 42.5597Z" fill="white"/>
<path fill-rule="evenodd" clip-rule="evenodd" d="M346.428 51.1366L339.139 48.1607L326.038 80.249L333.327 83.225L346.428 51.1366Z" fill="white"/>
<path fill-rule="evenodd" clip-rule="evenodd" d="M144.246 63.621L122.396 78.1745L141.609 107.022L163.748 92.276L159.823 86.3829L144.236 96.7642L140.455 91.0868L153.952 82.097L150.076 76.2768L136.578 85.2667L132.873 79.7033L148.171 69.5141L144.246 63.621Z" fill="white"/>
<path fill-rule="evenodd" clip-rule="evenodd" d="M390.515 75.4229L383.155 70.9125L363.225 86.666L368.145 61.713L360.676 57.135L354.371 94.0745L360.38 97.7575L390.515 75.4229Z" fill="white"/>
<path fill-rule="evenodd" clip-rule="evenodd" d="M350.308 417.016C347.335 418.977 345.024 421.589 344.481 424.917C344.109 427.194 344.474 429.797 346.169 432.483C347.653 434.831 349.89 436.196 352.331 436.588C354.384 436.917 356.452 436.503 358.648 436.026C361.481 435.409 367.491 432.633 369.198 435.593C370.294 437.494 368.606 439.399 367.109 440.386C363.566 442.723 359.225 442.735 355.659 442.267L354.383 449.293C361.281 450.693 367.521 448.694 371.004 446.228C373.79 444.255 376.004 441.961 376.828 438.83C377.468 436.395 377.26 433.394 375.29 430.39C373.276 427.319 370.303 426.21 367.238 426.247C364.45 426.28 361.449 427.259 358.845 427.948C357.158 428.395 352.983 429.872 351.988 426.964C351.387 425.204 352.711 423.695 354.038 422.815C356.997 420.852 360.103 420.802 363.943 421.103L364.39 414.011C359.325 413.213 353.987 414.591 350.308 417.016Z" fill="white"/>
<path fill-rule="evenodd" clip-rule="evenodd" d="M331.959 427.312L307.152 435.905L318.497 468.656L343.632 459.949L341.314 453.259L323.618 459.388L321.385 452.943L336.709 447.635L334.421 441.027L319.097 446.335L316.909 440.019L334.277 434.003L331.959 427.312Z" fill="white"/>
<path fill-rule="evenodd" clip-rule="evenodd" d="M315.708 430.391L321.409 428.416L326.329 421.292L318.763 420.858L315.708 430.391Z" fill="white"/>
<path fill-rule="evenodd" clip-rule="evenodd" d="M298.547 438.4L289.98 439.451L284.188 464.187L272.506 441.595L263.81 442.662L281.87 475.496L288.866 474.638L298.547 438.4Z" fill="white"/>
<path fill-rule="evenodd" clip-rule="evenodd" d="M254.62 477.235L246.325 476.441L243.974 468.57L229.761 467.208L225.893 474.483L217.849 473.712L236.059 440.508L243.077 441.181L254.62 477.235ZM241.825 461.374L238.602 450.582L233.298 460.557L241.825 461.374Z" fill="white"/>
<path fill-rule="evenodd" clip-rule="evenodd" d="M165.659 457.389L158.397 453.304L159.435 445.156L146.99 438.155L140.507 443.24L133.465 439.278L163.56 416.292L169.705 419.748L165.659 457.389ZM160.383 437.706L161.806 426.533L152.917 433.505L160.383 437.706Z" fill="white"/>
<path fill-rule="evenodd" clip-rule="evenodd" d="M198.697 432.409L191.188 430.043L180.774 463.102L204.649 470.622L206.776 463.869L190.411 458.714L198.697 432.409Z" fill="white"/>
<path fill-rule="evenodd" clip-rule="evenodd" d="M156.13 227.569L162.031 242.448L170.642 240.391L167.34 232.037L172.557 231.119C175.095 230.655 178.07 230.29 180.646 230.683C183.41 231.105 185.865 232.105 187.829 233.396C192.956 236.767 196.973 244.097 195.097 250.3C194.221 253.198 192.074 255.519 188.165 256.772L178.361 259.914L174.628 250.472L166.172 252.891L172.706 269.369L191.552 263.649C197.726 261.776 203.114 256.607 203.239 249.752L203.583 230.912L215.323 244.056L210.318 244.614V251.179L220.185 249.919L226.062 256.797L232.587 255.926L203.324 223.19L197.304 223.762L197.004 233.263C193.975 228.973 189.738 226.679 184.667 225.544C176.755 223.773 166.683 225.264 156.13 227.569Z" fill="white"/>
</svg>
