<svg width="418" height="512" viewBox="0 0 418 512" fill="none" xmlns="http://www.w3.org/2000/svg">
<path d="M277.331 3.15326C305.35 57.4986 356.012 94.0623 414.354 106.924V207.156C384.079 234.549 359.62 279.647 340.98 342.44C317.418 414.754 285.635 454.79 208.449 508.931C148.519 473.516 99.0917 429.158 76.522 348.985C59.5301 283.648 36.7564 238.274 3.03589 205.814V106.857C72.3181 85.8766 117.877 51.5325 139.706 3.82458L277.331 3.15326Z" fill="#E6C777"/>
<path d="M277.331 3.15324L276.456 3.60407C304.615 58.2242 355.536 94.9656 414.143 107.885L414.355 106.924H413.371V207.156H414.355L413.697 206.427C383.22 234.01 358.712 279.268 340.037 342.158L340.981 342.44L340.043 342.134C328.285 378.222 314.507 406.175 294.056 431.886C273.599 457.597 246.441 481.08 207.888 508.123L208.452 508.929L208.954 508.08C149.123 472.708 99.9769 428.597 77.4746 348.717L76.5269 348.983L77.4796 348.736C60.4646 283.306 37.6234 237.734 3.72524 205.103L3.04076 205.813H4.0247V106.857H3.04076L3.32541 107.8C72.7655 86.7782 118.629 52.2712 140.606 4.2359L139.711 3.8262L139.716 4.81178L277.339 4.13882L277.331 3.15324L277.325 2.16765L139.074 2.84391L138.815 3.41485C117.132 50.7937 71.877 84.9732 2.75446 105.914L2.05518 106.125V206.228L2.35628 206.519C35.8991 238.808 58.6037 283.986 75.5709 349.228L75.5775 349.251V349.248C98.2147 429.711 147.92 474.319 207.95 509.775L208.496 510.098L209.016 509.732C247.648 482.634 274.97 459.033 295.595 433.112C316.22 407.19 330.113 378.97 341.916 342.742L341.924 342.716C360.533 280.02 384.944 235.085 415.017 207.885L415.339 207.591V106.13L414.568 105.958C356.486 93.1524 306.086 56.7697 278.205 2.69911L277.928 2.16107L277.325 2.16272L277.331 3.15324Z" fill="#866B10"/>
<path d="M85.6487 313.178C74.187 275.048 55.5102 236.125 37.9951 217.055L381.627 217.056C359.353 243.873 343.877 278.939 332.93 313.178H85.6487Z" fill="#C5112E"/>
<path d="M85.6489 313.178L86.5917 312.895C75.0839 274.652 56.4203 235.681 38.721 216.388L37.9953 217.055V218.04L381.627 218.042V217.057L380.869 216.428C358.473 243.399 342.964 278.571 331.992 312.879L332.93 313.178V312.194H85.6489V313.178V314.165H333.648L333.87 313.479C344.79 279.31 360.234 244.348 382.386 217.685L383.725 216.073L35.7527 216.071L37.2697 217.721C54.6022 236.569 73.2888 275.445 84.7061 313.463L84.9151 314.165H85.6489V313.178Z" fill="#C5112E"/>
<path d="M24.1774 196.361C24.3732 196.433 23.9109 118.281 23.9109 118.281C42.3408 114.31 60.157 107.283 76.9103 97.5488V196.361H24.1774Z" fill="white"/>
<path d="M337.266 97.0833C354.746 107.874 373.599 115.614 394.15 120.296L394.079 196.361H337.266V97.0833Z" fill="white"/>
<path d="M90.5322 88.8728C112.934 73.3157 135.29 53.6057 149.685 24.8131H266.825C281.614 49.7193 302.959 72.5621 323.639 87.856V196.361H90.5322V88.8728Z" fill="white"/>
<path d="M127.891 413.39C100.227 380.894 91.3091 329.133 91.3091 329.133H327.195C324.49 336.977 318.193 372.226 286.748 413.39H127.891Z" fill="#1B458F"/>
<path d="M208.06 485.576C186.188 473.621 161.56 453.876 147.352 438.1H265.267C251.523 452.359 229.103 471.658 208.06 485.576Z" fill="#1B458F"/>
<path d="M130.617 418.063H283.557L270.131 432.847H143.66C138.67 427.889 134.507 423.119 130.617 418.063Z" fill="#05642C"/>
<path d="M137.525 364.195H132.319V386.424H137.525V364.195Z" fill="#E6C777"/>
<path d="M296.307 335.977H291.098V358.209H296.307V335.977Z" fill="#E6C777"/>
<path fill-rule="evenodd" clip-rule="evenodd" d="M279.86 363.724L270.907 385.952H276.143L278.002 381.002H286.856L288.646 385.952H294.051L285.199 363.724H279.86ZM279.361 377.366L282.443 369.205H282.51L285.494 377.366H279.361Z" fill="#E6C777"/>
<path d="M131.453 343.399H136.496C136.34 342.115 135.966 340.975 135.369 339.976C134.772 338.978 134.008 338.152 133.079 337.484C132.169 336.801 131.132 336.284 129.959 335.93C128.812 335.577 127.585 335.397 126.28 335.397C124.467 335.397 122.831 335.7 121.37 336.299C119.937 336.905 118.719 337.731 117.725 338.793C116.732 339.856 115.971 341.102 115.437 342.532C114.907 343.942 114.64 345.475 114.64 347.137C114.64 348.758 114.907 350.27 115.437 351.683C115.97 353.07 116.732 354.286 117.725 355.323C118.719 356.364 119.937 357.186 121.37 357.784C122.833 358.367 124.468 358.655 126.28 358.655C127.739 358.655 129.077 358.448 130.291 358.035C131.509 357.62 132.57 357.014 133.48 356.225C134.385 355.44 135.111 354.485 135.668 353.363C136.218 352.241 136.562 350.989 136.692 349.594H131.652C131.455 351.093 130.907 352.292 129.998 353.21C129.11 354.123 127.873 354.579 126.281 354.579C125.11 354.579 124.116 354.367 123.298 353.952C122.476 353.515 121.818 352.947 121.309 352.241C120.797 351.539 120.419 350.747 120.177 349.875C119.958 348.983 119.845 348.068 119.845 347.136C119.845 346.16 119.958 345.217 120.177 344.299C120.417 343.391 120.797 342.574 121.309 341.872C121.818 341.145 122.476 340.574 123.298 340.159C124.114 339.723 125.11 339.508 126.281 339.508C126.925 339.508 127.53 339.611 128.103 339.82C128.703 340.004 129.232 340.269 129.699 340.625C130.16 340.978 130.553 341.393 130.861 341.87C131.168 342.331 131.367 342.839 131.453 343.399Z" fill="#E6C777"/>
<path d="M60.6076 144.525H69.807C69.519 141.293 68.8362 138.432 67.747 135.927C66.6544 133.43 65.2641 131.342 63.5726 129.675C61.9174 127.957 60.0252 126.654 57.8895 125.767C55.7916 124.885 53.5539 124.443 51.1747 124.443C47.8674 124.443 44.8811 125.196 42.2238 126.705C39.6043 128.214 37.388 130.3 35.5731 132.958C33.7566 135.613 32.3663 138.738 31.4004 142.338C30.4313 145.875 29.9426 149.734 29.9426 153.902C29.9426 157.964 30.4313 161.77 31.4004 165.309C32.3646 168.802 33.755 171.849 35.5731 174.456C37.3863 177.06 39.6043 179.117 42.2238 180.631C44.8811 182.087 47.8691 182.814 51.1747 182.814C53.8385 182.814 56.2753 182.299 58.49 181.251C60.7129 180.208 62.6446 178.703 64.2949 176.723C65.9535 174.742 67.2813 172.341 68.2899 169.531C69.2953 166.716 69.9222 163.567 70.164 160.078H60.9729C60.6076 163.828 59.604 166.849 57.9454 169.141C56.3313 171.433 54.0788 172.578 51.1747 172.578C49.0389 172.578 47.2241 172.06 45.7301 171.017C44.2361 169.926 43.0317 168.49 42.0987 166.714C41.1724 164.945 40.4879 162.966 40.0469 160.776C39.6405 158.54 39.4414 156.248 39.4414 153.902C39.4414 151.452 39.6405 149.081 40.0469 146.789C40.4879 144.495 41.1724 142.466 42.0987 140.689C43.0317 138.869 44.2361 137.438 45.7301 136.396C47.2241 135.299 49.0389 134.751 51.1747 134.751C52.3445 134.751 53.4552 135.013 54.5 135.536C55.5909 136.008 56.56 136.684 57.4024 137.566C58.2547 138.455 58.9573 139.49 59.52 140.689C60.0877 141.841 60.4497 143.118 60.6076 144.525Z" fill="#E6C777"/>
<path d="M60.6076 144.525V145.51H70.8814L70.786 144.438C70.4898 141.12 69.7872 138.154 68.6453 135.536C67.5133 132.941 66.0555 130.741 64.262 128.976L63.571 129.677L64.2818 128.994C62.5393 127.184 60.527 125.797 58.2662 124.859C56.0483 123.926 53.674 123.459 51.173 123.459C47.716 123.459 44.5454 124.254 41.7351 125.85C38.9774 127.437 36.6459 129.636 34.757 132.402C32.8698 135.162 31.4366 138.392 30.4477 142.083C29.4539 145.711 28.957 149.657 28.957 153.902C28.957 158.043 29.4556 161.938 30.4494 165.569C31.4399 169.154 32.8747 172.309 34.7636 175.017C36.6508 177.73 38.9824 179.897 41.7285 181.482L41.7367 181.488L41.7482 181.493C44.5586 183.037 47.721 183.8 51.173 183.798C53.9619 183.8 56.555 183.254 58.9096 182.14C61.2592 181.037 63.3159 179.432 65.0485 177.352C66.7926 175.27 68.1747 172.763 69.213 169.862C70.2545 166.948 70.8962 163.708 71.1447 160.146L71.2171 159.093H60.0762L59.989 159.983C59.6369 163.614 58.6727 166.458 57.1457 168.564L57.1392 168.57C55.6665 170.621 53.8155 171.57 51.1714 171.591C49.1936 171.588 47.6009 171.119 46.2911 170.208L45.7284 171.015L46.3092 170.221C44.9452 169.224 43.8428 167.915 42.9708 166.255C42.0921 164.577 41.4373 162.69 41.0128 160.58L40.0486 160.775L41.0177 160.598C40.6228 158.423 40.4286 156.19 40.4286 153.902C40.4286 151.504 40.6244 149.194 41.0177 146.96L40.0486 146.789L41.0144 146.975C41.4389 144.762 42.0971 142.825 42.9724 141.147L42.9856 141.119L42.9757 141.14C43.8461 139.437 44.9436 138.147 46.2928 137.206L46.2994 137.201L46.3109 137.193C47.6206 136.234 49.2035 135.742 51.173 135.738C52.1948 135.738 53.1458 135.964 54.059 136.42L54.0853 136.433L54.1084 136.443C55.0791 136.862 55.9331 137.459 56.69 138.251C57.4633 139.059 58.105 140 58.6282 141.112L58.6381 141.129C59.1498 142.169 59.4855 143.33 59.6303 144.633L59.729 145.51H60.6076V144.525L61.5883 144.416C61.4188 142.909 61.0256 141.517 60.4052 140.258L59.5217 140.694L60.4118 140.276C59.8096 138.988 59.0429 137.856 58.1149 136.888C57.1885 135.916 56.1042 135.159 54.8916 134.636L54.5033 135.539L54.9442 134.657C53.7661 134.068 52.4959 133.767 51.1779 133.769C48.8777 133.766 46.8259 134.373 45.1493 135.607L45.7334 136.4L45.1706 135.592C43.5318 136.734 42.2188 138.304 41.2267 140.243L41.2415 140.215L41.2299 140.237C40.2526 142.108 39.5385 144.233 39.0827 146.606L39.0794 146.621C38.6648 148.974 38.4624 151.401 38.4624 153.905C38.4624 156.306 38.6648 158.657 39.0827 160.954L39.0844 160.967L39.086 160.972C39.5418 163.243 40.2559 165.314 41.2299 167.173C42.2238 169.066 43.5285 170.629 45.1525 171.813L45.1608 171.82L45.169 171.827C46.8456 172.998 48.8843 173.567 51.1763 173.564C54.3387 173.587 56.9927 172.243 58.7516 169.709L57.947 169.141L58.7467 169.719C60.5336 167.244 61.5784 164.042 61.9536 160.172L60.9729 160.079V161.062H70.164V160.079L69.1817 160.009C68.9448 163.422 68.3327 166.482 67.3636 169.197C66.3879 171.917 65.1143 174.211 63.5413 176.088C61.9733 177.969 60.1601 179.376 58.0737 180.358C55.994 181.34 53.7135 181.829 51.1763 181.829C48.0122 181.829 45.2035 181.138 42.6976 179.766L42.2238 180.629L42.7157 179.775C40.223 178.336 38.1218 176.386 36.3826 173.89C34.6353 171.387 33.2926 168.447 32.3515 165.046C31.407 161.602 30.9282 157.885 30.9282 153.902C30.9282 149.81 31.407 146.042 32.3515 142.598C33.2943 139.082 34.6418 136.064 36.3859 133.514C38.1268 130.965 40.2296 128.991 42.7157 127.559C45.2151 126.144 48.0188 125.43 51.1763 125.428C53.4354 125.428 55.5333 125.845 57.511 126.676C59.5233 127.513 61.297 128.732 62.8651 130.358L62.8717 130.365L62.8848 130.378C64.4759 131.944 65.7988 133.92 66.8469 136.322C67.8852 138.71 68.5499 141.464 68.8296 144.612L69.8103 144.525V143.539H60.6109V144.525L61.5883 144.416L60.6076 144.525Z" fill="#866B10"/>
<path d="M359.21 138.991H381.27V128.087H349.175V187.068H359.21V162.696H378.328V152.622H359.21V138.991Z" fill="#E6C777"/>
<path d="M349.175 128.087H348.189V188.053H360.194V163.68H379.312V151.638H360.194V139.975H382.254V127.1H348.189V128.087H349.175V129.071H380.286V138.006H358.225V153.607H377.342V161.711H358.225V186.084H350.159V128.087H349.175V129.071V128.087Z" fill="#866B10"/>
<path d="M118.336 189.99V152.913H113.796V135.891L129.306 137.214L128.925 125.864L147.275 111.115L146.704 106.381L159.946 97.493L163.159 95.41L151.433 92.1949L154.271 91.257L141.029 89.174L143.678 87.471L135.354 85.768L139.708 84.0667L130.247 81.6101L132.705 78.2058L124.011 77.0722L127.032 74.9891L120.982 72.2446C130.747 69.3734 140.109 69.4672 149.07 72.5276L174.415 87.8527L189.451 78.1088L185.76 76.595L182.17 64.3945L185.193 43.0226L185.059 40.4212C187.483 38.0289 190.397 36.163 194.412 34.748C196.574 33.9862 203.335 33.1733 204.838 33.4448C207.828 33.9812 218.86 38.7709 218.86 38.7709L219.239 41.1304L222.549 44.7272L228.887 67.5191L227.946 73.1973L221.983 77.7369L233.427 82.7471L239.008 83.5994L242.954 84.6755L244.777 88.1374L272.612 105.692L273.997 111.586L276.459 111.78L282.983 118.305L283.266 125.678L284.213 127.859L293.105 133.624L294.801 134.758L304.639 134.193V150.456H299.532V190.179V196.67H118.523L118.336 189.99Z" fill="#866B10"/>
<path d="M115.402 137.594V151.115L210.731 153.201L302.558 148.939H302.942V135.704L216.217 144.878L210.353 148.939L204.205 145.441L115.402 137.594Z" fill="#E6C777"/>
<path d="M297.985 195.356H119.971L120.065 151.442V152.817L210.639 154.427L297.985 150.55V195.356Z" fill="#E6C777"/>
<path d="M131.766 137.405L169.781 140.714C169.781 140.714 169.685 138.068 172.05 136.739C174.417 135.416 177.252 132.768 177.252 132.768L176.971 126.245L171.484 116.216C171.484 116.216 178.103 122.274 178.483 122.648C178.858 123.028 179.145 131.352 179.145 131.352C179.145 131.352 184.726 133.336 185.099 134.09C185.481 134.85 193.423 133.808 193.423 133.808L197.209 132.485C197.209 132.485 191.913 129.366 188.604 126.151C185.295 122.936 184.254 119.905 182.266 117.447C180.278 114.99 176.683 111.114 176.683 111.114L174.603 106.286L161.08 100.331L149.572 107.04L149.909 111.954L131.669 126.427L131.766 137.405Z" fill="#E6C777"/>
<path d="M150.299 133.056C150.299 133.056 159.946 126.057 162.498 126.246C163.232 126.302 164.455 126.333 165.822 126.35L167.204 127.77C164.206 128.456 161.035 129.185 159.948 129.461C157.676 130.029 150.299 133.056 150.299 133.056Z" fill="#866B10"/>
<path fill-rule="evenodd" clip-rule="evenodd" d="M164.956 95.7949L174.228 101.559L172.617 101.657L177.158 104.873L175.36 104.683L181.604 111.777L187.653 121.137L192.76 127.477L199.381 132.862L205.148 141.092L206.568 143.17C206.568 143.17 201.464 133.524 200.513 131.353C199.572 129.178 193.234 117.448 191.057 113.197C188.88 108.935 180.846 98.1544 180.846 98.1544L173.183 88.3167L161.266 81.2234L149.07 73.755C143.201 70.9282 129.784 70.6222 125.337 72.6164L129.679 74.9858L126.278 76.5916L134.786 77.3452L131.765 80.9453L143.207 83.6832L138.289 85.4849L146.989 86.617L143.772 88.4121L157.585 90.3981L154.84 92.0089L165.339 94.3733L164.956 95.7949Z" fill="#E6C777"/>
<path d="M177.818 141.375L181.981 135.61C181.981 135.61 184.344 135.985 188.125 135.893C191.911 135.799 194.558 135.232 194.558 135.232L197.392 134.754L204.393 142.606L201.176 143.268L198.435 142.606L183.113 141.848L177.818 141.375Z" fill="#E6C777"/>
<path fill-rule="evenodd" clip-rule="evenodd" d="M176.857 89.2463L193.806 113.141L207.8 144.12L209.686 146.293L213.661 143.17L218.861 127.477L219.902 124.831L219.433 130.308L226.24 126.626L232.95 116.701L229.733 125.348L236.17 124.666L220.85 131.353L218.012 136.836C218.012 136.836 228.507 132.201 230.686 131.923C230.982 131.881 244.816 136.964 247.517 139.488C248.937 140.811 290.833 135.134 290.833 135.134L279.292 126.718C279.292 126.718 275.417 122.651 268.702 122.651C261.986 122.651 256.824 128.227 257.012 128.227L248.556 126.154L255.839 125.107L266.809 120.667L279.723 118.399L274.81 112.973L259.717 112.532L250.355 120.665L256.313 110.737L269.556 105.72L244.303 90.4359L235.459 94.8932L237.304 88.8415L243.166 87.9431L240.747 85.5162L235.221 84.4401L231.084 85.6857V83.1468L225.669 80.7561L219.563 78.7405L220.753 83.3048L218.291 96.9269C218.291 96.9269 208.651 114.992 208.743 114.794C208.649 114.893 208.929 121.512 209.12 121.611C209.472 121.782 203.827 110.256 203.827 110.256L189.451 88.9764L191.911 90.115L192.097 78.8623L192.288 76.6838L190.075 79.2473L182.619 85.1772L176.857 89.2463Z" fill="#E6C777"/>
<path d="M185.703 90.8095L190.433 104.15L185.797 98.472L184.476 93.271L181.922 90.0559L180.311 88.6359L186.838 84.4764L189.677 81.824L185.703 90.8095Z" fill="#866B10"/>
<path d="M218.393 112.15L228.226 91.257L215.932 111.398L214.133 121.423L209.687 133.43L200.99 117.828L196.829 112.249L205.056 128.708L207.042 134.753L209.5 139.108L216.975 121.613L218.393 112.15Z" fill="#866B10"/>
<path d="M228.889 105.35L223.685 116.598L226.24 103.165L234.181 95.8871L228.889 105.35Z" fill="#866B10"/>
<path d="M240.993 109.884C241.564 109.126 251.773 102.032 251.773 102.032L256.17 102.232L258.544 103.653L240.993 109.884Z" fill="#866B10"/>
<path d="M216.592 142.509C216.592 142.509 221.984 137.405 227.659 135.133C227.659 135.133 232.389 136.271 235.604 137.785C238.819 139.292 240.331 140.903 240.331 140.903L216.592 142.509Z" fill="#E6C777"/>
<path d="M151.826 112.135C154.163 112.135 167.525 115.253 167.525 115.253C167.525 115.253 152.016 107.596 152.016 107.309C152.016 107.309 151.632 112.135 151.826 112.135Z" fill="#866B10"/>
<path d="M223.12 93.4256L217.824 104.488L221.888 91.257L230.24 85.8569L223.12 93.4256Z" fill="#866B10"/>
<path d="M196.829 127.947L177.728 100.996L169.022 94.4655L171.2 94.1842L169.084 91.6667L159.281 88.9798L164.899 89.1625L160.923 87.0054L152.38 85.5788L156.305 84.4912L147.444 79.6752L140.275 78.5777L143.3 77.444L141.6 76.5012L170.634 90.3076L179.238 100.333L190.206 117.828L196.829 127.947Z" fill="#866B10"/>
<path d="M217.35 65.0066C214.892 74.6074 208.482 74.6288 208.482 74.6288L214.041 75.0796L214.703 94.3734L208.085 107.898L193.612 89.6462L197.681 74.0381C197.681 74.0381 193.423 68.4635 192.291 60.1395C190.99 50.5848 194.608 45.3376 194.608 45.3376L205.15 46.1422L199.195 47.5589C199.195 47.5589 203.335 48.3125 208.837 48.3125C209.311 48.3125 217.163 45.9991 217.163 45.9991C217.163 45.9991 219.713 55.7858 217.35 65.0066Z" fill="#E6C777"/>
<path d="M186.424 41.8263C187.676 39.0111 191.061 36.8276 196.581 35.2793C197.923 34.9026 203.82 34.2822 206.578 35.1346C210.989 36.2748 214.269 37.6026 216.416 39.1147C210.72 41.0382 203.554 42.2344 197.018 42.389L201.176 40.0246L190.583 43.7169L187.37 48.7221L186.424 41.8263Z" fill="#E6C777"/>
<path d="M189.833 70.7309L191.533 73.5675L186.047 71.4845L183.399 63.4484L186.914 53.9595L187.725 55.544L187.324 62.3345L185.858 61.9346L189.833 70.7309Z" fill="#E6C777"/>
<path d="M223.782 60.4224L223.213 56.072L220.755 68.6494L224.069 64.8683L223.971 71.3001L226.426 67.2327L224.73 58.9103L223.782 60.4224Z" fill="#E6C777"/>
<path d="M200.233 66.7095C200.233 66.7095 202.594 65.9559 204.49 65.6697C206.377 65.3866 210.163 66.6174 210.163 66.6174C208.653 69.171 202.787 69.5462 200.233 66.7095Z" fill="#866B10"/>
<path d="M202.692 62.596V61.6993L203.779 62.1254L204.584 63.0222L202.692 62.596Z" fill="#866B10"/>
<path d="M216.385 52.574L214.015 53.4675C213.837 53.4987 213.629 53.5596 213.41 53.637L214.509 53.7554C213.656 54.5139 212.003 55.2363 210.443 55.3597L208.612 54.1799L209.061 53.9907L209.01 53.9446L207.896 53.8509L208.655 52.523L213.752 51.9126L216.385 52.574Z" fill="#866B10"/>
<path d="M203.07 53.9939L203.162 56.5443L201.512 54.4563L200.423 55.4057C200.423 55.4057 197.928 55.7084 196.308 55.3579C195.316 55.149 195.255 54.3789 195.284 54.0054L194.179 53.7076L196.434 53.5085C195.725 53.2617 193.423 52.7122 193.423 52.7122L196.212 52.0507L202.361 52.62L203.115 53.9906L203.07 53.9939Z" fill="#866B10"/>
<path d="M145.373 118.213L149.972 115.423L159.727 115.265L170.513 124.318L145.373 118.213Z" fill="#866B10"/>
<path d="M117.796 141.955L117.712 140.77L203.205 146.848L204.33 148.113L117.796 141.955Z" fill="#866B10"/>
<path d="M205.291 149.196L206.44 150.489L117.629 145.94L117.545 144.831L205.291 149.196Z" fill="#866B10"/>
<path d="M207.129 151.262L208.302 152.576L117.88 149.581L117.545 148.052L207.129 151.262Z" fill="#866B10"/>
<path d="M217.362 147.755L218.242 146.483L300.918 138.672L300.487 140.257L217.362 147.755Z" fill="#866B10"/>
<path d="M216.098 149.581L217.005 148.268L301.151 142.739L300.996 144.072L216.098 149.581Z" fill="#866B10"/>
<path d="M214.472 151.936L215.394 150.601L301.212 145.955L300.913 147.483L214.472 151.936Z" fill="#866B10"/>
<path d="M148.784 183.283H133.957V176.952H147.283V172.542H133.957V167.009H148.476V162.234H127.909V188.052H148.784V183.283Z" fill="#05642C"/>
<path d="M181.683 183.283H168.28V162.234H162.233V188.052H181.683V183.283Z" fill="#05642C"/>
<path d="M212.771 170.912H218.627C218.443 169.421 218.01 168.095 217.317 166.936C216.623 165.778 215.736 164.814 214.66 164.044C213.605 163.249 212.396 162.644 211.037 162.234C209.701 161.823 208.279 161.619 206.764 161.619C204.656 161.619 202.753 161.971 201.061 162.668C199.391 163.368 197.978 164.33 196.826 165.561C195.669 166.787 194.781 168.235 194.169 169.9C193.553 171.54 193.242 173.327 193.242 175.249C193.242 177.131 193.553 178.892 194.169 180.532C194.781 182.143 195.669 183.558 196.826 184.758C197.978 185.964 199.393 186.918 201.061 187.619C202.753 188.29 204.656 188.629 206.764 188.629C208.457 188.629 210.01 188.389 211.424 187.907C212.832 187.423 214.068 186.727 215.119 185.809C216.172 184.897 217.021 183.788 217.658 182.482C218.305 181.184 218.7 179.728 218.858 178.112H213.002C212.771 179.846 212.131 181.241 211.073 182.303C210.051 183.366 208.612 183.897 206.764 183.897C205.4 183.897 204.248 183.654 203.297 183.176C202.349 182.666 201.574 182.006 200.985 181.185C200.395 180.366 199.959 179.446 199.672 178.438C199.424 177.399 199.291 176.34 199.291 175.251C199.291 174.119 199.424 173.021 199.672 171.963C199.959 170.902 200.393 169.962 200.985 169.143C201.574 168.296 202.349 167.634 203.297 167.154C204.248 166.648 205.4 166.393 206.764 166.393C207.509 166.393 208.21 166.512 208.885 166.757C209.573 166.974 210.19 167.285 210.729 167.697C211.269 168.106 211.72 168.588 212.075 169.143C212.437 169.671 212.666 170.267 212.771 170.912Z" fill="#05642C"/>
<path d="M238.388 176.912H249.521V188.052H255.564V162.234H249.521V172.142H238.388V162.234H232.343V188.052H238.388V176.912Z" fill="#05642C"/>
<path d="M291.122 183.283H276.293V176.952H289.617V172.542H276.293V167.009H290.808V162.234H270.244V188.052H291.122V183.283Z" fill="#05642C"/>
<path d="M186.44 229.629V221.418H193.04V224.597H196.153V221.418H202.805V224.597H205.867V221.418H212.473V224.597H215.537V221.418H222.14V224.597H225.207V221.418H231.808V229.629H227.723V238.553H235.63V244.974H241.824V238.553H255.173V250.815H163.477V238.553H176.823V244.974H183.111V238.553H191.531V229.629H186.44ZM179.074 251.032L240.172 250.836C243.115 272.198 256.02 284.328 278.896 288.78V308.433H139.574V289.365C165.422 282.395 178.59 269.618 179.074 251.032ZM224.223 285.886C224.223 285.886 223.351 276.088 211.101 276.088C198.851 276.088 197.663 286.934 197.663 286.934L197.658 301.116H224.029L224.223 285.886Z" fill="#E6C777"/>
<path d="M228.836 239.699V228.51H190.412V229.629H191.529V230.748H226.6V237.459H221.164V243.883H217.204V237.459H201.622V243.883H197.666V237.459H192.648V229.629H191.529V230.748V229.629H190.412V239.699H195.429L195.432 246.12H203.86V239.699H214.968V246.12H223.4V239.699H228.836Z" fill="#866B10"/>
<path d="M186.44 229.629H187.539V222.517H191.939V224.597V225.698H197.25V222.519H201.704V224.597V225.698H206.964V222.519H211.372V224.597V225.698H216.634V222.517H221.041V224.597V225.698H226.304V222.517H230.704V228.53H186.44V229.629H187.539H186.44V230.728H232.906V220.319H224.106V223.498H223.239V221.418V220.319H214.436V223.498H213.571V221.418V220.319H204.766V223.498H203.902V221.418V220.319H195.052V223.498H194.137V221.418V220.319H185.341V230.728H186.44V229.629Z" fill="#866B10"/>
<path d="M223.121 300.662V300.107H198.405V287.109H197.851L198.402 287.181C198.838 283.874 200.474 281.435 202.726 279.785C204.977 278.138 207.861 277.301 210.737 277.301C213.612 277.301 216.468 278.138 218.667 279.782C220.866 281.429 222.425 283.861 222.765 287.165L223.318 287.109L222.764 287.099L222.563 300.653L223.121 300.662L223.675 300.67L223.876 287.082L223.874 287.049C223.509 283.448 221.758 280.697 219.331 278.89C216.908 277.078 213.826 276.19 210.737 276.188C207.647 276.188 204.541 277.078 202.068 278.885C199.595 280.69 197.77 283.433 197.298 287.033L197.295 287.071V301.215H223.665L223.673 300.668L223.121 300.662Z" fill="#C4014B"/>
<path d="M175.702 246.093H184.229V239.672H195.429L195.432 246.093H203.86V239.672H214.968V246.093H223.4V239.672H234.508L234.51 246.093H242.939V239.672H254.051V249.698H163.476V250.815H164.593H163.476V251.935H256.288V237.436H240.702V243.855H236.746V237.436H221.164V243.855H217.204V237.436H201.622V243.855H197.667V237.436H181.993V243.855H177.94V237.436H162.357V251.935H163.476V250.815H164.593V239.672H175.702V246.093Z" fill="#866B10"/>
<path d="M241.352 291.662H266.159V286.217L264.644 285.59H241.352V291.662ZM268.4 291.662H277.777V289.62C274.447 288.933 271.319 288.081 268.4 287.054V291.662ZM277.777 293.983H254.048V300.27H277.777V293.983ZM254.586 283.268H259.933C258.028 282.199 256.244 281.022 254.586 279.737V283.268ZM244.394 274.739H249.243C247.598 272.875 246.14 270.852 244.87 268.669H244.394V274.739ZM223.904 274.739H242.155V268.669H219.241L224.424 270.777L222.555 273.337L223.904 274.739ZM213.749 268.669H211.639V270.094L213.37 270.099L213.749 268.669ZM209.398 270.086V268.669H206.654L207.152 270.079L209.398 270.086ZM202.155 268.669H179.054V274.739H197.251L198.192 273.691L196.324 271.701L202.155 268.669ZM195.159 277.062H193.947L193.894 278.428H191.655L191.653 277.99V277.062H167.655C165.717 278.716 163.561 280.261 161.185 281.699V283.268H189.716L191.653 277.99L191.655 278.428H193.894V277.062L194.861 277.396L195.159 277.062ZM192.54 285.59H176.083V291.66H188.783V289.865H192.589L192.54 285.59ZM188.783 293.983H166.079V300.27H192.541L192.55 297.703L188.783 297.707V293.983ZM194.422 300.27H196.495V297.837L194.422 297.85V300.27ZM198.371 300.27H223.098V287.293C223.098 285.95 221.711 277.208 210.53 277.208C199.35 277.208 198.369 287.316 198.369 287.316L198.371 300.27ZM224.829 300.27H226.968V297.508H224.829V300.27ZM228.83 300.27H251.808V293.983H232.613V297.307H228.83V300.27ZM239.109 285.59L228.781 285.588V284.345L231.901 283.303L252.346 283.268V277.868L251.477 277.062L229.158 277.029L231.886 283.268L228.781 284.345V285.588L228.783 289.481H232.615V291.66H239.111L239.109 285.59ZM268.784 302.592V307.233H277.779V302.592H268.784ZM266.543 307.235V302.593H233.571V307.235H266.543ZM170.446 307.235H188.196V309.397H198.371V307.235H223.098V302.593H198.371V307.235V309.397H188.196V307.235V302.593H170.446V307.235ZM190.131 307.235H196.495V302.926H190.142L190.131 307.235ZM224.75 307.235H231.692V303.043L224.75 303V307.235ZM140.694 300.27H163.838V293.983H140.694V300.27ZM168.205 302.592H140.694V307.233H168.205V302.592ZM140.694 291.662H141.156V290.01L140.694 290.138V291.662ZM143.397 291.662H173.843V285.592H153.638C150.492 286.979 147.084 288.231 143.395 289.353L143.397 291.662ZM158.429 283.268H158.944V282.99L158.429 283.268ZM170.159 274.739H176.815V268.669H175.016C173.662 270.819 172.042 272.843 170.159 274.739ZM176.354 266.347H194.603V260.276H178.793C178.177 262.39 177.364 264.414 176.354 266.347ZM196.842 266.347H227.248V260.276H196.842V266.347ZM229.489 266.347H243.622C242.673 264.434 241.852 262.41 241.163 260.276H229.489V266.347ZM179.377 257.954H209.14V251.876H180.162C180.061 253.969 179.801 255.998 179.377 257.954ZM211.379 257.954H240.475C239.952 256.013 239.529 253.987 239.206 251.876H211.381L211.379 257.954ZM176.239 249.638H241.144L241.279 250.604C242.731 261.1 246.586 269.199 252.835 275.267C256.16 278.494 260.188 281.152 264.922 283.268C269.096 285.133 273.817 286.572 279.107 287.602L280.013 287.778V309.473H138.456V288.428L139.282 288.205C152.09 284.753 161.667 279.874 168.055 273.673C174.329 267.568 177.595 260.217 177.939 251.389L176.239 249.638ZM230.734 295.443V291.364H224.937L224.86 295.443H230.734ZM226.894 289.483L226.981 285.129L224.756 285.806C224.756 285.806 224.975 286.79 224.967 287.194L224.936 289.485H226.894V289.483ZM227.751 278.508L224.715 279.914L222.734 280.962C223.378 281.885 223.853 282.823 224.243 283.864L229.354 282.181L227.751 278.508ZM221.469 274.828L219.409 277.649C220.286 278.265 220.678 278.612 221.408 279.369L224.406 277.957L221.469 274.828ZM217.599 276.656L219.871 273.826L221.487 271.613L215.532 269.21L215.401 270.109L214.19 275.7C215.427 275.909 216.398 276.228 217.599 276.656ZM211.891 275.362L212.842 271.97L207.978 271.943L209.153 275.43C210.3 275.325 210.889 275.328 211.891 275.362ZM207.161 275.754L204.905 269.367L199.393 272.225L203.816 276.937C205.178 276.32 205.477 276.164 207.161 275.754ZM199.337 275.01L196.76 278.089L200.275 279.374C200.857 278.803 201.359 278.439 202.04 277.96L199.337 275.01ZM193.341 278.844L191.987 282.531L197.191 284.249C197.56 283.13 198.009 282.154 198.799 281.085L195.1 279.484L193.341 278.844ZM196.65 286.164L194.419 285.47L194.503 289.87H196.497V287.143L196.65 286.164ZM196.492 291.745H190.669L190.662 295.826H196.492V291.745Z" fill="#866B10"/>
<path fill-rule="evenodd" clip-rule="evenodd" d="M206.986 334.831L273.418 360.129L274.447 361.569H258.61V382.753H266.631V396.328H258.198L257.993 401.881H266.425V408.257H147.341V402.292H155.156V396.122H147.752V382.547H155.773V361.774H137.057V360.952L206.986 334.831ZM178.397 395.916V401.881H235.78V395.916H178.397Z" fill="#E6C777"/>
<path d="M163.449 383.438V394.506H168.224V383.438H163.449ZM161.22 394.506V383.438H156.445V394.506H161.22ZM170.452 383.438V394.506H175.227V383.438H170.452ZM177.458 383.438V394.506H182.233V383.438H177.458ZM184.461 383.438V394.506H189.236V383.438H184.461ZM191.465 383.438V394.506H196.24V383.438H191.465ZM198.468 383.438V394.506H203.243V383.438H198.468ZM205.474 383.438V394.506H210.249V383.438H205.474ZM212.477 383.438V394.506H217.252V383.438H212.477ZM219.483 383.438V394.506H224.258V383.438H219.483ZM226.485 383.438V394.506H231.26V383.438H226.485ZM233.49 383.438V394.506H238.265V383.438H233.49ZM240.493 383.438V394.506H245.268V383.438H240.493ZM247.499 383.438V394.506H252.274V383.438H247.499ZM254.501 383.438V394.506H259.276V383.438H254.501ZM261.507 383.438V394.506H265.395V383.438H261.507ZM266.862 358.683V359.738H269.57L266.862 358.683ZM264.63 359.738V357.816L259.859 355.958V359.738H264.63ZM259.808 353.536L275.937 359.813L275.531 361.975H260.168V381.332H267.498V396.609H259.191V400.597H267.694V408.67H146.572V400.597H154.172L154.176 396.609H146.768V381.332H153.695V361.975H136.012L135.619 359.808L207.042 332.999L259.808 353.536ZM257.628 359.738V355.091L252.856 353.232V359.736L257.628 359.738ZM250.625 359.736V352.366L245.852 350.507V359.736H250.625ZM243.624 359.736V349.638L238.851 347.781V359.734L243.624 359.736ZM236.621 359.734V346.914L231.846 345.054V359.734H236.621ZM229.618 359.734V344.187L224.843 342.329V359.733L229.618 359.734ZM222.615 359.733V341.462L217.841 339.605V359.733H222.615ZM215.613 359.733V338.736L210.838 336.878V359.731L215.613 359.733ZM208.608 359.731V336.011L207.025 335.394L203.835 336.594V359.733H208.608V359.731ZM201.606 359.731V337.43L196.832 339.221V359.729L201.606 359.731ZM194.604 359.729V340.057L189.831 341.851V359.729H194.604ZM187.6 359.729V342.687L182.828 344.48V359.729H187.6ZM180.597 359.728V345.314L175.824 347.108V359.728H180.597ZM173.595 359.728V347.944L168.821 349.737V359.726L173.595 359.728ZM166.592 359.726V350.573L161.819 352.366V359.728L166.592 359.726ZM159.589 359.724V353.201L154.814 354.994V359.724H159.589ZM152.586 359.724V355.83L147.811 357.623V359.724H152.586ZM145.585 359.723V358.458L142.215 359.723H145.585ZM148.809 402.819V406.434H265.455V402.834L148.809 402.819ZM234.689 396.611H179.645V400.602H234.689V396.611ZM236.884 396.672V400.589H257.02V396.672H236.884ZM156.433 396.672V400.589H177.409V396.672H156.433ZM149.455 383.438L149.437 394.506H154.215V383.438H149.455ZM157.633 362.847V380.484H256.241V362.826L157.633 362.847Z" fill="#866B10"/>
</svg>
