<svg width="505" height="512" viewBox="0 0 505 512" fill="none" xmlns="http://www.w3.org/2000/svg">
<path fill-rule="evenodd" clip-rule="evenodd" d="M51.6484 25.4772C85.3518 40.2711 140.668 38.5194 177.77 10.5184C229.649 48.5303 279.58 44.6281 327.187 10.5184C358.927 33.4611 407.795 43.2569 453.648 25.9587L474.204 54.5191C420.603 126.153 440.444 194.625 495.731 254.883L472.515 278.423C477.774 432.924 358.112 469.811 289.399 473.641L252.455 503.867L215.787 474.091C93.114 463.497 28.3448 398.78 32.3518 278.82L8.48181 254.703C55.1215 204.256 90.1683 135.321 30.2557 54.5036L51.6484 25.4772Z" fill="black" stroke="black" stroke-width="0.672969"/>
<path fill-rule="evenodd" clip-rule="evenodd" d="M54.4413 275.709H449.171C459.545 384.939 390.148 443.937 284.621 449.738L217.564 449.907C116.603 442.649 41.3845 389.344 54.4413 275.709Z" fill="#004D98"/>
<path d="M280.52 277.022H224.606V451.565H280.52V277.022Z" fill="#A50044"/>
<path d="M169.235 277.022H113.321V433.014H169.235V277.022Z" fill="#A50044"/>
<path d="M169.235 425.021H132.816V441.089H169.235V425.021Z" fill="#A50044"/>
<path d="M391.17 277.022H335.256V433.014H391.17V277.022Z" fill="#A50044"/>
<path d="M371.675 425.021H335.256V441.089H371.675V425.021Z" fill="#A50044"/>
<path fill-rule="evenodd" clip-rule="evenodd" d="M250.745 61.5692V216.604L62.3184 217.967L81.7403 143.346L57.5481 54.0731L176.805 38.74L250.745 61.5692Z" fill="white"/>
<path fill-rule="evenodd" clip-rule="evenodd" d="M253.471 61.5692V216.604L441.897 217.967L422.475 143.346L446.667 54.0731L327.41 38.74L253.471 61.5692Z" fill="#FFED02"/>
<path d="M195.892 43.1563H141.867V215.643H195.892V43.1563Z" fill="#DB0030"/>
<path d="M250.745 161.519V107.494H82.6364V161.519H250.745Z" fill="#DB0030"/>
<path d="M290.361 55.3839H270.38V214.52H290.361V55.3839Z" fill="#DB0030"/>
<path d="M328.292 43.9841H308.31V214.895H328.292V43.9841Z" fill="#DB0030"/>
<path d="M366.47 53.6179H346.489V215.252H366.47V53.6179Z" fill="#DB0030"/>
<path d="M404.292 59.5391H384.31V215.107H404.292V59.5391Z" fill="#DB0030"/>
<path fill-rule="evenodd" clip-rule="evenodd" d="M177.455 22.7991C142.658 48.3042 87.5943 50.9876 55.9845 38.2353L43.3243 54.5338C97.6378 130.957 66.4323 207.843 23.3666 254.931L43.1981 275.919C35.1508 391.108 102.372 457.727 220.546 464.582L252.575 491.332L284.541 464.161C353.36 462.974 474.029 424.378 461.027 275.751L480.964 255.099C430.388 199.01 412.957 122.185 461.827 54.5338L449.944 38.3405C406.703 52.5512 357.233 44.6742 327.464 23.1566C282.814 55.1475 226.112 58.4498 177.455 22.7991ZM327.864 44.6916C354.71 61.3607 384.376 66.1038 435.518 61.621C409.909 105.929 407.143 158.713 429.819 209.674L74.9118 209.464C94 163.927 98.3797 111.526 68.4555 60.6115C105.343 65.9669 141.376 64.6838 177.308 45.1332C226.047 73.7446 276.187 74.268 327.864 44.6916ZM62.3146 277.434H442.899C452.902 382.748 385.991 439.62 284.247 445.213L219.579 445.381C122.237 438.384 49.7259 386.995 62.3146 277.434Z" fill="#EDBB00" stroke="#DEB405" stroke-width="0.631164"/>
<path fill-rule="evenodd" clip-rule="evenodd" d="M68.045 61.1659C97.9692 112.081 93.5864 164.48 74.4981 210.017L429.397 210.227C406.721 159.265 409.497 106.482 435.106 62.1731C383.964 66.6559 354.306 61.9174 327.459 45.2483C275.782 74.8247 225.626 74.2899 176.887 45.6785C140.955 65.229 104.932 66.5214 68.045 61.1659Z" stroke="black" stroke-width="2.69187"/>
<path fill-rule="evenodd" clip-rule="evenodd" d="M62.311 277.433H442.889C452.892 382.747 385.983 439.63 284.239 445.223L219.586 445.386C122.245 438.389 49.7223 386.995 62.311 277.433Z" stroke="black" stroke-width="2.69187"/>
<path d="M252.229 66.491V210.294" stroke="black" stroke-width="2.69187"/>
<path d="M304.715 359.498C304.716 366.294 303.379 373.023 300.779 379.302C298.179 385.581 294.368 391.286 289.563 396.092C284.758 400.897 279.054 404.71 272.776 407.31C266.497 409.911 259.768 411.25 252.973 411.25C246.177 411.25 239.448 409.911 233.169 407.31C226.891 404.71 221.187 400.897 216.382 396.092C211.577 391.286 207.766 385.581 205.166 379.302C202.566 373.023 201.229 366.294 201.23 359.498C201.229 352.702 202.566 345.973 205.166 339.694C207.766 333.416 211.577 327.71 216.382 322.905C221.187 318.099 226.891 314.287 233.169 311.686C239.448 309.085 246.177 307.746 252.973 307.746C259.768 307.746 266.497 309.085 272.776 311.686C279.054 314.287 284.758 318.099 289.563 322.905C294.368 327.71 298.179 333.416 300.779 339.694C303.379 345.973 304.716 352.702 304.715 359.498Z" fill="#EDBB00" stroke="black" stroke-width="2.70536"/>
<path d="M223.124 317.351C217.084 339.363 213.339 361.038 230.761 371.452C242.936 378.729 251.168 363.888 253.448 358.138" stroke="black" stroke-width="2.35539"/>
<path d="M205.09 380.363C215.29 379.897 220.612 379.058 227.155 369.118" stroke="black" stroke-width="2.35539"/>
<path d="M253.019 358.524C263.255 352.233 272.359 355.277 276.588 371.028C286.55 367.025 296.151 374.713 298.653 382.484" stroke="black" stroke-width="2.35539"/>
<path d="M276.8 371.028C269.238 389.284 249.348 397.736 221.426 400.518" stroke="black" stroke-width="2.35539"/>
<path d="M253.035 359.273C246.752 353.52 237.087 346.937 251.168 330.025C245.193 322.454 243.565 315.056 251.375 308.036" stroke="black" stroke-width="2.35539"/>
<path d="M304.479 362.592C295.29 346.348 273.902 323.839 251.168 329.817" stroke="black" stroke-width="2.35539"/>
<path d="M180.627 218.909V219.099H171.227V237.353V247.7V267.994H181.384V247.7H195.874V237.353H181.384V229.424H206.389V218.909H180.627Z" fill="black"/>
<path fill-rule="evenodd" clip-rule="evenodd" d="M257.527 234.226L266.644 229.465C260.824 216.597 237.229 212.938 229.467 229.465C221.458 249.178 229.971 267.492 245.472 269.276C255.322 270.71 263.127 265.888 266.441 257.322L257.426 252.156C255.024 258.139 245.869 262.257 238.888 252.257C236.737 247.789 236.186 240.912 238.584 234.226C244.309 226.359 252.679 227.21 257.527 234.226Z" fill="black" stroke="black" stroke-width="0.134594"/>
<path fill-rule="evenodd" clip-rule="evenodd" d="M292.382 219.036L292.571 268.373L319.427 268.267C328.166 267.044 339.622 252.739 326.199 241.622C333.295 235.368 332.406 221.99 318.207 219.141L292.382 219.036ZM302.708 228.752H316.083C321.965 230.444 320.22 236.099 316.273 237.059H302.708V228.752ZM302.813 246.69L316.882 246.88C323.842 248.951 322.27 256.882 317.093 258.236L302.918 258.131L302.813 246.69Z" fill="black" stroke="black" stroke-width="0.672969"/>
</svg>
