<svg width="512" height="512" viewBox="0 0 512 512" fill="none" xmlns="http://www.w3.org/2000/svg">
<g clip-path="url(#clip0_2003_5545)">
<path d="M262.465 28.5797C272.087 26.9357 282.635 30.0972 289.159 37.4739C298.875 48.0754 298.358 66.0747 288.221 76.2125C277.588 87.4989 257.66 87.383 246.963 76.3178C238.175 67.6238 236.615 53.0389 242.674 42.3847C246.816 34.9974 254.108 29.918 262.465 28.5797ZM262.286 37.8428C248.945 41.5311 244.94 60.5316 254.435 70.0792C260.653 76.8448 272.202 77.5719 279.189 71.5756C287.209 64.9366 288.242 51.7743 281.687 43.7652C276.997 38.0746 269.357 35.7351 262.286 37.8428Z" fill="white"/>
<path d="M200.743 35.3662C205.875 34.0068 211.481 33.3218 216.55 35.2187C226.477 38.8228 230.303 53.0599 223.653 61.206C221.977 63.0818 220.112 64.7785 218.078 66.2538C224.591 71.5229 230.935 77.0028 237.31 82.4511C233.59 83.4101 229.87 84.3585 226.15 85.2964C220.228 80.2591 214.379 75.1481 208.394 70.1846C204.621 71.1962 200.838 72.1658 197.044 73.0826C198.477 79.258 200.121 85.3807 201.691 91.5245C198.54 92.3465 195.379 93.1368 192.207 93.9061C187.728 76.2862 183.291 58.6557 178.718 41.0569C185.989 39.0546 193.366 37.3158 200.743 35.3662ZM190.489 47.0215C191.722 52.9756 193.45 58.8033 194.82 64.7258C199.615 63.5455 204.421 62.4179 209.173 61.0585C212.272 60.1627 215.328 58.2658 216.634 55.1992C218.795 50.046 215.043 43.0592 209.11 43.1962C202.671 43.2594 196.696 45.9888 190.447 47.0426L190.489 47.0215Z" fill="white"/>
<path d="M318.855 36.4201L327.107 39.7607C331.649 54.7988 335.2 70.153 340.216 85.0751C344.948 73.6517 349.3 62.0807 354.295 50.7732C357.172 52.0062 360.081 53.1864 362.979 54.3773C356.182 71.2384 349.279 88.0996 342.514 104.961C339.942 104.023 337.403 103.022 334.884 101.936C330.426 86.3292 326.306 70.6061 321.553 55.0833C316.832 66.9915 311.953 78.8365 307.158 90.7131C304.207 89.5328 301.256 88.3314 298.316 87.0985C305.124 70.1741 311.974 53.2813 318.855 36.4201Z" fill="white"/>
<path d="M147.177 56.1266C150.033 54.6513 152.889 53.1759 155.723 51.6689C164.259 67.7819 172.521 84.0529 180.847 100.282L172.289 104.718C163.859 88.5212 155.492 72.3239 147.177 56.1266Z" fill="white"/>
<path d="M98.0161 101.694C98.7116 86.2343 113.465 73.7044 128.63 73.8097C128.63 76.9712 128.714 80.1327 128.851 83.2942C120.42 83.389 111.4 87.9626 108.544 96.3089C104.265 108.586 115.257 122.939 128.124 122.454C137.092 122.033 144.511 114.519 146.661 106.078C144.405 103.654 142.245 101.146 140.169 98.543C136.438 101.388 133.035 104.624 129.409 107.616C127.555 105.509 125.711 103.306 123.93 101.093C129.894 96.1297 135.659 90.9344 141.581 85.9182C146.418 91.946 152.193 97.3627 156.482 103.728C154.501 118.239 142.024 131.528 126.975 132.086C111.031 132.708 96.9201 117.47 98.0161 101.694Z" fill="white"/>
<path d="M349.332 108.238C367.563 99.934 385.731 91.4929 403.994 83.252C406.165 85.2543 408.378 87.2249 410.591 89.185C404.436 108.154 398.092 127.123 391.948 146.091C389.209 144.047 386.679 141.708 384.203 139.421C385.72 134.91 387.301 130.411 388.829 125.9C382.506 120.22 376.088 114.688 369.913 108.881C365.413 110.641 361.135 112.896 356.74 114.888C354.232 112.706 351.766 110.483 349.332 108.238ZM378.165 104.761C382.707 108.976 387.333 113.001 391.927 117.111C394.393 109.735 396.88 102.358 399.304 94.8862C392.233 98.1531 385.172 101.441 378.133 104.761H378.165Z" fill="white"/>
<path d="M236.056 96.0876C324.409 85.2648 404.805 148.125 415.628 236.478C426.451 324.83 363.59 405.227 275.238 416.049C186.885 426.872 106.489 364.012 95.6661 275.659C90.8606 236.394 100.661 196.717 123.213 164.207C148.937 126.901 190.974 101.293 236.056 96.0876ZM203.904 112.664C202.819 113.065 201.849 113.718 201.059 114.561C173.143 142.498 145.217 170.414 117.28 198.329C115.415 200.321 112.959 202.018 112.158 204.758C106.426 221.05 103.454 238.175 103.348 255.447C153.974 204.863 204.558 154.28 255.099 103.696C237.648 103.749 220.333 106.773 203.904 112.664ZM277.335 125.31C284.711 132.402 291.783 139.884 299.223 146.956C307.759 138.009 316.727 129.494 325.326 120.61C315.357 115.478 304.871 111.421 294.048 108.512C288.474 114.076 282.815 119.588 277.377 125.321L277.335 125.31ZM239.566 132.076V132.276C229.238 142.213 219.258 152.52 209.079 162.605C198.445 173.048 187.907 183.586 177.464 194.22C167.273 204.463 157.009 214.622 146.903 224.886C136.46 234.992 126.353 245.446 115.984 255.626C126.122 266.09 136.523 276.312 146.861 286.587C157.199 296.862 167.21 307.137 177.58 317.211C187.907 327.908 198.561 338.288 209.079 348.826C219.469 359.101 229.565 369.702 240.23 379.703C244.961 385.214 250.473 390.062 255.521 395.3C260.79 390.104 265.964 384.761 271.328 379.629V379.408C280.538 370.503 289.443 361.293 298.58 352.314C299.929 351.134 301.13 349.774 302.142 348.289C302.142 341.165 302.057 334.041 302.142 326.928C291.867 327.339 281.582 327.149 271.296 327.065C269.831 327.275 268.135 326.917 266.86 327.865C262.876 330.742 259.483 334.273 255.594 337.35C251.779 334.294 248.418 330.7 244.466 327.865C243.286 326.917 241.642 327.391 240.251 327.212C229.892 327.086 219.532 327.444 209.194 326.991C198.445 325.031 189.593 315.114 190.057 303.996C190.057 267.903 189.899 231.799 190.152 195.716H209.194H240.208C240.208 195.716 260.927 195.716 271.286 195.716H302.099C308.538 195.842 314.988 195.537 321.416 195.906C321.247 229.133 321.416 262.36 321.342 295.587C321.247 301.467 321.985 307.664 319.509 313.196C316.347 320.288 309.95 325.41 302.342 326.949C302.342 334.094 302.247 341.238 302.395 348.383C313.08 338.045 323.471 327.423 334.009 316.885C344.158 306.663 354.569 296.662 364.486 286.218C374.94 276.302 384.962 265.943 395.131 255.742C384.888 245.593 374.813 235.287 364.486 225.181C354.158 215.075 344.115 204.705 333.82 194.62C323.471 183.86 312.827 173.343 302.152 162.9C291.951 152.551 281.571 142.371 271.349 132.044C266.154 126.701 260.811 121.506 255.542 116.237C250.199 121.474 244.887 126.754 239.608 132.086L239.566 132.076ZM320.879 168.559C327.971 175.936 335.432 183.039 342.545 190.436C352.978 180.299 363.147 169.887 373.475 159.633C366.952 151.687 359.659 144.405 351.703 137.882C341.386 148.125 331.269 158.484 320.879 168.559ZM364.37 212.135C371.599 219.416 378.86 226.677 386.152 233.896C391.685 228.395 397.154 222.831 402.74 217.372C399.947 206.433 395.9 195.864 390.684 185.852C381.863 194.599 373.127 203.398 364.338 212.135H364.37ZM195.389 201.017C195.179 235.308 195.389 269.6 195.305 303.891C195.01 312.743 202.345 321.005 211.207 321.637C221.398 322.048 231.62 321.637 241.768 321.848C247.722 321.521 251.253 327.117 255.468 330.279C258.977 327.634 261.886 324.008 266.006 322.238C277.904 320.942 289.991 322.607 301.91 321.353C310.098 319.625 315.947 312.374 315.905 303.996C315.905 269.694 315.905 235.382 315.905 201.08C275.796 200.964 235.593 201.122 195.389 201.017ZM255.763 407.893C273.246 407.861 290.592 404.826 307.052 398.935C308.317 398.493 309.455 397.723 310.34 396.722C339.099 367.826 367.911 338.983 396.754 310.203C397.397 309.592 397.924 308.886 398.324 308.096C404.774 291.403 407.145 273.499 407.977 255.731C357.172 306.389 306.61 357.278 255.763 407.893ZM108.333 294.28C111.189 305.166 115.246 315.704 120.431 325.705C129.22 316.927 137.998 308.138 146.777 299.359C139.526 292.099 132.265 284.848 125.005 277.588L108.333 294.28ZM137.682 351.872C144.163 359.881 151.466 367.173 159.475 373.643C169.718 363.379 179.972 353.126 190.247 342.872C183.06 335.495 175.767 328.287 168.464 321.068C158.242 331.396 147.978 341.66 137.682 351.872ZM185.715 390.863C195.653 396.164 206.202 400.242 217.119 403.003C222.567 397.365 228.269 391.969 233.664 386.279C226.456 379.06 219.195 371.894 212.05 364.612C203.167 373.211 194.567 382.137 185.715 390.821V390.863Z" fill="white"/>
<path d="M200.911 206.36H310.309C310.309 207.793 310.425 209.226 310.477 210.659C305.883 209.226 300.129 211.386 298.885 216.339C297.831 222.43 299.086 228.69 298.221 234.802C296.725 239.545 290.982 238.817 287.082 238.649C284.458 238.712 282.151 236.91 281.56 234.349C280.717 228.111 282.288 221.619 280.707 215.486C278.315 208.625 267.334 208.594 264.9 215.486C263.15 221.956 265.279 228.901 263.709 235.414C262.001 239.429 257.038 238.838 253.487 238.754C250.957 239.007 248.555 237.605 247.522 235.277C246.12 228.711 248.27 221.703 246.278 215.254C243.623 208.552 232.811 208.836 230.471 215.675C229.07 221.724 230.471 228.047 229.723 234.191C229.185 236.963 226.677 238.902 223.864 238.744C220.028 238.912 214.379 239.492 213.02 234.823C212.082 228.774 213.294 222.578 212.398 216.508C211.197 211.471 205.38 209.258 200.722 210.733L200.911 206.36Z" fill="white"/>
<path d="M200.869 234.634C204.674 234.813 210.027 233.527 212.135 237.732C214.042 244.392 211.376 251.748 213.663 258.366C216.476 264.963 227.268 264.467 229.386 257.575C230.808 251.379 229.27 244.93 230.229 238.607C230.966 235.888 233.854 234.391 236.552 234.613C239.46 234.697 242.959 233.98 245.298 236.183C248.007 238.712 246.805 242.759 247.069 246.026C247.374 250.831 245.804 256.564 249.451 260.495C253.497 264.994 261.949 263.35 263.74 257.481C265.047 251.411 263.74 245.109 264.457 238.975C265.079 236.33 267.503 234.518 270.211 234.644C273.994 234.486 279.516 233.854 281.034 238.396C282.182 244.719 280.559 251.231 281.919 257.502C284.026 264.33 294.617 264.994 297.579 258.556C299.981 251.959 297.294 244.592 299.117 237.879C301.151 233.548 306.547 234.802 310.383 234.623C310.477 243.054 310.383 251.432 310.435 259.841C305.957 258.545 300.413 260.421 299.012 265.195C297.8 271.265 299.012 277.545 298.327 283.668C297.631 286.261 295.218 288.02 292.541 287.883C288.705 288.063 283.057 288.611 281.676 283.921C280.707 277.651 282.245 271.17 280.854 264.952C278.631 257.723 267.07 257.681 264.815 264.952C263.424 271.159 265.005 277.651 263.962 283.921C263.098 286.566 260.505 288.242 257.744 287.947C254.214 288.02 249.377 288.6 247.638 284.659C246.12 278.188 248.186 271.296 246.489 264.857C244.255 258.039 233.506 257.712 230.777 264.309C228.901 270.506 230.65 277.177 229.723 283.542C229.101 286.208 226.656 288.052 223.927 287.915C220.133 288.084 214.622 288.684 213.104 284.153C211.934 277.83 213.589 271.317 212.229 265.047C210.723 260.368 205.243 258.577 200.806 259.894C200.89 251.453 200.838 243.043 200.869 234.634Z" fill="white"/>
<path d="M200.859 283.879C204.726 284.016 210.259 282.73 212.24 287.167C213.81 293.648 211.66 300.603 213.441 307.063C215.823 313.945 226.835 313.976 229.249 307.116C230.861 300.982 229.249 294.47 230.113 288.242C230.65 285.27 233.749 283.605 236.594 283.847C240.156 283.731 245.109 283.31 246.647 287.42C247.701 293.553 246.352 299.887 247.385 306.03C248.481 310.14 252.454 312.806 256.669 312.269C260.495 311.826 263.53 308.844 264.046 305.029C264.562 299.486 263.888 293.911 264.341 288.368C264.91 285.639 267.376 283.742 270.158 283.889C273.825 283.816 278.979 283.025 280.791 287.177C282.53 293.869 279.917 301.193 282.298 307.769C285.175 314.092 295.46 313.649 297.8 307.126C299.56 300.645 297.421 293.69 299.001 287.177C300.982 282.783 306.483 284.016 310.351 283.868C310.351 291.625 310.435 299.391 310.351 307.158C310.361 311.879 306.631 315.757 301.92 315.926C290.824 316.168 279.706 315.725 268.62 316.158C263.677 316.231 259.335 318.792 255.626 321.817C251.6 318.033 246.257 315.968 240.735 316.052C230.25 315.831 219.754 316.136 209.268 315.915C204.631 315.673 200.975 311.858 200.932 307.211C200.743 299.433 200.901 291.656 200.859 283.879Z" fill="white"/>
<path d="M101.557 405.079C107.764 398.271 114.203 391.674 120.589 385.056C125.605 389.841 130.569 394.688 135.68 399.378C134.468 400.843 133.214 402.255 131.949 403.677C128.356 400.295 124.762 396.912 121.263 393.424L117.227 397.302C120.21 400.548 123.55 403.467 126.712 406.533C125.394 407.882 124.098 409.242 122.781 410.591C119.619 407.598 116.532 404.573 113.296 401.644C110.841 404.152 108.417 406.702 105.993 409.252L101.557 405.079Z" fill="white"/>
<path d="M390.642 385.436C395.605 382.706 401.791 387.818 400.368 393.213C406.08 390.347 412.951 396.859 409.979 402.634C407.008 408.409 401.443 411.961 397.26 416.64C390.726 410.222 384.445 403.551 377.859 397.186C382 393.192 385.625 388.397 390.642 385.436ZM386.015 396.691L389.851 400.706C391.843 398.704 394.246 396.954 395.531 394.383C396.343 392.223 393.424 389.862 391.548 391.495C389.535 393.044 387.691 394.783 386.015 396.691ZM400.305 398.134C397.766 399.863 395.763 402.244 393.54 404.341C394.899 405.754 396.301 407.134 397.755 408.504C399.863 406.312 402.318 404.373 404.078 401.844C405.743 399.652 402.476 396.375 400.305 398.134Z" fill="white"/>
<path d="M366.478 406.007C368.153 404.816 369.839 403.635 371.536 402.466C374.697 407.113 378.122 411.623 381.199 416.366C383.465 419.791 384.161 424.554 381.821 428.126C379.45 431.741 375.677 434.196 371.409 434.892C367.426 435.398 363.738 433.005 361.482 429.907C358.173 425.45 355.159 420.792 351.85 416.334C353.526 415.101 355.212 413.889 356.909 412.688C359.607 416.524 362.294 420.36 364.96 424.206C366.182 425.839 367.405 427.694 369.386 428.485C373.507 430.013 378.755 425.228 376.636 421.002C373.738 415.702 369.787 411.054 366.478 406.007Z" fill="white"/>
<path d="M140.843 403.751L145.954 407.218C142.709 412.329 138.746 416.998 135.954 422.383C133.951 426.661 139.231 431.383 143.33 429.76C145.206 428.98 146.344 427.188 147.546 425.629C150.222 421.708 152.899 417.788 155.576 413.868C157.272 415.006 158.969 416.144 160.676 417.272C157.694 421.803 154.627 426.282 151.498 430.719C149.306 433.88 145.796 436.42 141.802 436.167C134.594 435.672 126.933 428.358 129.894 420.749C132.666 414.574 137.25 409.474 140.843 403.751Z" fill="white"/>
<path d="M166.22 420.497C173.154 423.658 180.046 426.978 186.969 430.223L184.451 435.377C181.953 434.133 179.424 432.963 176.842 431.91C173.955 438.538 170.688 444.987 167.716 451.584C165.809 450.72 163.922 449.814 162.068 448.866C165.229 442.374 168.232 435.766 171.373 429.254C168.896 428.021 166.388 426.841 163.88 425.702C164.649 423.964 165.429 422.235 166.22 420.497Z" fill="white"/>
<path d="M329.246 427.694C331.037 426.862 332.808 425.955 334.684 425.291C338.077 431.667 341.144 438.222 344.305 444.734C348.52 442.838 352.535 440.719 356.666 438.749C357.488 440.435 358.3 442.121 359.122 443.818C353.168 446.695 347.277 449.698 341.302 452.533C337.35 444.25 333.008 436.093 329.246 427.694Z" fill="white"/>
<path d="M193.45 432.658C198.856 434.512 204.758 435.229 209.753 438.106C214.569 441.13 213.125 448.644 208.004 450.499C212.619 454.124 210.975 462.597 204.842 463.313C198.245 463.819 192.08 460.573 185.768 459.098C188.35 450.235 190.847 441.415 193.45 432.658ZM197.666 439.539C197.149 441.362 196.612 443.185 196.106 445.019C198.646 445.851 201.259 446.442 203.904 446.779C205.337 446.716 206.444 445.504 206.381 444.081C206.349 443.428 206.086 442.816 205.622 442.353C203.325 440.688 200.332 440.393 197.687 439.497L197.666 439.539ZM194.599 449.982C194.104 451.837 193.545 453.713 193.06 455.578C195.895 456.527 198.793 457.296 201.733 457.865C204.083 458.371 205.949 454.999 204.147 453.365C201.459 451.205 197.803 450.962 194.62 449.94L194.599 449.982Z" fill="white"/>
<path d="M303.817 439.771C307.801 433.227 316.927 431.045 323.703 434.291C322.934 436.114 322.164 437.937 321.406 439.771C318.023 438.643 313.913 437.874 310.983 440.477C305.883 444.619 308.264 453.85 314.482 455.462C318.697 456.664 322.596 453.766 324.62 450.299C326.316 451.089 327.992 451.922 329.668 452.775C326.443 459.962 317.201 463.682 310.014 460.278C302.511 456.969 299.465 446.674 303.817 439.771Z" fill="white"/>
<path d="M229.386 442.269C236.762 439.434 246.247 443.175 248.681 450.889C251.2 457.876 247.427 466.443 240.324 468.888C233.137 471.712 223.8 468.256 221.103 460.784C218.194 453.734 222.072 444.734 229.386 442.269ZM231.557 447.717C225.234 450.246 224.949 460.531 231.198 463.292C236.046 465.958 242.443 462.238 242.896 456.853C244.245 450.689 237.321 444.924 231.557 447.717Z" fill="white"/>
<path d="M258.355 443.101C260.4 442.943 262.455 442.806 264.51 442.669C264.921 449.951 265.469 457.233 265.869 464.525C270.432 464.314 274.985 463.977 279.569 463.735C279.643 465.579 279.737 467.434 279.843 469.289C273.256 469.721 266.67 470.216 260.073 470.479C259.515 461.353 258.945 452.227 258.355 443.101Z" fill="white"/>
<path d="M236.805 0.526906C241.241 -0.221309 245.762 0.158066 250.251 0.0316074C259.135 0.189681 268.061 -0.432076 276.903 0.706054C311.847 3.44599 345.833 13.4046 376.731 29.9497C423.352 54.978 461.142 93.7587 484.948 141.023C498.711 168.211 507.395 197.676 510.567 227.984C511.009 232.273 511.315 236.573 511.842 240.851C512 250.22 511.916 259.599 511.895 268.978C510.546 290.897 506.952 312.775 500.165 333.714C490.765 363.422 475.959 391.148 456.506 415.491C439.339 437.031 418.853 455.694 395.805 470.775C361.061 493.516 321.247 507.342 279.885 511.031C276.249 511.22 272.677 512.084 269.03 511.968C259.894 512.011 250.768 512.011 241.631 511.968C230.081 511.146 218.594 509.671 207.213 507.563C178.244 502.031 150.475 491.461 125.152 476.339C102.516 462.734 82.0295 445.831 64.3885 426.177C56.2003 416.46 48.107 406.618 41.3309 395.848C18.0414 360.218 4.09931 319.308 0.779771 276.871C-0.432126 266.154 0.295007 255.289 0.115857 244.487C1.18022 220.892 5.47982 197.55 12.8777 175.124C23.6267 142.688 40.8145 112.749 63.3979 87.109C83.9791 63.6509 108.628 44.1236 136.175 29.4649C167.358 12.962 201.617 3.09823 236.805 0.526906ZM239.85 8.44112C236.488 8.83103 233.085 8.58865 229.765 9.25256C207.656 11.6764 185.968 16.9876 165.25 25.0599C128.84 39.2549 96.1719 62.5444 70.1846 91.6826C56.7378 107.026 45.1457 123.909 35.6508 141.961C22.8574 166.694 14.3319 193.419 10.4328 220.997C8.38838 236.899 7.27133 252.97 8.32515 269.009C9.87427 294.818 14.9115 320.552 24.3222 344.706C28.9906 356.719 34.5548 368.364 40.9831 379.534C80.9019 449.414 152.362 495.466 232.484 502.969C236.204 503.538 240.008 503.222 243.739 503.907C251.663 504.254 259.609 504.17 267.545 503.97C271.897 503.232 276.344 503.548 280.707 502.811C337.36 497.341 390.347 472.345 430.592 432.099C448.697 414.132 463.977 393.519 475.907 370.977C490.85 342.408 500.029 311.173 502.895 279.063C503.475 275.48 503.201 271.823 503.843 268.251C504.813 245.277 502.747 222.283 497.7 199.858C491.282 172.026 480.059 145.533 464.525 121.569C432.911 72.4293 383.455 34.8921 327.349 18.2944C307.421 12.3824 286.851 8.91534 266.08 7.9669C257.344 8.0512 248.544 7.50321 239.85 8.44112Z" fill="#CE142C"/>
<path d="M248.46 7.67183C293.69 6.34402 338.425 17.4513 377.785 39.7713C430.213 69.3732 471.154 118.692 490.354 175.778C534.457 305.398 465.126 446.231 335.506 490.323C230.861 525.921 115.288 487.952 52.1536 397.218C-1.96021 319.572 -7.15556 217.888 38.7595 135.132C81.2181 58.561 160.95 10.0956 248.47 7.67183H248.46ZM233.959 16.6188C102.242 28.5797 5.15309 145.059 17.1245 276.776C29.0854 408.493 145.565 505.582 277.282 493.611C408.999 481.65 506.088 365.171 494.117 233.453C486.424 148.694 434.312 74.3894 357.257 38.2749C318.813 20.2229 276.249 12.7407 233.959 16.6188Z" fill="white"/>
<path d="M233.959 16.6187C365.919 4.68947 482.556 102 494.485 233.949C506.415 365.898 409.105 482.546 277.156 494.475C145.196 506.404 28.5586 409.094 16.6293 277.145C8.65187 188.94 49.9302 103.506 123.993 54.9358C156.946 33.3324 194.715 20.1807 233.959 16.6187ZM262.412 28.0422C254.045 29.3805 246.763 34.4705 242.622 41.8578C236.562 52.512 238.122 67.1496 246.911 75.7909C257.649 86.8561 277.535 86.972 288.168 75.6855C298.306 65.5478 298.822 47.5485 289.106 36.947C282.635 29.5281 272.087 26.4404 262.465 28.0422H262.412ZM200.743 34.8499C193.366 36.7784 185.989 38.5277 178.718 40.5405C183.291 58.1394 187.728 75.7698 192.207 93.3898C195.368 92.6205 198.53 91.8301 201.691 91.0081C200.121 84.8643 198.53 78.7416 197.044 72.5662C200.838 71.6494 204.621 70.6904 208.394 69.6682C214.379 74.6317 220.228 79.7428 226.15 84.78C229.87 83.8421 233.59 82.8937 237.31 81.9347C230.935 76.4864 224.591 71.0171 218.078 65.7374C220.102 64.2515 221.967 62.5444 223.632 60.658C230.25 52.5436 226.456 38.3064 216.55 34.7024C211.439 32.8055 205.833 33.4905 200.743 34.8499ZM318.897 35.8299C312.005 52.6911 305.156 69.5734 298.358 86.4661C301.299 87.6991 304.249 88.911 307.2 90.0808C311.995 78.2042 316.874 66.3592 321.595 54.451C326.348 69.9738 330.468 85.6969 334.926 101.304C337.445 102.379 339.984 103.391 342.556 104.328C349.311 87.4673 356.255 70.6061 363.021 53.7449C360.123 52.5541 357.214 51.3738 354.337 50.1409C349.342 61.4484 344.99 73.0194 340.258 84.4428C335.242 69.5628 331.691 54.2086 327.149 39.1284L318.897 35.8299ZM147.177 55.5891C155.544 71.7442 163.901 87.9415 172.237 104.181L180.847 99.7443C172.521 83.5154 164.259 67.2444 155.723 51.1315C152.889 52.6384 150.033 54.1138 147.177 55.5891ZM98.0161 101.156C96.9623 116.964 111.031 132.17 126.986 131.517C142.024 130.959 154.501 117.67 156.493 103.159C152.204 96.8358 146.429 91.377 141.592 85.3491C135.669 90.3653 129.905 95.5606 123.94 100.524C125.721 102.737 127.565 104.898 129.42 107.047C133.045 104.054 136.449 100.819 140.18 97.9739C142.245 100.577 144.405 103.085 146.671 105.509C144.563 113.939 137.102 121.464 128.134 121.885C115.267 122.37 104.276 108.017 108.554 95.7398C111.41 87.3935 120.42 82.8199 128.862 82.7251C128.725 79.5636 128.682 76.4021 128.64 73.2407C113.465 73.1669 98.7116 85.6969 98.0161 101.156ZM349.332 107.701C351.777 109.945 354.232 112.169 356.709 114.371C361.103 112.38 365.382 110.156 369.881 108.365C376.057 114.171 382.527 119.704 388.798 125.384C387.269 129.894 385.689 134.394 384.171 138.904C386.69 141.191 389.177 143.531 391.917 145.575C398.061 126.606 404.405 107.637 410.559 88.6686C408.346 86.7085 406.133 84.7379 403.962 82.7356C385.699 90.9554 367.531 99.3966 349.332 107.701ZM236.056 95.5501C190.974 100.756 148.937 126.364 123.213 163.669C84.9171 218.837 84.896 291.972 123.15 347.161C173.818 420.265 274.152 438.443 347.256 387.775C420.36 337.107 438.538 236.773 387.87 163.669C353.821 114.561 295.376 88.3314 236.056 95.5501ZM101.557 404.542L106.004 408.704C108.428 406.154 110.852 403.604 113.307 401.096C116.469 404.025 119.63 407.05 122.791 410.043C124.109 408.694 125.405 407.334 126.722 405.985C123.561 402.919 120.241 400 117.238 396.754L121.274 392.876C124.773 396.364 128.366 399.747 131.96 403.129C133.224 401.707 134.478 400.295 135.69 398.83C130.579 394.14 125.616 389.345 120.6 384.508C114.192 391.137 107.764 397.734 101.557 404.542ZM390.642 384.898C385.625 387.849 382.011 392.654 377.859 396.648C384.445 402.971 390.726 409.684 397.26 416.102C401.475 411.423 406.987 407.735 409.979 402.097C412.972 396.459 406.08 389.809 400.369 392.676C401.791 387.28 395.605 382.169 390.642 384.898ZM366.478 405.469C369.787 410.517 373.738 415.164 376.636 420.465C378.744 424.68 373.475 429.475 369.386 427.947C367.405 427.157 366.225 425.302 364.96 423.669C362.273 419.822 359.586 415.986 356.909 412.15C355.212 413.352 353.526 414.563 351.85 415.796C355.138 420.254 358.173 424.912 361.482 429.37C363.738 432.468 367.426 434.86 371.409 434.354C375.677 433.659 379.45 431.203 381.821 427.589C384.161 424.016 383.465 419.253 381.199 415.828C378.122 411.086 374.729 406.576 371.536 401.928C369.839 403.098 368.153 404.278 366.478 405.469ZM140.843 403.214C137.25 408.904 132.666 414.037 129.873 420.191C126.912 427.799 134.573 435.113 141.781 435.608C145.775 435.861 149.285 433.29 151.477 430.16C154.606 425.734 157.662 421.255 160.655 416.713C158.948 415.586 157.251 414.448 155.555 413.309C152.868 417.23 150.191 421.15 147.525 425.07C146.366 426.63 145.227 428.421 143.309 429.201C139.189 430.845 133.909 426.124 135.933 421.824C138.725 416.439 142.688 411.771 145.933 406.66L140.843 403.214ZM166.22 420.012C165.429 421.74 164.649 423.479 163.88 425.218C166.388 426.356 168.896 427.536 171.373 428.769C168.211 435.282 165.271 441.889 162.067 448.381C163.922 449.329 165.809 450.235 167.716 451.1C170.688 444.503 173.955 438.053 176.842 431.425C179.424 432.478 181.953 433.648 184.451 434.892L186.969 429.739C180.046 426.44 173.154 423.173 166.22 420.012ZM329.246 427.209C333.008 435.64 337.35 443.733 341.302 452.048C347.277 449.213 353.168 446.21 359.122 443.333C358.3 441.636 357.488 439.95 356.666 438.264C352.535 440.235 348.478 442.353 344.305 444.25C341.144 437.737 338.077 431.182 334.684 424.807C332.808 425.418 331.037 426.335 329.246 427.157V427.209ZM193.45 432.131C190.847 440.93 188.35 449.751 185.789 458.561C192.112 460.046 198.266 463.292 204.863 462.776C210.975 462.059 212.619 453.587 208.025 449.961C213.146 448.128 214.59 440.593 209.774 437.568C204.758 434.649 198.856 433.933 193.45 432.078V432.131ZM303.817 439.286C299.465 446.189 302.51 456.485 310.014 459.794C317.201 463.197 326.443 459.477 329.668 452.29C327.992 451.437 326.316 450.604 324.62 449.814C322.596 453.281 318.676 456.137 314.482 454.978C308.264 453.365 305.883 444.134 310.983 439.992C313.913 437.389 318.023 438.159 321.406 439.286C322.164 437.453 322.934 435.629 323.703 433.806C316.927 430.55 307.801 432.658 303.817 439.233V439.286ZM229.386 441.784C222.072 444.25 218.194 453.218 221.103 460.299C223.8 467.771 233.137 471.228 240.324 468.403C247.427 465.958 251.2 457.391 248.681 450.404C246.226 442.637 236.72 438.896 229.386 441.731V441.784ZM258.355 442.616C258.935 451.753 259.504 460.879 260.062 470.016C266.659 469.752 273.246 469.257 279.832 468.825C279.727 466.97 279.632 465.115 279.558 463.271C274.985 463.514 270.432 463.851 265.859 464.062C265.458 456.769 264.91 449.487 264.499 442.205C262.455 442.268 260.4 442.405 258.355 442.564V442.616Z" fill="#CF0C29"/>
<path d="M262.286 37.8427C269.357 35.7456 277.008 38.0956 281.687 43.7968C288.242 51.8059 287.209 64.9681 279.189 71.6072C272.203 77.6035 260.653 76.8763 254.435 70.1108C244.94 60.5315 248.945 41.5311 262.286 37.8427Z" fill="#CF0C29"/>
<path d="M190.447 47.0426C196.696 45.9888 202.671 43.2594 209.068 43.2173C215.001 43.0803 218.753 50.0671 216.592 55.2203C215.286 58.2869 212.229 60.1838 209.131 61.0796C204.378 62.439 199.573 63.5666 194.778 64.7469C193.366 58.8244 191.68 52.9967 190.447 47.0426Z" fill="#CF0C29"/>
<path d="M378.133 104.76C385.162 101.441 392.212 98.153 399.294 94.8862C396.849 102.263 394.362 109.703 391.917 117.111C387.269 113.001 382.675 108.923 378.133 104.76Z" fill="#CF0C29"/>
<path d="M203.904 112.664C220.323 106.763 237.637 103.717 255.088 103.654C204.589 154.332 154.006 204.916 103.338 255.405C103.443 238.132 106.415 221.008 112.148 204.716C112.949 201.976 115.404 200.279 117.269 198.287C145.206 170.382 173.133 142.456 201.048 114.519C201.839 113.686 202.819 113.054 203.904 112.664Z" fill="#CF0C29"/>
<path d="M277.377 125.321C282.815 119.588 288.474 114.076 294.09 108.523C304.913 111.431 315.399 115.488 325.368 120.621C316.769 129.504 307.801 138.019 299.265 146.966C291.825 139.895 284.796 132.413 277.377 125.321Z" fill="#CF0C29"/>
<path d="M271.349 131.97C281.571 142.298 291.951 152.478 302.152 162.826C302.057 173.765 302.152 184.704 302.152 195.642H271.265C271.349 174.471 271.201 153.194 271.349 131.97Z" fill="#CF0C29"/>
<path d="M209.173 162.615C219.353 152.53 229.333 142.224 239.66 132.286C240.546 136.407 240.198 140.633 240.208 144.816V195.632C229.87 195.632 219.532 195.632 209.194 195.632C209.173 184.64 209.173 173.628 209.173 162.615Z" fill="#CF0C29"/>
<path d="M320.879 168.559C331.301 158.484 341.418 148.083 351.703 137.882C359.659 144.405 366.952 151.687 373.475 159.633C363.148 169.887 352.978 180.299 342.545 190.436C335.4 183.039 327.939 175.978 320.879 168.559Z" fill="#CF0C29"/>
<path d="M364.338 212.135C373.127 203.398 381.863 194.599 390.684 185.852C395.9 195.863 399.947 206.433 402.74 217.372C397.154 222.831 391.685 228.395 386.152 233.896C378.828 226.688 371.557 219.438 364.338 212.135Z" fill="#CF0C29"/>
<path d="M146.924 224.875C157.083 214.611 167.347 204.452 177.485 194.209C177.569 235.203 177.485 276.207 177.548 317.201C167.179 307.126 157.041 296.809 146.829 286.577C147.061 266.006 146.998 245.435 146.924 224.875Z" fill="#CF0C29"/>
<path d="M333.788 194.546C344.084 204.674 354.232 214.938 364.454 225.107V286.102C354.538 296.546 344.126 306.547 333.978 316.769C333.893 276.06 334.273 235.287 333.788 194.546Z" fill="#CF0C29"/>
<path d="M195.389 201.017C235.593 201.122 275.796 200.964 315.999 201.09C315.936 235.392 315.999 269.705 315.999 304.007C316.042 312.385 310.193 319.635 302.005 321.363C290.086 322.617 277.999 320.952 266.101 322.249C262.012 324.019 259.104 327.644 255.563 330.289C251.295 327.128 247.775 321.521 241.863 321.859C231.662 321.616 221.44 322.059 211.302 321.648C202.439 321.016 195.105 312.754 195.4 303.902C195.347 269.6 195.179 235.308 195.389 201.017ZM200.911 206.36L200.785 210.659C205.443 209.184 211.26 211.397 212.461 216.434C213.357 222.504 212.145 228.701 213.083 234.75C214.485 239.418 220.091 238.838 223.927 238.67C226.741 238.828 229.249 236.889 229.786 234.117C230.503 227.974 229.133 221.651 230.534 215.602C232.832 208.762 243.644 208.478 246.342 215.18C248.333 221.64 246.184 228.648 247.585 235.203C248.618 237.532 251.021 238.933 253.55 238.68C257.101 238.765 262.065 239.355 263.772 235.34C265.342 228.827 263.213 221.882 264.963 215.412C267.397 208.573 278.378 208.604 280.77 215.412C282.351 221.545 280.77 228.058 281.624 234.275C282.214 236.836 284.522 238.638 287.146 238.575C291.045 238.744 296.788 239.471 298.285 234.729C299.149 228.616 297.874 222.357 298.949 216.266C300.171 211.313 305.925 209.152 310.541 210.585C310.488 209.152 310.425 207.719 310.372 206.286C273.868 206.37 237.384 206.391 200.911 206.36ZM200.911 234.634V259.862C205.348 258.545 210.828 260.336 212.335 265.015C213.694 271.286 212.04 277.84 213.21 284.121C214.727 288.653 220.239 288.052 224.032 287.883C226.762 288.02 229.207 286.176 229.828 283.51C230.714 277.187 228.964 270.474 230.882 264.278C233.612 257.681 244.361 257.955 246.595 264.826C248.291 271.265 246.226 278.157 247.743 284.627C249.482 288.568 254.319 287.989 257.849 287.915C260.61 288.21 263.203 286.534 264.067 283.889C265.121 277.63 263.53 271.138 264.921 264.921C267.176 257.691 278.736 257.733 280.96 264.921C282.351 271.128 280.812 277.566 281.782 283.889C283.162 288.579 288.811 288.031 292.647 287.852C295.323 287.989 297.737 286.229 298.432 283.636C299.159 277.514 297.905 271.233 299.117 265.163C300.519 260.389 306.062 258.513 310.541 259.81C310.541 251.379 310.541 243.001 310.488 234.592C306.652 234.771 301.256 233.538 299.223 237.848C297.399 244.561 300.087 251.927 297.684 258.524C294.723 264.984 284.079 264.32 282.024 257.47C280.665 251.2 282.288 244.645 281.139 238.364C279.621 233.822 274.099 234.455 270.316 234.613C267.608 234.486 265.184 236.299 264.562 238.944C263.846 245.077 265.152 251.379 263.846 257.449C262.054 263.319 253.603 264.963 249.556 260.463C245.91 256.553 247.448 250.799 247.174 245.994C246.911 242.727 248.112 238.68 245.404 236.151C243.064 233.949 239.566 234.665 236.657 234.581C233.97 234.381 231.082 235.856 230.334 238.575C229.375 244.898 230.914 251.326 229.491 257.544C227.383 264.436 216.582 264.921 213.768 258.334C211.481 251.716 214.147 244.36 212.24 237.7C210.027 233.485 204.674 234.813 200.869 234.634H200.911ZM200.911 283.879C200.911 291.656 200.827 299.433 200.911 307.21C200.954 311.858 204.61 315.673 209.247 315.915C219.733 316.136 230.229 315.831 240.714 316.052C246.236 315.968 251.579 318.033 255.605 321.817C259.314 318.792 263.656 316.231 268.598 316.157C279.685 315.725 290.803 316.157 301.899 315.926C306.61 315.757 310.34 311.879 310.33 307.158C310.456 299.391 310.33 291.624 310.33 283.868C306.462 283.995 300.961 282.814 298.98 287.177C297.399 293.69 299.539 300.645 297.779 307.126C295.439 313.649 285.133 314.071 282.277 307.769C279.895 301.193 282.509 293.869 280.77 287.177C278.958 283.025 273.804 283.816 270.137 283.889C267.355 283.742 264.889 285.639 264.32 288.368C263.867 293.911 264.541 299.486 264.025 305.029C263.508 308.844 260.473 311.826 256.648 312.269C252.433 312.806 248.46 310.14 247.364 306.03C246.31 299.886 247.712 293.553 246.626 287.42C245.088 283.31 240.135 283.731 236.573 283.847C233.727 283.605 230.629 285.27 230.092 288.242C229.27 294.491 230.84 300.982 229.228 307.116C226.793 313.976 215.781 313.944 213.42 307.063C211.639 300.603 213.789 293.648 212.219 287.167C210.227 282.73 204.726 284.069 200.859 283.879H200.911Z" fill="#CF0C29"/>
<path d="M255.763 407.893C306.61 357.309 357.172 306.388 407.998 255.763C407.166 273.53 404.837 291.435 398.345 308.127C397.945 308.918 397.418 309.624 396.775 310.235C367.932 339.036 339.12 367.879 310.362 396.754C309.466 397.755 308.338 398.503 307.074 398.946C290.602 404.837 273.256 407.861 255.763 407.893Z" fill="#CF0C29"/>
<path d="M108.333 294.28L125.004 277.598C132.276 284.848 139.537 292.109 146.776 299.37C137.988 308.138 129.209 316.916 120.431 325.716C115.246 315.715 111.189 305.177 108.333 294.28Z" fill="#CF0C29"/>
<path d="M137.682 351.872C148.009 341.681 158.274 331.427 168.464 321.11C175.767 328.329 183.06 335.569 190.247 342.914C179.972 353.157 169.718 363.411 159.475 373.686C151.466 367.205 144.152 359.891 137.682 351.872Z" fill="#CF0C29"/>
<path d="M209.173 326.928C219.511 327.381 229.87 327.022 240.23 327.149C240.23 344.663 240.124 362.178 240.23 379.693C229.565 369.692 219.469 359.09 209.078 348.816C209.247 341.513 209.173 334.22 209.173 326.928Z" fill="#CF0C29"/>
<path d="M271.265 327.054C281.55 327.138 291.835 327.328 302.11 326.917C302.036 334.03 302.11 341.154 302.11 348.278C301.098 349.764 299.897 351.123 298.548 352.304C289.422 361.282 280.517 370.482 271.349 379.397C271.222 361.946 271.349 344.505 271.265 327.054Z" fill="#CF0C29"/>
<path d="M185.715 390.821C194.567 382.137 203.167 373.211 212.061 364.57C219.206 371.852 226.467 379.018 233.675 386.237C228.279 391.927 222.578 397.323 217.13 402.961C206.202 400.2 195.653 396.122 185.715 390.821Z" fill="#CF0C29"/>
<path d="M386.016 396.691C387.691 394.783 389.535 393.044 391.548 391.495C393.371 389.862 396.343 392.222 395.531 394.383C394.246 396.954 391.843 398.703 389.851 400.706L386.016 396.691Z" fill="#CF0C29"/>
<path d="M400.305 398.134C402.476 396.374 405.743 399.652 404.046 401.844C402.297 404.373 399.831 406.312 397.723 408.504C396.29 407.134 394.889 405.754 393.508 404.341C395.763 402.244 397.808 399.863 400.305 398.134Z" fill="#CF0C29"/>
<path d="M197.687 439.497C200.332 440.393 203.325 440.688 205.654 442.353C206.665 443.364 206.665 445.008 205.664 446.02C205.201 446.484 204.589 446.747 203.936 446.779C201.28 446.431 198.667 445.83 196.127 444.977C196.643 443.196 197.17 441.32 197.687 439.497Z" fill="#CF0C29"/>
<path d="M231.557 447.717C237.321 444.924 244.202 450.688 242.896 456.853C242.443 462.281 236.046 465.958 231.198 463.292C224.981 460.531 225.265 450.246 231.557 447.717Z" fill="#CF0C29"/>
<path d="M194.62 449.94C197.781 450.994 201.459 451.205 204.168 453.323C205.97 454.956 204.104 458.329 201.754 457.823C198.814 457.254 195.916 456.485 193.081 455.536C193.608 453.671 194.125 451.795 194.62 449.94Z" fill="#CF0C29"/>
<path d="M239.608 132.086C244.898 126.754 250.209 121.443 255.531 116.152C260.8 121.421 266.122 126.627 271.338 131.96C271.222 153.184 271.338 174.408 271.286 195.632C260.927 195.632 250.568 195.632 240.208 195.632C240.208 178.697 240.208 161.751 240.208 144.816C240.208 140.601 240.546 136.386 239.66 132.286L239.608 132.086Z" fill="#FFB700"/>
<path d="M177.559 194.209C188.034 183.618 198.572 173.08 209.173 162.594C209.226 173.607 209.173 184.619 209.173 195.632C202.85 195.632 196.506 195.632 190.131 195.632C189.878 231.715 190.068 267.819 190.036 303.912C189.572 315.03 198.467 324.989 209.173 326.906C209.173 334.199 209.247 341.491 209.1 348.794C198.561 338.256 187.928 327.876 177.601 317.18C177.485 276.207 177.622 235.203 177.559 194.209Z" fill="#FFB700"/>
<path d="M302.121 162.879C312.796 173.322 323.439 183.839 333.788 194.599C334.273 235.34 333.893 276.112 333.978 316.842C323.439 327.381 313.059 338.003 302.363 348.341C302.215 341.196 302.268 334.051 302.31 326.907C309.919 325.368 316.316 320.246 319.477 313.154C321.954 307.622 321.216 301.425 321.311 295.545C321.363 262.318 321.216 229.091 321.384 195.864C314.956 195.495 308.507 195.8 302.068 195.674C302.099 184.704 302.026 173.765 302.121 162.879Z" fill="#FFB700"/>
<path d="M116.005 255.615C126.375 245.435 136.481 234.982 146.924 224.875C146.987 245.435 147.061 265.974 146.924 286.577C136.544 276.302 126.143 266.08 116.005 255.615Z" fill="#FFB700"/>
<path d="M364.454 225.149C374.782 235.213 384.856 245.52 395.099 255.71C384.93 265.911 374.908 276.27 364.454 286.187C364.496 265.806 364.496 245.456 364.454 225.149Z" fill="#FFB700"/>
<path d="M240.23 327.149C241.61 327.328 243.254 326.854 244.445 327.802C248.397 330.679 251.758 334.273 255.573 337.287C259.409 334.22 262.855 330.69 266.839 327.802C268.103 326.854 269.81 327.212 271.275 327.001V379.345V379.566C266.006 384.719 260.79 390.041 255.468 395.236C250.42 389.967 244.93 385.151 240.177 379.64C240.124 362.178 240.187 344.663 240.23 327.149Z" fill="#FFB700"/>
</g>
<defs>
<clipPath id="clip0_2003_5545">
<rect width="512" height="512" fill="white"/>
</clipPath>
</defs>
</svg>
