<svg width="422" height="512" viewBox="0 0 422 512" fill="none" xmlns="http://www.w3.org/2000/svg">
<g clip-path="url(#clip0_4010_220)">
<path d="M345.278 255.073V248.153L352.116 246.834V253.673L345.278 255.073ZM84.0254 306.978V265.042L91.1933 263.642V299.316L102.563 297.009V303.271L84.0254 306.978ZM107.012 302.446V260.511L126.291 256.639V262.9L114.179 265.289V276.165L123.489 274.271V280.532L114.179 282.426V294.702L127.114 292.148V298.41L107.012 302.446ZM147.464 252.437L154.55 251.036L145.816 294.702L138.566 296.185L129.833 255.98L136.919 254.497L142.109 282.591L147.464 252.437ZM165.095 275.341L170.862 274.187L168.061 256.721L165.095 275.341ZM162.788 291.324L155.786 292.725L163.53 249.224L172.428 247.412L180.172 287.864L173.252 289.265L171.933 280.202L164.024 281.767L162.788 291.324ZM184.374 287.04V245.104L191.047 243.786L199.863 266.031L199.947 241.974L206.456 240.738V282.673L200.195 283.909L190.967 259.522L190.883 285.722L184.374 287.04ZM217.576 244.775L210.656 246.175V239.831L231.747 235.63V241.974L224.827 243.292V278.966L217.576 280.449V244.775ZM236.031 276.741V234.806L255.31 230.934V237.278L243.199 239.667V250.46L252.509 248.648V254.909L243.199 256.721V269.079L256.134 266.526V272.787L236.031 276.741ZM274.754 227.144L281.922 225.661V257.298C281.922 260.429 283.24 261.665 285.794 261.17C288.348 260.677 289.584 258.863 289.584 255.815V224.178L296.834 222.695V254.085C296.834 257.71 295.845 260.676 293.868 262.983C291.892 265.29 289.254 266.773 285.794 267.432C282.334 268.175 279.615 267.679 277.637 266.196C275.661 264.714 274.754 262.159 274.754 258.534V227.144ZM303.342 263.395V256.556L310.181 255.156V261.994L303.342 263.395ZM323.857 253.343L326.411 252.85L330.366 250.789C331.19 249.8 331.519 248.153 331.519 246.011V227.638C331.519 225.414 331.19 223.931 330.366 223.272L326.411 222.778L323.857 223.272V253.343ZM316.689 218.823L327.317 216.598C331.107 215.856 333.991 216.351 335.886 217.999C337.78 219.728 338.769 222.695 338.769 227.061V243.621C338.769 247.988 337.78 251.366 335.886 253.837C333.992 256.227 331.107 257.874 327.317 258.616L316.689 260.676V218.823Z" fill="black"/>
<path d="M164.107 23.1511C164.107 1.6789e-05 164.191 0 187.34 0C195.909 0 203.488 4.6962 207.443 11.6991H213.704C217.742 4.6962 225.239 0 233.889 0C257.041 0 257.123 1.6789e-05 257.123 23.1511C257.123 35.3445 247.731 45.3135 235.785 46.302C234.466 50.0095 233.724 53.9641 233.724 58.1659C233.724 77.3624 249.295 92.9337 268.492 92.9337C287.77 92.9337 303.342 77.3624 303.342 58.1659C303.342 45.0663 296.092 33.6143 285.381 27.6824L293.538 11.2048C414.319 44.8191 463.916 172.603 377.985 328.316C382.434 334.166 385.071 341.416 385.071 349.325C385.071 368.522 369.417 384.093 350.221 384.093C347.666 384.093 345.113 383.846 342.723 383.268C317.513 417.707 285.793 453.051 246.906 488.725C213.044 519.786 208.101 519.703 174.404 488.809C135.517 453.135 103.716 417.709 78.5047 383.27C76.1155 383.846 73.5615 384.095 71.0076 384.095C51.8111 384.095 36.2398 368.524 36.2398 349.327C36.2398 341.418 38.7937 334.168 43.2427 328.318C-42.7705 172.605 6.82724 44.8209 127.691 11.2066L135.764 27.6842C125.054 33.6162 117.886 45.0682 117.886 58.1678C117.886 77.3643 133.458 92.9355 152.654 92.9355C171.851 92.9355 187.422 77.3643 187.422 58.1678C187.422 53.966 186.679 50.0113 185.361 46.3039C173.497 45.3147 164.105 35.3463 164.105 23.153M222.93 414.661C228.368 412.931 233.064 410.459 236.524 407.987C232.405 410.953 227.874 413.26 222.93 414.661Z" fill="black"/>
<path d="M345.278 255.073L352.116 253.673V246.835L345.278 248.153V255.073ZM84.0256 306.978L102.563 303.27V297.009L91.1935 299.316V263.642L84.0256 265.042V306.978ZM107.012 302.446L127.115 298.41V292.148L114.18 294.702V282.426L123.49 280.532V274.271L114.18 276.165V265.289L126.291 262.9V256.639L107.012 260.511V302.446ZM147.465 252.437L142.109 282.591L136.919 254.497L129.833 255.979L138.567 296.185L145.817 294.702L154.55 251.036L147.465 252.437ZM162.789 291.324L164.025 281.767L171.934 280.202L173.252 289.265L180.173 287.864L172.428 247.412L163.53 249.223L155.786 292.724L162.789 291.324ZM184.374 287.04L190.883 285.722L190.967 259.522L200.195 283.909L206.456 282.673V240.738L199.948 241.974L199.863 266.031L191.048 243.786L184.374 245.104L184.374 287.04ZM217.577 244.775V280.449L224.827 278.966V243.292L231.747 241.974V235.63L210.656 239.832V246.176L217.577 244.775ZM236.031 276.741L256.134 272.787V266.525L243.199 269.079V256.721L252.509 254.909V248.648L243.199 250.459V239.667L255.311 237.277V230.933L236.031 234.806V276.741ZM274.754 227.144V258.534C274.754 262.159 275.661 264.713 277.638 266.196C279.614 267.678 282.334 268.172 285.794 267.432C289.254 266.774 291.891 265.289 293.868 262.983C295.844 260.676 296.834 257.71 296.834 254.085V222.695L289.584 224.178V255.815C289.584 258.863 288.348 260.675 285.794 261.17C283.24 261.663 281.922 260.427 281.922 257.297V225.66L274.754 227.144ZM303.343 263.395L310.181 261.994V255.156L303.343 256.557V263.395ZM316.689 218.823V260.676L327.318 258.615C331.107 257.873 333.991 256.226 335.886 253.837C337.78 251.365 338.77 247.987 338.77 243.62V227.06C338.77 222.694 337.78 219.728 335.886 217.998C333.992 216.351 331.107 215.856 327.318 216.597L316.689 218.823ZM374.443 201.439C375.926 218.411 374.772 236.866 370.571 256.474L71.3379 315.958C63.0167 298.492 56.9201 281.602 52.8005 265.454L374.443 201.439ZM165.095 275.341L168.062 256.721L170.863 274.187L165.095 275.341ZM323.857 253.343V223.272L326.411 222.778L330.366 223.272C331.191 223.93 331.52 225.414 331.52 227.638V246.011C331.52 248.153 331.191 249.801 330.366 250.789L326.411 252.85L323.857 253.343Z" fill="white"/>
<path d="M312.817 377.667C295.351 401.642 273.847 426.276 248.06 451.322V404.113C255.31 395.545 259.677 384.505 259.677 372.311C259.677 360.2 255.31 349.078 248.06 340.51V285.969L312.817 273.034V377.667ZM248.06 162.222C250.861 163.211 253.992 163.787 257.205 163.787C260.253 163.787 263.137 163.129 266.103 162.387C269.728 170.79 277.143 177.134 286.288 179.111L312.817 184.384V208.606L248.06 221.541V162.222ZM173.252 451.239C147.299 426.193 125.878 401.559 108.412 377.584V313.734L173.252 300.881V340.674C166.001 349.243 161.635 360.283 161.635 372.311C161.635 384.423 166.001 395.463 173.252 404.031V451.239ZM108.412 184.549C123.736 181.501 135.023 179.112 135.023 179.112C144.169 177.135 151.584 170.79 155.209 162.387C158.175 163.129 161.058 163.787 164.107 163.787C167.32 163.787 170.368 163.211 173.252 162.305V236.371L108.412 249.224V184.549Z" fill="#B3023D"/>
<path fill-rule="evenodd" clip-rule="evenodd" d="M250.037 392.167C249.626 384.34 241.798 379.397 231.747 382.198C231.663 373.218 221.531 368.522 211.232 370.581C202.252 360.53 205.301 348.254 222.025 350.808C231.747 352.373 246.412 359.789 254.651 374.866C254.24 381.045 252.675 386.894 250.037 392.167ZM173.993 396.698C180.914 400.076 188.905 395.792 191.459 385.823C199.369 390.272 208.514 383.847 211.892 373.877C225.074 371.158 234.219 379.891 223.591 393.073C217.412 400.735 203.818 409.633 186.763 409.304C181.655 406.008 177.289 401.724 173.993 396.698ZM185.033 336.473C178.524 350.726 179.595 365.556 183.057 374.536C184.622 378.573 186.517 381.539 188.577 383.599C186.023 396.946 173.088 399.253 168.062 383.599C167.155 379.974 166.662 376.266 166.662 372.312C166.662 357.564 173.911 344.464 185.033 336.473ZM208.103 328.399C201.512 332.601 201.1 341.828 208.514 349.161C200.77 353.774 201.758 364.897 208.683 372.806C204.481 385.576 192.288 389.119 186.191 373.3C182.649 364.154 181.742 347.759 190.723 333.094C195.996 330.375 201.845 328.728 208.107 328.398M254.491 368.356C245.511 355.504 231.999 348.995 222.524 347.512C218.24 346.854 214.698 347.018 211.896 347.759C201.351 338.696 206.294 325.926 223.348 330.293C228.621 331.693 237.107 336.06 244.028 343.639C249.877 350.395 253.667 358.964 254.491 368.356ZM222.936 414.658C219.064 415.812 214.945 416.387 210.661 416.387C204.152 416.387 197.973 414.987 192.453 412.433C207.942 410.95 220.218 402.629 226.232 395.214C228.951 391.836 230.516 388.705 231.258 385.821C244.44 381.208 253.09 391.918 240.732 404.524L240.156 405.017L236.531 407.983C232.494 410.949 227.881 413.256 222.937 414.657M236.531 407.983C232.494 410.949 227.881 413.256 222.937 414.657C228.375 412.926 233.071 410.455 236.531 407.983Z" fill="#DCA33A"/>
<path d="M178.195 335.567V299.81L243.035 286.958V335.484C234.384 327.904 223.015 323.291 210.656 323.291C198.216 323.291 186.846 327.904 178.195 335.567ZM103.387 370.499C91.5231 353.445 81.6365 336.802 73.5626 320.654L103.387 314.722V370.499ZM243.035 456.1C240.069 458.901 237.103 461.703 234.054 464.504C231.583 466.728 215.023 483.618 211.068 483.783C206.784 483.867 189.73 466.728 187.258 464.504C184.21 461.703 181.161 458.819 178.195 456.018V409.139C186.846 416.719 198.216 421.415 210.656 421.415C223.015 421.415 234.384 416.801 243.035 409.221V456.1ZM369.418 261.829C361.509 295.279 344.866 332.024 317.843 370.664V272.045L369.418 261.829ZM51.5649 260.593C45.3858 233.735 44.7267 209.018 48.846 187.103C52.7184 166.424 63.4288 156.29 71.0086 156.29C74.7161 156.29 77.6819 159.256 77.6819 162.963C77.6819 166.588 74.7983 169.554 70.8436 169.554H65.818L66.0648 191.305C65.9804 191.389 73.3974 191.22 81.1417 189.822C88.804 188.422 96.3836 186.938 103.387 185.538V250.295L51.5649 260.593ZM317.843 185.373L340.088 189.822C345.773 190.893 350.798 191.387 355.247 191.305L355.494 169.554H350.468C346.514 169.554 343.63 166.588 343.63 162.963C343.63 159.256 346.596 156.29 350.221 156.29C357.883 156.29 368.594 166.423 372.466 187.103C373.042 190.151 373.455 193.282 373.866 196.495L317.842 207.617L317.843 185.373ZM178.195 159.997C180.832 158.515 183.139 156.619 185.116 154.477C192.037 160.245 200.934 163.622 210.656 163.705C220.378 163.705 229.276 160.245 236.197 154.477C238.173 156.619 240.481 158.514 243.035 159.997V222.447L178.195 235.383V159.997Z" fill="#005CA3"/>
<path d="M307.215 29.9069C372.301 55.0351 411.765 113.366 407.234 191.799C406.245 137.258 381.117 94.2519 339.676 69.0412L336.792 67.3117C331.355 94.0878 309.357 114.85 281.016 114.85C264.208 114.85 249.543 107.847 239.574 96.889C247.566 102.821 257.535 106.364 268.245 106.364C294.857 106.364 316.442 84.7779 316.442 58.1665C316.442 47.6209 312.982 37.8161 307.215 29.9069ZM113.603 29.9075C107.836 37.8167 104.458 47.6209 104.458 58.1665C104.458 84.7779 126.044 106.364 152.655 106.364C163.365 106.364 173.334 102.821 181.326 96.889C171.357 107.847 156.692 114.85 139.885 114.85C111.543 114.85 89.5456 94.0878 84.1081 67.3117L81.2244 69.0412C39.7833 94.2519 14.5724 137.258 13.5839 191.799C9.13488 113.366 48.5989 55.0357 113.603 29.9075Z" fill="#B0B0B0"/>
<path d="M210.656 158.679C200.193 158.679 190.883 154.066 184.457 146.815C180.502 153.901 172.922 158.762 164.107 158.762L158.422 158.019C158.916 155.877 159.162 153.57 159.162 151.181L158.669 145.743L164.189 147.144C170.615 147.144 175.806 141.953 175.806 135.527V127.7H187.752C189.648 138.658 199.204 146.979 210.656 146.979C222.19 146.979 231.665 138.658 233.56 127.7H245.506V135.527C245.506 141.953 250.696 147.144 257.122 147.144L262.56 145.743L262.149 151.181C262.149 153.57 262.396 155.877 262.889 158.019L257.204 158.762C248.471 158.762 240.809 153.901 236.855 146.815C230.511 154.066 221.119 158.679 210.656 158.679ZM82.7065 162.963C82.7065 156.537 77.5161 151.264 71.0076 151.264C59.3907 151.264 47.8564 165.105 43.9018 186.197C30.2253 259.357 67.5471 361.518 183.879 468.211C214.445 496.223 208.184 494.987 237.431 468.211C353.763 361.518 391.085 259.357 377.409 186.197C373.454 165.105 361.837 151.264 350.221 151.264C343.794 151.264 338.604 156.537 338.604 162.963C338.604 169.39 343.794 174.58 350.468 174.58L350.299 186.279C337.447 186.279 326.983 175.816 326.983 162.963C326.983 150.111 337.447 139.648 350.381 139.648C373.533 139.732 383.584 163.128 387.703 186.197C401.297 263.806 360.433 368.934 244.183 475.544C208.344 508.499 212.958 508.499 177.12 475.544C60.8699 368.934 20.0055 263.806 33.5995 186.197C37.6364 163.128 47.7701 139.73 70.9212 139.648C83.8561 139.648 94.3193 150.111 94.3193 162.963C94.3193 175.816 83.8561 186.279 71.0037 186.279L70.8349 174.58C77.5084 174.58 82.6987 169.39 82.6987 162.963M126.529 127.949L129.001 127.702C141.936 127.702 152.482 138.248 152.482 151.182C152.482 162.469 144.572 171.862 134.027 174.169L133.202 174.337L94.0678 182.082C98.3519 176.892 100.988 170.218 100.988 162.968C100.988 151.351 94.3973 141.3 84.7579 136.274L126.529 127.949ZM294.683 127.949L336.536 136.27C326.897 141.295 320.306 151.347 320.306 162.963C320.306 170.214 322.942 176.887 327.226 182.077L288.092 174.333L287.267 174.164C276.722 171.857 268.813 162.465 268.813 151.178C268.813 138.243 279.276 127.697 292.293 127.697L294.683 127.949Z" fill="#FAC200"/>
</g>
<defs>
<clipPath id="clip0_4010_220">
<rect width="421.172" height="512" fill="white"/>
</clipPath>
</defs>
</svg>
