<svg width="512" height="512" viewBox="0 0 512 512" fill="none" xmlns="http://www.w3.org/2000/svg">
<path d="M343.907 155.748C343.392 155.652 342.897 155.565 342.386 155.47C341.722 146.883 334.561 140.119 325.805 140.119C319.014 140.119 313.184 144.191 310.596 150.023C296.9 147.949 283.939 146.463 271.664 145.788C269.601 138.937 263.252 133.942 255.728 133.942C248.205 133.942 241.854 138.937 239.793 145.788C227.518 146.463 214.557 147.949 200.864 150.023C198.275 144.191 192.444 140.119 185.652 140.119C176.896 140.119 169.737 146.883 169.072 155.468C168.559 155.564 168.063 155.651 167.549 155.747C127.242 166.037 89.9878 176.766 65.7018 183.485C83.2747 334.4 185.285 451.604 255.727 510.116C326.17 451.604 428.18 334.4 445.753 183.485C421.467 176.766 384.213 166.037 343.907 155.748Z" fill="#AD8F1F"/>
<path d="M424.588 188.441C401.419 181.949 372.602 173.878 341.65 165.972C341.059 165.861 340.459 165.755 339.867 165.645C337.83 168.866 334.723 171.339 331.037 172.559V215.843C337.664 218.037 342.452 224.274 342.452 231.639C342.452 239.003 337.665 245.239 331.037 247.433V259.324C331.037 273.354 328.995 286.345 325.592 298.249C328.584 301.259 330.436 305.405 330.436 309.986C330.436 319.08 323.14 326.458 314.084 326.616C301.865 349.405 285.244 366 271.857 375.381C272.181 376.679 272.373 378.031 272.373 379.431C272.373 388.623 264.922 396.076 255.728 396.076V496.39C299.81 458.32 412.291 347.278 434.148 191.109C429.375 189.777 424.588 188.441 424.588 188.441Z" fill="#0A346F"/>
<path d="M239.082 379.43C239.082 378.03 239.274 376.679 239.598 375.38C226.21 365.999 209.591 349.404 197.374 326.615C188.316 326.457 181.02 319.079 181.02 309.985C181.02 305.404 182.872 301.258 185.864 298.248C182.461 286.344 180.42 273.354 180.42 259.324V247.432C173.793 245.238 169.006 239.001 169.006 231.638C169.006 224.273 173.793 218.037 180.42 215.842V172.558C176.735 171.338 173.627 168.866 171.589 165.644C170.995 165.754 170.396 165.861 169.805 165.971C138.854 173.877 110.036 181.949 86.8662 188.44C86.8662 188.44 82.0791 189.776 77.3081 191.108C99.1651 347.278 211.645 458.319 255.727 496.39V396.075C246.534 396.075 239.082 388.622 239.082 379.43Z" fill="#D91A21"/>
<path d="M190.882 172.558V215.842C197.51 218.037 202.296 224.273 202.296 231.638C202.296 239.002 197.51 245.238 190.882 247.432V259.324C190.882 271.483 192.607 282.904 195.51 293.493C196.217 293.403 196.932 293.339 197.665 293.339C206.857 293.339 214.311 300.791 214.311 309.985C214.311 315.427 211.687 320.245 207.648 323.282C218.642 343.2 233.142 358.089 245.163 366.568C248.037 364.204 251.715 362.785 255.726 362.785C259.737 362.785 263.415 364.204 266.288 366.566C278.309 358.088 292.811 343.2 303.808 323.282C299.767 320.245 297.142 315.427 297.142 309.985C297.142 300.791 304.597 293.339 313.789 293.339C314.521 293.339 315.237 293.403 315.944 293.493C318.847 282.903 320.572 271.482 320.572 259.323V247.432C313.946 245.238 309.159 239.002 309.159 231.638C309.159 224.274 313.946 218.038 320.572 215.842V172.558C315.087 170.742 310.873 166.153 309.582 160.448C296.6 158.473 283.71 156.918 271.374 156.22C269.065 162.639 262.941 167.236 255.727 167.236C248.51 167.236 242.385 162.634 240.077 156.213C227.774 156.907 214.878 158.466 201.874 160.446C200.584 166.153 196.369 170.741 190.882 172.558Z" fill="white"/>
<path d="M218.948 262.711C216.54 262.766 214.889 264.209 214.399 265.423L211.186 274.654C211.186 274.654 209.442 281.872 216.709 283.51C216.709 283.51 217.982 279.361 219.131 275.886C219.131 275.886 219.673 272.573 222.445 272.573L229.713 272.646C229.713 272.646 231.444 272.904 231.938 271.702L231.943 262.413C231.944 262.412 221.595 262.654 218.948 262.711Z" fill="#AD8F1F"/>
<path d="M297.38 229.748C293.713 226.116 289.295 222.191 283.56 222.277C278.99 222.344 276.986 224.141 275.668 226.635C274.445 228.945 273.816 232.367 277.732 236.282C281.099 239.649 286.85 242.507 286.85 247.488C286.85 250.911 284.313 250.704 284.313 250.704L257.784 250.142L261.711 257.682L250.588 257.842L250.444 269.279L241.161 262.324L233.365 270.994L231.793 289.678C231.793 289.678 231.912 291.007 229.745 291.007H225.535C225.535 291.007 223.366 293.982 223.366 297.702L236.845 297.513C236.845 297.513 237.435 297.141 239.25 293.793C241.686 289.302 248.293 277.732 248.293 277.732C248.293 277.732 248.222 272.453 248.276 272.202C248.276 272.202 250.205 273.683 250.569 273.721V276.271C250.569 276.271 260.109 269.871 269.022 273.072C269.022 273.072 281.178 276.33 283.205 284.864L284.205 290.758C284.205 290.758 278.962 290.323 278.048 292.384C278.048 292.384 276.734 295.336 276.734 297.461C276.734 297.461 288.444 297.461 291.312 297.461L294.258 290.759L291.597 275.708C291.597 275.708 283.205 267.789 283.559 259.886C283.559 259.886 292.396 259.161 292.396 249.15C292.396 239.139 283.672 234.948 280.889 232.885C278.732 230.728 278.885 228.724 280.274 227.337C282.414 225.197 286.472 227.312 286.472 228.504C286.472 228.504 287.086 233.224 293.007 236.649L294.37 235.039C294.37 235.039 295.404 236.802 300.387 236.802C300.389 236.802 301.046 233.379 297.38 229.748Z" fill="#AD8F1F"/>
<path d="M260.548 274.203L262.292 279.817C262.292 284.66 259.045 290.756 259.045 290.756H252.323C252.323 290.756 249.436 292.808 249.436 297.459H263.228L272.612 287.034C272.612 287.034 274.64 285.356 274.939 283.824C275.373 281.579 276.101 278.372 276.101 278.372C267.96 272.918 260.548 274.203 260.548 274.203Z" fill="#AD8F1F"/>
<path d="M261.454 249.273L256.981 242.578V234.187C256.981 230.996 255.612 229.931 255.612 229.931C255.612 229.931 248.868 222.718 247.499 221.207C246.231 219.808 244.202 219.992 243.909 220.027C243.951 219.946 244.001 219.654 244.001 218.691C244.001 217.012 242.482 217.349 242.482 217.349C242.482 217.349 235.486 217.516 235.486 216.677C235.486 216.677 235.182 214.16 232.75 215.336C230.318 216.508 223.877 224.563 220.835 227.751C217.794 230.939 219.163 231.945 219.163 231.945L221.596 236.033L225.529 233.058C225.529 233.058 227.076 231.954 228.863 233.571L222.947 238.193C223.706 239.703 224.789 239.557 224.789 239.557H229.959L231.838 243.508H235.66V236.462H237.787V229.427H238.984V238.045H236.856V245.094H231.687L222.323 253.852L229.051 253.705L225.639 261.306L233.151 261.526L233.095 269.514L241.13 260.498L249.113 266.461V256.23L259.47 256.197L255.352 249.308L261.454 249.273Z" fill="#AD8F1F"/>
<path d="M229.473 224.433C228.614 224.676 228.053 225.152 227.908 225.299C227.211 225.996 228.631 227.082 229.524 227.082C230.416 227.082 231.14 226.284 231.14 225.299C231.141 224.313 231.302 223.92 229.473 224.433Z" fill="white"/>
<path d="M238.495 204.986L237.323 203.924L236.149 204.986L237.323 206.048L238.495 204.986Z" fill="#D91A21"/>
<path d="M244.735 206.454C245.216 206.454 245.606 206.064 245.606 205.582C245.606 205.101 245.216 204.711 244.735 204.711C244.253 204.711 243.863 205.101 243.863 205.582C243.863 206.064 244.253 206.454 244.735 206.454Z" fill="#AD8F1F"/>
<path d="M229.911 206.454C230.392 206.454 230.782 206.064 230.782 205.582C230.782 205.101 230.392 204.711 229.911 204.711C229.429 204.711 229.039 205.101 229.039 205.582C229.039 206.064 229.429 206.454 229.911 206.454Z" fill="#AD8F1F"/>
<path d="M251.081 208.249L251.737 206.232L251.985 207.366L251.081 208.249Z" fill="#D91A21"/>
<path d="M223.561 208.249L222.906 206.232L222.658 207.366L223.561 208.249Z" fill="#D91A21"/>
<path d="M237.325 206.342C235.228 206.397 228.045 206.715 223.54 208.53L223.486 208.551L223.498 208.608C223.867 210.206 223.874 210.21 223.913 210.228L223.939 210.242L223.967 210.231C229.137 208.259 235.997 207.994 237.324 207.961C238.649 207.994 245.507 208.259 250.678 210.231L250.705 210.241L250.731 210.228C250.771 210.21 250.776 210.207 251.144 208.607L251.158 208.55L251.104 208.529C246.6 206.714 239.419 206.396 237.325 206.342Z" fill="#AD8F1F"/>
<path d="M252.094 204.299C247.297 202.367 239.096 202.009 237.323 202.024C235.551 202.009 227.349 202.367 222.551 204.3C222.488 204.327 222.488 204.327 222.855 205.882L222.873 205.958L222.946 205.93C227.972 204.011 235.191 203.625 237.324 203.641H237.325C239.458 203.625 246.676 204.011 251.699 205.93L251.772 205.958L251.79 205.882C252.157 204.325 252.157 204.325 252.094 204.299Z" fill="#AD8F1F"/>
<path d="M253.64 198.073C253.313 197.592 252.758 197.276 252.139 197.276C251.156 197.276 250.362 198.071 250.362 199.053C250.362 199.636 250.643 200.128 251.077 200.449C251.077 200.449 251.574 200.759 251.677 200.967C251.827 201.279 251.687 201.491 251.37 201.543C251.052 201.593 248.046 200.578 246.524 200.415C246.176 200.381 246.21 199.797 246.944 199.953C247.678 200.11 248.402 199.641 248.558 198.904C248.715 198.17 248.243 197.448 247.509 197.291C247.577 197.171 247.659 197.044 247.691 196.904C247.859 196.115 247.356 195.342 246.57 195.174C245.783 195.008 245.009 195.51 244.841 196.296C244.813 196.439 244.806 196.579 244.816 196.718C244.082 196.561 243.392 197.038 243.234 197.774C243.08 198.509 243.563 199.172 244.283 199.388C244.902 199.572 244.665 200.024 244.322 200.003C244.075 199.984 240.154 199.653 239.046 199.622C238.467 199.572 238.221 198.53 239.329 198.53C240.436 198.53 241.334 197.63 241.334 196.521C241.334 195.414 240.436 194.515 239.329 194.515C239.386 194.32 239.472 194.114 239.472 193.9C239.472 192.713 238.51 191.751 237.323 191.751C236.136 191.751 235.175 192.713 235.175 193.9C235.175 194.113 235.257 194.32 235.318 194.515C234.209 194.515 233.31 195.414 233.31 196.521C233.31 197.63 234.209 198.53 235.318 198.53C236.425 198.53 236.178 199.572 235.6 199.622C234.49 199.653 230.57 199.984 230.322 200.003C229.981 200.024 229.743 199.572 230.362 199.388C231.083 199.172 231.567 198.509 231.411 197.774C231.254 197.038 230.563 196.561 229.828 196.718C229.839 196.579 229.835 196.439 229.805 196.296C229.637 195.51 228.863 195.007 228.076 195.174C227.29 195.342 226.786 196.115 226.953 196.904C226.984 197.044 227.068 197.171 227.136 197.291C226.401 197.448 225.932 198.17 226.087 198.904C226.243 199.641 226.967 200.109 227.7 199.953C228.435 199.798 228.467 200.382 228.12 200.415C226.598 200.578 223.592 201.593 223.275 201.543C222.958 201.491 222.817 201.279 222.968 200.967C223.071 200.76 223.568 200.449 223.568 200.449C224.002 200.128 224.283 199.636 224.283 199.053C224.283 198.071 223.488 197.276 222.505 197.276C221.886 197.276 221.332 197.592 221.005 198.073C220.201 194.922 216.974 196.529 216.974 196.529L218.636 199.22C219.012 198.947 219.592 198.991 219.951 199.35C220.358 199.758 220.358 200.417 219.951 200.823C219.884 200.892 219.808 200.949 219.728 200.995L221.132 203.267C221.132 203.267 221.539 204.329 223.326 203.649C227.852 201.927 235.319 201.618 237.322 201.634C239.324 201.617 246.789 201.927 251.317 203.649C253.103 204.329 253.509 203.267 253.509 203.267L254.913 200.995C254.834 200.949 254.761 200.892 254.692 200.823C254.284 200.417 254.284 199.758 254.692 199.35C255.049 198.992 255.628 198.948 256.006 199.22L257.667 196.529C257.669 196.529 254.443 194.922 253.64 198.073ZM228.672 198.866C228.188 198.866 227.795 198.472 227.795 197.987C227.795 197.504 228.188 197.11 228.672 197.11C229.157 197.11 229.549 197.504 229.549 197.987C229.549 198.472 229.157 198.866 228.672 198.866ZM237.323 197.42C236.672 197.42 236.143 196.893 236.143 196.243C236.143 195.591 236.671 195.062 237.323 195.062C237.973 195.062 238.502 195.591 238.502 196.243C238.501 196.893 237.972 197.42 237.323 197.42ZM245.097 197.987C245.097 197.504 245.488 197.11 245.971 197.11C246.457 197.11 246.847 197.504 246.847 197.987C246.847 198.472 246.457 198.866 245.971 198.866C245.488 198.866 245.097 198.472 245.097 197.987Z" fill="#AD8F1F"/>
<path d="M263.635 90.9302L255.727 83.7742L247.819 90.9302L255.727 98.0871L263.635 90.9302Z" fill="#D91A21"/>
<path d="M305.706 100.826C308.95 100.826 311.579 98.1965 311.579 94.9528C311.579 91.7091 308.95 89.0796 305.706 89.0796C302.462 89.0796 299.833 91.7091 299.833 94.9528C299.833 98.1965 302.462 100.826 305.706 100.826Z" fill="#AD8F1F"/>
<path d="M205.749 100.828C208.993 100.828 211.624 98.1974 211.624 94.9528C211.624 91.7081 208.993 89.0778 205.749 89.0778C202.504 89.0778 199.874 91.7081 199.874 94.9528C199.874 98.1974 202.504 100.828 205.749 100.828Z" fill="#AD8F1F"/>
<path d="M352.934 99.3276L348.514 112.94L354.606 106.985L352.934 99.3276Z" fill="#D91A21"/>
<path d="M162.94 112.94L158.518 99.3276L156.849 106.985L162.94 112.94Z" fill="#D91A21"/>
<path d="M255.751 99.9968C241.598 100.36 193.152 102.493 162.754 114.738L162.323 114.912L162.427 115.365C164.917 126.197 164.943 126.21 165.264 126.366L165.476 126.468L165.698 126.385C200.481 113.116 246.777 111.303 255.737 111.074C264.693 111.303 310.975 113.116 345.759 126.385L345.978 126.468L346.191 126.367C346.513 126.213 346.538 126.2 349.03 115.365L349.134 114.912L348.702 114.738C318.301 102.493 269.869 100.359 255.751 99.9968Z" fill="#AD8F1F"/>
<path d="M355.391 86.2229C323.032 73.1874 267.695 70.7665 255.732 70.8662C243.773 70.7665 188.424 73.1874 156.077 86.2166C155.579 86.434 155.578 86.4358 158.079 96.9838L158.223 97.5893L158.804 97.3674C192.773 84.4101 241.381 81.8328 255.731 81.9523H255.739C270.086 81.8328 318.68 84.4101 352.649 97.3674L353.231 97.5893L353.373 96.9838C355.875 86.4349 355.875 86.4349 355.391 86.2229Z" fill="#AD8F1F"/>
<path d="M365.758 44.3092C363.551 41.0708 359.81 38.9328 355.634 38.9328C349.018 38.9328 343.652 44.2967 343.652 50.9146C343.652 54.8438 345.543 58.1604 348.463 60.3442C348.463 60.3442 351.828 62.4301 352.514 63.8315C353.539 65.9218 352.587 67.3502 350.444 67.696C348.304 68.041 328.035 61.2021 317.77 60.0989C315.427 59.8771 315.648 55.929 320.605 56.9836C325.561 58.0355 330.431 54.8725 331.484 49.9165C332.538 44.9605 329.375 40.0889 324.418 39.0343C324.866 38.2204 325.437 37.3706 325.641 36.4148C326.77 31.1067 323.381 25.891 318.075 24.7619C312.767 23.6363 307.551 27.0238 306.421 32.3293C306.221 33.2833 306.191 34.2373 306.264 35.1617C301.308 34.1115 296.645 37.3293 295.59 42.2862C294.537 47.2422 297.799 51.7239 302.655 53.1675C306.838 54.4108 305.237 57.4651 302.934 57.3097C301.26 57.1992 274.824 54.9687 267.348 54.745C263.446 54.4099 261.778 47.3806 269.252 47.3806C276.727 47.3806 282.784 41.3214 282.784 33.8483C282.784 26.3752 276.727 20.3161 269.252 20.3161C269.649 19.0027 270.213 17.6023 270.213 16.1614C270.213 8.15647 263.73 1.66882 255.726 1.66882C247.723 1.66882 241.242 8.15647 241.242 16.1614C241.242 17.6023 241.803 19.0027 242.201 20.3161C234.726 20.3161 228.666 26.3752 228.666 33.8483C228.666 41.3214 234.726 47.3806 242.201 47.3806C249.673 47.3806 248.008 54.4108 244.101 54.745C236.628 54.9687 210.19 57.1992 208.518 57.3097C206.216 57.4651 204.614 54.4099 208.795 53.1675C213.651 51.7239 216.914 47.2431 215.861 42.2862C214.807 37.3293 210.144 34.1115 205.189 35.1617C205.263 34.2373 205.232 33.2833 205.031 32.3293C203.902 27.0238 198.685 23.6363 193.378 24.7619C188.072 25.891 184.683 31.1076 185.811 36.4148C186.015 37.3706 186.585 38.2204 187.032 39.0343C182.077 40.0889 178.914 44.9596 179.968 49.9165C181.021 54.8725 185.891 58.0355 190.848 56.9836C195.804 55.929 196.025 59.8771 193.682 60.0989C183.418 61.2021 163.149 68.041 161.007 67.696C158.867 67.3511 157.915 65.9218 158.939 63.8315C159.626 62.4301 162.988 60.3442 162.988 60.3442C165.911 58.1604 167.802 54.8438 167.802 50.9146C167.802 44.2976 162.436 38.9328 155.819 38.9328C151.643 38.9328 147.902 41.0708 145.694 44.3092C140.279 23.0649 118.516 33.8941 118.516 33.8941L129.726 52.0357C132.265 50.2139 136.18 50.5067 138.59 52.9169C141.335 55.6622 141.335 60.1115 138.59 62.8568C138.132 63.3149 137.626 63.694 137.089 63.9994L146.556 79.3283C146.556 79.3283 149.303 86.4978 161.352 81.9119C191.876 70.2913 242.231 68.2125 255.732 68.323C269.231 68.2116 319.575 70.2913 350.1 81.9119C362.149 86.4978 364.896 79.3283 364.896 79.3283L374.364 63.9994C373.824 63.694 373.32 63.3149 372.862 62.8568C370.118 60.1115 370.118 55.6622 372.862 52.9169C375.272 50.5067 379.187 50.2139 381.726 52.0357L392.936 33.8941C392.937 33.895 371.175 23.0658 365.758 44.3092ZM197.393 49.6488C194.129 49.6488 191.482 47.0024 191.482 43.7361C191.482 40.4725 194.129 37.8234 197.393 37.8234C200.659 37.8234 203.306 40.4725 203.306 43.7361C203.306 47.0024 200.659 49.6488 197.393 49.6488ZM255.727 39.9075C251.336 39.9075 247.778 36.3492 247.778 31.9592C247.778 27.57 251.336 24.0109 255.727 24.0109C260.117 24.0109 263.677 27.57 263.677 31.9592C263.677 36.3483 260.117 39.9075 255.727 39.9075ZM308.149 43.7361C308.149 40.4725 310.797 37.8234 314.061 37.8234C317.325 37.8234 319.974 40.4725 319.974 43.7361C319.974 47.0024 317.326 49.6488 314.061 49.6488C310.798 49.6488 308.149 47.0024 308.149 43.7361Z" fill="#AD8F1F"/>
<path d="M114.725 232.138C114.725 222.481 122.553 214.652 132.211 214.652L144.62 214.663V207.541L132.211 207.525C118.617 207.525 107.599 218.545 107.599 232.138C107.599 245.731 118.613 256.756 132.205 256.756H144.831L144.875 249.616H132.165C122.507 249.616 114.725 241.795 114.725 232.138Z" fill="#AD8F1F"/>
<path d="M384.311 205.107C375.691 205.107 365.988 212.794 365.176 225.736L365.054 255.346L371.707 255.29V244.982L396.625 245.036V255.097H403.571V225.924C402.762 212.983 393.435 205.107 384.311 205.107ZM396.563 237.992H371.707L371.687 225.829C371.707 216.255 378.498 212.209 384.173 212.324C391.22 212.467 396.563 218.256 396.563 225.735V237.992Z" fill="#AD8F1F"/>
<path d="M255.727 416.459C242.133 416.459 231.115 427.479 231.115 441.072C231.115 454.665 242.133 465.683 255.727 465.683C269.319 465.683 280.339 454.665 280.339 441.072C280.339 427.479 269.319 416.459 255.727 416.459ZM255.727 458.556C246.07 458.556 238.242 450.73 238.242 441.072C238.242 431.416 246.07 423.587 255.727 423.587C265.384 423.587 273.213 431.416 273.213 441.072C273.213 450.73 265.384 458.556 255.727 458.556Z" fill="#AD8F1F"/>
<path d="M255.727 388.948C260.984 388.948 265.245 384.686 265.245 379.43C265.245 374.174 260.984 369.912 255.727 369.912C250.471 369.912 246.21 374.174 246.21 379.43C246.21 384.686 250.471 388.948 255.727 388.948Z" fill="white"/>
<path d="M325.805 241.156C331.062 241.156 335.324 236.894 335.324 231.637C335.324 226.38 331.062 222.119 325.805 222.119C320.548 222.119 316.286 226.38 316.286 231.637C316.286 236.894 320.548 241.156 325.805 241.156Z" fill="white"/>
<path d="M185.651 241.157C190.908 241.157 195.17 236.895 195.17 231.638C195.17 226.381 190.908 222.119 185.651 222.119C180.394 222.119 176.133 226.381 176.133 231.638C176.133 236.895 180.394 241.157 185.651 241.157Z" fill="white"/>
<path d="M197.666 319.502C202.923 319.502 207.185 315.241 207.185 309.984C207.185 304.727 202.923 300.465 197.666 300.465C192.409 300.465 188.148 304.727 188.148 309.984C188.148 315.241 192.409 319.502 197.666 319.502Z" fill="white"/>
<path d="M325.805 166.282C331.062 166.282 335.324 162.02 335.324 156.763C335.324 151.506 331.062 147.245 325.805 147.245C320.548 147.245 316.286 151.506 316.286 156.763C316.286 162.02 320.548 166.282 325.805 166.282Z" fill="white"/>
<path d="M185.651 166.282C190.908 166.282 195.17 162.02 195.17 156.763C195.17 151.506 190.908 147.245 185.651 147.245C180.394 147.245 176.133 151.506 176.133 156.763C176.133 162.02 180.394 166.282 185.651 166.282Z" fill="white"/>
<path d="M255.727 160.109C260.984 160.109 265.246 155.847 265.246 150.59C265.246 145.333 260.984 141.072 255.727 141.072C250.47 141.072 246.209 145.333 246.209 150.59C246.209 155.847 250.47 160.109 255.727 160.109Z" fill="white"/>
<path d="M313.789 319.502C319.046 319.502 323.308 315.241 323.308 309.984C323.308 304.727 319.046 300.465 313.789 300.465C308.532 300.465 304.271 304.727 304.271 309.984C304.271 315.241 308.532 319.502 313.789 319.502Z" fill="white"/>
</svg>
