<svg width="512" height="455" viewBox="0 0 512 455" fill="none" xmlns="http://www.w3.org/2000/svg">
<g clip-path="url(#clip0_2003_6521)">
<path d="M258.97 44.9338L255.997 42.6405V41.8751L255.404 42.2143L254.98 41.9599V42.5535L252.007 44.8468C240.625 54.6997 161.039 64.1276 150.337 64.1276C117.721 64.1276 87.5684 57.7573 62.9366 46.8854C42.6365 78.9068 30.8304 117.298 30.8304 158.578C30.8304 254.132 95.9772 335.672 181.594 357.161C181.594 357.161 239.436 382.217 254.98 406.425H256.084C271.543 382.302 329.385 357.246 329.385 357.246C414.917 335.757 480.149 254.302 480.149 158.748C480.149 117.383 468.342 78.9918 447.957 46.9704C423.41 57.8423 393.258 64.2126 360.557 64.2126C349.855 64.2126 270.354 54.7845 258.972 44.9319" fill="white"/>
<path d="M254.638 407.021L254.464 406.767C239.346 383.239 183.372 358.607 181.419 357.758C160.269 352.407 140.139 343.404 121.538 331.003C103.361 318.857 87.2232 303.653 73.5482 286.071C59.8732 268.234 49.0863 248.359 41.6968 227.125C34.0523 205.126 30.1454 182.023 30.1454 158.58C30.1454 118.49 41.272 79.7585 62.4214 46.5481L62.6758 46.0393L63.2694 46.2937C88.6657 57.5053 118.818 63.451 150.33 63.451C161.287 63.451 240.363 54.1078 251.575 44.3402L254.378 42.3029V40.6894L255.398 41.4527L256.587 40.5177V42.3855L259.39 44.5099C270.602 54.1927 349.679 63.6206 360.635 63.6206C392.147 63.6206 422.3 57.6752 447.696 46.3786L448.205 46.1241L448.544 46.6329C469.609 79.8435 480.735 118.66 480.735 158.75C480.735 182.108 476.913 205.211 469.269 227.209C461.879 248.529 451.092 268.319 437.333 286.156C423.743 303.823 407.604 318.942 389.343 331.088C370.827 343.573 350.696 352.492 329.547 357.843C327.592 358.693 271.535 383.409 256.671 406.767L256.417 407.021H254.638ZM63.19 47.6519C42.4652 80.6074 31.4235 118.914 31.4235 158.58C31.4235 181.938 35.3306 204.786 42.8899 226.699C50.2796 247.849 60.9815 267.554 74.5714 285.306C102.006 320.725 140.058 346.036 181.762 356.483L181.849 356.57C182.023 356.57 196.543 362.941 212.766 372.114C234.425 384.345 248.78 395.726 255.32 405.749H255.744C262.284 395.726 276.553 384.43 298.212 372.199C314.435 363.026 328.96 356.74 329.045 356.655H329.218C370.923 346.123 408.974 320.812 436.324 285.393C449.999 267.641 460.701 247.936 468.006 226.786C475.65 204.873 479.472 182.025 479.472 158.752C479.472 119.086 468.515 80.6944 447.706 47.8236C422.225 58.9504 392.157 64.8961 360.645 64.8961C355.294 64.8961 332.871 62.6028 309.938 58.9505C289.977 55.8078 264.836 50.8815 258.551 45.4455L255.408 43.0672L252.435 45.3605C246.15 50.7115 221.008 55.638 201.048 58.8654C178.115 62.433 155.692 64.8111 150.341 64.8111C118.829 64.8111 88.7613 58.8655 63.1952 47.6539" fill="white"/>
<path d="M330.402 56.5703L362.424 58.0141L320.04 133.184L359.281 121.462L254.468 305.012L243.087 267.894L207.244 331.087L219.559 339.156L198.58 346.291L198.156 347.056L197.732 346.547L174.289 354.532L172.167 307.816L183.378 315.291L248.101 201.985L259.482 239.442L302.206 163.508L263.049 175.654" fill="#E3351C"/>
<path d="M346.88 307.475L340.595 324.038C339.49 326.84 338.642 328.794 337.962 329.728L335.753 331.172L333.716 329.983C333.292 329.474 332.442 327.69 330.998 324.547C329.639 321.404 328.535 318.601 327.6 316.223L320.636 297.877C319.701 295.328 318.683 294.054 317.663 294.054C316.558 294.054 315.965 295.159 315.795 297.282C315.541 302.208 315.456 306.625 315.456 310.787C315.456 315.034 315.63 317.922 315.965 319.451L316.9 321.488C317.324 321.912 318.428 322.593 320.212 323.696C321.402 324.375 321.995 325.651 321.995 327.349C321.995 331.935 316.984 334.229 306.876 334.229C298.383 334.229 294.136 332.02 294.136 327.518C294.136 326.414 294.39 325.566 294.814 325.055C295.238 324.547 296.343 323.696 298.212 322.677C299.401 322.081 300.164 321.233 300.505 320.214C300.929 319.109 301.27 316.986 301.61 313.929C301.864 310.616 302.203 305.265 302.46 297.706C302.714 290.231 302.884 283.776 302.884 278.425C302.884 271.63 302.46 267.128 301.61 264.75L300.505 262.882C300.081 262.458 299.316 261.947 298.212 261.269C295.748 259.91 294.474 258.041 294.474 255.833C294.474 254.389 294.899 253.115 295.833 251.841C296.768 250.651 298.042 249.803 299.571 249.377C301.099 248.784 303.138 248.358 305.771 248.018C308.319 247.594 310.528 247.425 312.311 247.34C316.813 247.34 319.956 247.764 321.824 248.699L323.949 250.312C324.457 251.078 325.223 252.437 326.242 254.644L337.199 278.342C338.388 280.975 339.152 282.504 339.662 283.098L341.53 283.948L343.398 283.013C343.906 282.417 344.587 281.23 345.265 279.531L352.74 262.543L354.523 258.296C356.221 254.22 357.92 251.416 359.619 250.143C360.978 248.953 363.017 248.19 365.82 247.764C367.433 249.632 369.217 251.332 370.916 253.795C375.587 260.42 375.503 270.442 379.325 275.539C379.07 279.276 378.985 283.353 378.985 287.94C378.985 298.387 379.409 307.645 380.26 315.544C380.434 317.499 380.769 318.772 381.195 319.451C381.619 320.217 382.808 321.234 384.592 322.679C385.866 323.614 386.46 324.972 386.46 326.586C386.46 329.474 384.847 331.512 381.619 332.701C379.92 333.38 378.136 333.806 376.268 333.976C374.4 334.23 371.596 334.315 367.689 334.315C361.743 334.315 357.412 333.806 354.439 332.871C351.211 331.766 349.597 329.813 349.597 327.18C349.597 326.16 349.852 325.397 350.276 324.717C350.7 324.121 351.719 322.934 353.503 321.234C354.438 320.384 355.032 318.686 355.371 316.223C355.71 313.76 355.88 309.513 355.88 303.653C355.88 300.34 355.706 298.132 355.456 297.112C355.202 296.093 354.693 295.584 353.843 295.584C352.823 295.584 351.89 296.349 351.04 297.962C350.105 299.576 348.746 302.719 346.878 307.475" fill="black"/>
<path d="M367.69 337.033C361.404 337.033 356.818 336.439 353.59 335.335C347.814 333.38 346.965 329.389 346.965 327.181C346.965 325.652 347.304 324.293 347.985 323.273C348.409 322.68 349.174 321.66 351.637 319.281C351.724 319.194 352.403 318.603 352.742 315.884C352.996 313.506 353.251 309.344 353.251 303.568C353.251 301.785 353.164 300.595 353.077 299.661C352.483 300.85 351.294 303.313 349.424 308.409L343.054 325.057C341.865 328.115 340.93 330.068 340.166 331.258C338.638 333.38 336.939 333.806 335.749 333.806C334.645 333.806 332.947 333.466 331.588 331.597C331.164 331.088 330.483 329.984 328.53 325.652C327.171 322.424 325.982 319.621 325.047 317.158L318.422 299.491C318.248 303.483 318.168 307.305 318.168 310.788C318.168 315.714 318.342 317.922 318.592 318.857L318.846 319.62C319.101 319.794 319.697 320.216 321.649 321.403C323.008 322.253 324.622 323.951 324.622 327.349C324.622 329.727 323.687 332.954 319.271 334.993C316.383 336.267 312.306 336.948 306.87 336.948C294.13 336.948 291.497 331.851 291.497 327.52C291.497 325.652 291.921 324.292 292.771 323.358C293.195 322.762 294.13 321.914 296.848 320.385H296.935L298.039 319.28V319.193C298.213 318.854 298.548 317.495 298.89 313.672C299.229 310.445 299.483 305.094 299.825 297.619C300.079 290.145 300.164 283.69 300.164 278.423C300.164 270.524 299.57 267.127 299.059 265.683L298.55 264.748C298.463 264.661 298.211 264.409 296.852 263.558C292.69 261.18 291.841 258.037 291.841 255.829C291.841 253.792 292.437 251.922 293.709 250.223C294.983 248.61 296.681 247.42 298.72 246.826C300.418 246.23 302.627 245.721 305.345 245.382C308.063 244.873 310.356 244.704 312.31 244.704C317.236 244.704 320.719 245.212 322.927 246.232C324.286 246.828 325.305 247.676 326.07 248.695C326.494 249.291 327.259 250.394 328.703 253.537L339.575 277.234C340.679 279.528 341.188 280.632 341.527 281.056C341.701 280.802 342.206 280.037 342.886 278.508L350.276 261.521L352.059 257.274C353.926 252.688 355.881 249.715 357.919 248.016C359.702 246.572 362.081 245.638 365.394 245.128L366.838 244.874L367.857 246.063L369.216 247.592C370.491 248.951 371.764 250.395 373.123 252.263C375.757 256.086 377.03 260.757 378.135 264.919C379.07 268.486 379.918 271.884 381.447 273.837L382.041 274.687L381.954 275.622C381.78 279.36 381.615 283.437 381.615 287.938C381.615 298.301 382.039 307.474 382.889 315.288C383.143 317.243 383.398 317.921 383.485 318.091C383.572 318.265 384.163 318.941 386.203 320.554C388.155 321.998 389.175 324.122 389.175 326.585C389.175 328.878 388.325 333.125 382.55 335.248C380.683 335.927 378.643 336.438 376.605 336.692C374.567 336.866 371.678 337.031 367.686 337.031M358.003 316.562C357.579 319.704 356.729 321.828 355.37 323.187C353.162 325.311 352.652 325.99 352.482 326.159V326.246L352.309 327.181C352.309 327.86 352.308 329.219 355.366 330.324C357.914 331.174 362.076 331.683 367.682 331.683C371.419 331.683 374.222 331.509 376.006 331.344C377.619 331.17 379.149 330.75 380.593 330.239L380.68 330.152C383.398 329.217 383.822 327.774 383.822 326.585L382.887 324.717C380.765 323.104 379.575 321.914 378.895 320.98V320.893C378.217 319.788 377.791 318.259 377.536 315.796C376.686 307.812 376.262 298.469 376.262 287.937C376.262 283.69 376.349 279.783 376.601 276.3C374.818 273.498 373.883 270.015 372.949 266.363C371.929 262.456 370.825 258.379 368.702 255.321C367.598 253.708 366.494 252.518 365.305 251.244L364.796 250.735C362.928 251.074 361.823 251.67 361.313 252.179C360.378 252.944 358.935 254.727 356.982 259.314L355.199 263.645L347.809 280.633C346.874 282.588 346.111 283.946 345.346 284.795C344.072 286.323 342.543 286.663 341.524 286.663C339.911 286.663 338.466 285.984 337.532 284.708C337.108 284.199 336.427 283.094 334.729 279.442L323.772 255.744C322.583 253.026 321.989 252.177 321.819 251.922L320.715 251.072C319.61 250.648 317.402 250.052 312.306 250.052C310.693 250.052 308.569 250.226 306.191 250.648H306.104C303.725 250.987 301.857 251.411 300.413 251.837V251.924C299.393 252.179 298.545 252.775 297.95 253.538L297.186 255.831C297.186 256.681 297.441 257.784 299.479 258.974H299.566C300.925 259.739 301.775 260.418 302.369 261.011C303.048 261.69 303.644 262.625 304.068 263.729V263.816C305.087 266.534 305.596 271.291 305.596 278.425C305.596 283.776 305.422 290.317 305.087 297.876C304.833 305.435 304.579 310.786 304.237 314.184C303.898 317.581 303.559 319.79 303.048 321.064C302.369 322.762 301.18 324.121 299.48 325.056C297.782 325.991 297.102 326.5 296.932 326.754L296.845 327.517C296.845 328.791 297.354 329.555 298.544 330.235C299.818 330.831 302.196 331.594 306.867 331.594C317.654 331.594 319.268 328.876 319.268 327.347C319.268 326.243 318.929 326.073 318.844 325.988C316.211 324.46 315.447 323.78 315.022 323.355L314.935 323.268C314.257 322.59 313.746 321.57 313.406 320.211V320.037C312.982 318.339 312.728 315.365 312.728 310.779C312.728 306.617 312.902 302.03 313.152 297.189C313.406 291.923 316.38 291.328 317.654 291.328C321.051 291.328 322.58 295.405 323.175 296.934L330.054 315.28C330.989 317.659 332.092 320.377 333.452 323.434C334.896 326.747 335.489 327.851 335.745 328.191C336.084 327.767 336.765 326.408 338.124 323.095L344.409 306.447C346.277 301.521 347.637 298.293 348.656 296.594C350.099 294.131 351.798 292.857 353.837 292.857C356.3 292.857 357.574 294.725 358.084 296.424C358.258 297.275 358.508 298.888 358.508 303.559C358.508 309.674 358.334 313.921 357.999 316.554" fill="white"/>
<path fill-rule="evenodd" clip-rule="evenodd" d="M406.846 146.944C405.063 146.944 403.873 147.622 403.363 148.811C402.855 150.085 402.685 152.973 402.685 157.56C402.685 164.44 403.024 169.876 403.79 173.698C404.044 174.802 404.383 175.653 404.809 176.246C405.318 176.842 406.168 177.605 407.527 178.454C409.226 179.559 410.415 180.833 411.095 182.362L409.058 181.938V191.365C408.207 192.044 407.103 192.724 405.83 193.148C402.772 194.338 397.931 195.016 391.391 195.271L391.478 194.166C391.478 181.51 375.085 179.982 362.429 179.982H361.409C362.003 179.303 362.938 178.453 364.213 177.519C366.25 175.99 367.61 174.121 368.374 171.997C369.053 169.789 369.564 166.137 369.903 160.786C370.157 156.964 370.242 143.119 370.242 119.336C370.242 111.777 369.903 106.681 369.222 103.963C368.626 101.245 367.185 99.2063 365.06 98.0173C362.936 96.8279 361.578 95.8088 360.898 94.8744C360.135 93.9395 359.794 92.6661 359.794 91.1373C359.794 89.0999 360.472 87.3999 361.748 85.9562C363.107 84.4276 365.061 83.3229 367.439 82.5586C369.476 81.9629 372.196 81.7085 375.763 81.7085C377.292 81.7085 381.199 81.9629 387.399 82.4717C388.504 82.6456 390.372 82.6456 392.92 82.6456C397.167 82.6456 402.773 82.3912 409.823 81.7106C414.324 81.3714 417.467 81.1149 419.251 81.1149C429.273 81.1149 437.597 83.9179 444.137 89.5237C450.083 94.535 453.056 101.585 453.056 110.588C453.056 115.514 452.036 120.101 449.998 124.263C447.874 128.34 445.072 131.398 441.419 133.436C439.891 134.286 439.211 135.304 439.211 136.579C439.211 138.107 440.316 139.382 442.609 140.401C447.535 142.438 451.187 145.582 453.481 149.744C455.774 153.906 457.388 160.361 458.407 168.94C458.831 172.592 459.427 174.885 460.275 175.99C461.038 177.009 462.908 178.027 465.796 178.962C466.73 179.302 467.494 180.067 468.089 181.087C468.682 182.191 469.024 183.295 469.024 184.654C469.024 186.268 468.43 188.052 467.326 189.751C466.136 191.449 464.693 192.808 462.909 193.742C459.936 195.356 456.029 196.375 451.358 196.715C451.951 195.102 452.293 193.403 452.293 191.449C452.293 183.295 441.675 181.681 433.521 181.681C429.784 181.681 426.641 182.105 423.669 182.36C423.245 181.34 422.818 180.238 422.479 179.132C421.205 175.31 419.761 169.365 418.148 161.295C417.043 156.114 415.599 152.547 413.901 150.423C412.287 148.301 409.909 147.111 406.851 146.941M402.774 105.407L401.924 124.433V125.111C401.924 127.064 402.178 128.424 402.689 129.018C403.198 129.697 404.218 130.038 405.662 130.038C409.824 130.038 412.796 128.764 414.75 126.386C416.618 123.838 417.553 119.931 417.553 114.495C417.553 103.962 414.325 98.6963 407.87 98.6963C406.002 98.6963 404.727 99.2051 403.963 100.225C403.285 101.16 402.859 102.944 402.774 105.407Z" fill="black"/>
<path d="M447.276 199.774L448.805 195.782C449.4 194.423 449.655 192.979 449.655 191.451C449.655 189.922 449.146 187.628 444.983 186.015C442.265 184.995 438.273 184.401 433.517 184.401C430.119 184.401 427.316 184.656 424.598 184.997L421.965 185.171L421.2 183.388C420.776 182.283 420.35 181.179 419.926 179.905C418.652 175.998 417.208 169.968 415.509 161.899C414.235 155.953 412.791 153.32 411.857 152.046C410.667 150.602 409.054 149.753 406.76 149.668L405.825 149.842C405.738 150.266 405.317 151.964 405.317 157.571C405.317 164.281 405.656 169.547 406.421 173.199L406.93 174.558C407.017 174.732 407.524 175.237 408.967 176.172C411.092 177.531 412.705 179.229 413.554 181.268L415.592 185.77L411.769 185.176V192.651L410.75 193.414C409.73 194.349 408.371 195.112 406.758 195.707C403.36 196.981 398.349 197.744 391.469 198L388.581 198.087L388.755 194.095C388.755 189.169 385.952 182.629 362.425 182.629L355.035 182.803L359.452 178.131C360.13 177.366 361.15 176.518 362.509 175.413C364.208 174.139 365.227 172.78 365.822 171.166C366.246 169.807 366.842 166.919 367.181 160.719C367.435 156.897 367.52 143.052 367.52 119.355C367.52 110.266 367.096 106.274 366.67 104.576C366.161 102.621 365.226 101.263 363.697 100.329C361.234 98.9696 359.705 97.7807 358.771 96.5915L358.684 96.5045C357.664 95.0607 357.155 93.277 357.155 91.1535C357.155 88.5205 358.006 86.1422 359.788 84.1887C361.487 82.3209 363.78 80.876 366.668 80.0267C368.962 79.3483 371.934 79.0069 375.757 79.0069C377.37 79.0069 381.277 79.2613 387.563 79.8571C388.668 79.9441 390.451 80.031 392.914 80.031C397.076 80.031 402.682 79.6919 409.561 79.0113C414.148 78.6721 417.376 78.5024 419.244 78.5024C429.862 78.5024 438.865 81.4753 445.915 87.5057C452.455 93.1115 455.767 100.841 455.767 110.609C455.767 115.96 454.578 120.971 452.37 125.473C450.077 129.974 446.764 133.457 442.772 135.835L441.837 136.598C441.837 136.853 442.431 137.364 443.705 137.957C449.141 140.251 453.218 143.733 455.851 148.49C458.314 152.991 460.013 159.616 461.032 168.705C461.541 172.952 462.221 174.141 462.391 174.395C462.565 174.569 463.326 175.415 466.638 176.52H466.725C468.253 177.029 469.443 178.133 470.377 179.832C471.227 181.276 471.651 182.89 471.651 184.674C471.651 186.882 470.973 189.091 469.529 191.214V191.301C468.17 193.338 466.386 194.953 464.178 196.142C460.865 197.925 456.619 199.03 451.522 199.455L447.276 199.774ZM433.516 179.05C438.952 179.05 443.539 179.728 446.936 181.002C450.588 182.446 455.005 185.419 455.005 191.45L454.831 193.574C457.549 193.15 459.842 192.385 461.626 191.365C463.07 190.602 464.174 189.582 465.024 188.308C465.874 187.034 466.298 185.76 466.298 184.656L465.789 182.447H465.702L464.937 181.512C461.369 180.323 459.246 179.134 458.142 177.605H458.055C456.95 176.076 456.272 173.528 455.761 169.281C454.826 161.042 453.213 154.927 451.09 151.02C449.137 147.368 445.994 144.734 441.577 142.866C437.33 141.083 436.481 138.449 436.481 136.58C436.481 135.052 437.075 132.843 440.048 131.144C443.276 129.277 445.739 126.643 447.523 122.99C449.39 119.338 450.325 115.091 450.325 110.59C450.325 102.351 447.778 96.1504 442.426 91.5637C436.396 86.3826 428.582 83.8344 419.239 83.8344C417.456 83.8344 414.397 84.0083 410.065 84.3432C403.015 85.0216 397.24 85.363 392.908 85.363C390.275 85.363 388.406 85.276 387.132 85.1891C381.017 84.5954 377.195 84.3388 375.751 84.3388C372.438 84.3388 369.89 84.5933 368.191 85.1891C366.239 85.6978 364.794 86.6329 363.775 87.7372C362.924 88.6722 362.5 89.7746 362.5 91.1347L363.009 93.343C363.264 93.5974 364.029 94.3628 366.322 95.6364V95.7234C369.21 97.3368 370.993 99.8852 371.843 103.283C372.521 106.255 372.947 111.522 372.947 119.336C372.947 143.458 372.773 157.048 372.523 160.955C372.269 166.561 371.673 170.468 370.825 172.846C370.316 174.544 369.466 175.989 368.277 177.433C372.864 177.607 378.045 178.283 382.547 179.726C387.473 181.509 393.249 185.077 394.013 192.467C398.855 192.128 402.507 191.532 404.885 190.684L406.414 189.921V180.917L406.075 180.663C404.461 179.643 403.357 178.708 402.762 177.86C401.996 176.925 401.488 175.736 401.148 174.293V174.206C400.383 170.129 399.959 164.693 399.959 157.558C399.959 151.103 400.468 148.979 400.894 147.875V147.788C401.403 146.514 402.931 144.306 406.839 144.306H406.926C410.834 144.479 413.891 146.004 416.015 148.722C417.967 151.186 419.497 155.177 420.686 160.783C422.384 168.683 423.829 174.543 425.018 178.28L425.442 179.47C427.905 179.215 430.453 179.046 433.511 179.046" fill="white"/>
<path d="M405.657 132.674C403.363 132.674 401.58 131.996 400.56 130.719L400.473 130.632C399.623 129.443 399.284 127.744 399.284 125.111V124.261L400.049 105.32C400.136 102.177 400.728 100.054 401.917 98.5249C403.107 96.9115 405.145 96.0618 407.863 96.0618C413.469 96.0618 420.179 99.2044 420.179 114.493C420.179 120.524 419.074 124.941 416.866 127.998C414.403 131.141 410.666 132.67 405.655 132.67M404.804 127.234L405.655 127.321C408.967 127.321 411.26 126.471 412.619 124.688C414.063 122.733 414.828 119.252 414.828 114.495C414.828 101.415 409.732 101.415 407.863 101.415C406.843 101.415 406.25 101.67 406.08 101.839C405.993 101.926 405.486 102.774 405.401 105.491L404.636 124.432V125.111C404.636 126.3 404.723 126.979 404.81 127.235" fill="white"/>
<path d="M434.875 203.512L401.58 266.28C399.542 270.187 397.588 272.82 395.719 274.349C393.936 275.793 391.642 276.474 388.839 276.474C386.461 276.474 384.422 276.05 382.554 275.115C381.11 274.349 380.006 273.501 379.241 272.566C378.478 271.631 377.458 269.848 376.268 267.3L346.625 206.485C344.927 203.003 343.483 200.709 342.124 199.52C340.765 198.246 338.896 197.398 336.433 196.972C333.545 196.463 332.101 194.848 332.101 191.961C332.101 188.478 334.649 185.846 339.746 183.977C344.757 182.109 352.061 181.174 361.574 181.174C371.427 181.174 378.647 181.852 383.318 183.298C387.905 184.657 390.198 186.866 390.198 189.754C390.198 191.621 389.009 193.406 386.461 195.019C384.508 196.294 383.573 197.398 383.573 198.502C383.573 199.437 383.997 200.88 384.847 202.749L393.935 221.775C395.209 224.578 396.738 225.937 398.352 225.937C399.965 225.937 401.41 225.258 402.684 223.728C403.873 222.285 405.572 219.312 407.695 214.98C411.517 207.166 413.726 202.494 414.405 201.135C414.999 199.691 415.34 198.587 415.34 197.822C415.34 196.294 414.236 194.935 411.943 193.915C409.395 192.641 408.121 191.113 408.121 189.244C408.121 183.893 415.85 181.175 431.308 181.175C438.953 181.175 444.389 181.77 447.531 182.958C450.674 184.062 452.288 186.015 452.288 188.818C452.288 192.131 450.25 194.084 446.087 194.594C443.115 194.848 441.246 195.359 440.312 195.868C438.783 196.973 436.998 199.519 434.875 203.512Z" fill="#171405"/>
<path d="M388.839 279.191C386.036 279.191 383.573 278.595 381.365 277.492C379.582 276.558 378.222 275.54 377.203 274.35L377.116 274.263C376.181 273.073 375.161 271.205 373.803 268.487L344.16 207.587C342.292 203.765 341.017 202.151 340.338 201.472L340.251 201.385C339.316 200.535 337.873 199.941 336.004 199.602C331.842 198.923 329.379 196.119 329.379 191.957C329.379 188.73 331.077 184.313 338.807 181.51C344.158 179.473 351.632 178.537 361.57 178.537C371.763 178.537 379.152 179.216 384.078 180.746C388.07 181.935 392.912 184.483 392.912 189.749C392.912 192.637 391.214 195.1 387.901 197.308C386.796 197.987 386.372 198.498 386.287 198.667C386.287 199.007 386.461 199.857 387.307 201.555L396.395 220.581C397.415 222.79 398.178 223.299 398.348 223.299C398.857 223.299 399.622 223.125 400.641 222.025C401.32 221.09 402.766 218.967 405.313 213.786C409.05 206.057 411.343 201.385 411.938 200.026C412.621 198.415 412.621 197.821 412.621 197.821C412.621 197.566 412.113 196.971 410.754 196.292C406.422 194.168 405.488 191.281 405.488 189.242C405.488 186.524 406.762 182.872 413.047 180.664C417.209 179.22 423.239 178.539 431.308 178.539C439.378 178.539 444.983 179.133 448.466 180.407C450.929 181.257 455.006 183.55 455.006 188.816C455.006 191.194 454.156 193.233 452.543 194.677C451.099 196.036 449.06 196.885 446.427 197.225C442.775 197.649 441.926 198.075 441.841 198.16C441.332 198.499 439.803 199.858 437.169 204.785L403.959 267.553C401.75 271.8 399.627 274.688 397.419 276.387V276.474C395.125 278.257 392.152 279.191 388.839 279.191ZM381.28 270.868C381.876 271.546 382.724 272.142 383.744 272.736C385.272 273.414 386.886 273.84 388.84 273.84C390.964 273.84 392.747 273.331 394.106 272.227C395.126 271.377 396.909 269.424 399.202 265.092L432.498 202.324C434.876 197.737 436.914 195.019 438.868 193.66C440.142 192.81 442.265 192.301 445.833 191.877C449.655 191.453 449.655 189.755 449.655 188.819C449.655 187.715 449.231 186.356 446.597 185.422C444.645 184.743 440.397 183.809 431.308 183.809C418.483 183.896 410.839 185.846 410.839 189.245C410.839 190.008 411.604 190.773 413.047 191.453C417.124 193.405 417.973 195.954 417.973 197.823C417.973 199.013 417.634 200.371 416.869 202.155V202.242C416.19 203.601 413.981 208.188 410.159 216.172C407.865 220.758 406.082 223.816 404.723 225.43C402.515 228.063 400.051 228.658 398.352 228.658C395.634 228.658 393.341 226.703 391.557 222.967L382.469 203.856C381.365 201.648 380.941 199.864 380.941 198.505C380.941 195.362 383.998 193.408 385.018 192.729C386.207 192.051 387.566 190.861 387.566 189.756C387.566 188.143 385.868 186.868 382.554 185.849C378.138 184.49 371.088 183.812 361.575 183.812C352.402 183.812 345.437 184.747 340.68 186.53C334.82 188.652 334.82 191.201 334.82 191.966C334.82 193.325 335.074 194.088 336.857 194.344C339.915 194.853 342.208 195.957 343.907 197.572C345.52 199.015 347.219 201.564 349.003 205.301L378.646 266.116C380.005 269.004 380.854 270.278 381.279 270.872" fill="white"/>
<path d="M258.97 44.9338L255.997 42.6404V41.8751L255.404 42.2143L254.98 41.9599V42.5535L252.007 44.8468C240.625 54.6996 161.039 64.1276 150.337 64.1276C117.721 64.1276 87.5684 57.7573 62.9367 46.8853C42.6366 78.9067 30.8305 117.298 30.8305 158.578C30.8305 254.132 95.9772 335.672 181.594 357.161C181.594 357.161 239.436 382.217 254.98 406.425H256.084C271.543 382.302 329.385 357.246 329.385 357.246C414.917 335.757 480.149 254.302 480.149 158.748C480.149 117.383 468.342 78.9917 447.957 46.9703C423.41 57.8423 393.258 64.2126 360.557 64.2126C349.855 64.2126 270.354 54.7844 258.972 44.9318M255.999 0.0850074C277.064 18.4314 314.011 30.7474 356.055 30.7474C395.551 30.7474 430.545 19.8755 451.949 3.22768C489.407 44.762 512 98.3573 512 156.879C512 271.969 426.723 356.312 310.699 399.969C287.596 408.633 261.35 447.025 256.424 453.735V454.669L256 454.246L255.661 454.669V453.735C250.735 447.025 224.489 408.633 201.386 399.969C85.3619 356.312 0 271.969 0 156.879C0 98.3573 22.5932 44.762 60.1354 3.22768C81.5397 19.8755 116.534 30.7474 156.03 30.7474C198.073 30.7474 235.021 18.4315 255.916 0L255.999 0.0850074Z" fill="#BFAE30"/>
<path d="M95.7208 113.988V224.916L100.987 230.692L113.728 232.39L128.252 230.268L134.962 232.731L142.012 237.317L149.486 232.051L163.586 231.373L173.099 233.071L184.48 229.589L187.623 216.508V113.989" fill="#E3351C"/>
<path d="M141.502 117.895H99.0334V184.655L99.1203 223.642C100.055 226.275 100.564 227.804 102.943 228.908C114.069 234.089 127.999 222.622 138.871 231.541C140.145 232.561 140.824 233.239 141.929 234.344C143.033 233.239 143.712 232.561 144.987 231.541C155.858 222.622 169.788 234.089 180.915 228.908C183.293 227.803 183.803 226.275 184.737 223.642L184.824 184.655V117.895M142.016 72.2834V72.4574C143.12 73.3076 143.799 73.8164 145.073 74.5818C147.198 75.9408 149.66 75.1754 151.019 77.2998C152.208 79.1676 152.802 81.1219 151.528 82.8207C150.849 83.7557 150.169 84.4342 148.98 84.4342C147.536 84.4342 147.705 82.1409 146.262 81.7162C143.374 80.9508 143.713 86.5574 144.903 89.2754C146.262 92.2483 151.613 96.3252 152.462 93.0976C152.801 91.7386 151.612 90.9754 151.866 89.5303C152.29 87.237 153.734 85.1985 156.113 85.2835C157.218 85.3705 157.896 85.7075 158.661 86.3881L159.851 87.8319L160.275 90.0402C160.275 91.5688 159.851 92.5884 158.746 93.6075C160.87 94.5425 162.738 94.4577 164.777 93.3531C166.56 92.4181 167.58 91.4005 168.089 89.4459L168.344 87.5781L167.92 86.3887L166.9 85.1145L165.88 84.9406C164.351 84.7667 163.077 85.7908 161.973 84.6862C160.953 83.5816 160.953 81.8834 161.973 80.6942C163.671 78.7416 166.305 79.5048 169.023 78.4859C170.806 77.7205 171.741 77.2965 173.44 76.3615C174.544 78.1445 174.459 79.6742 176.412 80.7784C178.537 81.9678 180.829 83.2415 181.084 85.9595C181.171 86.9793 181.258 87.7425 180.66 88.5925C179.981 89.6123 179.046 90.2907 177.857 89.9515L176.413 88.5077L175.904 87.7423L174.8 86.7225L173.525 87.7423L172.675 89.3557L172.251 91.4779C172.251 92.6673 172.506 93.4327 173.186 94.4507C174.63 96.7441 176.754 97.7634 179.302 97.4236C178.708 96.0646 178.708 94.9604 179.302 93.6014C179.811 92.5816 180.322 91.988 181.339 91.564L183.632 91.3901L185.076 91.9837L186.011 93.3427C186.605 94.5321 186.52 95.3801 186.266 96.6554C185.926 98.184 185.502 99.1185 184.398 100.138C186.52 101.666 188.814 101.836 191.193 100.562C193.656 99.2027 197.053 95.2107 194.505 94.1066L193.401 93.8522C192.127 93.5978 191.022 94.872 190.003 93.9392C188.899 93.0042 189.664 91.5608 190.177 90.2018C191.536 86.3797 196.378 89.182 200.2 87.9085L202.578 87.0583L191.026 111.69V224.656C190.263 226.611 189.667 227.714 188.563 229.498C179.305 244.447 156.372 225.761 144.311 238.671C143.291 239.691 142.783 240.285 141.933 241.389C141.083 240.285 140.489 239.691 139.555 238.671C127.494 225.761 104.56 244.447 95.3023 229.498C94.1977 227.715 93.6041 226.61 92.8392 224.656V111.69L81.2877 87.0583L83.6658 87.9085C87.488 89.1827 92.3295 86.3799 93.6885 90.2018C94.1973 91.5608 94.9627 93.0048 93.8624 93.9392C92.8426 94.8742 91.7402 93.6 90.4649 93.8522L89.4451 94.1065C86.8119 95.2111 90.2105 99.2027 92.6728 100.562C95.0509 101.836 97.3443 101.666 99.4678 100.138C98.3632 99.1179 97.9392 98.1851 97.6 96.6554C97.3456 95.3812 97.2608 94.531 97.8544 93.3427L98.7894 91.9837L100.233 91.3901L102.526 91.564C103.546 91.988 104.055 92.5838 104.564 93.6014C105.158 94.9604 105.158 96.0646 104.564 97.4236C107.112 97.7628 109.32 96.7451 110.679 94.4507C111.358 93.4309 111.614 92.6677 111.614 91.4779L111.19 89.3557L110.34 87.7423L109.066 86.7225L107.961 87.7423L107.537 88.5077L106.009 89.9515C104.819 90.2907 103.884 89.6123 103.206 88.5925C102.612 87.7423 102.697 86.9791 102.782 85.9595C103.036 83.2415 105.33 81.9673 107.453 80.7784C109.408 79.6738 109.321 78.1452 110.426 76.3615C112.124 77.2965 113.059 77.7205 114.843 78.4859C117.561 79.5057 120.194 78.7403 121.893 80.6942C122.913 81.8836 122.997 83.582 121.893 84.6862C120.788 85.7908 119.514 84.7732 117.986 84.9406L116.966 85.1145L115.946 86.3887L115.607 87.5781L115.781 89.4459C116.289 91.4007 117.309 92.4187 119.093 93.3531C121.218 94.4576 123 94.5425 125.124 93.6075C124.019 92.5877 123.595 91.5701 123.595 90.0402L124.019 87.8319L125.208 86.3881C126.059 85.7097 126.652 85.3683 127.757 85.2835C130.135 85.1965 131.579 87.2361 132.003 89.5303C132.258 90.9741 131.068 91.7386 131.41 93.0976C132.26 96.3252 137.61 92.2474 138.969 89.2754C140.243 86.5574 140.498 80.9517 137.61 81.7162C136.166 82.1402 136.336 84.4342 134.892 84.4342C133.703 84.4342 133.024 83.7557 132.344 82.8207C131.07 81.1225 131.665 79.1684 132.853 77.2998C134.212 75.1754 136.675 75.9408 138.798 74.5818C140.073 73.8164 140.751 73.3076 141.856 72.4574V72.2834H142.016Z" fill="#BFAE30"/>
<path d="M101.242 112.629C107.017 106.853 123.071 102.691 141.927 102.691C160.783 102.691 176.836 106.853 182.611 112.629H101.242Z" fill="#171405"/>
<path d="M183.206 112.884H100.647L101.071 112.46C107.017 106.429 123.41 102.437 141.926 102.437C160.442 102.437 176.835 106.429 182.781 112.46L183.206 112.884ZM101.921 112.375H181.932C175.732 106.684 159.849 102.947 141.927 102.947C124.005 102.947 108.122 106.684 101.921 112.375Z" fill="#171405"/>
<path d="M167.068 128.682L165.964 130.55C164.52 133.522 163.67 135.391 163.839 138.619L163.926 140.062C164.776 142.95 168.853 138.534 170.891 136.495C172.165 135.136 173.099 134.54 174.204 133.098C173.438 134.965 172.845 136.495 172.249 138.024C170.975 141.252 170.975 140.912 170.212 143.29C169.618 145.243 171.74 145.243 175.393 143.464C176.412 143.04 179.894 140.831 180.574 138.028C181.763 144.143 178.621 149.749 172.76 151.958C171.74 152.297 171.061 152.466 169.957 152.553C167.919 152.893 166.729 152.727 164.691 152.553C163.247 152.466 162.482 152.379 161.038 152.214L145.07 175.147L179.13 220.334L177.093 222.202L142.778 178.034L111.776 223.136L109.398 221.523L140.909 176.081L121.544 147.627C119.419 149.326 118.146 150.175 115.853 151.534C112.625 153.489 110.757 154.422 107.359 155.866C105.322 154.083 104.301 152.639 103.452 150.175C103.028 148.816 102.858 147.967 102.858 146.523C102.771 145.503 102.858 144.825 103.113 143.805L104.557 144.74C105.916 145.419 106.765 145.929 108.294 145.76L108.888 145.586L109.227 143.293C109.314 141.679 109.227 140.83 109.053 139.3C110.073 139.724 110.581 140.066 111.601 140.575L112.875 141.425L114.743 141.934L115.678 140.575L115.852 139.131C115.852 137.602 115.678 136.753 115.089 135.309C117.126 136.753 120.015 139.386 121.034 137.177L121.289 135.817C121.463 134.034 121.376 133.015 120.865 131.316C122.224 132.251 123.158 132.675 124.772 132.844C125.792 133.018 126.555 133.353 127.49 132.931C129.442 131.996 129.018 128.77 127.316 127.326C129.353 127.75 130.458 128.261 132.242 129.363C134.535 130.722 135.724 131.826 137.168 134.12C136.064 135.733 135.301 136.583 133.941 138.112C132.836 139.301 132.158 139.895 130.968 141C128.59 143.122 127.146 144.312 124.598 146.181L143.114 172.851L158.657 150.343C158.318 148.899 158.064 148.049 157.722 146.605C157.383 144.907 157.044 143.972 156.959 142.274C156.872 140.575 156.959 139.556 157.468 137.857C158.997 132.93 162.055 129.958 167.066 128.684" fill="#171405"/>
<path d="M111.859 223.472L109.056 221.517L140.568 176.076L121.457 148.047C119.504 149.575 118.229 150.425 115.936 151.784C112.793 153.738 110.925 154.672 107.442 156.116H107.268L107.181 156.029C105.057 154.246 104.124 152.801 103.189 150.253C102.765 148.894 102.596 148.045 102.511 146.516C102.511 145.411 102.598 144.817 102.85 143.713L102.937 143.289L103.276 143.543L104.635 144.478L105.059 144.652C106.164 145.246 106.927 145.672 108.202 145.502L108.711 145.415L108.885 143.207C108.972 141.678 108.972 140.829 108.798 139.3L108.711 138.791L109.135 139.045C110.154 139.469 110.748 139.811 111.683 140.32L112.276 140.744L113.042 141.168L113.551 141.422L114.655 141.676L115.421 140.572V140.485L115.594 139.465V139.126C115.594 137.682 115.421 136.748 114.831 135.473L114.407 134.538L115.17 135.134L116.021 135.728C117.38 136.748 119.079 137.936 120.098 137.68L120.691 137.002L120.946 136.152L121.033 135.813C121.207 134.03 121.12 133.01 120.609 131.396L120.354 130.633L121.033 131.057C122.307 131.992 123.241 132.331 124.855 132.585L125.448 132.759L127.401 132.672L128.506 130.974C128.68 129.7 128.082 128.341 127.147 127.576L127.401 127.068C129.438 127.492 130.629 128.003 132.412 129.105C134.706 130.549 135.895 131.738 137.339 133.947L137.513 134.12L137.339 134.207C136.234 135.906 135.556 136.756 134.196 138.284C133.176 139.304 132.498 139.898 131.563 140.748L131.139 141.172C128.761 143.296 127.402 144.399 124.939 146.268L143.115 172.429L158.404 150.26C158.065 148.901 157.81 148.136 157.469 146.693L157.214 145.418C156.96 144.399 156.706 143.551 156.706 142.276C156.619 140.408 156.793 139.388 157.214 137.774C158.743 132.763 161.886 129.705 166.982 128.431L167.66 128.257L167.321 128.851L166.217 130.719C164.688 133.776 163.923 135.56 164.092 138.618V139.042L164.179 139.977L164.773 140.742C166.047 140.996 168.85 138.109 170.379 136.58L170.633 136.241L171.992 134.967L174.029 132.929L174.453 133.184C173.688 134.967 173.094 136.411 172.501 138.11C171.992 139.215 171.735 139.893 171.481 140.403C171.142 141.423 170.972 141.847 170.461 143.376L170.548 144.311C170.722 144.485 171.653 144.907 175.305 143.206C176.155 142.867 179.551 140.743 180.316 137.94H180.825C182.014 144.141 178.787 150.001 172.841 152.125C171.736 152.549 171.058 152.719 169.953 152.888C168.255 153.143 167.15 153.062 165.536 152.888H164.601C163.242 152.801 162.477 152.714 161.204 152.464L145.406 175.142L179.465 220.329L177.087 222.537L142.772 178.455L111.859 223.472ZM109.735 221.434L111.689 222.709L142.776 177.607L177.176 221.774L178.704 220.246L144.73 175.144L144.817 174.97L160.955 151.867L161.129 151.954C162.488 152.128 163.253 152.209 164.696 152.293L165.631 152.38C167.16 152.554 168.264 152.554 169.963 152.293C170.983 152.12 171.661 152.039 172.681 151.7C178.032 149.662 181.09 144.65 180.495 139.044C179.306 141.507 176.333 143.291 175.569 143.716C173.614 144.651 171.152 145.499 170.218 144.735L169.963 143.207C170.472 141.678 170.642 141.254 171.068 140.234C171.242 139.725 171.577 139.045 172.003 137.856C172.512 136.667 172.938 135.563 173.362 134.458L172.427 135.393L171.068 136.668L170.729 136.922C168.435 139.3 166.142 141.593 164.698 141.254L163.678 140.149L163.591 139.045V138.621C163.418 135.308 164.27 133.355 165.716 130.467L166.481 129.108C161.895 130.467 159.177 133.27 157.733 137.941C157.309 139.47 157.224 140.489 157.224 142.273C157.311 143.462 157.478 144.31 157.733 145.331L158.072 146.605C158.326 148.049 158.581 148.813 158.922 150.257L159.009 150.344L143.126 173.362L124.185 146.097L124.439 145.923C126.987 144.056 128.431 142.951 130.724 140.827L131.233 140.319C132.168 139.468 132.847 138.959 133.781 137.855C135.056 136.496 135.819 135.647 136.839 134.118C135.48 131.996 134.291 130.89 132.083 129.531C130.639 128.681 129.619 128.172 128.176 127.748C128.769 128.683 129.195 129.957 129.026 131.061C128.852 131.996 128.432 132.759 127.582 133.098L125.374 133.272L124.78 133.098C123.336 132.924 122.402 132.59 121.298 131.909C121.637 133.268 121.722 134.372 121.552 135.816L121.465 136.155L121.211 137.26L120.191 138.195C119.001 138.534 117.218 137.26 115.689 136.158L115.602 136.071C115.941 137.09 116.111 137.938 116.111 139.128V139.467L115.937 140.657V140.743L114.832 142.187L113.304 141.848L111.945 141.169L111.436 140.83L109.399 139.726C109.486 141 109.573 141.85 109.486 143.208L109.231 145.671L109.144 145.845H108.97L108.292 146.019C106.848 146.193 105.914 145.765 104.809 145.084L104.385 144.91L103.281 144.232L103.107 146.525C103.107 147.884 103.281 148.649 103.785 150.092C104.551 152.556 105.483 153.83 107.353 155.528C110.665 154.169 112.619 153.235 115.677 151.366C117.97 149.923 119.244 149.073 121.367 147.374L121.541 147.2L121.715 147.455L141.166 176.079L141.079 176.253L109.735 221.434Z" fill="#171405"/>
<path d="M62.7654 83.7502C64.0396 83.6632 64.8876 83.8372 66.1629 84.0894C70.5795 85.2788 72.618 88.0814 74.7415 92.1584C76.0157 94.6217 76.2701 96.2353 76.6093 99.0384C77.0333 103.03 76.5223 105.494 75.4199 109.401C74.5697 112.119 73.7217 113.563 72.6169 116.196C71.5123 118.744 70.6643 120.103 69.6441 122.651C69.1353 124.01 68.7091 124.773 68.4547 126.133C68.2003 127.238 68.1155 127.916 68.1155 129.106L69.9833 128.171C72.2766 126.982 73.3808 125.878 75.1644 124.009C76.8626 122.226 77.7974 121.121 78.9866 118.913C79.8368 117.215 80.176 116.28 80.6848 114.411C81.2784 112.289 81.5349 111.014 81.6198 108.721L83.0636 109.316C84.9314 110.421 85.4417 111.864 85.9514 113.988C86.7167 117.046 86.8015 118.999 85.9514 122.057C85.5274 123.755 85.0164 124.69 84.0835 126.304C83.0638 128.087 82.3006 129.106 80.9409 130.72C79.9211 131.995 79.2427 132.758 78.0531 133.948C76.4397 135.646 75.4201 136.411 73.8911 138.025C72.6169 139.384 71.8537 140.062 70.6637 141.422C69.6439 142.612 69.135 143.29 68.2853 144.565L68.4592 151.36C69.6486 150.851 70.4118 150.51 71.517 149.747C74.6597 147.879 76.0187 146.179 78.227 143.292C80.945 139.809 81.1998 137.091 83.3234 133.269L84.6823 130.891C85.5325 131.826 85.9565 132.504 86.5502 133.694C86.9742 134.629 87.059 135.222 87.2286 136.242C87.907 139.384 87.6526 141.423 86.5502 144.396C85.3608 147.453 83.9169 148.812 81.7086 151.106C80.3496 152.465 79.4153 153.06 78.0563 154.333C75.763 156.542 74.5738 157.816 72.3655 160.109C71.6023 161.044 71.0065 161.468 70.3281 162.402C69.2235 163.761 68.7147 164.611 68.0348 166.055L67.9478 174.378C69.222 173.443 69.9852 172.935 71.1753 171.83L73.5536 169.706C74.9126 168.262 75.5062 167.243 76.6112 165.544C77.2896 164.355 77.631 163.676 78.1398 162.486C79.414 159.599 79.838 157.815 79.9228 154.672C81.7058 155.351 82.6408 156.116 83.5752 157.645L84.5949 160.023C84.9342 160.958 85.019 161.552 85.1907 162.486C85.4451 164.1 85.4451 165.035 85.1038 166.648C84.6798 168.942 83.9992 170.216 82.6406 172.169C81.7056 173.528 80.9424 174.124 79.8376 175.482C78.3938 177.18 77.5443 178.115 76.1005 179.729C74.9959 181.003 74.4023 181.681 73.2975 182.871C72.2777 183.891 71.6841 184.4 70.7493 185.42C69.5599 186.779 68.6271 187.457 68.1163 189.157C67.5227 190.77 67.5227 191.875 67.9424 193.489C68.9622 192.469 69.5558 191.96 70.6604 191.025C71.5954 190.09 72.189 189.582 73.2084 188.732C74.2282 187.882 74.737 187.458 75.7565 186.608C77.5395 185.079 78.5595 184.485 80.2582 182.871C81.1084 181.936 81.702 181.427 82.4667 180.492C83.2299 179.557 83.6561 178.964 84.2497 177.944C85.1847 176.416 85.4391 175.396 86.2871 173.697L87.0503 172.169C88.1549 173.867 88.6637 174.972 89.0051 177.01C89.4291 178.963 89.4291 180.068 89.0921 182.021C89.0051 183.72 88.6681 184.654 87.9875 186.183C87.2243 187.712 86.4589 188.477 85.3545 189.751C82.9761 192.299 80.9377 192.978 78.1349 194.932C76.5215 196.036 75.4169 196.46 73.8878 197.735C72.8681 198.67 72.2744 199.263 71.3399 200.453L69.8113 202.577C69.1329 203.682 68.7067 204.36 68.1979 205.55C67.6891 206.909 67.4325 207.758 67.2629 209.202C67.1759 210.731 67.3499 211.58 67.6021 213.109C67.8565 214.214 68.0261 214.807 68.4523 215.827L69.3873 217.356C69.7265 216.082 69.9831 215.401 70.6615 214.213C71.6813 212.515 72.6141 211.835 73.8889 210.306C76.2673 207.503 77.5413 205.889 80.2593 203.341L82.6376 201.048C85.9501 197.65 87.4789 195.272 89.0079 190.77C90.1125 192.469 90.5365 193.573 91.0453 195.527C91.8955 198.924 91.8955 201.218 90.7909 204.53C89.6863 207.843 88.3278 209.541 85.6946 211.835L83.6572 213.279C81.1092 215.062 79.3253 215.487 76.8622 217.355C75.6728 218.29 74.9944 218.799 73.9744 219.819L72.1066 221.856V223.215C72.9568 226.697 74.6548 227.972 77.0331 230.35C78.7313 232.048 80.0057 232.813 81.9594 234.257C83.4032 235.277 84.3375 235.87 85.8666 236.805C87.48 237.825 88.4995 238.334 90.1982 239.183C93.0012 240.542 94.53 241.308 97.5028 242.241C99.3706 242.75 100.391 243.004 102.259 243.346C110.498 244.959 115.255 244.281 123.664 244.196C130.883 244.196 134.875 244.62 142.01 244.961C149.06 244.622 153.137 244.196 160.271 244.196C168.68 244.283 173.437 244.961 181.676 243.346C183.544 243.006 184.648 242.752 186.432 242.241C189.405 241.306 190.934 240.543 193.737 239.183C195.435 238.333 196.455 237.824 198.068 236.805C199.682 235.87 200.532 235.276 202.061 234.257C204.013 232.813 205.203 232.132 206.902 230.35C209.28 227.972 210.979 226.697 211.828 223.215L211.915 221.856L209.963 219.819C208.943 218.799 208.264 218.29 207.16 217.355C204.611 215.488 202.828 215.062 200.28 213.279L198.327 211.835C195.694 209.541 194.335 207.843 193.231 204.53C192.126 201.218 192.126 198.924 192.977 195.527C193.401 193.574 193.911 192.469 194.929 190.77C196.458 195.272 197.987 197.65 201.299 201.048L203.763 203.341C206.396 205.889 207.755 207.503 210.133 210.306C211.407 211.835 212.341 212.514 213.276 214.213C213.954 215.402 214.211 216.081 214.635 217.356L215.485 215.827C215.994 214.807 216.081 214.214 216.335 213.109C216.674 211.581 216.759 210.731 216.674 209.202C216.587 207.758 216.25 206.909 215.739 205.55C215.23 204.361 214.804 203.682 214.126 202.577L212.597 200.453C211.747 199.263 211.153 198.67 210.049 197.735C208.52 196.46 207.501 196.036 205.887 194.932C202.999 192.977 200.961 192.299 198.668 189.751C197.478 188.477 196.713 187.713 196.034 186.183C195.271 184.655 195.015 183.72 194.845 182.021C194.506 180.067 194.591 178.964 194.932 177.01C195.356 174.973 195.782 173.867 196.885 172.169L197.735 173.697C198.498 175.395 198.755 176.415 199.687 177.944C200.366 178.964 200.707 179.558 201.47 180.492C202.321 181.427 202.829 181.936 203.764 182.871C205.377 184.484 206.482 185.079 208.181 186.608C209.2 187.458 209.794 187.882 210.729 188.732C211.748 189.667 212.342 190.091 213.362 191.025C214.381 191.96 215.06 192.554 216.08 193.489C216.419 191.875 216.419 190.771 215.906 189.157C215.312 187.459 214.377 186.779 213.188 185.42C212.338 184.4 211.659 183.891 210.725 182.871C209.62 181.682 209.026 181.004 207.922 179.729C206.393 178.115 205.629 177.181 204.1 175.482C202.995 174.123 202.232 173.527 201.297 172.169C199.938 170.217 199.259 168.942 198.833 166.648C198.579 165.035 198.579 164.1 198.746 162.486C198.92 161.551 199.001 160.958 199.342 160.023L200.362 157.645C201.382 156.116 202.315 155.352 204.014 154.672C204.188 157.815 204.523 159.599 205.797 162.486C206.306 163.676 206.732 164.354 207.411 165.544C208.431 167.242 209.024 168.262 210.468 169.706L212.762 171.83C214.036 172.935 214.717 173.444 216.074 174.378L215.901 166.055C215.222 164.611 214.711 163.761 213.692 162.402C212.929 161.467 212.418 161.043 211.57 160.109C209.446 157.816 208.173 156.542 205.964 154.333C204.52 153.059 203.586 152.466 202.312 151.106C200.019 148.812 198.575 147.453 197.47 144.396C196.281 141.423 196.111 139.384 196.705 136.242C196.879 135.222 197.044 134.628 197.47 133.694C197.979 132.504 198.405 131.911 199.338 130.891L200.612 133.269C202.737 137.091 203.076 139.809 205.708 143.292C207.917 146.179 209.361 147.878 212.419 149.832C213.608 150.51 214.286 150.852 215.561 151.36L215.648 144.565C214.798 143.291 214.289 142.613 213.27 141.423C212.081 140.064 211.402 139.385 210.127 138.025C208.514 136.412 207.494 135.647 205.965 133.948C204.776 132.759 204.098 132.08 202.992 130.721C201.633 129.107 200.868 128.088 199.85 126.304C198.915 124.691 198.491 123.756 197.982 122.057C197.132 118.999 197.217 117.046 197.982 113.988C198.491 111.864 199.002 110.421 200.87 109.316L202.314 108.721C202.488 111.014 202.653 112.288 203.249 114.412C203.757 116.279 204.099 117.299 205.032 118.913C206.136 121.122 207.069 122.226 208.769 124.01C210.552 125.877 211.657 126.982 213.95 128.171L215.903 129.106C215.816 127.917 215.816 127.238 215.564 126.133C215.224 124.774 214.885 124.011 214.374 122.651C213.354 120.103 212.506 118.744 211.401 116.196C210.212 113.563 209.364 112.119 208.599 109.401C207.494 105.494 206.9 103.031 207.409 99.0386C207.664 96.2356 208.003 94.622 209.277 92.1586C211.314 88.0816 213.354 85.2788 217.771 84.0896C219.045 83.8352 219.895 83.6657 221.253 83.7505C221.079 84.855 220.914 85.4486 220.659 86.5532C220.486 87.573 220.32 88.1666 220.151 89.2712C219.727 91.3956 219.642 92.5839 219.472 94.7072C219.218 97.2554 218.963 98.7842 219.298 101.417C219.553 102.776 219.722 103.455 220.148 104.815C220.488 106.259 220.912 107.108 221.338 108.552C221.677 110.42 221.847 111.44 221.931 113.308C222.105 115.176 222.019 116.196 221.758 118.065C221.584 119.763 221.418 120.698 221.079 122.397L220.655 124.18C220.401 125.539 220.401 126.217 220.568 127.577L221.842 126.557L223.201 125.368L224.984 123.5C226.513 121.548 227.447 120.358 228.297 117.979C228.721 116.96 228.806 116.366 229.06 115.261C229.656 112.628 229.399 111.014 229.91 108.296L230.084 107.277C231.274 107.701 231.952 108.04 232.802 108.89C235.18 111.183 235.69 113.137 236.115 116.28C236.289 117.469 236.369 118.063 236.289 119.337C236.115 121.716 235.61 123.16 234.336 125.283C233.658 126.472 233.232 127.066 232.299 128.086L229.496 131.229L226.778 134.116L223.55 138.023L221.513 141.251L220.578 142.78L220.491 148.64L222.189 147.705C224.737 146.177 226.011 144.987 227.795 142.694C228.56 141.674 228.899 141.081 229.493 139.976C230.852 137.343 231.53 135.305 231.786 132.841L232.126 130.974C233.4 131.398 234.163 131.824 235.183 132.672C238.496 135.644 238.071 139.976 236.373 144.138C235.779 145.752 235.098 146.516 234.079 147.96C232.89 149.659 232.127 150.509 230.682 152.037L228.473 154.246C227.538 155.096 226.945 155.605 225.925 156.454L224.312 157.898C222.868 159.257 222.104 160.022 220.83 161.55L220.656 173.017C222.184 172.082 223.034 171.403 224.308 170.129L226.006 168.346C227.704 166.309 228.469 164.949 229.404 162.485C229.912 161.126 229.997 160.277 230.339 158.833C230.847 156.88 231.017 155.775 231.274 153.822L233.311 155.096C235.094 157.304 235.348 158.323 236.029 160.617C236.283 161.637 236.453 162.23 236.538 163.25C236.712 164.863 236.792 165.798 236.538 167.327C236.029 170.299 235.094 172.083 232.971 174.122L230.083 177.01L227.28 179.728L223.203 184.229L221.081 186.862L220.907 191.959L221.842 191.363C222.861 190.684 223.54 190.343 224.56 189.58C228.552 186.862 231.015 185.333 233.648 181.256C235.177 178.793 235.177 176.924 236.621 174.376L237.725 172.423C238.83 173.867 239.424 174.802 239.934 176.5C241.208 179.983 241.377 182.616 239.76 185.844C238.825 187.796 237.892 188.901 236.023 190.175L229.737 194.762C227.785 195.951 226.764 196.717 224.981 198.244L222.687 200.197C221.922 201.132 221.583 201.81 221.159 202.915L220.65 211.154L222.009 210.56L223.622 209.456C225.236 208.351 226.085 207.842 227.614 206.738C228.889 205.803 229.567 205.379 230.757 204.444C233.05 202.49 234.664 201.472 236.108 198.923C236.786 197.649 237.043 196.799 237.467 195.441L238.826 197.478C239.504 198.668 239.761 199.433 239.931 200.706C240.526 203.509 240.105 205.293 238.911 207.926C238.145 209.624 237.467 210.389 236.278 211.833C233.985 214.466 232.201 215.655 229.058 217.184C227.614 217.949 226.68 218.119 225.151 218.712C223.962 219.136 223.283 219.391 222.178 219.817L220.395 220.752L218.358 222.62C216.999 224.913 216.149 226.187 214.451 228.311C212.583 230.774 211.393 232.048 209.185 234.256C204.768 238.333 201.88 240.287 196.529 243.09C193.811 244.533 192.197 245.298 189.394 246.317C186.931 247.168 185.572 247.507 183.109 248.016C180.561 248.611 179.032 248.866 176.399 248.951C167.565 249.459 162.894 249.886 154.4 248.951L156.183 250.394C157.372 251.414 158.136 251.923 159.411 252.942C161.619 254.386 162.808 255.321 164.932 257.104C165.867 257.954 166.46 258.294 167.31 259.229C168.075 260.248 168.669 260.842 169.008 262.031C169.432 263.39 169.432 264.325 169.095 265.599C168.417 268.062 166.971 269.846 164.508 270.101C162.556 270.44 161.026 269.846 159.837 268.318C158.224 266.45 157.884 265.26 156.524 263.476C154.996 261.352 154.061 260.164 152.277 258.295C151.342 257.275 150.834 256.682 149.814 255.747C148.116 254.303 147.181 253.538 145.313 252.434L143.53 251.584L142.171 251.41H141.747L140.388 251.584L138.689 252.434C136.737 253.539 135.802 254.302 134.188 255.747C133.168 256.682 132.574 257.275 131.64 258.295C129.857 260.163 128.922 261.353 127.393 263.476C126.034 265.259 125.695 266.449 124.165 268.318C122.891 269.846 121.362 270.44 119.409 270.101C116.946 269.846 115.502 268.063 114.822 265.599C114.483 264.325 114.568 263.39 114.909 262.031C115.333 260.842 115.844 260.248 116.692 259.229C117.458 258.294 118.136 257.954 119.071 257.104C121.108 255.321 122.298 254.386 124.507 252.942C125.781 251.923 126.544 251.414 127.819 250.394L129.602 248.951C121.023 249.886 116.352 249.459 107.604 248.951C104.886 248.864 103.442 248.611 100.809 248.016C98.3452 247.507 96.9862 247.165 94.608 246.317C91.7202 245.298 90.1064 244.534 87.4732 243.09C82.1222 240.287 79.1494 238.333 74.8176 234.171C72.5243 232.049 71.3353 230.774 69.4666 228.311C67.8532 226.188 66.9185 224.913 65.5595 222.62L63.5221 220.752L61.8239 219.817C60.6345 219.393 59.9561 219.139 58.766 218.712C57.3222 218.117 56.3879 217.947 54.9439 217.184C51.8012 215.655 50.0176 214.466 47.6392 211.833C46.4498 210.389 45.7714 209.624 45.0062 207.926C43.9017 205.293 43.4777 203.509 43.9864 200.706C44.2409 199.432 44.4953 198.669 45.091 197.478L46.45 195.441C46.874 196.8 47.2132 197.649 47.8938 198.923C49.3376 201.472 50.8667 202.491 53.16 204.444C54.3494 205.379 55.0278 205.803 56.3026 206.738C57.8313 207.842 58.681 208.351 60.2946 209.456L61.908 210.56L63.267 211.154L62.7582 202.915C62.3342 201.81 61.9928 201.132 61.2296 200.197L59.0213 198.244C57.2383 196.716 56.1335 195.951 54.1798 194.762L47.8945 190.175C46.0267 188.901 45.0917 187.797 44.1574 185.844C42.544 182.616 42.7984 179.983 43.9834 176.5C44.577 174.802 45.088 173.867 46.192 172.423L47.3813 174.376C48.7403 176.924 48.7403 178.793 50.3542 181.256C52.9023 185.333 55.4505 186.862 59.4425 189.58C60.4623 190.345 61.0559 190.684 62.1605 191.363L63.0107 191.959L62.8367 186.862L60.7145 184.229L56.6375 179.728L53.8345 177.01L51.0315 174.122C48.8232 172.084 47.8889 170.299 47.3792 167.327C47.1248 165.798 47.2053 164.864 47.3792 163.25C47.5531 162.23 47.6336 161.637 47.888 160.617C48.5664 158.323 48.9078 157.304 50.606 155.096L52.7304 153.822C52.9043 155.777 53.1544 156.88 53.5806 158.833C53.9198 160.277 54.0046 161.126 54.6003 162.485C55.5353 164.949 56.2986 166.308 57.9979 168.346L59.6112 170.129C60.8854 171.403 61.7356 172.084 63.2636 173.017L63.0897 161.55C61.8155 160.022 61.0523 159.257 59.6922 157.898L57.994 156.454C57.059 155.604 56.4654 155.095 55.5306 154.246L53.2375 152.037C51.7937 150.509 51.029 149.659 49.84 147.96C48.905 146.517 48.1418 145.752 47.5467 144.138C45.9333 139.976 45.4223 135.644 48.8209 132.672C49.8407 131.822 50.5191 131.398 51.8787 130.974L52.1331 132.841C52.3875 135.305 53.0681 137.343 54.4264 139.891C55.0222 141.081 55.3614 141.674 56.1246 142.694C57.9076 144.987 59.2673 146.177 61.7304 147.705L63.4286 148.64L63.3417 142.78L62.4915 141.251L60.3671 138.023L57.2245 134.116L54.4215 131.229L51.6187 128.086C50.7685 127.066 50.2597 126.472 49.5813 125.283C48.3919 123.161 47.7983 121.716 47.6265 119.337C47.5395 118.063 47.6265 117.469 47.8004 116.28C48.2244 113.137 48.8202 111.183 51.1129 108.89C52.0479 108.04 52.7263 107.701 53.8309 107.277L54.0048 108.296C54.5136 111.014 54.344 112.628 54.855 115.261C55.1094 116.366 55.279 116.96 55.6204 117.979C56.4705 120.358 57.4034 121.547 59.0178 123.5L60.716 125.368L62.075 126.557L63.3492 127.492C63.5232 126.218 63.5232 125.54 63.3492 124.18L62.8404 122.397C62.5012 120.699 62.3316 119.764 62.162 118.065C61.9076 116.197 61.9076 115.177 61.9881 113.309C62.0751 111.441 62.2425 110.421 62.6665 108.552C63.0057 107.108 63.4319 106.259 63.8559 104.815C64.1951 103.456 64.4495 102.778 64.6191 101.418C65.0431 98.7844 64.7061 97.2556 64.5321 94.7074C64.3582 92.5852 64.1929 91.3949 63.8537 89.2714C63.6798 88.1668 63.5145 87.5732 63.2579 86.5534C63.0035 85.4488 62.9187 84.8553 62.7491 83.7506" fill="#008F42"/>
</g>
<defs>
<clipPath id="clip0_2003_6521">
<rect width="512" height="454.67" fill="white"/>
</clipPath>
</defs>
</svg>
