<svg width="352" height="512" viewBox="0 0 352 512" fill="none" xmlns="http://www.w3.org/2000/svg">
<g clip-path="url(#clip0_2008_77)">
<path d="M74.0711 81.7304C76.9404 66.3808 87.6854 54.9738 101.413 51.6958C102.168 51.5113 102.834 51.4932 103.653 51.3355C105.506 50.9709 107.864 50.5407 110.129 50.8002C110.199 50.8045 110.3 50.8002 110.288 50.8002C112.083 51.0217 113.895 51.0829 115.803 51.426C117.628 51.7492 119.485 52.412 121.155 53.0352C121.562 53.1887 122.451 53.8627 122.916 53.7507L122.996 53.5696C125.19 51.3993 127.001 48.76 129.313 46.6896C134.585 41.9523 142.436 38.5407 151.772 38.5545C155.593 38.5588 158.822 39.4302 162.165 39.9836C160.399 32.5286 164.593 25.7183 168.481 23.0902C169.978 22.0757 171.702 21.4852 173.439 20.6776V14.1535H167.042V7.27081H173.439C173.439 5.00906 173.439 2.49561 173.515 0.386414H176.873H180.232C180.307 2.49561 180.307 5.00992 180.307 7.27081H186.704V14.1535H180.307V20.6776C182.044 21.4861 183.768 22.0765 185.266 23.0902C189.154 25.7183 193.348 32.5277 191.581 39.9836C194.925 39.4302 198.154 38.5588 201.975 38.5545C211.311 38.5415 219.162 41.9531 224.433 46.6896C226.745 48.76 228.556 51.3993 230.75 53.5696L230.83 53.7507C231.296 53.8627 232.184 53.1887 232.591 53.0352C234.26 52.4112 236.119 51.7483 237.944 51.426C239.852 51.0838 241.664 51.0226 243.459 50.8002C243.446 50.8002 243.547 50.8045 243.618 50.8002C245.883 50.5407 248.24 50.9709 250.094 51.3355C250.912 51.4932 251.579 51.5113 252.333 51.6958C266.061 54.9729 276.806 66.3808 279.675 81.7304C280.225 84.6749 280.472 88.3606 280.233 91.917C279.163 107.923 274.18 118.695 268.56 129.55C266.077 134.356 263.221 140.265 258.969 143.047C259.602 144.045 260.403 145.011 260.889 146.177C261.997 148.842 261.947 152.519 261.049 155.294C257.728 165.527 242.402 168.134 233.066 162.352C228.918 159.782 226.663 156.765 226.033 150.464C218.29 158.706 201.464 158.348 195.26 148.676C194.481 147.452 194.01 146.014 193.498 144.475C192.412 146.087 191.406 147.803 189.98 149.035C186.652 151.913 181.773 153.363 176.874 153.401C171.975 153.363 167.096 151.912 163.768 149.035C162.341 147.803 161.336 146.087 160.249 144.475C159.737 146.014 159.266 147.452 158.487 148.676C152.284 158.348 135.457 158.706 127.714 150.464C127.086 156.765 124.829 159.782 120.681 162.352C111.344 168.134 96.0197 165.527 92.6979 155.294C91.8005 152.519 91.7498 148.842 92.8579 146.177C93.344 145.01 94.145 144.045 94.7782 143.047C90.5263 140.265 87.6691 134.356 85.1869 129.55C79.5671 118.696 74.5847 107.923 73.5145 91.917C73.2744 88.3606 73.5214 84.6749 74.0711 81.7304Z" fill="#F5C03E"/>
<path d="M108.849 73.0566C103.137 73.4936 99.2779 76.257 96.8577 80.3884C92.5413 87.7451 95.642 101.234 98.0536 108.364C99.345 112.177 101.295 115.709 103.094 119.09C104.277 121.321 105.792 123.439 107.166 125.524C109.062 128.397 111.453 131.114 110.925 136.433C113.243 136.815 114.963 137.034 116.762 137.593C119.937 138.572 122.093 140.659 124.437 142.513C124.437 138.708 125.675 136.413 127.231 134.374C128.07 133.277 128.941 132.332 130.028 131.513C130.514 131.149 130.922 130.849 131.467 130.53C130.901 130.017 130.297 129.343 129.794 128.743C127.667 126.24 126.455 122.368 125.071 119.09C120.945 109.316 117.312 99.191 115.803 86.3763C115.342 82.47 115.102 78.024 115.643 73.9505C113.748 73.3307 110.866 72.9032 108.849 73.0566Z" fill="#FF1119"/>
<path d="M155.367 60.4549C159.721 60.8169 163.348 62.1848 166.561 63.8492V114.979C166.561 116.961 166.469 119.051 166.721 120.792C167.023 122.848 167.819 124.637 168.722 126.066C163.68 128.714 161.7 130.523 159.284 136.165C157.217 131.705 153.078 129.169 148.259 127.761C148.527 126.277 149.022 124.887 148.896 123.026C148.653 119.353 147.05 116.989 145.939 114.354C144.836 111.737 143.716 109.129 142.658 106.491C139.534 98.6953 133.847 80.8271 137.781 70.3776C138.716 67.897 140.269 66.1386 142.021 64.569C145.075 61.8254 149.491 59.9593 155.367 60.4549Z" fill="#FF1119"/>
<path d="M244.896 73.0566C250.609 73.4936 254.468 76.257 256.888 80.3884C261.204 87.7451 258.104 101.234 255.692 108.364C254.401 112.177 252.45 115.709 250.651 119.09C249.468 121.321 247.954 123.439 246.579 125.524C244.684 128.397 242.293 131.114 242.821 136.433C240.502 136.815 238.782 137.034 236.983 137.593C233.809 138.572 231.653 140.659 229.308 142.513C229.308 138.708 228.071 136.413 226.515 134.374C225.676 133.277 224.804 132.332 223.718 131.513C223.231 131.149 222.824 130.849 222.278 130.53C222.844 130.017 223.448 129.343 223.952 128.743C226.078 126.24 227.291 122.368 228.674 119.09C232.8 109.316 236.434 99.191 237.943 86.3763C238.404 82.47 238.643 78.024 238.103 73.9505C239.997 73.3307 242.879 72.9032 244.896 73.0566Z" fill="#FF1119"/>
<path d="M198.378 60.4549C194.025 60.8169 190.398 62.1848 187.184 63.8492V114.979C187.184 116.961 187.276 119.051 187.024 120.792C186.722 122.848 185.926 124.637 185.024 126.066C190.065 128.714 192.045 130.523 194.461 136.165C196.529 131.705 200.668 129.169 205.487 127.761C205.218 126.277 204.723 124.887 204.85 123.026C205.093 119.353 206.695 116.989 207.807 114.354C208.909 111.737 210.029 109.129 211.087 106.491C214.211 98.6953 219.898 80.8271 215.965 70.3776C215.03 67.897 213.477 66.1386 211.724 64.569C208.671 61.8254 204.255 59.9593 198.378 60.4549Z" fill="#FF1119"/>
<path d="M2.03064 335.15C2.03064 238.41 80.3052 159.989 176.875 159.989C273.435 159.989 351.715 238.409 351.715 335.15C351.715 431.895 273.436 510.319 176.875 510.319C80.3061 510.319 2.03064 431.895 2.03064 335.15Z" fill="#FF1119"/>
<path d="M25.4307 333.57C25.4307 336.922 28.6725 339.641 32.6783 339.641C36.679 339.641 39.9208 336.922 39.9208 333.57C39.9208 330.22 36.679 327.499 32.6783 327.499C28.6717 327.499 25.4307 330.22 25.4307 333.57Z" fill="black"/>
<path d="M40.0258 388.532C47.9394 386.181 53.1282 377.812 51.1399 369.452L48.5812 358.693L18.0858 366.658L20.6488 377.417C22.7119 386.098 31.8051 390.96 40.0258 388.532ZM27.456 375.636L26.7221 372.548L43.5937 368.139L44.3285 371.23C45.3557 375.544 42.2524 379.522 38.176 380.756C33.8398 382.055 28.5469 380.216 27.456 375.636Z" fill="black"/>
<path d="M57.9385 403.458L63.1437 413.303L69.2789 409.74L60.4215 392.982L32.933 408.942L42.0468 426.181L48.188 422.613L42.7308 412.295L47.9523 409.258L52.3935 417.662L58.5304 414.093L54.0927 405.694L57.9385 403.458Z" fill="black"/>
<path d="M94.6956 435.181L88.0098 429.705L68.6663 455.652L75.9682 461.631C81.0847 465.825 87.7542 466.963 91.428 462.032C93.6847 459.006 93.3569 455.254 91.3738 452.029C94.4392 452.73 97.2664 451.978 99.2005 449.383C102.581 444.842 99.4482 439.065 94.6956 435.181ZM85.926 456.482C84.5718 458.3 82.3985 457.563 79.8828 455.502L78.9269 454.724L82.6041 449.791L83.5557 450.569C86.2366 452.767 87.2509 454.709 85.926 456.482ZM92.2169 445.824C91.2481 447.117 89.8217 447.07 87.5107 445.175L86.6048 444.433L89.6332 440.365L90.5014 441.077C92.8131 442.97 93.1822 444.523 92.2169 445.824Z" fill="black"/>
<path d="M100.215 476.25L106.427 481.07L110.771 475.827L119.865 480.07L119.058 486.965L126.63 488.576L128.865 454.296L123.032 451.568L100.215 476.25ZM120.758 472.44L115.586 470.027L121.966 462.304L120.758 472.44Z" fill="black"/>
<path d="M234.775 478.593L224.004 482.046L222.255 476.061L231.021 473.253L228.97 466.22L220.204 469.027L218.921 464.622L229.189 461.333L227.137 454.3L209.652 459.898L218.845 491.388L236.829 485.628L234.775 478.593Z" fill="black"/>
<path d="M266.704 461.401L257.083 466.989L245.248 444.622L238.646 448.452L253.887 477.25L270.106 467.836L266.704 461.401Z" fill="black"/>
<path d="M267.33 426.666C261.26 432.806 263.097 443.081 268.953 449.44C274.815 455.794 284.555 458.067 290.62 451.929C296.689 445.79 294.856 435.514 288.996 429.159C283.137 422.802 273.395 420.53 267.33 426.666ZM285.822 446.717C282.575 449.998 278.092 447.821 274.456 443.875C270.819 439.924 268.894 435.154 272.132 431.879C275.374 428.599 279.857 430.776 283.498 434.722C287.137 438.672 289.059 443.438 285.822 446.717Z" fill="black"/>
<path d="M309.585 400.637L288.774 401.478L285.121 408.393L312.612 424.355L316.27 417.444L300.69 408.397L321.501 407.556L325.154 400.645L297.665 384.679L294.004 391.591L309.585 400.637Z" fill="black"/>
<path d="M330.01 363.669L336.611 363.063L336.54 354.968L304.066 359.799L302.74 366.353L330.53 384.599L333.739 377.232L327.942 373.866L330.01 363.669ZM321.521 370.14L312.986 365.209L322.699 364.341L321.521 370.14Z" fill="black"/>
<path d="M315.591 337.09C315.591 340.436 318.836 343.157 322.834 343.157C326.839 343.157 330.086 340.436 330.086 337.09C330.086 333.737 326.839 331.02 322.834 331.02C318.837 331.02 315.591 333.737 315.591 337.09Z" fill="black"/>
<path d="M300.118 298.455L304.602 317.314L311.413 315.532L308.754 304.345L332.439 298.163L330.609 290.491L300.118 298.455Z" fill="black"/>
<path d="M290.581 276.867C294.796 284.522 304.757 285.153 312.059 280.734C319.361 276.32 323.824 266.965 319.609 259.31C315.394 251.655 305.432 251.027 298.131 255.445C290.828 259.865 286.366 269.215 290.581 276.867ZM301.956 262.388C306.49 259.644 311.368 258.842 313.624 262.933C315.872 267.022 312.773 271.049 308.239 273.796C303.701 276.541 298.819 277.336 296.57 273.246C294.319 269.161 297.418 265.129 301.956 262.388Z" fill="black"/>
<path d="M276.447 238.348L267.757 246.842L272.971 252.705L281.665 244.21L302.065 239.211L298.793 231.826L284.19 236.262L285.171 233.465L285.984 233.275L289.998 221.616L289.261 221.198L289.257 221.207L282.633 217.374L276.447 238.348Z" fill="black"/>
<path d="M250.654 192.431L233.998 220.358L240.395 224.544L249.832 208.719L249.546 230.538L255.942 234.728L272.597 206.803L266.197 202.613L256.761 218.435L256.801 215.354L257.355 214.372L257.553 196.958L257.038 196.597L257.037 196.61L250.654 192.431Z" fill="black"/>
<path d="M219.991 209.108L220.338 216.042L228.063 216.252L224.577 182.084L218.383 180.46L200.01 208.918L206.921 212.53L210.336 206.582L219.991 209.108ZM219.114 191.229L219.6 201.427L214.114 199.99L219.114 191.229Z" fill="black"/>
<path d="M180.952 199.315H182.159C188.865 199.315 195.308 194.54 195.308 187.517C195.308 180.487 188.865 175.713 182.159 175.713H173.41V208.644H180.952V199.315ZM180.952 183.072H182.159C184.83 183.072 187.658 184.717 187.658 187.517C187.658 190.311 184.831 191.958 182.159 191.958H180.952V183.072Z" fill="black"/>
<path d="M150.305 198.618C151.853 199.117 153.308 199.688 153.597 201.367C153.87 202.985 152.914 204.602 151.408 205.106C149.248 205.812 146.791 205.295 145.831 203.208L142.215 209.678C145.28 212.641 149.434 213.062 152.872 212.301C158.35 211.077 162.037 205.488 160.972 199.725C160.045 194.877 156.329 192.676 151.719 191.345L149.555 190.705C147.227 190.044 145.28 189.692 145.411 187.7C145.491 186.507 146.224 185.388 147.357 185.135C149.086 184.694 150.881 184.578 152.059 185.887L155.46 179.687C152.538 177.419 149.534 177.134 145.898 177.945C141.335 178.958 137.057 184.007 138.038 189.343C138.999 194.625 143.491 196.434 148.473 198.018L150.305 198.618Z" fill="black"/>
<path d="M130.635 208.692L120.352 213.492L117.919 207.778L126.295 203.87L123.438 197.152L115.063 201.061L113.272 196.849L123.082 192.273L120.229 185.554L103.529 193.343L116.312 223.424L133.492 215.411L130.635 208.692Z" fill="black"/>
<path d="M86.3871 245.091C92.3176 238.657 91.4374 228.001 85.1129 221.984C79.0095 216.197 69.4897 216.022 63.7769 222.218L56.4294 230.192L79.0396 253.064L86.3871 245.091ZM68.8263 227.327C71.7705 224.132 76.6358 224.78 79.7985 227.748C83.1496 230.908 84.4668 236.588 81.3377 239.984L79.2281 242.274L66.7124 229.615L68.8263 227.327Z" fill="black"/>
<path d="M45.9941 274.485C53.2788 278.709 63.2495 278.099 67.2828 270.466C69.5189 266.246 69.9964 262.506 68.4908 257.992L68.4847 257.993L68.3273 257.461L61.4917 259.091L61.6208 259.459L61.6131 259.461C62.8718 261.944 62.6963 264.541 61.2362 266.958C58.804 270.875 53.5988 269.736 49.7023 267.475C45.8066 265.216 42.2584 261.274 44.0076 256.959C45.0727 254.375 46.8218 252.881 49.4175 252.382L47.4129 245.764C42.9588 246.816 40.1901 249.225 37.9558 253.443C34.1246 260.694 38.7086 270.254 45.9941 274.485Z" fill="black"/>
<path d="M52.2851 303.27L42.1776 300.831L42.4374 299.651L55.5691 293.253L53.8492 285.684L53.8225 285.698L53.5558 284.699L41.8128 290.916C40.5919 287.595 38.0306 285.237 34.9729 284.497C28.8403 283.016 23.3417 288.224 21.929 294.64L19.9614 303.566L50.5919 310.973L52.2851 303.27ZM35.6053 297.945L35.3403 299.173L28.4961 297.519L28.768 296.291C29.557 292.708 31.054 291.771 33.247 292.303C35.4418 292.835 36.1129 295.648 35.6053 297.945Z" fill="black"/>
<path d="M159.795 482.319C162.881 480.816 164.957 477.973 165.45 474.712C166.427 468.203 161.096 462.819 154.885 461.788L146.241 460.354L141.33 492.877L148.782 494.115L150.401 483.382L151.538 483.57L158.55 496.85L165.638 494.523L165.619 494.49L166.489 494.262L159.795 482.319ZM157.897 473.455C157.544 475.787 154.915 476.687 152.692 476.318L151.5 476.12L152.594 468.852L153.786 469.049C157.255 469.628 158.249 471.126 157.897 473.455Z" fill="black"/>
<path d="M197.816 485.377L197.582 485.85C196.27 488.263 194.116 489.503 191.416 489.538C186.95 489.534 185.029 484.337 184.718 479.684C184.409 475.031 185.633 469.766 190.037 468.951C192.684 468.483 194.835 469.203 196.647 471.217L200.859 465.847C197.587 462.514 194.157 461.389 189.56 461.725C181.666 462.3 176.507 471.535 177.09 480.242C177.669 488.945 183.592 497.367 191.9 496.761C196.498 496.426 199.751 494.812 202.54 491.032L202.536 491.029L202.805 490.6L197.816 485.377Z" fill="black"/>
<path d="M23.3839 335.299C23.3839 338.65 26.6257 341.368 30.6273 341.368C34.6322 341.368 37.8749 338.65 37.8749 335.299C37.8749 331.951 34.6322 329.234 30.6273 329.234C26.6249 329.234 23.3839 331.951 23.3839 335.299Z" fill="#F5C03E"/>
<path d="M313.657 335.299C313.657 338.65 316.9 341.368 320.905 341.368C324.905 341.368 328.148 338.65 328.148 335.299C328.148 331.951 324.905 329.234 320.905 329.234C316.9 329.234 313.657 331.951 313.657 335.299Z" fill="#F5C03E"/>
<path d="M43.8467 275.163C51.1365 279.393 61.1055 278.777 65.1397 271.149C67.3758 266.924 67.849 263.187 66.3476 258.675L59.4648 260.14C60.7235 262.626 60.5514 265.223 59.0879 267.636C56.6591 271.56 51.4497 270.418 47.554 268.158C43.6574 265.893 40.1144 261.956 41.8584 257.637C42.9235 255.054 44.6769 253.56 47.2726 253.064L45.268 246.442C40.8139 247.495 38.0453 249.902 35.8101 254.128C31.9772 261.371 36.5663 270.933 43.8467 275.163Z" fill="#F5C03E"/>
<path d="M83.6563 245.21C89.5876 238.774 88.7015 228.117 82.3778 222.102C76.2753 216.315 66.7546 216.14 61.0418 222.336L53.6943 230.315L76.3089 253.183L83.6563 245.21ZM66.0964 227.448C69.0406 224.249 73.9016 224.896 77.0677 227.866C80.4197 231.025 81.7369 236.707 78.6069 240.1L76.4973 242.392L63.9825 229.734L66.0964 227.448Z" fill="#F5C03E"/>
<path d="M255.2 232.105L271.851 204.18L265.459 199.99L256.022 215.811L256.311 193.996L249.911 189.808L233.256 217.729L239.652 221.922L249.09 206.095L248.808 227.911L255.2 232.105Z" fill="#F5C03E"/>
<path d="M218.002 207.199L218.342 214.133L226.072 214.344L222.591 180.178L216.392 178.554L198.019 207.01L204.926 210.624L208.34 204.674L218.002 207.199ZM217.122 189.32L217.607 199.517L212.122 198.082L217.122 189.32Z" fill="#F5C03E"/>
<path d="M178.96 197.407H180.167C186.874 197.407 193.316 192.633 193.316 185.604C193.316 178.579 186.874 173.806 180.167 173.806H171.418V206.735H178.96V197.407ZM178.96 181.164H180.167C182.838 181.164 185.667 182.805 185.667 185.604C185.667 188.403 182.839 190.049 180.167 190.049H178.96V181.164Z" fill="#F5C03E"/>
<path d="M148.712 196.832C150.26 197.327 151.715 197.902 152.004 199.576C152.277 201.2 151.321 202.815 149.814 203.321C147.655 204.021 145.198 203.504 144.233 201.417L140.622 207.888C143.688 210.852 147.84 211.276 151.279 210.512C156.757 209.292 160.443 203.702 159.383 197.933C158.452 193.094 154.735 190.887 150.13 189.556L147.961 188.916C145.634 188.259 143.687 187.908 143.819 185.915C143.898 184.717 144.632 183.603 145.764 183.351C147.492 182.904 149.287 182.789 150.466 184.098L153.868 177.898C150.944 175.633 147.941 175.345 144.306 176.155C139.742 177.172 135.464 182.223 136.445 187.559C137.406 192.841 141.897 194.644 146.875 196.228L148.712 196.832Z" fill="#F5C03E"/>
<path d="M117.848 212.656L115.414 206.941L123.79 203.036L120.934 196.318L112.558 200.225L110.767 196.012L120.577 191.436L117.721 184.717L101.024 192.505L113.813 222.592L130.987 214.579L128.132 207.86L117.848 212.656Z" fill="#F5C03E"/>
<path d="M298.848 229.022L284.248 233.459L289.49 218.507L282.688 214.57L276.507 235.544L267.812 244.043L273.025 249.902L281.724 241.406L302.123 236.408L298.848 229.022Z" fill="#F5C03E"/>
<path d="M290.413 274.218C294.628 281.873 304.59 282.501 311.891 278.087C319.194 273.669 323.656 264.313 319.441 256.661C315.226 249.006 305.265 248.379 297.962 252.796C290.661 257.214 286.199 266.564 290.413 274.218ZM301.787 259.74C306.322 256.993 311.199 256.198 313.456 260.284C315.708 264.373 312.605 268.401 308.071 271.144C303.537 273.892 298.651 274.687 296.402 270.598C294.147 266.511 297.25 262.478 301.787 259.74Z" fill="#F5C03E"/>
<path d="M305.91 314.866L312.722 313.088L310.063 301.9L333.743 295.72L331.918 288.047L301.431 296.012L305.91 314.866Z" fill="#F5C03E"/>
<path d="M41.2759 386.03C49.1938 383.677 54.3818 375.306 52.3943 366.946L49.8356 356.186L19.3368 364.151L21.8998 374.91C23.9621 383.592 33.0552 388.456 41.2759 386.03ZM28.7095 373.133L27.9756 370.042L44.8481 365.635L45.582 368.723C46.6102 373.038 43.5025 377.017 39.4296 378.254C35.0934 379.555 29.8005 377.709 28.7095 373.133Z" fill="#F5C03E"/>
<path d="M63.8818 410.5L70.0265 406.936L61.1605 390.178L33.6721 406.139L42.7893 423.378L48.9297 419.813L43.469 409.487L48.6914 406.459L53.1325 414.859L59.2729 411.296L54.8309 402.892L58.6767 400.658L63.8818 410.5Z" fill="#F5C03E"/>
<path d="M94.3601 432.314L87.6708 426.842L68.3239 452.787L75.6301 458.769C80.7466 462.963 87.4109 464.102 91.0855 459.169C93.3457 456.141 93.0145 452.393 91.0347 449.164C94.1002 449.868 96.923 449.112 98.8614 446.52C102.246 441.981 99.1032 436.202 94.3601 432.314ZM85.5861 453.622C84.2319 455.439 82.0543 454.7 79.5378 452.64L78.5862 451.862L82.2643 446.929L83.2124 447.709C85.8924 449.903 86.9076 451.849 85.5861 453.622ZM91.8728 442.961C90.904 444.257 89.4784 444.207 87.1666 442.313L86.2606 441.57L89.2934 437.503L90.1572 438.216C92.4733 440.108 92.8415 441.659 91.8728 442.961Z" fill="#F5C03E"/>
<path d="M98.5079 473.983L104.715 478.801L109.065 473.565L118.158 477.803L117.349 484.695L124.919 486.306L127.163 452.028L121.32 449.306L98.5079 473.983ZM119.051 470.17L113.884 467.76L120.254 460.042L119.051 470.17Z" fill="#F5C03E"/>
<path d="M163.798 472.505C164.78 465.999 159.441 460.613 153.238 459.582L144.594 458.146L139.682 490.667L147.131 491.908L148.75 481.172L149.89 481.362L156.899 494.639L163.986 492.318L157.229 480.529C160.829 479.179 163.261 476.082 163.798 472.505ZM156.244 471.252C155.892 473.583 153.266 474.477 151.039 474.108L149.851 473.91L150.946 466.648L152.133 466.846C155.603 467.422 156.597 468.92 156.244 471.252Z" fill="#F5C03E"/>
<path d="M189.424 488.104C184.958 488.104 183.036 482.906 182.721 478.254C182.416 473.6 183.636 468.34 188.044 467.521C190.694 467.047 192.843 467.773 194.655 469.783L198.869 464.415C195.598 461.079 192.163 459.954 187.562 460.289C179.672 460.868 174.518 470.103 175.097 478.81C175.68 487.511 181.599 495.936 189.902 495.33C194.503 494.995 197.754 493.379 200.552 489.601L195.631 484.35C194.323 486.812 192.15 488.071 189.424 488.104Z" fill="#F5C03E"/>
<path d="M221.556 480.853L219.81 474.868L228.58 472.062L226.525 465.029L217.759 467.836L216.471 463.43L226.738 460.141L224.688 453.107L207.207 458.706L216.399 490.195L234.381 484.437L232.33 477.404L221.556 480.853Z" fill="#F5C03E"/>
<path d="M264.893 426.074C258.828 432.21 260.661 442.489 266.52 448.843C272.376 455.197 282.123 457.469 288.187 451.331C294.252 445.198 292.419 434.916 286.564 428.561C280.7 422.209 270.956 419.935 264.893 426.074ZM283.38 446.124C280.143 449.4 275.658 447.223 272.014 443.277C268.377 439.328 266.457 434.559 269.695 431.28C272.938 428.005 277.42 430.182 281.061 434.128C284.697 438.074 286.623 442.844 283.38 446.124Z" fill="#F5C03E"/>
<path d="M254.52 466.274L242.68 443.906L236.087 447.735L251.328 476.533L267.543 467.121L264.137 460.685L254.52 466.274Z" fill="#F5C03E"/>
<path d="M328.303 365.936L334.909 365.329L334.834 357.235L302.363 362.067L301.029 368.614L328.824 386.865L332.032 379.499L326.231 376.133L328.303 365.936ZM319.81 372.405L311.28 367.477L320.989 366.609L319.81 372.405Z" fill="#F5C03E"/>
<path d="M286.27 402.316L282.617 409.225L310.109 425.186L313.766 418.275L298.185 409.229L318.995 408.388L322.65 401.478L295.161 385.516L291.499 392.424L307.081 401.473L286.27 402.316Z" fill="#F5C03E"/>
<path d="M50.0998 304.812L39.9914 302.368L40.2478 301.195L53.3846 294.793L51.6604 287.227L39.9664 293.463C38.9306 289.611 36.1499 286.854 32.7781 286.039C26.6558 284.559 21.1564 289.761 19.7437 296.178L17.7769 305.107L48.4023 312.513L50.0998 304.812ZM33.42 299.486L33.1515 300.713L26.3065 299.061L26.5836 297.829C27.3717 294.247 28.8687 293.315 31.0626 293.847C33.2556 294.377 33.9276 297.185 33.42 299.486Z" fill="#F5C03E"/>
<path d="M217.238 226.792L70.5866 380.322C73.7717 387.835 77.7302 394.939 82.3572 401.538L238.924 237.634C232.146 233.295 224.883 229.651 217.238 226.792Z" fill="white"/>
<path d="M61.9693 324.188L160.896 220.625C108.269 227.928 66.9877 270.77 61.9693 324.188Z" fill="white"/>
<path d="M271.398 268.787L114.841 432.687C121.614 437.02 128.87 440.66 136.507 443.516L283.16 289.991C279.976 282.483 276.021 275.383 271.398 268.787Z" fill="white"/>
<path d="M291.777 346.119L192.854 449.683C245.481 442.381 286.763 399.539 291.777 346.119Z" fill="white"/>
<path d="M238.924 237.634L82.3572 401.538C91.0408 413.925 102.085 424.528 114.841 432.687L271.398 268.787C262.718 256.4 251.677 245.795 238.924 237.634Z" fill="#1E6BC0"/>
<path d="M292.297 335.158C292.297 319.131 289.041 303.868 283.159 289.991L136.507 443.516C149.073 448.216 162.673 450.791 176.875 450.791C182.298 450.791 187.63 450.407 192.854 449.682L291.777 346.119C292.116 342.51 292.297 338.855 292.297 335.158Z" fill="#1E6BC0"/>
<path d="M176.875 219.517C171.453 219.517 166.12 219.9 160.897 220.625L61.9693 324.188C61.6303 327.799 61.4496 331.457 61.4496 335.159C61.4496 351.184 64.7052 366.447 70.5866 380.322L217.238 226.792C204.674 222.092 191.076 219.517 176.875 219.517Z" fill="#1E6BC0"/>
</g>
<defs>
<clipPath id="clip0_2008_77">
<rect width="351.752" height="512" fill="white" transform="translate(0 -0.302673)"/>
</clipPath>
</defs>
</svg>
