<svg width="230" height="512" viewBox="0 0 230 512" fill="none" xmlns="http://www.w3.org/2000/svg">
<path d="M111.911 4.49072C113.983 4.49072 116.066 4.49072 118.148 4.49072C118.148 6.38903 118.148 8.27648 118.148 10.1748C120.676 10.1856 123.214 10.1856 125.752 10.2073C125.742 12.2683 125.742 14.3402 125.742 16.4121C123.203 16.4229 120.665 16.4229 118.138 16.4338C118.148 18.05 118.159 19.6663 118.181 21.2826C122.075 22.9531 124.646 26.5653 125.666 30.5897C121.761 32.8568 118.127 35.5904 115.024 38.8989C111.944 35.5795 108.331 32.7809 104.383 30.5572C105.663 26.6412 107.941 22.9097 111.9 21.2609C111.9 19.6446 111.9 18.0283 111.9 16.4229C109.373 16.4229 106.845 16.4229 104.318 16.4121C104.318 14.3402 104.318 12.2683 104.307 10.1965C106.845 10.1856 109.384 10.1856 111.911 10.1748C111.911 8.27648 111.911 6.38903 111.911 4.49072Z" fill="#FFD200"/>
<path d="M23.5586 42.7823C33.3864 33.4752 46.8156 27.0427 60.5702 27.8562C64.4644 28.0298 68.1308 29.5593 71.3742 31.6311C77.0149 28.5938 83.4475 26.8257 89.88 27.661C99.7187 28.8216 108.082 34.8745 115.111 41.4698C121.229 35.5362 128.421 30.2535 136.849 28.2793C144.15 26.4894 152.058 27.7586 158.49 31.6311C166.582 26.3918 176.92 27.0752 185.696 30.1016C198.355 34.4406 209.712 43.2488 216.134 55.0942C221.21 64.423 222.143 75.8996 218.563 85.9118C216.079 93.1796 211.567 99.5688 206.414 105.188C200.09 112.304 193.723 119.387 187.409 126.525C139.236 126.536 91.0515 126.503 42.8671 126.546C36.0658 119.17 29.5031 111.588 22.7776 104.146C15.5966 96.1952 10.021 86.2047 9.45696 75.3138C8.68679 63.002 14.6095 51.0047 23.5586 42.7823ZM70.8861 49.9742C61.8502 56.5911 59.442 68.7728 60.6244 79.3274C57.3159 79.3166 54.0075 79.3166 50.699 79.3382C49.4407 68.122 49.8746 56.5586 53.4759 45.7871C40.8929 47.9023 30.5878 58.0881 26.5417 69.9335C23.5912 78.2969 25.5871 87.9294 31.0542 94.8067C36.8685 102.15 42.9214 109.31 48.6705 116.719C92.8088 116.914 136.936 116.654 181.064 116.849C186.531 110.666 191.477 104.038 196.782 97.7247C200.416 93.4616 203.475 88.5152 204.505 82.9396C206.089 75.0969 203.388 66.9505 198.854 60.5505C193.56 53.1959 185.739 47.1538 176.584 45.7979C180.391 56.5044 180.597 68.1003 179.447 79.2949C176.139 79.3166 172.841 79.3274 169.555 79.3274C169.945 72.2223 169.728 64.7376 166.235 58.3376C163.046 51.7966 156.711 47.1755 149.758 45.3206C140.201 42.7281 129.734 44.3118 121.088 49.0196C121.153 59.1186 120.622 69.2067 120.839 79.3166C116.966 79.3166 113.094 79.3166 109.221 79.3166C108.982 69.0983 109.612 58.8474 108.885 48.6399C97.0827 42.9667 81.8203 41.741 70.8861 49.9742Z" fill="#FFD200"/>
<path d="M62.5665 85.0004C65.8208 80.1516 73.6092 79.9455 77.2757 84.4255C79.8899 87.2458 79.7597 91.3136 78.9353 94.8065C82.5801 95.6309 86.1814 97.9306 87.1143 101.781C89.0452 107.574 83.936 114.332 77.8072 113.822C74.7157 114.006 72.2316 112.011 70.1272 110.015C65.9943 115.33 56.6221 115.113 53.7367 108.68C50.6343 102.877 54.9082 95.5767 61.2974 94.8282C60.5706 91.5306 60.256 87.7773 62.5665 85.0004Z" fill="#FFD200"/>
<path d="M108.82 83.5906C112.953 79.5228 120.687 80.857 123.312 85.9879C124.928 88.6997 124.418 91.954 123.778 94.8828C127.412 95.4686 130.905 97.7682 131.979 101.446C134.148 107.086 129.419 114.007 123.312 113.822C120.09 114.224 117.357 112.217 115.285 109.982C112.953 111.924 110.349 114.137 107.095 113.833C101.682 114.126 96.9959 108.8 97.7878 103.474C97.9614 98.8638 102.062 95.4903 106.412 94.8719C105.023 91.0319 105.522 86.3133 108.82 83.5906Z" fill="#FFD200"/>
<path d="M152.481 84.9572C155.789 80.1843 163.589 79.9131 167.168 84.5124C169.848 87.2568 169.707 91.3463 168.784 94.7958C173.058 95.5551 177.18 98.8311 177.278 103.452C178.146 108.887 173.319 114.256 167.797 113.833C164.652 114.072 162.135 111.967 159.987 109.961C157.004 113.475 151.83 115.113 147.61 112.792C142.067 110.08 141.037 101.597 145.593 97.5294C147.068 95.9239 149.259 95.4358 151.277 94.8826C150.582 91.5741 150.116 87.745 152.481 84.9572Z" fill="#FFD200"/>
<path d="M42.7588 130.321C91.03 130.321 139.301 130.321 187.572 130.321C187.572 135.929 187.572 141.526 187.572 147.135C139.301 147.135 91.03 147.135 42.7588 147.135C42.7588 141.526 42.7588 135.929 42.7588 130.321Z" fill="#FFD200"/>
<path d="M3.70789 150.931C77.9262 150.931 152.134 150.931 226.352 150.931C226.363 250.099 226.341 349.277 226.363 448.445C226.233 459.14 220.18 468.751 212.673 475.954C200.98 486.986 186.162 494.026 171.117 499.232C146.797 507.325 120.709 510.828 95.2062 507.498C75.4313 504.916 55.8733 499.558 38.0943 490.392C26.4875 484.187 15.1953 476.149 8.44823 464.575C5.64958 459.683 3.89229 454.14 3.70789 448.488C3.70789 349.299 3.70789 250.121 3.70789 150.931ZM18.0808 165.304C18.0808 175.794 18.0808 186.272 18.0808 196.762C82.7208 196.762 147.35 196.773 211.99 196.751C211.968 186.272 211.979 175.794 211.979 165.315C147.35 165.293 82.7208 165.304 18.0808 165.304ZM18.0916 211.102C18.0591 289.139 18.1133 367.175 18.0591 445.223C17.7662 450.321 19.0896 455.43 22.0292 459.639C29.5357 470.14 41.0123 477.017 52.6625 482.093C81.6143 494.08 114.124 498.408 144.953 491.91C163.957 487.853 183.342 481.952 198.691 469.575C205.145 464.271 211.686 457.318 211.99 448.499C212.033 369.367 211.99 290.234 212.012 211.102C147.372 211.113 82.7316 211.102 18.0916 211.102Z" fill="#FFD200"/>
<path d="M48.4641 224.727C92.9278 224.716 137.402 224.716 181.866 224.727C181.877 267.466 181.899 310.205 181.866 352.944C182.061 359.81 178.33 366.069 173.221 370.375C163.111 379.129 150.159 383.761 137.348 386.864C115.979 392.168 93.1231 389.174 73.0987 380.377C65.7007 377.047 58.4437 372.805 53.1827 366.492C50.2431 363.053 48.3231 358.639 48.4424 354.05C48.4641 310.942 48.4424 267.834 48.4641 224.727ZM62.8044 353.03C62.338 357.098 66.2105 359.593 68.9983 361.763C84.098 372.111 102.929 376.211 121.055 375.17C136.014 373.847 151.135 369.497 163.187 360.255C165.421 358.487 167.699 356.024 167.504 352.965C167.515 314.88 167.493 276.784 167.515 238.698C132.629 238.676 97.7549 238.752 62.8804 238.655C62.7393 276.784 62.8804 314.902 62.8044 353.03Z" fill="#FFD200"/>
<path d="M105.479 253.169C111.89 253.18 118.301 253.158 124.711 253.18C123.779 266.131 122.781 279.094 122.325 292.079C123.768 293.218 125.069 294.53 126.306 295.908C138.423 295.018 150.539 294.14 162.667 293.554C162.591 299.845 162.612 306.126 162.645 312.418C150.55 311.799 138.466 310.649 126.371 310.096C124.918 311.289 123.616 312.656 122.206 313.893C122.705 326.812 123.713 339.699 124.44 352.607C118.149 352.586 111.857 352.618 105.577 352.575C106.575 339.742 107.323 326.877 107.974 314.012C106.585 312.765 105.273 311.43 104.047 310.031C91.8437 310.725 79.662 311.745 67.4477 312.407C67.5237 306.115 67.5562 299.813 67.426 293.521C79.586 294.194 91.746 294.997 103.884 295.897C105.186 294.519 106.52 293.174 107.887 291.872C107.323 278.953 106.292 266.066 105.479 253.169Z" fill="#FFD200"/>
<path d="M70.8867 49.9742C81.821 41.7409 97.0833 42.9667 108.885 48.6399C109.612 58.8474 108.983 69.0982 109.222 79.3165C113.094 79.3165 116.967 79.3165 120.839 79.3165C120.622 69.2067 121.154 59.1186 121.089 49.0196C129.734 44.3118 140.202 42.7281 149.759 45.3206C156.712 47.1755 163.047 51.7965 166.236 58.3375C169.729 64.7375 169.946 72.2223 169.555 79.3274C172.842 79.3274 176.14 79.3165 179.448 79.2948C180.598 68.1003 180.392 56.5043 176.584 45.7979C185.74 47.1538 193.561 53.1958 198.854 60.5504C203.388 66.9504 206.089 75.0969 204.506 82.9396C203.475 88.5152 200.416 93.4616 196.782 97.7247C191.478 104.038 186.531 110.666 181.064 116.849C136.937 116.653 92.8094 116.914 48.6711 116.719C42.922 109.31 36.8691 102.15 31.0549 94.8067C25.5878 87.9294 23.5918 78.2969 26.5423 69.9335C30.5884 58.0881 40.8935 47.9023 53.4766 45.787C49.8752 56.5586 49.4413 68.1219 50.6996 79.3382C54.0081 79.3165 57.3166 79.3165 60.625 79.3274C59.4427 68.7728 61.8508 56.5911 70.8867 49.9742ZM62.5667 85.0006C60.2562 87.7775 60.5708 91.5308 61.2976 94.8284C54.9084 95.5769 50.6345 102.877 53.7369 108.681C56.6223 115.113 65.9945 115.33 70.1274 110.015C72.2318 112.011 74.7159 114.007 77.8074 113.822C83.9362 114.332 89.0454 107.574 87.1145 101.782C86.1817 97.9308 82.5803 95.6311 78.9356 94.8067C79.76 91.3138 79.8901 87.246 77.2759 84.4257C73.6095 79.9457 65.821 80.1518 62.5667 85.0006ZM108.82 83.5904C105.523 86.3131 105.024 91.0318 106.412 94.8718C102.062 95.4901 97.962 98.8636 97.7884 103.474C96.9966 108.8 101.683 114.126 107.096 113.833C110.35 114.137 112.953 111.924 115.285 109.982C117.357 112.217 120.091 114.224 123.312 113.822C129.42 114.007 134.149 107.086 131.98 101.445C130.906 97.768 127.413 95.4684 123.779 94.8826C124.419 91.9538 124.929 88.6996 123.312 85.9877C120.687 80.8569 112.953 79.5226 108.82 83.5904ZM152.481 84.9572C150.117 87.745 150.583 91.5742 151.277 94.8826C149.26 95.4358 147.068 95.924 145.593 97.5294C141.037 101.597 142.068 110.08 147.611 112.792C151.83 115.113 157.005 113.475 159.988 109.961C162.136 111.967 164.652 114.072 167.798 113.833C173.319 114.256 178.146 108.887 177.279 103.452C177.181 98.8311 173.059 95.5552 168.785 94.7958C169.707 91.3464 169.848 87.2569 167.169 84.5125C163.589 79.9131 155.79 80.1843 152.481 84.9572Z" fill="#E23627"/>
<path d="M18.0812 165.304C82.7212 165.304 147.35 165.293 211.979 165.315C211.979 175.794 211.969 186.272 211.99 196.751C147.35 196.773 82.7212 196.762 18.0812 196.762C18.0812 186.272 18.0812 175.794 18.0812 165.304ZM81.311 167.799C81.3436 176.824 81.3002 185.86 81.3435 194.896C82.4066 194.885 84.5435 194.864 85.6066 194.853C85.5958 191.034 85.5958 187.227 85.6174 183.409C87.1686 183.409 88.7198 183.398 90.271 183.387C92.1476 187.216 93.9808 191.056 95.8141 194.896C97.6364 194.874 99.4588 194.853 101.281 194.842C99.1768 191.002 97.3002 187.043 95.1307 183.246C100.956 180.664 101.856 171.693 96.0093 168.645C91.3124 166.996 86.1924 168.125 81.311 167.799ZM135.787 168.222C131.654 169.654 129.3 174.058 129.561 178.299C129.636 182.975 128.628 188.518 132.196 192.238C136.839 197.326 146.667 195.417 148.511 188.594C149.292 183.951 149.205 179.146 148.609 174.481C147.242 169.079 140.864 166.4 135.787 168.222Z" fill="#094CA1"/>
<path d="M85.5959 171.812C89.1214 171.975 96.1831 170.543 95.6949 176.108C94.7187 180.751 89.0237 179.134 85.5959 179.406C85.6068 176.867 85.6068 174.34 85.5959 171.812Z" fill="#094CA1"/>
<path d="M137.881 172.431C140.994 171.411 144.237 174.091 144.346 177.247C144.638 180.436 144.747 183.723 144.053 186.88C143.337 189.961 139.421 191.664 136.763 189.852C133.552 187.921 134.236 183.658 134.116 180.491C134.008 177.453 134.442 173.451 137.881 172.431Z" fill="#094CA1"/>
<path d="M62.8052 353.03C62.8812 314.902 62.7401 276.784 62.8812 238.655C97.7557 238.752 132.63 238.676 167.516 238.698C167.494 276.784 167.516 314.88 167.505 352.965C167.7 356.024 165.422 358.487 163.188 360.255C151.136 369.497 136.015 373.847 121.056 375.17C102.93 376.211 84.0988 372.111 68.9991 361.763C66.2113 359.593 62.3388 357.098 62.8052 353.03ZM105.479 253.169C106.293 266.066 107.323 278.953 107.887 291.872C106.52 293.174 105.186 294.519 103.885 295.897C91.7462 294.996 79.5862 294.194 67.4262 293.521C67.5564 299.813 67.5239 306.115 67.4479 312.407C79.6622 311.745 91.8439 310.725 104.047 310.031C105.273 311.43 106.586 312.765 107.974 314.012C107.323 326.877 106.575 339.742 105.577 352.575C111.857 352.618 118.149 352.586 124.44 352.607C123.714 339.699 122.705 326.812 122.206 313.893C123.616 312.656 124.918 311.289 126.371 310.096C138.466 310.649 150.55 311.799 162.645 312.417C162.613 306.126 162.591 299.845 162.667 293.554C150.539 294.14 138.423 295.018 126.306 295.908C125.07 294.53 123.768 293.217 122.325 292.079C122.781 279.094 123.779 266.131 124.712 253.18C118.301 253.158 111.89 253.18 105.479 253.169Z" fill="#094CA1"/>
<path d="M105.327 398.091C117.325 395.184 130.504 397.895 140.397 405.283C153.761 414.85 160.476 432.51 156.918 448.553C154.087 462.774 143.369 475.075 129.712 479.902C122.813 482.462 115.253 483.015 108.007 481.887C94.7511 479.815 82.7647 471.007 76.8528 458.967C70.9626 447.642 70.7674 433.584 76.126 422.02C81.4413 410.088 92.5816 400.976 105.327 398.091ZM92.8854 409.253C83.5674 415.74 78.0569 426.75 77.1674 437.955C85.162 423.354 101.802 414.601 118.333 415.49C117.477 410.62 115.481 406.053 112.704 401.974C105.62 402.658 98.6345 404.99 92.8854 409.253ZM121.121 402.072C127.402 413.993 126.838 429.169 119.06 440.276C121.273 444.54 124.321 448.39 128.226 451.222C134.778 441.47 136.698 428.637 132.457 417.584C130.103 411.596 126.469 405.803 121.121 402.072ZM135.755 408.125C143.966 422.27 143.554 441.014 134.301 454.584C138.911 456.472 143.923 457.068 148.869 456.624C152.134 449.529 153.848 441.491 152.34 433.735C150.691 423.354 144.487 413.906 135.755 408.125ZM79.3911 453.304C86.5504 441.817 100.056 434.788 113.604 435.992C116.153 431.946 117.759 427.401 118.496 422.693C100.24 420.653 81.4087 434.874 79.3911 453.304ZM98.602 445.299C106.022 462.036 127.554 471.452 144.541 463.881C132.522 463.165 120.622 457.025 114.526 446.405C113.539 445.169 113.268 442.815 111.326 442.782C106.965 442.695 102.681 443.813 98.602 445.299ZM83.5565 460.54C89.0454 468.827 97.8426 474.826 107.605 476.8C115.904 478.557 124.517 477.017 132.207 473.643C115.774 473.426 99.6108 464.011 92.5816 448.944C88.6982 452.046 85.7586 456.114 83.5565 460.54Z" fill="#094CA1"/>
<path d="M81.3114 167.799C86.1928 168.125 91.3128 166.997 96.0097 168.645C101.856 171.694 100.956 180.664 95.1311 183.246C97.3006 187.043 99.1772 191.002 101.282 194.842C99.4592 194.853 97.6368 194.875 95.8145 194.896C93.9812 191.056 92.148 187.216 90.2714 183.387C88.7202 183.398 87.169 183.409 85.6178 183.409C85.5961 187.227 85.5961 191.035 85.607 194.853C84.5439 194.864 82.407 194.885 81.3439 194.896C81.3006 185.86 81.3439 176.824 81.3114 167.799ZM85.5961 171.813C85.607 174.34 85.607 176.868 85.5961 179.406C89.0239 179.135 94.7189 180.751 95.6951 176.108C96.1833 170.544 89.1216 171.976 85.5961 171.813Z" fill="white"/>
<path d="M135.787 168.222C140.864 166.4 147.242 169.079 148.609 174.481C149.206 179.146 149.292 183.951 148.511 188.594C146.667 195.417 136.839 197.326 132.197 192.239C128.628 188.518 129.637 182.975 129.561 178.3C129.301 174.058 131.654 169.654 135.787 168.222ZM137.881 172.431C134.442 173.451 134.008 177.454 134.117 180.491C134.236 183.658 133.553 187.921 136.764 189.852C139.421 191.664 143.337 189.961 144.053 186.88C144.747 183.723 144.639 180.437 144.346 177.247C144.237 174.091 140.994 171.411 137.881 172.431Z" fill="white"/>
<path d="M18.0924 211.102C82.7324 211.102 147.372 211.113 212.012 211.102C211.991 290.234 212.034 369.367 211.991 448.499C211.687 457.318 205.146 464.271 198.692 469.576C183.343 481.952 163.958 487.853 144.953 491.91C114.125 498.408 81.6151 494.08 52.6632 482.093C41.013 477.017 29.5364 470.14 22.03 459.639C19.0903 455.43 17.7669 450.321 18.0598 445.223C18.1141 367.175 18.0598 289.139 18.0924 211.102ZM48.4652 224.727C48.4436 267.834 48.4653 310.942 48.4436 354.05C48.3242 358.639 50.2442 363.053 53.1839 366.492C58.4449 372.805 65.7019 377.047 73.0998 380.377C93.1242 389.174 115.98 392.168 137.349 386.864C150.16 383.761 163.112 379.129 173.222 370.375C178.331 366.069 182.063 359.81 181.867 352.944C181.9 310.205 181.878 267.466 181.867 224.727C137.404 224.716 92.929 224.716 48.4652 224.727ZM105.328 398.091C92.5819 400.976 81.4415 410.088 76.1263 422.02C70.7676 433.584 70.9629 447.642 76.853 458.967C82.7649 471.007 94.7514 479.815 108.007 481.887C115.253 483.016 122.814 482.462 129.713 479.902C143.37 475.075 154.087 462.774 156.918 448.553C160.476 432.51 153.762 414.85 140.397 405.283C130.505 397.896 117.325 395.184 105.328 398.091Z" fill="white"/>
<path d="M92.8853 409.253C98.6345 404.99 105.62 402.658 112.704 401.974C115.481 406.053 117.477 410.62 118.333 415.49C101.802 414.601 85.1619 423.355 77.1674 437.955C78.0568 426.75 83.5674 415.74 92.8853 409.253Z" fill="white"/>
<path d="M121.122 402.072C126.469 405.803 130.103 411.596 132.457 417.584C136.699 428.637 134.779 441.47 128.227 451.222C124.322 448.39 121.273 444.54 119.061 440.277C126.838 429.169 127.402 413.993 121.122 402.072Z" fill="white"/>
<path d="M135.755 408.125C144.487 413.906 150.692 423.355 152.34 433.736C153.848 441.492 152.134 449.529 148.869 456.624C143.923 457.068 138.911 456.472 134.301 454.584C143.554 441.014 143.966 422.27 135.755 408.125Z" fill="white"/>
<path d="M79.3916 453.304C81.4092 434.875 100.24 420.654 118.497 422.693C117.759 427.401 116.154 431.946 113.604 435.992C100.056 434.788 86.5509 441.817 79.3916 453.304Z" fill="white"/>
<path d="M98.6019 445.299C102.681 443.813 106.965 442.696 111.326 442.783C113.268 442.815 113.539 445.169 114.526 446.406C120.622 457.025 132.522 463.165 144.541 463.881C127.554 471.452 106.022 462.037 98.6019 445.299Z" fill="white"/>
<path d="M83.5571 460.54C85.7592 456.114 88.6988 452.046 92.5822 448.944C99.6114 464.011 115.774 473.426 132.208 473.643C124.517 477.017 115.904 478.557 107.606 476.8C97.8432 474.826 89.0459 468.827 83.5571 460.54Z" fill="white"/>
</svg>
