<svg width="446" height="512" viewBox="0 0 446 512" fill="none" xmlns="http://www.w3.org/2000/svg">
<path d="M210.038 17.7013H219.825V4.78418H228.631V17.7013H238.417V26.5079H228.631V32.9118C231.765 34.0064 234.365 36.235 235.941 39.1067C237.831 37.4957 240.281 36.5214 242.959 36.5214C248.937 36.5214 253.786 41.3699 253.786 47.3487C253.786 47.5968 253.777 47.8422 253.76 48.0857C255.426 47.0403 257.395 46.4364 259.505 46.4364C262.935 46.4364 265.991 48.031 267.975 50.5196C268.748 45.298 273.249 41.2906 278.685 41.2906C284.664 41.2906 289.512 46.139 289.512 52.1178C289.512 53.3712 289.3 54.5735 288.907 55.6928C290.885 53.5509 293.716 52.2099 296.861 52.2099C302.555 52.2099 307.225 56.6078 307.656 62.1915C308.525 61.9662 309.436 61.8476 310.376 61.8476C316.355 61.8476 321.203 66.6961 321.203 72.6748C321.203 73.7768 321.037 74.8386 320.731 75.8402C325.156 77.2022 328.372 81.3218 328.372 86.1912C328.372 87.898 327.976 89.5127 327.272 90.9485C330.068 92.9061 331.898 96.1528 331.898 99.8236C331.898 102.33 331.044 104.638 329.613 106.474C331.809 108.455 333.191 111.324 333.191 114.514C333.191 118.708 330.804 122.346 327.316 124.144C327.831 125.379 327.969 126.929 327.72 128.69C327.247 132.049 325.115 135.099 320.928 136.112C316.267 137.245 311.46 137.886 306.657 137.821C307.174 144.226 302.272 151.197 295.918 151.327L301.743 161.243L291.556 163.543C295.034 166.423 295.701 172.027 294.182 176.115C293.435 178.125 292.158 179.773 290.595 181.128C335.062 204.88 365.332 251.743 365.332 305.667C365.332 314.46 364.525 323.064 362.985 331.411C364.006 332.047 365.014 332.689 366.001 333.338C377.529 340.905 387.876 350.111 397.136 360.307V360.315C400.828 364.403 404.634 368.556 408.636 372.822C412.542 376.984 416.505 381.109 420.548 385.178C427.599 392.273 434.733 399.224 442.185 405.905C418.297 412.13 397.394 422.363 377.172 434.549L432.213 490.371L411.726 503.838L356.467 447.724C352.747 450.192 349.023 452.703 345.279 455.244C331.815 464.385 318.267 473.584 303.864 481.886C280.834 495.162 258.253 504.334 237.188 507.899C218.69 511.029 199.834 509.975 182.65 501.901C166.576 484.497 150.25 468.024 129.803 455.662C113.381 452.55 99.2036 435.88 91.1623 422.645L91.0875 422.504C88.3801 417.098 84.7667 411.523 80.2704 405.8C69.6338 392.26 56.9402 379.766 42.4303 370.416C32.9778 364.324 28.0427 359.663 24.2287 348.869C21.4555 341.02 17.8312 333.506 14.9714 325.673C12.8778 319.939 11.0415 314.31 9.727 309.386C5.31274 292.849 7.35065 275.964 10.8454 259.403C12.2365 252.813 13.6532 246.1 14.3994 238.889C15.173 231.412 14.6421 223.813 12.377 216.623C0.604738 178.485 9.98151 135.223 19.3793 96.8789C5.41491 99.5353 -1.674 81.5143 7.78396 71.3977L14.9832 63.6967C28.2552 49.5042 47.9429 65.9325 38.3335 80.8429L141.347 191.474C146.59 187.662 152.104 184.198 157.857 181.126C156.294 179.771 155.017 178.123 154.27 176.113C152.75 172.025 153.418 166.422 156.896 163.541L146.709 161.241L152.534 151.325C146.18 151.195 141.278 144.224 141.795 137.82C136.993 137.885 132.185 137.243 127.523 136.11C123.337 135.098 121.204 132.047 120.73 128.688C120.482 126.928 120.619 125.377 121.134 124.142C117.646 122.344 115.26 118.707 115.26 114.512C115.26 111.322 116.641 108.453 118.837 106.472C117.406 104.636 116.552 102.329 116.552 99.8217C116.552 96.15 118.382 92.9043 121.178 90.9467C120.474 89.5099 120.078 87.8962 120.078 86.1894C120.078 81.32 123.295 77.2003 127.718 75.8384C127.412 74.8368 127.246 73.7749 127.246 72.673C127.246 66.6942 132.095 61.8458 138.074 61.8458C139.013 61.8458 139.924 61.9653 140.794 62.1897C141.225 56.6059 145.894 52.2081 151.588 52.2081C154.733 52.2081 157.564 53.55 159.542 55.691C159.15 54.5717 158.937 53.3694 158.937 52.116C158.937 46.1372 163.786 41.2887 169.764 41.2887C175.199 41.2887 179.701 45.2961 180.474 50.5177C182.458 48.0292 185.515 46.4346 188.944 46.4346C191.055 46.4346 193.023 47.0385 194.688 48.0839C194.672 47.8403 194.664 47.595 194.664 47.3468C194.664 41.3681 199.512 36.5196 205.491 36.5196C208.17 36.5196 210.621 37.4939 212.511 39.1058C214.087 36.235 216.687 34.0055 219.818 32.9109V26.5061H210.032V17.7013H210.038ZM101.374 236.224C107.407 225.579 114.787 215.796 123.277 207.103L24.3071 100.978C29.2714 120.25 36.198 138.027 45.6578 156.066C60.7916 184.926 80.3561 211.382 101.374 236.224Z" fill="black"/>
<path d="M53.9189 347.266C37.0582 328.236 41.8428 297.708 45.7335 272.9C46.3073 269.24 46.8619 265.707 47.3262 262.333C48.2585 251.164 48.3972 239.308 47.3518 227.738C46.4295 217.539 44.5868 207.559 41.5573 198.465L41.5427 198.407C40.7035 192.463 40.3842 186.118 40.4699 179.755C40.5648 172.758 41.1496 165.742 42.0709 159.21L42.1639 158.556L41.8894 158.036C33.9238 142.846 25.5459 125.963 21.1846 109.259C13.5948 143.312 6.36545 181.172 16.451 215.358C18.8921 223.108 19.4732 231.265 18.6395 239.324C17.8686 246.768 16.43 253.582 15.0179 260.272C12.3925 272.712 10.5754 283.306 12.346 294.024C14.7807 308.765 24.2031 322.043 34.7831 332.181C40.74 338.006 47.1338 343.07 53.9189 347.266Z" fill="#143C8B"/>
<path d="M292.029 150.554C291.937 150.516 291.847 150.476 291.755 150.434C281.508 145.795 270.668 142.299 259.405 139.96C236.572 135.219 211.882 135.219 189.049 139.96C177.786 142.298 166.946 145.795 156.699 150.434C156.607 150.475 156.517 150.516 156.426 150.554L167.191 151.885L168.006 151.986L167.49 152.623L160.065 161.806C169.784 157.463 180.001 154.076 190.599 151.771C212.666 146.968 235.793 146.984 257.86 151.786C268.312 154.061 278.552 157.411 288.393 161.807L280.967 152.623L280.451 151.986L281.266 151.885L292.029 150.554Z" fill="#FFE24A"/>
<path d="M78.6274 358.113C75.2695 352.526 72.5639 346.26 70.3435 339.819C67.9809 332.965 66.1637 325.901 64.695 319.243C61.4958 305.248 62.7155 291.14 63.9424 276.94C64.6731 268.49 65.4056 260.006 65.2113 251.523C64.8364 247.913 64.3721 244.262 63.9023 240.58C61.9656 225.363 59.9606 209.596 64.0209 195.12C56.3144 183.603 49.1507 171.738 42.6885 159.554C41.8647 165.739 41.2243 173.247 41.1359 179.762C41.0501 186.08 41.3676 192.381 42.2004 198.288C45.2409 207.425 47.09 217.443 48.0159 227.678C49.0658 239.297 48.9281 251.191 47.994 262.388L47.9912 262.405C47.5297 265.759 46.9714 269.319 46.3939 273.003C42.4066 298.428 37.4751 329.899 56.0362 348.539C61.7339 351.873 67.6981 354.602 73.9003 356.666C75.462 357.192 77.0374 357.674 78.6274 358.113Z" fill="white"/>
<path d="M94.3679 360.946C87.1285 343.969 83.1211 325.285 83.1211 305.666C83.1211 282.353 88.7833 260.36 98.8004 240.983C86.6368 226.635 75.0707 211.567 64.5117 195.851C60.6913 210.049 62.6626 225.538 64.5664 240.495C65.038 244.199 65.5051 247.871 65.8782 251.462L65.8791 251.489C66.077 260.034 65.3427 268.532 64.6111 276.996C63.3887 291.147 62.1736 305.204 65.3482 319.093V319.095C66.8105 325.722 68.6203 332.759 70.9793 339.601C73.2672 346.238 76.0677 352.68 79.5634 358.366C84.3727 359.638 89.3105 360.507 94.3679 360.946Z" fill="#143C8B"/>
<path d="M202.217 484.073C200.853 490.238 198.874 496.379 196.3 502.45C208.697 505.862 222.214 506.111 236.488 503.695C257.043 500.217 279.15 491.226 301.747 478.2C316.01 469.977 329.494 460.823 342.895 451.726C371.174 432.528 398.879 413.651 433.317 403.877C429.346 400.209 425.522 396.312 421.717 392.431C377.582 393.342 342.694 417.87 308.026 442.248C304.492 444.733 300.96 447.216 297.379 449.702L297.363 449.713C282.794 458.491 267.882 467.077 252.152 473.471C236.471 479.844 219.981 484.039 202.217 484.073Z" fill="#143C8B"/>
<path d="M204.461 463.435C204.494 470.079 203.786 476.753 202.364 483.402C219.977 483.344 236.337 479.177 251.9 472.85C267.587 466.474 282.471 457.903 297.015 449.141C300.533 446.699 304.086 444.2 307.641 441.7C342.228 417.38 377.033 392.912 421.077 391.78C419.895 390.575 418.715 389.371 417.53 388.18C413.743 384.368 410.058 380.545 406.45 376.714C393.935 377.644 382.351 380.451 371.253 384.462C359.955 388.546 349.157 393.878 338.391 399.745C317.341 413.073 295.959 426.444 273.703 437.775C251.662 448.998 228.758 458.224 204.461 463.435Z" fill="white"/>
<path d="M198.937 433.161C201.981 441.362 203.748 449.767 204.286 458.255C204.381 459.752 204.436 461.252 204.454 462.753C228.634 457.55 251.442 448.358 273.4 437.178C295.642 425.853 317.006 412.493 338.039 399.175L338.057 399.165C348.855 393.279 359.686 387.931 371.024 383.832C382.017 379.859 393.487 377.061 405.86 376.087L405.535 375.74C401.733 371.688 397.876 367.475 393.988 363.17L393.983 363.174C392.028 361.021 390.022 358.914 387.965 356.857C339.232 358.651 298.376 383.629 258.596 407.952L257.693 408.504L257.672 408.515L256.937 408.894C238.188 418.536 219.579 428.104 198.937 433.161Z" fill="#143C8B"/>
<path d="M192.005 418.543C194.673 423.121 196.901 427.791 198.701 432.531C219.295 427.498 237.893 417.935 256.631 408.299L257.356 407.926L258.248 407.381C297.933 383.117 338.687 358.204 387.321 356.217C383.615 352.548 379.744 349.046 375.706 345.751C362.934 343.525 350.164 343.943 337.885 346.197C323.695 348.801 310.152 353.859 298.002 360.122L297.985 360.129C282.505 367.02 268.022 376.584 253.523 386.159C233.906 399.115 214.255 412.092 192.005 418.543Z" fill="white"/>
<path d="M169.098 391.968C176.975 398.174 184.03 405.885 189.922 415.126C190.518 416.062 191.096 417.003 191.654 417.947C213.874 411.54 233.53 398.56 253.154 385.601C267.669 376.016 282.168 366.441 297.695 359.527L297.697 359.526C309.899 353.236 323.504 348.157 337.763 345.539C349.743 343.34 362.184 342.878 374.643 344.893C371.112 342.064 367.455 339.393 363.666 336.907C360.446 334.793 357.237 332.881 354.069 330.994C350.637 328.95 347.252 326.933 344.047 324.792C342.233 323.581 340.46 322.355 338.72 321.105C290.16 316.659 251.724 342.375 214.372 367.373C209.199 370.835 204.046 374.284 198.892 377.636L198.873 377.648C189.284 383.034 179.525 388.361 169.098 391.968Z" fill="#143C8B"/>
<path d="M151.086 380.96C152.439 381.581 153.78 382.236 155.106 382.927C159.758 385.349 164.23 388.197 168.469 391.476C179.013 387.884 188.865 382.502 198.546 377.064C203.694 373.716 208.838 370.273 214.002 366.818C251.165 341.947 289.397 316.363 337.663 320.341C335.094 318.471 332.59 316.546 330.117 314.545C327.739 312.621 325.369 310.611 322.978 308.491C312.707 308.238 302.093 308.994 291.708 310.545C280.32 312.246 269.21 314.906 259.132 318.237L259.111 318.242C240.069 323.226 223.641 334.775 207.192 346.338C198.257 352.62 189.314 358.906 179.937 364.155C170.633 370.283 160.318 374.725 151.086 380.96Z" fill="white"/>
<path d="M31.8284 335.249C25.7247 329.4 20.2286 322.609 15.942 315.382C16.8561 318.246 17.8805 321.223 18.9752 324.221C21.8395 332.066 25.4711 339.59 28.2488 347.45C31.739 357.33 36.0612 361.241 44.7328 366.829C52.4311 371.79 59.3266 377.48 65.9548 383.817C72.7044 380.459 79.5588 377.9 86.6021 375.958C93.7586 373.984 100.999 372.811 108.201 372.566C122.773 372.07 137.197 374.731 150.371 380.636C159.692 374.267 170.166 369.796 179.59 363.584L179.609 363.57C188.961 358.335 197.888 352.06 206.806 345.79C223.297 334.197 239.769 322.618 258.922 317.6C269.033 314.258 280.181 311.591 291.609 309.883C301.76 308.367 312.135 307.608 322.206 307.805C320.355 306.149 318.49 304.426 316.596 302.63C313.35 299.548 310.199 296.367 307.169 293.066C304.338 289.98 301.612 286.794 299.012 283.494C277.402 283.273 256.257 289.008 236.917 298.437C221.526 305.94 207.115 315.318 193.761 326.018C179.625 337.342 166.415 347.517 149.561 354.869C139.651 359.192 129.159 362.421 117.95 364.239C101.834 366.853 86.6441 365.453 72.5493 360.702C57.296 355.87 43.5524 347.177 31.8284 335.249Z" fill="#143C8B"/>
<path d="M185.227 498.408C187.505 499.461 189.831 500.388 192.2 501.193C198.23 487.127 200.929 472.696 200.031 458.524C199.135 444.377 194.657 430.465 186.334 417.412C177.563 403.655 166.085 393.455 153.136 386.713C139.372 379.548 123.944 376.289 108.333 376.821C101.486 377.054 94.5805 378.176 87.7351 380.064C81.4563 381.795 75.3206 384.029 69.2197 386.97C74.7733 392.428 79.5132 397.934 83.6237 403.166C88.2432 409.046 91.9897 414.831 94.8386 420.5C102.452 432.562 115.953 448.216 131.312 451.581C152.1 463.948 169.388 480.595 185.227 498.408Z" fill="white"/>
<path d="M371.552 437.767L422.205 489.318L412.606 495.627L361.967 444.204L371.552 437.767Z" fill="#FFE24A"/>
<path d="M29.8206 81.0793L136.237 195.366C133.345 197.676 130.547 200.101 127.846 202.629L21.9143 89.0412C18.8046 91.1201 15.0581 91.5626 12.128 88.6325C8.39333 84.8979 8.85765 79.6124 12.4646 75.7537L19.6639 68.0527C23.2708 64.194 28.7095 63.165 32.4451 66.8996C36.1797 70.6343 34.9218 75.6223 31.3139 79.4811L29.8206 81.0793Z" fill="#FFE24A"/>
<path d="M284.105 177.874C285.84 176.957 287.534 175.684 288.202 173.886C288.722 172.486 288.897 169.051 287.176 168.261C277.36 163.756 267.068 160.338 256.509 158.04C235.291 153.422 213.169 153.408 191.95 158.026C181.238 160.357 170.97 163.813 161.278 168.261C159.557 169.051 159.733 172.486 160.253 173.886C160.92 175.684 162.614 176.956 164.349 177.874C182.528 169.339 202.819 164.561 224.227 164.561C245.635 164.561 265.927 169.338 284.105 177.874Z" fill="#FFE24A"/>
<path d="M202.923 142.092C203.842 143.775 202.966 145.657 201.565 146.717C200.65 147.41 199.563 147.744 198.421 147.997L184.799 151.007C183.403 151.315 181.934 151.447 180.506 150.795C178.188 149.735 177.628 147.26 179.285 145.318C180.275 144.158 181.636 143.606 183.074 143.33L196.861 140.279C198.958 139.817 201.752 139.946 202.923 142.092Z" fill="black"/>
<path d="M196.898 140.74L183.144 143.769C181.842 144.056 180.571 144.493 179.622 145.605C178.159 147.32 178.644 149.455 180.69 150.391C181.976 150.979 183.401 150.894 184.699 150.607L198.344 147.586C199.351 147.374 200.348 147.049 201.182 146.45C202.445 145.544 203.353 143.901 202.568 142.369C201.514 140.314 198.819 140.316 196.898 140.74Z" fill="#EC1D24"/>
<path d="M127.368 384.766C127.484 384.652 127.596 384.548 127.713 384.439C130.77 387.356 133.886 390.293 137.044 393.294C140.271 396.35 143.552 399.465 146.896 402.63C146.737 402.819 146.581 403.011 146.421 403.2C141.181 398.735 136.461 395.639 132.748 393.984C129.035 392.342 126.255 392.083 124.945 393.378C122.904 395.363 125.307 400.273 129.293 404.331C130.634 405.7 131.808 406.697 133.083 407.615C134.739 408.706 136.558 409.57 138.574 410.25C140.13 410.85 142.836 411.276 146.878 411.906C149.78 412.352 152.447 412.962 154.845 413.691C157.246 414.431 159.426 415.339 161.355 416.4C165.175 418.668 169.426 421.852 174.025 426.266C179.856 431.847 184.81 438.082 188.038 443.777C191.396 449.685 192.931 455.027 191.609 458.341C190.752 460.499 189.335 461.511 185.245 461.406C184.106 461.615 183.477 461.882 183.268 462.363C182.847 463.321 183.834 465.985 186.917 470.127C186.778 470.474 186.641 470.811 186.506 471.158C181.349 465.8 176.299 460.533 171.397 455.433C166.617 450.448 161.945 445.571 157.389 440.849C157.551 440.562 157.719 440.298 157.891 440.006C166.071 447.368 172.997 452.244 178.154 454.67C183.325 457.101 186.591 456.996 187.611 454.591C189.099 451.063 184.594 443.439 178.935 437.913C175.354 434.416 172.062 432.337 168.432 430.909C166.425 430.085 164.118 429.763 160.879 429.311C156.21 428.663 152.645 427.844 149.495 426.663C146.344 425.467 143.644 423.945 140.677 421.941C137.963 419.986 134.803 417.327 131.959 414.361C127.102 409.311 123.482 404.063 121.613 399.698C119.805 395.461 119.613 392.029 121.49 390.273C122.132 389.668 123.025 389.32 124.066 389.3C125.793 389.107 129.786 390.109 130.3 389.599C130.812 389.101 130.567 388.357 127.368 384.766Z" fill="#143C8B"/>
<path d="M224.228 51.804C227.691 51.804 230.516 48.9797 230.516 45.516C230.516 42.0523 227.692 39.228 224.228 39.228C220.764 39.228 217.94 42.0523 217.94 45.516C217.94 48.9797 220.765 51.804 224.228 51.804Z" fill="#FFE24A"/>
<path d="M135.771 119.363C136.827 118.718 138.072 118.358 139.291 118.331C140.892 118.294 142.529 118.816 143.794 119.987C144.046 120.22 144.256 120.439 144.417 120.641C144.497 120.741 144.571 120.846 144.64 120.952C144.906 121.317 145.115 121.663 145.278 121.993C148.012 121.588 150.583 120.725 152.96 119.474C155.441 118.168 157.71 116.444 159.729 114.376C158.298 113.201 157.21 111.581 156.703 109.657C156.169 107.625 156.364 105.568 157.128 103.768C157.87 102.02 159.16 100.514 160.846 99.5062C161 97.1836 161.973 95.2534 163.406 93.8193C164.587 92.638 166.065 91.8125 167.636 91.3992C167.708 91.3801 167.779 91.3627 167.851 91.3454C166.916 89.8557 166.375 88.0924 166.375 86.2041C166.375 81.9704 169.093 78.3717 172.881 77.0572C172.064 75.5356 171.602 73.7951 171.602 71.9478C171.602 67.1486 174.725 63.0792 179.05 61.6597C178.659 60.7822 178.383 59.8426 178.237 58.8601C176.253 61.3487 173.197 62.9451 169.768 62.9451C166.623 62.9451 163.791 61.6023 161.812 59.4604C162.204 60.5806 162.418 61.7838 162.418 63.0363C162.418 69.015 157.57 73.8635 151.591 73.8635C150.651 73.8635 149.739 73.7431 148.87 73.5187C148.522 78.015 145.427 81.7406 141.262 83.0222C141.567 84.0239 141.733 85.0875 141.733 86.1895C141.733 89.8612 139.904 93.106 137.107 95.0636C137.81 96.5004 138.208 98.115 138.208 99.8227C138.208 103.013 136.826 105.881 134.63 107.862C136.06 109.698 136.915 112.006 136.915 114.513C136.917 116.257 136.504 117.904 135.771 119.363Z" fill="#EC1D24"/>
<path d="M211.582 92.8342C208.872 91.3399 207.036 88.4564 207.036 85.1441C207.036 81.5919 209.148 78.5332 212.184 77.153C209.148 75.7719 207.036 72.7123 207.036 69.161C207.036 64.4119 210.811 60.5432 215.523 60.3908C215.696 59.0307 216.179 57.7682 216.9 56.6753C215.805 55.9547 214.822 55.0762 213.984 54.0728C211.999 56.5723 208.934 58.1759 205.496 58.1759C203.386 58.1759 201.416 57.5702 199.751 56.5257C199.767 56.7693 199.777 57.0156 199.777 57.2637C199.777 62.0629 196.652 66.1333 192.327 67.5527C192.925 68.8964 193.258 70.3834 193.258 71.9478C193.258 77.0444 189.734 81.3191 184.99 82.4704C185.471 83.6189 185.737 84.8805 185.737 86.2041C185.737 90.4095 183.054 93.989 179.306 95.3254C180.608 95.6146 181.825 96.1838 182.868 96.9848C184.422 98.1762 185.606 99.8711 186.142 101.904C186.722 104.108 186.443 106.339 185.51 108.237C190.735 110.237 196.438 111.001 201.872 110.302C205.918 109.782 209.812 108.435 213.231 106.163C210.924 104.502 209.42 101.794 209.42 98.7344C209.42 96.4867 210.234 94.4269 211.582 92.8342Z" fill="#EC1D24"/>
<path d="M232.934 60.3909C237.646 60.5432 241.419 64.412 241.419 69.1601C241.419 72.7123 239.307 75.7719 236.271 77.1521C239.307 78.5333 241.419 81.5919 241.419 85.1442C241.419 88.4555 239.583 91.34 236.874 92.8342C238.221 94.427 239.034 96.4859 239.034 98.7345C239.034 101.794 237.531 104.503 235.223 106.163C238.642 108.435 242.536 109.782 246.581 110.302C252.016 111.002 257.718 110.237 262.943 108.237C262.01 106.339 261.73 104.108 262.312 101.904C262.846 99.8711 264.031 98.1762 265.585 96.9849C266.628 96.1839 267.845 95.6147 269.147 95.3255C265.399 93.99 262.716 90.4095 262.716 86.2042C262.716 84.8805 262.982 83.6189 263.463 82.4704C258.719 81.3192 255.195 77.0445 255.195 71.9479C255.195 70.3834 255.528 68.8965 256.126 67.5528C251.801 66.1334 248.676 62.0621 248.676 57.2638C248.676 57.0157 248.686 56.7694 248.702 56.5258C247.036 57.5703 245.067 58.176 242.957 58.176C239.519 58.176 236.456 56.5732 234.472 54.0737C233.634 55.0763 232.651 55.9547 231.557 56.6754C232.278 57.7682 232.763 59.0308 232.934 60.3909Z" fill="#EC1D24"/>
<path d="M312.683 119.363C311.627 118.718 310.382 118.358 309.163 118.331C307.562 118.294 305.925 118.816 304.66 119.987C304.408 120.22 304.198 120.439 304.037 120.641C303.956 120.741 303.883 120.846 303.814 120.952C303.548 121.317 303.339 121.663 303.176 121.993C300.442 121.588 297.871 120.725 295.494 119.474C293.012 118.168 290.744 116.444 288.725 114.376C290.156 113.201 291.244 111.581 291.751 109.657C292.285 107.625 292.09 105.568 291.326 103.768C290.584 102.02 289.294 100.514 287.608 99.5062C287.454 97.1836 286.481 95.2534 285.048 93.8193C283.868 92.638 282.389 91.8125 280.818 91.3992C280.746 91.3801 280.675 91.3627 280.603 91.3454C281.538 89.8557 282.079 88.0924 282.079 86.2041C282.079 81.9704 279.361 78.3717 275.573 77.0572C276.39 75.5356 276.852 73.7951 276.852 71.9478C276.852 67.1486 273.729 63.0792 269.404 61.6597C269.794 60.7822 270.071 59.8426 270.217 58.8601C272.201 61.3487 275.257 62.9451 278.686 62.9451C281.83 62.9451 284.663 61.6023 286.641 59.4604C286.25 60.5806 286.036 61.7838 286.036 63.0363C286.036 69.015 290.884 73.8635 296.863 73.8635C297.803 73.8635 298.715 73.7431 299.584 73.5187C299.932 78.015 303.027 81.7406 307.191 83.0222C306.886 84.0239 306.72 85.0875 306.72 86.1895C306.72 89.8612 308.55 93.106 311.346 95.0636C310.643 96.5004 310.245 98.115 310.245 99.8227C310.245 103.013 311.627 105.881 313.823 107.862C312.392 109.698 311.538 112.006 311.538 114.513C311.537 116.257 311.95 117.904 312.683 119.363Z" fill="#EC1D24"/>
<path d="M224.228 64.474C225.866 64.474 227.203 63.1375 227.203 61.4992C227.203 59.8608 225.867 58.5244 224.228 58.5244C222.59 58.5244 221.254 59.8608 221.254 61.4992C221.254 63.1375 222.59 64.474 224.228 64.474Z" fill="#FFE24A"/>
<path d="M224.228 78.2823C225.866 78.2823 227.203 76.9459 227.203 75.3075C227.203 73.6692 225.867 72.3328 224.228 72.3328C222.59 72.3328 221.254 73.6692 221.254 75.3075C221.254 76.9459 222.59 78.2823 224.228 78.2823Z" fill="#FFE24A"/>
<path d="M215.811 81.0244C218.085 81.0244 219.929 82.8689 219.929 85.1431C219.929 85.186 219.929 85.228 219.927 85.2708C218.256 86.163 216.894 87.5587 216.046 89.2545C215.968 89.2591 215.89 89.2618 215.811 89.2618C213.536 89.2618 211.692 87.4173 211.692 85.1431C211.692 82.8689 213.537 81.0244 215.811 81.0244Z" fill="#FFE24A"/>
<path d="M215.811 65.0413C215.944 65.0413 216.075 65.0476 216.206 65.0604C216.791 66.3777 217.693 67.5252 218.813 68.4046C217.278 69.6106 216.155 71.3165 215.689 73.2778C213.471 73.213 211.692 71.3949 211.692 69.1609C211.692 66.8858 213.537 65.0413 215.811 65.0413Z" fill="#FFE24A"/>
<path d="M205.497 53.6358C208.96 53.6358 211.785 50.8115 211.785 47.3478C211.785 43.8841 208.961 41.0598 205.497 41.0598C202.033 41.0598 199.209 43.8841 199.209 47.3478C199.209 50.8115 202.033 53.6358 205.497 53.6358Z" fill="#FFE24A"/>
<path d="M126.091 120.801C129.553 120.801 132.379 117.977 132.379 114.513C132.379 111.05 129.554 108.225 126.091 108.225C122.627 108.225 119.803 111.05 119.803 114.513C119.803 117.977 122.627 120.801 126.091 120.801Z" fill="#FFE24A"/>
<path d="M127.383 106.11C130.846 106.11 133.67 103.285 133.67 99.8226C133.67 96.3598 130.846 93.5347 127.383 93.5347C123.92 93.5347 121.095 96.3598 121.095 99.8226C121.095 103.285 123.919 106.11 127.383 106.11Z" fill="#FFE24A"/>
<path d="M130.908 92.4773C134.371 92.4773 137.196 89.6531 137.196 86.1893C137.196 82.7256 134.372 79.9014 130.908 79.9014C127.444 79.9014 124.62 82.7256 124.62 86.1893C124.621 89.6531 127.445 92.4773 130.908 92.4773Z" fill="#FFE24A"/>
<path d="M138.078 78.9619C141.541 78.9619 144.366 76.1377 144.366 72.674C144.366 69.2102 141.542 66.386 138.078 66.386C134.614 66.386 131.79 69.2102 131.79 72.674C131.79 76.1377 134.614 78.9619 138.078 78.9619Z" fill="#FFE24A"/>
<path d="M151.594 69.3242C155.057 69.3242 157.882 66.5 157.882 63.0363C157.882 59.5725 155.057 56.7483 151.594 56.7483C148.13 56.7483 145.306 59.5725 145.306 63.0363C145.306 66.5 148.13 69.3242 151.594 69.3242Z" fill="#FFE24A"/>
<path d="M169.771 58.4048C173.234 58.4048 176.059 55.5806 176.059 52.1168C176.059 48.6531 173.234 45.8289 169.771 45.8289C166.307 45.8289 163.483 48.6531 163.483 52.1168C163.483 55.5806 166.307 58.4048 169.771 58.4048Z" fill="#FFE24A"/>
<path d="M188.949 63.5515C192.413 63.5515 195.237 60.7273 195.237 57.2636C195.237 53.7998 192.413 50.9756 188.949 50.9756C185.487 50.9756 182.661 53.8007 182.661 57.2636C182.661 60.7264 185.487 63.5515 188.949 63.5515Z" fill="#FFE24A"/>
<path d="M182.431 78.2349C185.893 78.2349 188.719 75.4107 188.719 71.9479C188.719 68.4842 185.894 65.6599 182.431 65.6599C178.967 65.6599 176.143 68.4842 176.143 71.9479C176.144 75.4116 178.968 78.2349 182.431 78.2349Z" fill="#FFE24A"/>
<path d="M176.058 91.3453C178.889 91.3453 181.199 89.0365 181.199 86.204C181.199 83.3725 178.889 81.0627 176.058 81.0627C173.226 81.0627 170.916 83.3725 170.916 86.204C170.916 89.0365 173.226 91.3453 176.058 91.3453Z" fill="#FFE24A"/>
<path d="M322.364 120.801C325.827 120.801 328.652 117.977 328.652 114.513C328.652 111.05 325.827 108.225 322.364 108.225C318.901 108.225 316.076 111.05 316.076 114.513C316.077 117.977 318.901 120.801 322.364 120.801Z" fill="#FFE24A"/>
<path d="M321.072 106.11C324.534 106.11 327.36 103.285 327.36 99.8226C327.36 96.3598 324.535 93.5347 321.072 93.5347C317.608 93.5347 314.784 96.3598 314.784 99.8226C314.784 103.285 317.609 106.11 321.072 106.11Z" fill="#FFE24A"/>
<path d="M317.546 92.4773C321.009 92.4773 323.834 89.6531 323.834 86.1893C323.834 82.7256 321.01 79.9014 317.546 79.9014C314.082 79.9014 311.258 82.7256 311.258 86.1893C311.259 89.6531 314.083 92.4773 317.546 92.4773Z" fill="#FFE24A"/>
<path d="M310.377 78.9619C313.84 78.9619 316.665 76.1377 316.665 72.674C316.665 69.2102 313.84 66.386 310.377 66.386C306.914 66.386 304.09 69.2102 304.09 72.674C304.09 76.1377 306.914 78.9619 310.377 78.9619Z" fill="#FFE24A"/>
<path d="M296.861 69.3242C300.324 69.3242 303.149 66.5 303.149 63.0363C303.149 59.5725 300.325 56.7483 296.861 56.7483C293.397 56.7483 290.573 59.5725 290.573 63.0363C290.573 66.5 293.398 69.3242 296.861 69.3242Z" fill="#FFE24A"/>
<path d="M278.685 58.4048C282.148 58.4048 284.973 55.5806 284.973 52.1168C284.973 48.6531 282.148 45.8289 278.685 45.8289C275.222 45.8289 272.397 48.6531 272.397 52.1168C272.397 55.5806 275.221 58.4048 278.685 58.4048Z" fill="#FFE24A"/>
<path d="M242.958 53.6358C246.421 53.6358 249.246 50.8115 249.246 47.3478C249.246 43.8841 246.421 41.0598 242.958 41.0598C239.494 41.0598 236.67 43.8841 236.67 47.3478C236.67 50.8115 239.495 53.6358 242.958 53.6358Z" fill="#FFE24A"/>
<path d="M259.505 63.5515C262.968 63.5515 265.793 60.7273 265.793 57.2636C265.793 53.7998 262.969 50.9756 259.505 50.9756C256.042 50.9756 253.218 53.8007 253.218 57.2636C253.218 60.7264 256.042 63.5515 259.505 63.5515Z" fill="#FFE24A"/>
<path d="M266.024 78.2349C269.487 78.2349 272.312 75.4107 272.312 71.9479C272.312 68.4842 269.488 65.6599 266.024 65.6599C262.561 65.6599 259.736 68.4842 259.736 71.9479C259.736 75.4116 262.561 78.2349 266.024 78.2349Z" fill="#FFE24A"/>
<path d="M272.397 91.3453C275.229 91.3453 277.538 89.0365 277.538 86.204C277.538 83.3725 275.229 81.0627 272.397 81.0627C269.566 81.0627 267.256 83.3725 267.256 86.204C267.256 89.0365 269.566 91.3453 272.397 91.3453Z" fill="#FFE24A"/>
<path d="M232.643 81.0244C230.369 81.0244 228.524 82.8689 228.524 85.1431C228.524 85.186 228.525 85.228 228.526 85.2708C230.197 86.163 231.559 87.5587 232.408 89.2545C232.485 89.2591 232.564 89.2618 232.642 89.2618C234.916 89.2618 236.761 87.4173 236.761 85.1431C236.761 82.8689 234.918 81.0244 232.643 81.0244Z" fill="#FFE24A"/>
<path d="M232.643 65.0413C232.51 65.0413 232.379 65.0476 232.248 65.0604C231.663 66.3777 230.761 67.5252 229.641 68.4046C231.175 69.6106 232.299 71.3165 232.764 73.2778C234.983 73.213 236.762 71.3949 236.762 69.1609C236.763 66.8858 234.918 65.0413 232.643 65.0413Z" fill="#FFE24A"/>
<path d="M186.134 123.582C174.177 126.039 162.633 129.684 151.66 134.476C145.226 137.284 149.068 146.868 154.071 144.603C164.727 139.779 176.011 136.141 187.747 133.704C211.433 128.785 237.021 128.785 260.706 133.704C272.442 136.14 283.726 139.779 294.382 144.603C299.385 146.868 303.228 137.284 296.793 134.476C285.821 129.684 274.277 126.039 262.32 123.582C237.539 118.489 210.916 118.489 186.134 123.582Z" fill="#FFE24A"/>
<path d="M224.227 137.677L235.932 142.355L224.227 147.033L212.523 142.355L224.227 137.677Z" fill="black"/>
<path d="M234.737 142.355L224.227 138.155L213.717 142.355L224.227 146.555L234.737 142.355Z" fill="#143C8B"/>
<path d="M245.531 142.092C244.612 143.775 245.489 145.657 246.889 146.717C247.804 147.41 248.892 147.744 250.034 147.997L263.656 151.007C265.052 151.315 266.521 151.447 267.949 150.795C270.267 149.735 270.827 147.26 269.17 145.318C268.18 144.158 266.819 143.606 265.38 143.33L251.593 140.279C249.497 139.817 246.702 139.946 245.531 142.092Z" fill="black"/>
<path d="M251.557 140.74L265.31 143.769C266.613 144.056 267.883 144.493 268.833 145.605C270.296 147.32 269.811 149.455 267.765 150.391C266.479 150.979 265.054 150.894 263.756 150.607L250.11 147.586C249.105 147.374 248.107 147.049 247.273 146.45C246.01 145.544 245.102 143.901 245.887 142.369C246.94 140.314 249.636 140.316 251.557 140.74Z" fill="#EC1D24"/>
<path d="M156.304 465.468C153.41 462.79 150.41 459.981 147.309 457.1C144.104 454.119 140.778 451.028 137.344 447.824C137.659 447.74 137.979 447.665 138.293 447.577C145.055 453.232 150.256 456.972 154.239 459.254C158.181 461.517 161.097 462.429 163.071 462.231C167.094 461.833 164.5 457.294 160.492 453.187C158.034 450.682 155.606 448.697 153.115 447.363C151.409 446.475 148.656 445.196 145.422 444.065C143.527 443.35 141.657 442.645 139.791 441.941C137.08 440.879 134.61 439.818 132.33 438.707C130.053 437.602 127.931 436.425 125.889 435.126C122.064 432.77 117.756 429.297 113.038 424.893C107.622 419.838 102.303 414.024 98.6572 408.751C94.7364 403.08 92.6921 397.992 94.6489 395.372C95.6633 393.998 98.0223 393.676 100.165 393.636C102.365 393.587 104.345 393.874 104.498 393.685C105.23 392.822 103.689 390.729 100.755 387.157C101.096 386.69 101.445 386.234 101.79 385.763C107.185 391.482 112.351 396.954 117.279 402.157C121.972 407.133 126.494 411.91 130.804 416.468C130.41 416.722 130.023 416.969 129.626 417.213C123.126 411.383 116.364 406.176 110.766 402.802C105.098 399.379 100.85 397.98 99.3943 399.697C97.4941 401.939 101.731 408.477 107.954 414.464C111.813 418.165 114.819 420.58 117.091 421.8C119.357 423.016 123.456 424.696 128.937 426.671C131.329 427.524 133.756 428.388 136.199 429.271C139.166 430.198 142.219 431.602 145.155 433.458C150.835 436.812 155.959 441.047 160.781 446.191C164.992 450.69 168.278 455.368 169.322 458.9C170.299 462.18 169.34 464.456 165.381 464.769C163.709 464.893 161.333 464.427 158.58 463.568C158.193 463.454 157.813 463.34 157.436 463.226C156.864 463.063 156.303 462.895 156.075 462.924C155.269 462.999 155.888 463.817 157.325 465.385C156.987 465.414 156.642 465.444 156.304 465.468Z" fill="#143C8B"/>
<path d="M178.391 332.616C182.623 329.449 186.811 326.128 191.092 322.698C204.683 311.807 219.383 302.236 235.05 294.599C235.965 294.153 236.883 293.716 237.805 293.288C221.25 277.549 205.334 259.51 197.356 237.945C195.045 231.697 194.016 226.42 194.83 220.253C180.317 222.799 160.688 227.567 147.646 237.528C132.987 248.724 133.166 265.207 139.325 281.892C147.191 303.198 162.054 318.09 178.391 332.616Z" fill="#E6A514"/>
<path d="M92.6274 276.859C90.6041 286.142 89.5276 295.778 89.5276 305.667C89.5276 325.496 93.816 344.324 101.513 361.279C106.657 361.312 111.915 360.907 117.283 360.035C128.11 358.279 138.26 355.154 147.861 350.966C157.164 346.907 165.314 341.968 173.134 336.446C156.713 321.628 143.125 307.052 134.427 285.395C129.589 273.346 127.084 260.504 130.675 249.797C115.853 256.28 103.549 265.404 92.6274 276.859Z" fill="#E6A514"/>
<path d="M230.354 171.111C228.322 171.02 226.28 170.966 224.227 170.966C164.099 170.966 113.167 210.387 95.8539 264.785C107.729 253.993 121.34 245.228 136.621 239.823C150.638 223.27 175.596 217.072 196.248 213.648C197.778 209.019 200.567 203.409 204.162 198.342C208.699 191.948 213.645 185.949 219.309 180.45C222.716 177.144 226.376 174.024 230.354 171.111Z" fill="#E6A514"/>
<path d="M291.634 189.032C286.348 185.97 280.831 183.259 275.12 180.928C266.787 184.041 259.563 188.686 253.065 194.283C247.113 199.409 241.731 205.368 236.646 211.699C245.585 217.274 254.243 223.282 262.686 229.621L267.183 223.314C263.997 220.422 260.947 218.306 257.728 216.247C256.281 215.104 255.846 212.533 256.989 211.086C258.131 209.639 260.703 209.298 262.149 210.441C265.032 213.618 268.07 215.779 271.159 217.739L277.127 209.371C274.96 207.508 272.604 205.977 270.161 204.611C268.751 203.638 268.397 201.704 269.37 200.293C270.345 198.883 272.278 198.528 273.688 199.502C275.758 201.488 278.005 203.234 280.424 204.749L285.077 198.224C283.766 197.102 282.366 196.245 280.852 195.699C279.435 194.74 279.065 192.812 280.024 191.396C280.984 189.979 282.911 189.608 284.328 190.568C285.5 191.885 286.828 192.919 288.215 193.823L291.634 189.032Z" fill="#E6A514"/>
<path d="M312.377 203.822C307.57 199.659 302.464 195.831 297.097 192.373L293.184 197.86C294.543 199.137 296.067 200.194 297.636 201.207C298.877 202.389 298.927 204.355 297.745 205.596C296.564 206.839 294.599 206.888 293.356 205.706C292.406 204.319 291.306 203.167 290.084 202.206L285.492 208.645C287.32 210.261 289.221 211.812 291.315 213.195C292.605 214.331 292.73 216.297 291.595 217.586C290.46 218.876 288.493 219.001 287.203 217.867C285.637 215.898 283.956 214.448 282.238 213.207L276.119 221.785C278.874 224.379 281.82 226.669 285.056 229.03C286.437 230.253 286.472 233.215 285.249 234.596C284.027 235.978 281.444 235.634 280.062 234.412C277.61 231.609 275.13 229.325 272.239 227.224L267.768 233.493C275.5 239.472 283.109 245.751 290.637 252.234C296.313 246.014 301.045 239.689 304.655 232.442C308.643 224.442 311.292 215.274 312.377 203.822Z" fill="#E6A514"/>
<path d="M334.584 228.434C329.725 221.504 324.229 215.055 318.183 209.168C316.784 219.332 314.132 227.779 310.387 235.294C305.501 245.098 298.572 253.204 291.089 261.077C281.023 252.332 270.81 243.783 260.174 235.734C249.55 227.695 238.567 220.303 227.187 213.387C233.826 204.855 240.659 196.537 248.886 189.452C254.208 184.869 259.993 180.869 266.423 177.72C258.127 174.984 249.476 173.033 240.556 171.955C234.226 175.848 228.705 180.234 223.764 185.03C218.4 190.238 213.695 195.947 209.368 202.046C204.87 208.383 202.319 214.063 201.431 219.525C200.56 224.887 201.295 230.153 203.363 235.743C211.297 257.192 227.642 275.02 244.156 290.493C260.854 283.565 278.453 279.553 296.612 279.268C304.089 272.946 311.176 265.854 317.596 257.541C324.02 249.222 329.776 239.672 334.584 228.434Z" fill="#E6A514"/>
<path d="M358.927 305.666C358.927 279.649 351.541 255.355 338.759 234.76C334.084 244.898 328.645 253.681 322.651 261.444C316.673 269.185 310.141 275.91 303.262 281.956C317.994 300.181 336.145 315.361 356.256 327.34L357.11 327.848C358.305 320.632 358.927 313.222 358.927 305.666Z" fill="#E6A514"/>
<path d="M290.216 163.337L281.321 152.338L294.943 150.654L301.052 160.936L290.216 163.337ZM158.241 163.337L167.135 152.338L153.514 150.654L147.405 160.936L158.241 163.337Z" fill="#143C8B"/>
<path d="M219.087 91.8105C218.683 93.3841 218.339 93.4078 216.803 93.8028C214.514 94.3921 212.823 96.471 212.823 98.9423C212.823 102.634 217.671 105.37 221.068 104.302C210.504 116.035 192.211 116.375 178.856 109.306C181.579 108.487 183.182 105.647 182.452 102.876C181.823 100.485 179.657 98.9058 177.295 98.9194C175.707 98.9295 175.369 98.9943 174.577 97.5757C171.944 92.8604 164.607 94.7934 164.638 100.196C164.649 101.819 164.322 101.929 162.936 102.703C160.872 103.856 159.767 106.297 160.396 108.688C161.074 111.258 163.523 112.89 166.087 112.614C165.244 113.851 164.329 115.003 163.368 116.068C158.622 121.959 152.333 125.739 144.654 125.919C140.803 126.321 143.028 125.018 141.43 123.019C140.424 121.762 138.252 121.929 137.202 123.064C135.304 125.117 133.763 125.582 130.279 124.735C126.904 123.919 125.653 129.09 129.027 129.907C143.155 133.34 157.773 131.962 167.31 119.633C169.381 117.34 171.266 114.706 172.781 111.757C187.899 121.16 210.555 121.69 224.228 108.766C237.901 121.69 260.557 121.159 275.675 111.757C277.19 114.706 279.075 117.341 281.146 119.633C290.683 131.963 305.301 133.34 319.429 129.907C322.804 129.09 321.551 123.919 318.177 124.735C314.692 125.582 313.152 125.117 311.254 123.064C310.203 121.929 308.031 121.761 307.026 123.019C305.428 125.017 307.653 126.321 303.801 125.919C296.122 125.738 289.832 121.958 285.088 116.068C284.126 115.003 283.211 113.851 282.369 112.614C284.933 112.89 287.382 111.258 288.06 108.688C288.689 106.297 287.584 103.856 285.519 102.703C284.134 101.93 283.808 101.819 283.819 100.196C283.849 94.7944 276.512 92.8604 273.879 97.5757C273.088 98.9943 272.75 98.9295 271.162 98.9194C268.8 98.9058 266.634 100.485 266.004 102.876C265.274 105.647 266.878 108.486 269.6 109.306C256.245 116.376 237.951 116.035 227.389 104.302C230.786 105.37 235.633 102.634 235.633 98.9423C235.633 96.471 233.942 94.3911 231.653 93.8028C230.116 93.4078 229.772 93.3841 229.369 91.8105C228.026 86.598 220.428 86.598 219.087 91.8105Z" fill="#FFE24A"/>
<path d="M224.076 100.917C225.645 100.917 226.926 99.6365 226.926 98.0666C226.926 96.4976 225.645 95.2168 224.076 95.2168C222.507 95.2168 221.226 96.4976 221.226 98.0666C221.227 99.6375 222.507 100.917 224.076 100.917Z" fill="black"/>
<path d="M171.202 107.786C172.776 107.786 174.052 106.51 174.052 104.936C174.052 103.362 172.776 102.086 171.202 102.086C169.628 102.086 168.352 103.362 168.352 104.936C168.352 106.51 169.628 107.786 171.202 107.786Z" fill="black"/>
<path d="M277.252 107.786C278.826 107.786 280.102 106.51 280.102 104.936C280.102 103.362 278.826 102.086 277.252 102.086C275.678 102.086 274.402 103.362 274.402 104.936C274.402 106.51 275.678 107.786 277.252 107.786Z" fill="black"/>
</svg>
