<svg width="512" height="421" viewBox="0 0 512 421" fill="none" xmlns="http://www.w3.org/2000/svg">
<g clip-path="url(#clip0_2003_6541)">
<path d="M322.373 166.174C305.187 149.505 281.77 139.225 255.994 139.225C230.221 139.225 206.806 149.505 189.623 166.174H0L256 420.324L512 166.174H322.373Z" fill="#DE9500"/>
<path d="M255.994 148.124C303.685 148.124 342.499 186.926 342.499 234.627C342.499 282.326 303.685 321.122 255.994 321.122C208.302 321.122 169.501 282.325 169.501 234.627C169.501 186.925 208.302 148.124 255.994 148.124Z" fill="white"/>
<path d="M216.041 217.849H223.192V207.001H216.041V193.942H236.997V229.674H216.041V217.849ZM216.041 264.921H223.192V254.085H216.041V242.494H236.997V277.263H216.041V264.921ZM274.712 277.263H249.326V242.494H254.267V246.201H261.411V242.494H271.522C274.317 242.494 274.711 247.479 274.711 247.479V277.263H274.712ZM274.712 222.378L274.673 224.008C274.673 224.008 274.047 229.593 270.41 229.675H261.412V224.998H254.268V229.675H249.327V193.943H274.712L274.712 222.378ZM305.943 265.914C305.299 267.785 301.968 277.164 298.387 277.164C298.203 277.164 298.091 277.235 297.97 277.263H285.8V246.941H285.73C285.565 244.927 284.705 242.764 284.577 242.494H297.193C298.188 242.592 306.448 245.822 306.484 256.057H298.387V265.914H305.943ZM306.503 217.605V217.618C306.503 217.618 302.066 229.662 298.179 229.662L297.915 229.674H284.142C284.343 229.279 285.8 226.51 285.8 224.007V193.941H297.56C297.77 194.011 306.503 197.092 306.503 207.736H298.387V217.605H306.503V217.605ZM325.512 207.737H318.165C318.165 207.658 316.639 188.246 302.072 181.863H286.396V181.476C286.396 165.759 274.875 162.531 266.481 162.531C258.094 162.531 254.191 166.043 254.191 166.043V177.376C254.191 177.376 254.39 173.384 265.246 173.384C277.34 173.384 274.965 181.856 274.965 181.856V181.862H249.326V174.947C249.326 163.222 243.394 160.147 236.46 160.147L231.579 160.162V172.736H234.529C236.496 172.736 236.909 174.203 236.997 175.218V181.861H197.558V193.94H206.198V206.998H197.558V217.846H206.198V229.671H197.558V242.492H206.198V254.082H197.558V264.918H206.198V277.261H197.558V288.109H236.385V291.184C236.385 293.281 234.529 293.028 234.529 293.028H230.609V305.603H238.474C241.708 305.603 249.082 302.256 249.082 294.007V289.581L249.094 288.108H274.797C274.797 293.846 271.792 296.571 263.908 296.571C256.028 296.571 253.812 292.768 253.812 292.768V304.198C256.152 306.805 265.781 307.546 265.781 307.546C285.35 307.546 285.927 291.183 285.853 288.108H303.298C303.298 288.108 315.681 282.889 317.32 265.91H325.511V256.053H317.86C317.843 255.337 317.465 239.535 309.129 235.014C309.129 235.014 317.141 230.482 317.213 217.615L317.156 217.602H325.512V207.737Z" fill="#00954C"/>
<path d="M57.656 175.072V210.874L93.7185 246.676V175.072H57.656Z" fill="#00954C"/>
<path d="M57.656 210.874V175.072H21.5935L57.656 210.874Z" fill="white"/>
<path d="M160.603 234.627C160.603 223.721 162.458 213.244 165.844 203.475V175.072H129.781V282.478L165.844 318.279V265.815C162.452 256.038 160.603 245.545 160.603 234.627Z" fill="#00954C"/>
<path d="M129.781 175.072H93.7185V246.676L129.781 282.478V175.072Z" fill="white"/>
<path d="M201.906 313.158V354.082L237.969 389.884V328.304C224.789 325.772 212.565 320.523 201.906 313.158Z" fill="#00954C"/>
<path d="M165.844 265.815V318.28L201.906 354.082V313.158C185.342 301.714 172.559 285.172 165.844 265.815Z" fill="white"/>
<path d="M181.53 175.072H165.844V203.475C169.447 193.082 174.784 183.492 181.53 175.072Z" fill="white"/>
<path d="M274.031 328.302V389.883L310.094 354.081V313.154C299.435 320.519 287.211 325.77 274.031 328.302Z" fill="#00954C"/>
<path d="M255.994 330.02C249.832 330.02 243.808 329.426 237.969 328.305V389.884L256 407.785L274.031 389.884V328.302C268.189 329.424 262.159 330.02 255.994 330.02Z" fill="white"/>
<path d="M346.156 175.072V203.477C349.542 213.244 351.397 223.721 351.397 234.627C351.397 245.544 349.548 256.036 346.156 265.814V318.28L382.219 282.478V175.072H346.156Z" fill="#00954C"/>
<path d="M310.094 313.154V354.081L346.156 318.279V265.813C339.441 285.169 326.658 301.709 310.094 313.154Z" fill="white"/>
<path d="M330.467 175.072C337.214 183.493 342.552 193.083 346.156 203.477V175.072H330.467Z" fill="white"/>
<path d="M418.281 246.675L454.344 210.874V175.072H418.281V246.675Z" fill="#00954C"/>
<path d="M418.281 175.072H382.219V282.478L418.281 246.675V175.072Z" fill="white"/>
<path d="M490.407 175.072H454.344V210.874L490.407 175.072Z" fill="white"/>
<path d="M244.61 93.0185C244.61 88.9044 246.83 85.315 250.126 83.352V58.0686C229.719 58.9551 211.233 64.5193 197.05 73.1952C198.476 78.9683 202.107 84.4936 207.622 89.2916C209.009 88.6719 210.542 88.3209 212.164 88.3209C218.383 88.3209 223.42 93.3613 223.42 99.5822C223.42 104.036 220.823 107.876 217.069 109.7L217.129 109.844C218.186 111.971 220.008 113.564 222.263 114.322C224.514 115.077 226.926 114.911 229.059 113.856C231.191 112.797 232.777 110.972 233.533 108.718C233.647 108.391 233.729 108.056 233.799 107.715C232.04 106.941 231.122 104.948 231.743 103.088C232.406 101.11 234.553 100.052 236.526 100.717C238.498 101.378 239.56 103.518 238.899 105.496C238.653 106.215 238.215 106.809 237.659 107.246C238.704 109.222 240.463 110.789 242.647 111.518C244.901 112.275 247.31 112.113 249.443 111.052C251.576 109.994 253.158 108.175 253.917 105.918C254.117 105.339 254.224 104.747 254.297 104.152C248.829 103.381 244.61 98.703 244.61 93.0185Z" fill="#D7013E"/>
<path d="M212.163 110.834C205.944 110.834 200.905 105.797 200.905 99.5822C200.905 99.3904 200.923 99.1995 200.94 99.0096C194.408 93.5865 189.678 87.2616 187.04 80.4554C177.434 88.7117 171.071 98.7337 169.251 109.677C170.25 109.384 171.297 109.222 172.396 109.222C178.607 109.222 183.646 114.259 183.646 120.476C183.646 123.383 182.533 126.032 180.718 128.031C182.317 129.567 184.48 130.51 186.867 130.51C191.772 130.51 195.766 126.519 195.766 121.614C195.766 121.263 195.736 120.924 195.693 120.583C193.781 120.4 192.278 118.81 192.278 116.845C192.278 114.761 193.965 113.073 196.047 113.073C198.134 113.073 199.819 114.761 199.819 116.845C199.819 117.603 199.594 118.309 199.207 118.9C200.83 120.442 202.995 121.362 205.296 121.362C210.207 121.362 214.196 117.373 214.196 112.467C214.196 111.855 214.118 111.259 213.996 110.672C213.394 110.77 212.792 110.834 212.163 110.834Z" fill="#D7013E"/>
<path d="M267.39 93.0185C267.39 88.9044 265.17 85.315 261.874 83.352V58.0686C282.281 58.9551 300.767 64.5193 314.95 73.1952C313.524 78.9683 309.893 84.4936 304.378 89.2916C302.991 88.6719 301.458 88.3209 299.836 88.3209C293.617 88.3209 288.58 93.3613 288.58 99.5822C288.58 104.036 291.177 107.876 294.931 109.7L294.871 109.844C293.814 111.971 291.992 113.564 289.737 114.322C287.486 115.077 285.074 114.911 282.941 113.856C280.808 112.797 279.223 110.972 278.467 108.718C278.353 108.391 278.271 108.056 278.201 107.715C279.96 106.941 280.878 104.948 280.257 103.088C279.594 101.11 277.447 100.052 275.474 100.717C273.502 101.378 272.44 103.518 273.101 105.496C273.347 106.215 273.785 106.809 274.341 107.246C273.296 109.222 271.537 110.789 269.353 111.518C267.099 112.275 264.69 112.113 262.557 111.052C260.424 109.994 258.842 108.175 258.083 105.918C257.882 105.339 257.776 104.747 257.703 104.152C263.171 103.381 267.39 98.703 267.39 93.0185Z" fill="#D7013E"/>
<path d="M299.837 110.834C306.056 110.834 311.095 105.797 311.095 99.5822C311.095 99.3904 311.077 99.1995 311.06 99.0096C317.592 93.5865 322.322 87.2616 324.96 80.4554C334.566 88.7117 340.929 98.7337 342.749 109.677C341.75 109.384 340.703 109.222 339.604 109.222C333.393 109.222 328.354 114.259 328.354 120.476C328.354 123.383 329.467 126.032 331.282 128.031C329.683 129.567 327.52 130.51 325.133 130.51C320.228 130.51 316.234 126.519 316.234 121.614C316.234 121.263 316.264 120.924 316.307 120.583C318.219 120.4 319.722 118.81 319.722 116.845C319.722 114.761 318.035 113.073 315.953 113.073C313.866 113.073 312.181 114.761 312.181 116.845C312.181 117.603 312.406 118.309 312.793 118.9C311.17 120.442 309.005 121.362 306.704 121.362C301.793 121.362 297.804 117.373 297.804 112.467C297.804 111.855 297.882 111.259 298.004 110.672C298.605 110.77 299.208 110.834 299.837 110.834Z" fill="#D7013E"/>
<path d="M367.588 88.4946C367.588 77.8249 362.954 67.5822 354.533 59.6661C345.505 51.1548 333.345 46.4237 319.906 46.0583C309.544 31.6354 289.154 21.2073 265.033 19.0652C265.007 14.9511 262.281 11.4838 258.531 10.3413V8.62349L263.023 8.61716L263.019 3.47454L258.517 3.48088L258.515 0L256 0.00271378L253.485 0L253.483 3.48088L248.981 3.47454L248.977 8.61716L253.469 8.62349V10.3413C249.719 11.4838 246.993 14.9511 246.967 19.0652C222.846 21.2073 202.456 31.6354 192.094 46.0583C178.656 46.4237 166.495 51.1548 157.467 59.6661C149.046 67.5822 144.412 77.8249 144.412 88.4946C144.412 100.103 150.47 111.109 161.319 119.702C161.302 119.957 161.279 120.214 161.279 120.476C161.279 126.686 166.321 131.727 172.54 131.727C173.777 131.727 174.967 131.522 176.083 131.152C177.003 132.968 180.031 137.576 187.149 137.714C186.708 138.029 186.255 138.331 185.813 138.656C184.637 139.549 182.912 142.017 184.816 144.994C185.701 146.366 186.998 147.089 188.572 147.089C189.123 147.089 189.637 146.994 190.071 146.88L195.837 154.765L196.987 153.925C214.223 141.297 234.625 134.615 255.998 134.615C277.372 134.615 297.774 141.297 315.009 153.925L316.159 154.765L321.925 146.88C322.359 146.994 322.874 147.089 323.425 147.089C324.999 147.089 326.295 146.365 327.181 144.994C329.085 142.017 327.36 139.549 326.184 138.656C325.742 138.33 325.289 138.028 324.848 137.714C331.965 137.576 334.995 132.968 335.914 131.152C337.03 131.522 338.219 131.727 339.456 131.727C345.675 131.727 350.717 126.685 350.717 120.476C350.717 120.214 350.695 119.957 350.678 119.702C361.53 111.109 367.588 100.103 367.588 88.4946ZM205.442 121.358C203.138 121.358 200.974 120.438 199.351 118.894C199.738 118.305 199.967 117.601 199.967 116.842C199.967 114.759 198.278 113.071 196.191 113.071C194.11 113.071 192.422 114.759 192.422 116.842C192.422 118.808 193.925 120.398 195.839 120.581C195.88 120.921 195.91 121.261 195.91 121.613C195.91 126.518 191.918 130.508 187.011 130.508C184.624 130.508 182.461 129.564 180.864 128.028C182.677 126.032 183.792 123.38 183.792 120.476C183.792 114.258 178.751 109.221 172.54 109.221C171.441 109.221 170.395 109.382 169.398 109.677C168.927 109.816 168.467 109.971 168.022 110.167C160.32 103.892 156.033 96.2786 156.033 88.4937C156.033 81.0615 159.37 73.823 165.428 68.1277C170.948 62.9299 178.074 59.5774 186.091 58.2766C185.222 61.3179 184.757 64.4595 184.757 67.6754C184.757 72.0509 185.591 76.3387 187.187 80.4537C189.823 87.2607 194.554 93.5838 201.085 99.006C201.067 99.1968 201.05 99.3868 201.05 99.5795C201.05 105.796 206.092 110.832 212.308 110.832C212.935 110.832 213.539 110.767 214.142 110.67C214.258 111.254 214.339 111.852 214.339 112.462C214.34 117.369 210.351 121.358 205.442 121.358ZM254.061 105.918C253.302 108.174 251.72 109.994 249.589 111.052C247.458 112.11 245.043 112.273 242.793 111.516C240.607 110.786 238.849 109.221 237.805 107.244C238.359 106.809 238.798 106.215 239.043 105.495C239.703 103.516 238.642 101.376 236.67 100.717C234.694 100.052 232.55 101.111 231.885 103.087C231.266 104.948 232.184 106.938 233.944 107.715C233.875 108.056 233.789 108.391 233.677 108.718C232.921 110.97 231.333 112.797 229.203 113.856C227.071 114.911 224.659 115.077 222.407 114.32C220.154 113.561 218.33 111.97 217.273 109.845L217.213 109.697C220.967 107.875 223.564 104.035 223.564 99.5804C223.564 93.3613 218.527 88.3191 212.308 88.3191C210.686 88.3191 209.154 88.6728 207.764 89.2915C202.252 84.4936 198.622 78.9683 197.195 73.1952C196.746 71.3742 196.511 69.5334 196.511 67.6763C196.511 48.7069 220.574 32.5002 250.268 30.5825V83.3502C246.975 85.3149 244.755 88.9035 244.755 93.0185C244.755 98.7029 248.971 103.381 254.44 104.152C254.366 104.747 254.259 105.337 254.061 105.918ZM294.727 109.845C293.669 111.97 291.845 113.561 289.592 114.32C287.342 115.077 284.929 114.911 282.796 113.856C280.667 112.797 279.078 110.971 278.323 108.718C278.211 108.391 278.125 108.056 278.055 107.715C279.815 106.939 280.733 104.948 280.115 103.087C279.449 101.11 277.305 100.052 275.329 100.717C273.357 101.376 272.295 103.516 272.957 105.495C273.202 106.215 273.641 106.809 274.194 107.244C273.151 109.222 271.393 110.787 269.206 111.516C266.957 112.273 264.542 112.111 262.41 111.052C260.28 109.994 258.698 108.173 257.939 105.918C257.741 105.337 257.633 104.747 257.559 104.152C263.027 103.381 267.243 98.7029 267.243 93.0185C267.243 88.9044 265.023 85.3149 261.731 83.3502V30.5825C291.424 32.5011 315.487 48.7069 315.487 67.6763C315.487 69.5334 315.252 71.3742 314.803 73.1952C313.378 78.9683 309.746 84.4936 304.234 89.2915C302.844 88.6719 301.312 88.3191 299.69 88.3191C293.471 88.3191 288.434 93.3613 288.434 99.5804C288.434 104.035 291.031 107.875 294.785 109.697L294.727 109.845ZM343.977 110.168C343.533 109.971 343.073 109.817 342.601 109.677C341.604 109.383 340.558 109.222 339.459 109.222C333.248 109.222 328.207 114.259 328.207 120.476C328.207 123.381 329.322 126.033 331.136 128.029C329.538 129.565 327.375 130.508 324.988 130.508C320.081 130.508 316.09 126.519 316.09 121.614C316.09 121.263 316.119 120.922 316.16 120.582C318.074 120.399 319.578 118.809 319.578 116.843C319.578 114.76 317.889 113.072 315.808 113.072C313.721 113.072 312.032 114.76 312.032 116.843C312.032 117.602 312.261 118.306 312.648 118.895C311.026 120.438 308.86 121.358 306.557 121.358C301.649 121.358 297.659 117.369 297.659 112.464C297.659 111.853 297.74 111.255 297.857 110.672C298.459 110.767 299.063 110.834 299.69 110.834C305.906 110.834 310.949 105.798 310.949 99.5813C310.949 99.3886 310.931 99.1986 310.913 99.0078C317.445 93.5856 322.176 87.2625 324.812 80.4555C326.407 76.3405 327.241 72.0527 327.241 67.6772C327.241 64.4622 326.776 61.3206 325.907 58.2784C333.924 59.5793 341.05 62.9317 346.571 68.1295C352.629 73.8248 355.965 81.0633 355.965 88.4955C355.966 96.2795 351.679 103.893 343.977 110.168Z" fill="#DE9500"/>
</g>
<defs>
<clipPath id="clip0_2003_6541">
<rect width="512" height="420.324" fill="white"/>
</clipPath>
</defs>
</svg>
