<svg width="381" height="512" viewBox="0 0 381 512" fill="none" xmlns="http://www.w3.org/2000/svg">
<g clip-path="url(#clip0_2003_6565)">
<path d="M265.668 148.442C263.442 148.442 261.704 146.704 261.704 144.598C261.704 142.491 263.442 140.753 265.668 140.753C267.894 140.753 269.632 142.491 269.632 144.598C269.751 146.704 267.894 148.442 265.668 148.442ZM29.1152 328.122C29.1152 242.252 101.725 172.487 190.452 172.487C279.178 172.487 351.788 242.371 351.788 328.122C351.788 413.741 279.178 483.875 190.452 483.875C101.737 483.756 29.1152 413.741 29.1152 328.122ZM253.765 90.4498C257.61 91.4378 259.955 95.1635 258.967 98.8773C257.979 102.591 254.015 104.829 250.17 103.829C246.325 102.829 243.98 99.1154 244.968 95.4016C245.956 91.6878 249.92 89.45 253.765 90.4498ZM260.335 76.8206C262.561 76.8206 264.299 78.5585 264.299 80.6654C264.299 82.7723 262.561 84.5101 260.335 84.5101C258.109 84.5101 256.372 82.7723 256.372 80.6654C256.253 78.4395 258.109 76.8206 260.335 76.8206ZM256.991 62.9415C259.217 62.9415 260.954 64.6794 260.954 66.7862C260.954 68.8931 259.217 70.631 256.991 70.631C254.765 70.631 253.027 68.8931 253.027 66.7862C252.908 64.6794 254.765 62.9415 256.991 62.9415ZM306.556 99.3773C308.782 99.3773 310.519 101.115 310.519 103.222C310.519 105.329 308.782 107.067 306.556 107.067C304.33 107.067 302.592 105.329 302.592 103.222C302.592 101.115 304.33 99.3773 306.556 99.3773ZM303.211 85.629C305.437 85.629 307.175 87.3669 307.175 89.4738C307.175 91.5807 305.437 93.3185 303.211 93.3185C300.985 93.3185 299.247 91.5807 299.247 89.4738C299.247 87.3669 300.985 85.629 303.211 85.629ZM297.259 73.4877C299.485 73.4877 301.223 75.2256 301.223 77.3325C301.223 79.4394 299.366 81.1772 297.259 81.1772C295.033 81.1772 293.295 79.4394 293.295 77.3325C293.176 75.2256 295.033 73.4877 297.259 73.4877ZM287.713 62.7034C289.939 62.7034 291.677 64.4413 291.677 66.5482C291.677 68.655 289.939 70.3929 287.713 70.3929C285.487 70.3929 283.749 68.655 283.749 66.5482C283.749 64.4413 285.487 62.7034 287.713 62.7034ZM276.06 54.5259C278.285 54.5259 280.023 56.2638 280.023 58.3706C280.023 60.4775 278.285 62.2154 276.06 62.2154C273.834 62.2154 272.096 60.4775 272.096 58.3706C272.096 56.2638 273.834 54.5259 276.06 54.5259ZM263.418 49.6932C265.644 49.6932 267.382 51.4311 267.382 53.5379C267.382 55.6448 265.644 57.3827 263.418 57.3827C261.192 57.3827 259.455 55.6448 259.455 53.5379C259.455 51.4311 261.311 49.6932 263.418 49.6932ZM250.658 50.8121C252.884 50.8121 254.622 52.55 254.622 54.6568C254.622 56.7637 252.884 58.5016 250.658 58.5016C248.432 58.5016 246.694 56.7637 246.694 54.6568C246.694 52.55 248.432 50.8121 250.658 50.8121ZM241.243 40.2777C243.469 40.2777 245.206 42.0156 245.206 44.1225C245.206 46.2294 243.349 47.9672 241.243 47.9672C239.017 47.9672 237.279 46.2294 237.279 44.1225C237.279 42.0156 239.017 40.2777 241.243 40.2777ZM228.97 32.4692C231.196 32.4692 232.934 34.2071 232.934 36.314C232.934 38.4208 231.196 40.1587 228.97 40.1587C226.745 40.1587 225.007 38.4208 225.007 36.314C225.007 34.2071 226.745 32.4692 228.97 32.4692ZM216.21 27.8865C218.436 27.8865 220.174 29.6244 220.174 31.7312C220.174 33.8381 218.436 35.576 216.21 35.576C213.984 35.576 212.246 33.8381 212.246 31.7312C212.246 29.6244 213.984 27.8865 216.21 27.8865ZM203.2 25.6606C205.426 25.6606 207.164 27.3985 207.164 29.5053C207.164 31.6122 205.426 33.3501 203.2 33.3501C200.974 33.3501 199.236 31.6122 199.236 29.5053C199.117 27.3985 200.974 25.6606 203.2 25.6606ZM79.4302 127.386C77.7604 128.27 75.8148 128.481 73.9944 127.974C72.174 127.466 70.6175 126.28 69.6457 124.66C69.1872 123.861 68.8967 122.977 68.7921 122.062C68.6875 121.147 68.771 120.22 69.0374 119.338C69.3037 118.457 69.7475 117.639 70.3413 116.935C70.9351 116.231 71.6665 115.656 72.4906 115.244C74.1604 114.36 76.106 114.149 77.9263 114.656C79.7467 115.163 81.3032 116.349 82.275 117.97C84.1319 121.315 82.894 125.529 79.4302 127.386ZM130.733 103.841C126.888 104.829 122.925 102.603 121.937 98.8892C120.949 95.1754 123.305 91.3307 127.138 90.4617C130.983 89.4738 134.947 91.6997 135.935 95.4135C136.923 99.1273 134.566 102.972 130.733 103.841ZM190.452 96.5324C189.524 96.5497 188.601 96.3839 187.737 96.0444C186.874 95.7048 186.085 95.1983 185.418 94.5537C184.75 93.9091 184.216 93.1392 183.846 92.2879C183.476 91.4367 183.277 90.5208 183.262 89.5928C183.262 85.7481 186.488 82.6532 190.452 82.6532C194.415 82.6532 197.641 85.7481 197.641 89.5928C197.641 93.4376 194.415 96.5324 190.452 96.5324ZM120.687 84.5101C118.461 84.5101 116.723 82.7723 116.723 80.6654C116.723 78.5585 118.461 76.8206 120.687 76.8206C122.913 76.8206 124.651 78.5585 124.651 80.6654C124.651 82.7723 122.794 84.5101 120.687 84.5101ZM124.032 70.631C121.806 70.631 120.068 68.8931 120.068 66.7862C120.068 64.6794 121.806 62.9415 124.032 62.9415C126.257 62.9415 127.995 64.6794 127.995 66.7862C127.995 68.8931 126.138 70.631 124.032 70.631ZM74.3475 107.186C72.1216 107.186 70.3837 105.448 70.3837 103.341C70.3837 101.234 72.1216 99.4963 74.3475 99.4963C76.5734 99.4963 78.3113 101.234 78.3113 103.341C78.4303 105.448 76.5734 107.186 74.3475 107.186ZM77.6923 93.3066C75.4664 93.3066 73.7285 91.5687 73.7285 89.4619C73.7285 87.355 75.5854 85.6171 77.6923 85.6171C79.9182 85.6171 81.6561 87.355 81.6561 89.4619C81.7751 91.5687 79.9182 93.3066 77.6923 93.3066ZM83.6439 81.1653C81.418 81.1653 79.6801 79.4275 79.6801 77.3206C79.6801 75.2137 81.418 73.4758 83.6439 73.4758C85.8698 73.4758 87.6077 75.2137 87.6077 77.3206C87.7267 79.4275 85.8698 81.1653 83.6439 81.1653ZM93.1903 70.381C90.9644 70.381 89.2265 68.6431 89.2265 66.5363C89.2265 64.4294 90.9644 62.6915 93.1903 62.6915C95.4162 62.6915 97.1541 64.4294 97.1541 66.5363C97.1541 68.6431 95.4162 70.381 93.1903 70.381ZM104.844 62.2035C102.618 62.2035 100.88 60.4656 100.88 58.3587C100.88 56.2519 102.618 54.514 104.844 54.514C107.069 54.514 108.807 56.2519 108.807 58.3587C108.926 60.4656 107.069 62.2035 104.844 62.2035ZM117.485 57.4898C115.259 57.4898 113.521 55.7519 113.521 53.6451C113.521 51.5382 115.259 49.8003 117.485 49.8003C119.711 49.8003 121.449 51.5382 121.449 53.6451C121.449 55.7519 119.711 57.4898 117.485 57.4898ZM130.245 58.4778C128.019 58.4778 126.281 56.7399 126.281 54.633C126.281 52.5262 128.019 50.7883 130.245 50.7883C132.471 50.7883 134.209 52.5262 134.209 54.633C134.328 56.7399 132.471 58.4778 130.245 58.4778ZM139.66 48.0744C137.435 48.0744 135.697 46.3365 135.697 44.2296C135.697 42.1227 137.554 40.3849 139.66 40.3849C141.886 40.3849 143.624 42.1227 143.624 44.2296C143.624 46.3365 141.886 48.0744 139.66 48.0744ZM151.933 40.1468C149.707 40.1468 147.969 38.4089 147.969 36.3021C147.969 34.1952 149.707 32.4573 151.933 32.4573C154.159 32.4573 155.896 34.1952 155.896 36.3021C155.896 38.4089 154.159 40.1468 151.933 40.1468ZM164.693 35.5641C162.467 35.5641 160.729 33.8262 160.729 31.7193C160.729 29.6125 162.586 27.8746 164.693 27.8746C166.919 27.8746 168.657 29.6125 168.657 31.7193C168.657 33.8262 166.919 35.5641 164.693 35.5641ZM190.452 73.4758C188.226 73.4758 186.488 71.738 186.488 69.6311C186.488 67.5242 188.345 65.7864 190.452 65.7864C192.677 65.7864 194.415 67.5242 194.415 69.6311C194.415 71.738 192.677 73.4758 190.452 73.4758ZM190.452 59.4776C188.226 59.4776 186.488 57.7398 186.488 55.6329C186.488 53.526 188.345 51.7882 190.452 51.7882C192.677 51.7882 194.415 53.526 194.415 55.6329C194.415 57.7398 192.677 59.4776 190.452 59.4776ZM190.452 45.4795C188.226 45.4795 186.488 43.7416 186.488 41.6347C186.488 39.5278 188.345 37.79 190.452 37.79C192.677 37.79 194.415 39.5278 194.415 41.6347C194.415 43.7416 192.677 45.4795 190.452 45.4795ZM177.81 33.3382C175.584 33.3382 173.716 31.6003 173.716 29.4934C173.716 27.3866 175.573 25.6487 177.81 25.6487C180.048 25.6487 181.774 27.3866 181.774 29.4934C181.774 31.7193 179.917 33.3382 177.81 33.3382ZM308.413 115.232C311.876 117.089 313.126 121.303 311.257 124.648C309.389 127.993 304.937 129.231 301.473 127.374C300.661 126.95 299.941 126.368 299.357 125.662C298.773 124.957 298.335 124.141 298.07 123.264C297.805 122.387 297.718 121.466 297.814 120.555C297.91 119.644 298.186 118.761 298.628 117.958C299.6 116.338 301.156 115.151 302.977 114.644C304.797 114.137 306.743 114.348 308.413 115.232ZM216.103 135.551C213.877 135.551 212.139 133.813 212.139 131.706C212.139 129.6 213.877 127.862 216.103 127.862C218.329 127.862 220.067 129.6 220.067 131.706C220.186 133.813 218.329 135.551 216.103 135.551ZM115.235 148.442C113.009 148.442 111.271 146.704 111.271 144.598C111.271 142.491 113.128 140.753 115.235 140.753C117.461 140.753 119.199 142.491 119.199 144.598C119.199 146.704 117.461 148.442 115.235 148.442ZM164.8 135.551C162.574 135.551 160.836 133.813 160.836 131.706C160.836 129.6 162.693 127.862 164.8 127.862C167.026 127.862 168.764 129.6 168.764 131.706C168.764 133.813 167.026 135.551 164.8 135.551Z" fill="white"/>
<path d="M220.186 107.674C221.305 110.031 222.543 111.769 224.15 113.245L213.127 111.876C215.195 110.773 217.011 109.253 218.46 107.412C219.028 107.562 219.611 107.646 220.198 107.662L220.186 107.674ZM160.705 107.674C161.331 107.655 161.954 107.571 162.562 107.424C163.931 109.281 165.788 110.769 167.764 111.888L156.742 113.256C158.48 111.649 159.837 109.793 160.705 107.686V107.674ZM139.268 116.47L129.602 118.827C131.34 116.72 132.447 114.113 132.697 111.388C134.419 113.613 136.681 115.362 139.268 116.47ZM102.463 128.124C103.389 126.62 104.098 124.993 104.57 123.291L105.07 123.172C105.996 122.951 106.878 122.572 107.677 122.053C109.204 123.043 110.874 123.794 112.628 124.279L102.463 128.124ZM190.452 104.329C191.44 106.936 193.296 109.162 195.534 110.9C193.796 110.9 192.189 110.781 190.452 110.781L185.369 110.9C187.726 109.162 189.464 106.936 190.452 104.329ZM273.227 121.922C273.965 122.422 274.965 122.791 275.833 123.041L276.333 123.16C276.702 124.898 277.452 126.505 278.44 127.993L268.156 124.029C269.971 123.663 271.685 122.947 273.227 121.922ZM251.289 118.827L241.624 116.47C244.191 115.391 246.417 113.635 248.063 111.388C248.429 114.118 249.546 116.694 251.289 118.827ZM263.799 88.5929C266.525 87.474 268.513 85.1291 269.132 82.2723C273.465 83.2603 278.297 84.3792 282.261 85.9861C285.457 87.1762 288.431 88.8943 291.058 91.0688C293.165 96.4015 294.402 102.591 295.152 110.15C292.546 111.269 290.82 113.863 289.82 116.47C288.213 120.434 288.213 124.529 292.665 127.624C291.674 127.7 290.678 127.566 289.743 127.229C288.808 126.893 287.955 126.361 287.241 125.67C286.526 124.98 285.966 124.145 285.598 123.222C285.23 122.299 285.063 121.308 285.106 120.315C285.959 119.347 286.593 118.206 286.963 116.97C288.201 112.257 285.356 107.555 280.523 106.436C275.691 105.198 270.858 108.043 269.62 112.626C269.501 113.125 269.37 113.614 269.37 114.113C265.275 118.946 257.098 116.47 256.729 110.15C264.287 111.638 267.513 107.924 268.751 102.96C269.87 98.8654 269.37 94.6636 264.537 92.1758C264.287 90.8069 264.168 89.5809 263.799 88.5929ZM136.054 71.4999C150.433 63.8223 169.133 62.4535 183.631 64.5603V65.5483C182.579 67.1248 182.173 69.0451 182.496 70.9125C182.82 72.7799 183.848 74.4518 185.369 75.5827C182.643 76.4516 180.536 78.4276 179.798 81.9033C174.347 83.1413 172.859 87.105 172.859 91.3188C172.859 96.4015 174.966 100.734 182.643 101.103C181.774 103.948 179.048 105.936 175.823 105.936C174.355 105.948 172.92 105.5 171.72 104.654C170.52 103.809 169.616 102.608 169.133 101.222C169.383 100.484 169.383 99.7344 169.383 98.9964C169.383 94.1637 165.288 90.3189 160.336 90.3189C155.385 90.3189 151.29 94.1637 151.29 98.9964C151.261 100.441 151.649 101.862 152.409 103.091C152.298 104.572 151.723 105.979 150.765 107.114C149.808 108.249 148.517 109.053 147.076 109.412C145.615 109.787 144.072 109.69 142.669 109.134C141.266 108.578 140.075 107.591 139.268 106.317C146.576 104.091 147.564 99.3773 146.207 94.4255C145.088 90.3308 142.613 86.867 137.042 86.986C136.228 85.2396 134.824 83.8361 133.078 83.0222C133.816 79.0585 134.685 75.0947 136.054 71.4999ZM197.141 64.4413C211.639 62.3344 230.47 63.7033 244.718 71.3809C246.116 75.1416 247.071 79.0524 247.563 83.0341C245.818 83.8497 244.415 85.2527 243.6 86.9979C238.029 86.8789 235.541 90.3427 234.553 94.4374C233.184 99.3892 234.184 104.103 241.493 106.329C239.886 108.805 236.779 110.173 233.684 109.424C232.237 109.076 230.94 108.276 229.98 107.139C229.021 106.002 228.45 104.587 228.351 103.103C229.093 101.867 229.48 100.45 229.47 99.0083C229.47 94.1755 225.507 90.3308 220.424 90.3308C215.472 90.3308 211.377 94.1755 211.377 99.0083C211.396 99.7561 211.48 100.501 211.627 101.234C211.13 102.611 210.221 103.801 209.025 104.644C207.828 105.487 206.402 105.942 204.938 105.948C203.437 105.961 201.971 105.501 200.747 104.634C199.522 103.766 198.602 102.535 198.117 101.115C205.795 100.746 207.902 96.4015 207.902 91.3307C207.902 86.9979 206.414 83.1532 200.962 81.9152C200.657 80.4711 199.983 79.1305 199.007 78.0231C198.031 76.9158 196.786 76.0792 195.391 75.5946C197.129 74.2257 198.367 71.9998 198.367 69.643C198.367 68.1551 197.867 66.6672 197.129 65.5483L197.141 64.4413ZM98.7611 85.998C102.725 84.5101 107.558 83.2722 111.89 82.2842C112.509 85.1291 114.497 87.4859 117.223 88.6048C116.798 89.7072 116.627 90.8912 116.723 92.0687C111.771 94.5446 111.39 98.7583 112.509 102.853C113.878 107.805 116.973 111.53 124.532 110.043C124.282 116.363 115.985 118.839 111.89 114.006C111.89 113.506 111.771 113.018 111.64 112.518C110.402 107.805 105.451 105.079 100.618 106.329C95.7853 107.579 92.9404 112.28 94.1783 116.863C94.5473 118.101 95.1663 119.339 96.0352 120.208C96.1543 122.815 94.7973 125.291 92.3214 126.648C91.1233 127.228 89.8079 127.525 88.4767 127.516C92.9404 124.541 92.9404 120.458 91.3215 116.363C90.2026 113.887 88.5957 111.28 85.8699 110.173C86.4888 102.615 87.7268 96.4253 89.8336 91.0926C92.0595 89.3547 94.9163 87.3669 98.7611 85.998ZM203.343 130.361L190.452 134.944L177.691 130.361L190.452 125.767L203.343 130.361ZM106.808 147.204L105.689 151.537L105.32 153.144L104.451 152.644L100.118 150.287L101.237 146.193L101.487 145.324L102.975 145.824L106.808 147.204ZM274.084 147.204L279.416 145.217L279.666 146.086L280.785 150.299L276.571 152.525L275.703 153.025L275.334 151.418L274.084 147.204Z" fill="#E62644"/>
<path d="M251.289 118.827C249.551 116.72 248.444 114.113 248.194 111.388C246.587 113.614 244.23 115.351 241.754 116.47L251.289 118.827ZM273.227 121.922C271.739 122.91 270.001 123.66 268.275 124.148L278.559 128.112C277.579 126.637 276.866 125.001 276.452 123.279L275.952 123.16C274.965 122.91 274.096 122.422 273.227 121.922ZM190.452 104.329C189.464 106.936 187.726 109.162 185.369 110.9L190.452 110.781L195.534 110.9C193.273 109.213 191.516 106.941 190.452 104.329ZM102.475 128.124L112.759 124.16C111.021 123.66 109.295 122.922 107.808 121.934C107.069 122.434 106.07 122.803 105.201 123.053L104.701 123.172C104.082 124.91 103.463 126.636 102.475 128.124ZM139.28 116.47C136.712 115.391 134.486 113.635 132.84 111.388C132.471 114.113 131.471 116.72 129.745 118.827L139.28 116.47ZM160.717 107.674C159.848 109.781 158.491 111.638 156.754 113.245L167.776 111.876C165.723 110.806 163.943 109.279 162.574 107.412C161.955 107.531 161.336 107.674 160.717 107.674ZM220.198 107.674C219.611 107.661 219.027 107.577 218.46 107.424C217.091 109.281 215.234 110.769 213.127 111.888L224.15 113.256C222.56 111.773 221.257 110.01 220.305 108.055L220.198 107.674ZM308.424 115.232C306.755 114.345 304.809 114.133 302.988 114.64C301.166 115.147 299.61 116.335 298.64 117.958C296.783 121.303 298.021 125.517 301.485 127.374C303.155 128.258 305.1 128.469 306.921 127.962C308.741 127.455 310.298 126.268 311.269 124.648C311.742 123.853 312.044 122.968 312.156 122.049C312.268 121.131 312.188 120.199 311.92 119.314C311.653 118.428 311.204 117.608 310.602 116.905C310 116.202 309.259 115.633 308.424 115.232ZM253.777 90.4499C249.932 89.4619 245.968 91.6878 244.98 95.4016C243.992 99.1154 246.349 102.96 250.182 103.829C254.027 104.817 257.99 102.591 258.978 98.8773C259.966 95.1635 257.61 91.3188 253.777 90.4499ZM260.347 76.8207C258.121 76.8207 256.384 78.5585 256.384 80.6654C256.384 82.7723 258.24 84.5102 260.347 84.5102C262.573 84.5102 264.311 82.7723 264.311 80.6654C264.316 80.1489 264.217 79.6367 264.018 79.16C263.819 78.6833 263.525 78.252 263.154 77.8924C262.784 77.5328 262.344 77.2523 261.861 77.0681C261.378 76.8838 260.863 76.7997 260.347 76.8207ZM257.003 62.9415C254.777 62.9415 253.039 64.6794 253.039 66.7862C253.039 68.8931 254.896 70.631 257.003 70.631C259.228 70.631 260.966 68.8931 260.966 66.7862C260.966 64.6794 259.228 62.9415 257.003 62.9415ZM306.568 99.3773C304.342 99.3773 302.604 101.115 302.604 103.222C302.604 105.329 304.342 107.067 306.568 107.067C308.793 107.067 310.531 105.329 310.531 103.222C310.531 101.115 308.793 99.3773 306.568 99.3773ZM303.223 85.6291C300.997 85.6291 299.259 87.3669 299.259 89.4738C299.259 91.5807 300.997 93.3185 303.223 93.3185C305.449 93.3185 307.187 91.5807 307.187 89.4738C307.187 87.3669 305.449 85.6291 303.223 85.6291ZM297.271 73.4878C295.045 73.4878 293.307 75.2256 293.307 77.3325C293.307 79.4394 295.164 81.1773 297.271 81.1773C299.497 81.1773 301.235 79.4394 301.235 77.3325C301.235 75.2256 299.497 73.4878 297.271 73.4878ZM287.725 62.7034C285.499 62.7034 283.761 64.4413 283.761 66.5482C283.761 68.6551 285.499 70.3929 287.725 70.3929C289.951 70.3929 291.689 68.6551 291.689 66.5482C291.689 64.4413 289.951 62.7034 287.725 62.7034ZM276.072 54.5259C273.846 54.5259 272.108 56.2638 272.108 58.3707C272.108 60.4775 273.846 62.2154 276.072 62.2154C278.297 62.2154 280.035 60.4775 280.035 58.3707C280.035 56.2638 278.297 54.5259 276.072 54.5259ZM263.43 49.6932C261.204 49.6932 259.467 51.4311 259.467 53.538C259.467 55.6448 261.204 57.3827 263.43 57.3827C265.656 57.3827 267.394 55.6448 267.394 53.538C267.513 51.4311 265.656 49.6932 263.43 49.6932ZM250.67 50.8121C248.444 50.8121 246.706 52.55 246.706 54.6569C246.706 56.7637 248.444 58.5016 250.67 58.5016C252.896 58.5016 254.634 56.7637 254.634 54.6569C254.634 52.55 252.896 50.8121 250.67 50.8121ZM241.255 40.2778C239.029 40.2778 237.291 42.0156 237.291 44.1225C237.291 46.2294 239.029 47.9672 241.255 47.9672C243.48 47.9672 245.218 46.2294 245.218 44.1225C245.337 42.0156 243.48 40.2778 241.255 40.2778ZM228.982 32.4692C226.756 32.4692 225.019 34.2071 225.019 36.314C225.019 38.4209 226.756 40.1587 228.982 40.1587C231.208 40.1587 232.946 38.4209 232.946 36.314C232.946 34.2071 231.208 32.4692 228.982 32.4692ZM216.222 27.8865C213.996 27.8865 212.258 29.6244 212.258 31.7313C212.258 33.8381 213.996 35.576 216.222 35.576C218.448 35.576 220.186 33.8381 220.186 31.7313C220.305 29.6244 218.448 27.8865 216.222 27.8865ZM203.212 25.6606C200.986 25.6606 199.248 27.3985 199.248 29.5053C199.248 31.6122 200.986 33.3501 203.212 33.3501C205.438 33.3501 207.176 31.6122 207.176 29.5053C207.176 27.3985 205.438 25.6606 203.212 25.6606ZM79.4302 127.386C82.894 125.529 84.1439 121.315 82.2751 117.97C81.3115 116.341 79.755 115.147 77.9313 114.639C76.1075 114.131 74.158 114.348 72.4906 115.244C69.0268 117.101 67.7769 121.315 69.6458 124.66C71.5146 128.005 75.9664 129.242 79.4302 127.386ZM130.733 103.841C134.578 102.853 136.923 99.1273 135.935 95.4135C134.947 91.6997 130.983 89.4619 127.138 90.4618C123.294 91.4616 120.949 95.1754 121.937 98.8893C122.474 100.694 123.692 102.22 125.334 103.144C126.975 104.068 128.911 104.318 130.733 103.841ZM190.452 96.5324C194.415 96.5324 197.641 93.4376 197.641 89.5928C197.626 88.6648 197.427 87.749 197.057 86.8977C196.688 86.0465 196.153 85.2765 195.486 84.6319C194.818 83.9873 194.029 83.4808 193.166 83.1413C192.302 82.8017 191.38 82.6359 190.452 82.6532C189.524 82.6359 188.601 82.8017 187.738 83.1413C186.874 83.4808 186.085 83.9873 185.418 84.6319C184.75 85.2765 184.216 86.0465 183.846 86.8977C183.476 87.749 183.278 88.6648 183.262 89.5928C183.262 93.4376 186.488 96.5324 190.452 96.5324ZM120.687 84.5102C122.913 84.5102 124.651 82.7723 124.651 80.6654C124.651 78.5585 122.913 76.8207 120.687 76.8207C118.461 76.8207 116.723 78.5585 116.723 80.6654C116.604 82.7723 118.461 84.5102 120.687 84.5102ZM124.032 70.631C126.257 70.631 127.995 68.8931 127.995 66.7862C127.995 64.6794 126.257 62.9415 124.032 62.9415C121.806 62.9415 120.068 64.6794 120.068 66.7862C119.949 68.8931 121.806 70.631 124.032 70.631ZM74.3475 107.186C76.5734 107.186 78.3113 105.448 78.3113 103.341C78.3113 101.234 76.5734 99.4963 74.3475 99.4963C72.1216 99.4963 70.3838 101.234 70.3838 103.341C70.3838 105.448 72.1216 107.186 74.3475 107.186ZM77.6923 93.3066C79.9182 93.3066 81.6561 91.5688 81.6561 89.4619C81.6252 88.4314 81.1939 87.4535 80.4539 86.7357C79.7139 86.0179 78.7233 85.6167 77.6923 85.6171C75.4664 85.6171 73.7286 87.355 73.7286 89.4619C73.7286 91.5688 75.4664 93.3066 77.6923 93.3066ZM83.644 81.1653C85.8699 81.1653 87.6077 79.4275 87.6077 77.3206C87.6077 75.2137 85.8699 73.4759 83.644 73.4759C81.418 73.4759 79.6802 75.2137 79.6802 77.3206C79.6802 79.4275 81.5371 81.1653 83.644 81.1653ZM93.1903 70.381C95.4162 70.381 97.1541 68.6432 97.1541 66.5363C97.1541 64.4294 95.4162 62.6915 93.1903 62.6915C90.9644 62.6915 89.2266 64.4294 89.2266 66.5363C89.2266 68.6432 90.9644 70.381 93.1903 70.381ZM104.844 62.2035C107.069 62.2035 108.807 60.4656 108.807 58.3588C108.807 56.2519 107.069 54.514 104.844 54.514C102.618 54.514 100.88 56.2519 100.88 58.3588C100.88 60.4656 102.737 62.2035 104.844 62.2035ZM117.485 57.4898C119.711 57.4898 121.449 55.752 121.449 53.6451C121.449 51.5382 119.711 49.8003 117.485 49.8003C115.259 49.8003 113.521 51.5382 113.521 53.6451C113.521 55.752 115.259 57.4898 117.485 57.4898ZM130.245 58.4778C132.471 58.4778 134.209 56.7399 134.209 54.6331C134.209 52.5262 132.471 50.7883 130.245 50.7883C128.019 50.7883 126.281 52.5262 126.281 54.6331C126.281 56.7399 128.019 58.4778 130.245 58.4778ZM139.661 48.0744C141.886 48.0744 143.624 46.3365 143.624 44.2296C143.624 42.1228 141.886 40.3849 139.661 40.3849C137.435 40.3849 135.697 42.1228 135.697 44.2296C135.697 46.3365 137.435 48.0744 139.661 48.0744ZM151.933 40.1468C154.159 40.1468 155.897 38.409 155.897 36.3021C155.897 34.1952 154.159 32.4573 151.933 32.4573C149.707 32.4573 147.969 34.1952 147.969 36.3021C147.969 38.409 149.707 40.1468 151.933 40.1468ZM164.693 35.5641C166.919 35.5641 168.657 33.8262 168.657 31.7193C168.657 29.6125 166.919 27.8746 164.693 27.8746C162.467 27.8746 160.729 29.6125 160.729 31.7193C160.729 33.8262 162.467 35.5641 164.693 35.5641ZM190.452 73.4759C192.678 73.4759 194.415 71.738 194.415 69.6311C194.415 67.5242 192.678 65.7864 190.452 65.7864C188.226 65.7864 186.488 67.5242 186.488 69.6311C186.488 71.738 188.226 73.4759 190.452 73.4759ZM190.452 59.4777C192.678 59.4777 194.415 57.7398 194.415 55.6329C194.415 53.5261 192.678 51.7882 190.452 51.7882C188.226 51.7882 186.488 53.5261 186.488 55.6329C186.488 57.7398 188.226 59.4777 190.452 59.4777ZM190.452 45.4795C192.678 45.4795 194.415 43.7416 194.415 41.6347C194.415 39.5279 192.678 37.79 190.452 37.79C188.226 37.79 186.488 39.5279 186.488 41.6347C186.488 43.7416 188.226 45.4795 190.452 45.4795ZM177.81 33.3382C180.036 33.3382 181.774 31.6003 181.774 29.4934C181.743 28.463 181.312 27.4851 180.572 26.7673C179.832 26.0495 178.841 25.6482 177.81 25.6487C175.584 25.6487 173.716 27.3866 173.716 29.4934C173.716 31.7193 175.573 33.3382 177.81 33.3382ZM287.844 128.135C291.189 129.873 293.795 129.123 297.009 128.016C291.677 125.41 288.832 123.065 291.308 116.994C292.427 114.268 293.784 112.161 296.759 111.292C294.902 87.6288 288.082 76.3445 265.787 65.5721L264.18 66.0721C264.18 66.322 264.299 66.572 264.299 66.941C264.299 70.1668 262.442 71.7737 259.966 73.5116C263.93 74.2496 267.525 76.1184 267.525 80.7011C267.525 84.5459 264.799 86.6527 261.335 87.6407C262.454 89.7476 262.704 90.6165 262.454 93.0924C267.037 95.1992 268.025 97.9251 266.787 102.508C265.049 108.947 261.085 109.566 254.765 107.96C254.424 109.927 254.764 111.952 255.727 113.702C256.69 115.451 258.22 116.82 260.065 117.585C261.91 118.349 263.96 118.463 265.878 117.908C267.796 117.353 269.468 116.162 270.62 114.53C270.62 113.911 270.739 113.411 270.87 112.792C271.858 109.078 275.822 106.722 279.797 107.71C283.773 108.698 286.118 112.542 284.999 116.256C284.63 117.494 284.011 118.482 283.142 119.351C283.023 123.065 284.63 126.41 287.856 128.147L287.844 128.135ZM184.25 41.5157C184.25 41.0158 184.369 40.5277 184.369 39.9088C155.254 37.8019 134.304 57.0137 131.459 84.0221C134.066 85.0101 135.054 86.129 136.173 88.6049C141.256 88.3549 143.481 90.3427 144.719 94.7945C146.457 101.115 143.231 103.591 136.911 105.198C138.768 109.293 142.613 112.138 147.564 110.9C149.44 110.471 151.114 109.416 152.309 107.907C153.504 106.399 154.148 104.527 154.135 102.603C153.397 101.506 153.007 100.212 153.016 98.8893C153.016 95.0445 156.242 91.8306 160.325 91.8306C164.288 91.8306 167.633 94.9255 167.633 98.8893C167.631 99.6463 167.506 100.398 167.264 101.115C167.788 102.966 168.911 104.591 170.458 105.735C172.005 106.879 173.887 107.477 175.811 107.436C180.893 107.436 183.869 103.841 184.607 99.3773C178.167 99.3773 174.442 97.7703 174.442 91.1998C174.442 86.4861 176.18 84.1412 181.131 83.1413C182.25 77.3206 185.345 76.9516 190.297 76.2017C195.38 77.0706 198.355 77.3206 199.462 83.1413C204.414 84.1292 206.152 86.4861 206.152 91.1998C206.152 97.7703 202.438 99.3773 195.987 99.3773C196.725 103.841 199.7 107.436 204.783 107.436C206.697 107.438 208.561 106.824 210.1 105.686C211.638 104.548 212.771 102.946 213.33 101.115C213.087 100.398 212.963 99.6463 212.961 98.8893C212.961 95.0445 216.186 91.8306 220.269 91.8306C224.352 91.8306 227.578 94.9255 227.578 98.8893C227.588 100.212 227.198 101.507 226.459 102.603C226.578 106.567 229.066 109.912 233.029 110.9C237.981 112.138 241.826 109.293 243.683 105.198C237.362 103.591 234.267 101.103 235.874 94.7945C237.112 90.3308 239.338 88.3549 244.421 88.6049C245.659 86.129 246.528 85.0101 249.135 84.0221C246.29 57.0137 225.471 37.8019 196.225 39.9088C196.33 40.4375 196.37 40.9772 196.344 41.5157C196.344 42.8846 195.844 43.9916 195.106 45.1105V51.931C195.844 53.0499 196.344 54.1569 196.344 55.5258C196.344 56.8947 195.844 58.0017 195.106 59.1206L195.225 66.1792C195.844 67.1672 196.344 68.2861 196.344 69.524C196.344 73.6187 193.249 74.7257 190.154 76.0946C187.059 74.7257 183.964 73.4878 183.964 69.524C183.964 68.1551 184.464 67.0481 185.202 65.9292V59.2396C184.429 58.1975 183.997 56.942 183.964 55.6448C183.964 54.276 184.464 53.169 185.202 52.0501V45.1105C184.559 44.0213 184.218 42.7805 184.214 41.5157H184.25ZM89.5837 116.97C91.9405 123.041 89.2147 125.398 83.882 127.993C87.1078 129.112 89.7027 129.85 93.0475 128.112C94.5856 127.326 95.8415 126.081 96.6411 124.55C97.4408 123.019 97.7449 121.277 97.5112 119.565C96.6387 118.709 95.9996 117.643 95.6543 116.47C95.2395 114.614 95.5645 112.67 96.5602 111.05C97.5559 109.43 99.1438 108.261 100.987 107.793C102.048 107.513 103.159 107.477 104.236 107.685C105.314 107.894 106.331 108.342 107.211 108.997C108.092 109.652 108.813 110.498 109.322 111.47C109.832 112.442 110.115 113.517 110.152 114.613C115.723 121.672 127.007 117.958 126.008 108.043C119.687 109.531 115.723 108.912 113.985 102.591C112.747 98.1275 113.735 95.2826 118.318 93.1757C118.045 91.2836 118.441 89.3557 119.437 87.724C115.973 86.7361 113.247 84.6292 113.247 80.7844C113.247 76.0708 116.842 74.3448 120.806 73.5949C118.449 71.738 116.592 70.2501 116.592 67.0243C116.592 66.7743 116.592 66.4053 114.985 65.9054C92.3095 76.6897 85.9889 87.5931 84.0129 111.507C87.1078 112.245 88.4767 114.244 89.5837 116.97ZM282.392 139.396C254.515 126.755 223.281 119.565 190.452 119.565C157.622 119.565 126.519 126.624 98.6301 139.265C96.7732 140.134 94.6663 139.265 93.7974 137.527C92.9285 135.67 93.7974 134.301 94.6663 132.813C88.9647 134.551 84.7509 134.551 79.7992 130.826C70.6337 136.777 60.0994 124.505 67.0389 118.934C63.8132 114.84 63.8132 110.388 68.5269 107.412C67.6347 106.188 67.1552 104.713 67.158 103.198C67.158 98.6155 70.7528 96.7586 74.7165 96.0087C72.3597 94.2708 70.5028 92.6639 70.5028 89.4381C70.5028 84.7244 74.3475 82.7485 78.4303 82.3795C77.3114 80.6416 76.4425 79.4037 76.4425 77.2968C76.4425 73.4521 79.6683 70.3572 83.7511 70.3572C84.989 70.3572 86.2269 70.7262 87.3458 71.0952C86.6078 69.4883 85.977 68.2503 85.977 66.5125C85.977 62.6677 89.2028 59.5729 93.2856 59.5729C95.2734 59.5729 96.3804 60.3109 98.1183 61.0608C97.8323 60.1782 97.6642 59.2616 97.6183 58.335C97.6183 54.4902 100.844 51.2763 104.927 51.2763C107.153 51.2763 108.391 52.1453 110.129 53.2642C110.998 49.5504 113.104 46.5746 117.437 46.5746C120.663 46.5746 122.52 48.3124 124.127 50.6693C125.865 48.8124 127.472 47.5744 130.197 47.5744C131.316 47.5744 132.304 47.8244 133.423 48.0744C132.752 46.8561 132.369 45.5 132.304 44.1106C132.304 40.2659 135.53 37.171 139.494 37.171C141.851 37.171 143.089 38.159 144.946 39.2779C144.827 38.409 144.446 37.2901 144.446 36.3021C144.446 32.4573 147.671 29.3625 151.754 29.3625C154.111 29.3625 155.349 30.2314 157.087 31.4694C157.956 27.7556 160.063 24.7798 164.526 24.7798C167.252 24.7798 168.74 25.8987 170.478 27.6246C171.847 24.6488 173.823 22.542 177.537 22.542C178.515 22.5692 179.48 22.7792 180.381 23.1609C182.283 20.8969 184.913 19.3651 187.821 18.8282V11.4005H181.75V6.93683H187.821V1.61609H192.654V6.94873H198.724V11.2815H192.654V18.721C195.551 19.2854 198.173 20.8123 200.093 23.0538C200.995 22.672 201.96 22.4621 202.938 22.4348C206.652 22.4348 208.64 24.6607 209.997 27.5175C211.735 25.7796 213.342 24.6726 215.948 24.6726C220.412 24.6726 222.519 27.7675 223.257 31.3623C224.995 30.1243 226.352 29.2554 228.709 29.2554C232.672 29.2554 236.017 32.3502 236.017 36.195C236.017 37.1829 235.767 38.3018 235.648 39.1708C237.505 38.0519 238.743 37.1829 241.1 37.1829C245.064 37.1829 248.408 40.2778 248.408 44.1225C248.408 45.6104 247.908 46.7293 247.289 48.0863C248.34 47.7893 249.424 47.6214 250.515 47.5863C253.241 47.5863 254.848 48.8243 256.586 50.6812C258.193 48.2053 260.05 46.5865 263.276 46.5865C267.739 46.5865 269.846 49.6813 270.715 53.2761C272.453 52.1572 273.691 51.2882 275.917 51.2882C279.881 51.2882 283.225 54.3831 283.225 58.3469C283.225 59.2158 282.975 60.2038 282.856 61.0727C284.463 60.2038 285.701 59.5848 287.57 59.5848C291.534 59.5848 294.879 62.6796 294.879 66.5244C294.879 68.2622 294.26 69.5002 293.51 70.9881C294.748 70.6191 295.867 70.2501 297.224 70.2501C301.187 70.2501 304.532 73.3449 304.532 77.1897C304.532 79.2965 303.663 80.5345 302.544 82.2723C306.758 82.6413 310.603 84.6292 310.603 89.331C310.603 92.5567 308.746 94.1637 306.389 95.9015C310.353 96.7705 313.948 98.5084 313.948 103.091C313.948 104.829 313.448 105.936 312.579 107.305C317.411 110.281 317.292 114.613 314.067 118.708C318.28 122.053 316.054 127.255 312.579 129.98C308.984 132.706 305.27 133.206 301.306 130.599C296.355 134.313 292.141 134.313 286.439 132.587L287.308 134.325C288.427 137.42 285.57 140.515 282.356 139.408L282.392 139.396ZM108.176 146.455L102.225 144.348L101.725 143.479C101.225 143.729 100.856 143.729 100.487 143.848C98.8801 143.967 98.9991 142.241 99.749 141.86C127.257 129.35 157.861 122.41 190.333 122.41C222.805 122.41 253.408 129.35 280.916 141.86C281.654 142.229 281.785 143.967 280.178 143.848C279.809 143.848 279.44 143.729 278.94 143.479L278.44 144.348L272.489 146.455L274.227 153.025L273.727 154.144C276.821 155.513 274.715 157.739 273.358 157.12C248.075 145.598 219.948 139.277 190.214 139.277C160.479 139.277 132.352 145.598 107.069 157.12C106.451 157.37 105.701 157.12 105.332 156.382C104.963 155.644 105.332 155.144 105.832 154.644C106.082 154.394 106.451 154.275 106.82 154.144L106.32 153.025L108.176 146.455ZM141.018 141.622L153.659 133.075L138.292 131.468L125.65 140.015L141.018 141.622ZM265.668 149.549C268.513 149.549 270.87 147.323 270.87 144.598C270.87 141.872 268.513 139.646 265.668 139.646C262.823 139.646 260.466 141.872 260.466 144.598C260.585 147.323 262.823 149.549 265.668 149.549ZM164.8 136.658C167.645 136.658 170.002 134.432 170.002 131.706C170.002 128.981 167.645 126.755 164.8 126.755C161.955 126.755 159.598 128.981 159.598 131.706C159.598 134.432 161.955 136.658 164.8 136.658ZM115.235 149.549C118.08 149.549 120.437 147.323 120.437 144.598C120.437 141.872 118.211 139.646 115.235 139.646C112.39 139.646 110.033 141.872 110.033 144.598C110.033 147.323 112.39 149.549 115.235 149.549ZM216.103 136.658C218.948 136.658 221.305 134.432 221.305 131.706C221.305 128.981 218.948 126.755 216.103 126.755C215.444 126.744 214.788 126.863 214.175 127.107C213.562 127.35 213.003 127.712 212.531 128.172C212.058 128.633 211.682 129.182 211.422 129.789C211.163 130.395 211.027 131.047 211.02 131.706C211.02 134.432 213.377 136.658 216.103 136.658ZM239.898 141.61L255.265 140.003L242.623 131.456L227.256 133.063L239.898 141.61ZM206.569 130.338L190.452 124.529L174.347 130.349L190.452 136.17L206.569 130.338ZM23.6636 328.122C23.6636 416.717 98.7491 489.208 190.452 489.208C282.273 489.208 357.359 416.717 357.359 328.122C357.359 239.276 282.273 167.035 190.452 167.035C98.6301 167.035 23.6636 239.276 23.6636 328.122ZM375.452 328.122C375.452 426.383 292.427 506.682 190.452 506.682C88.4767 506.682 5.45166 426.383 5.45166 328.122C5.45166 229.741 88.4767 149.442 190.452 149.442C292.427 149.323 375.452 229.61 375.452 328.122ZM166.169 252.155L190.333 275.95L212.889 252.905C204.962 250.917 197.403 249.441 189.095 249.191C181.417 248.822 173.609 250.548 166.169 252.155ZM229.732 235.55L265.168 200.233C311.019 225.635 341.873 273.212 341.873 327.61C341.873 363.046 328.862 395.518 306.925 420.919L290.439 404.933C309.02 382.995 321.173 361.189 321.173 326.253C321.173 288.96 300.973 247.322 268.763 225.766L247.456 246.834C258.359 254.762 267.037 262.69 274.346 273.843L258.11 287.353C251.67 276.45 243.361 268.772 232.708 261.702L190.333 304.827L146.338 261.083C123.544 276.45 110.152 298.375 109.533 325.646C108.795 361.951 133.078 387.102 167.157 398.136V325.277H219.198V340.275H187.357V359.725H218.829V376.83H187.357V401.362C210.651 402.481 235.553 389.471 250.67 373.354L266.287 388.59C246.337 410.897 217.591 422.169 187.476 422.419V444.845H167.276V420.062C121.306 409.04 87.9767 370.128 88.5957 323.658C88.9647 291.817 106.558 265.665 132.09 247.084L110.533 225.528C77.0734 251.917 59.1114 284.139 57.6235 326.015C56.5046 363.069 76.3354 392.804 88.8457 405.314L74.3475 419.562C51.9219 394.28 38.6617 363.058 38.6617 327.491C38.6617 273.462 69.5148 225.885 114.985 200.483L150.921 236.669C163.681 231.955 176.941 229.48 190.571 229.48C203.57 229.674 216.439 232.106 228.613 236.669L229.732 235.55Z" fill="#FCBF00"/>
<path d="M380.903 328.122C380.903 429.359 295.402 512.003 190.452 512.003C85.3699 512.003 0 429.359 0 328.122C0 226.754 85.5009 143.991 190.452 143.991C295.533 143.991 380.903 226.766 380.903 328.122ZM375.452 328.122C375.452 229.741 292.427 149.442 190.452 149.442C88.4767 149.442 5.45168 229.73 5.45168 328.122C5.45168 426.383 88.4767 506.682 190.452 506.682C292.427 506.682 375.452 426.383 375.452 328.122ZM29.1153 328.122C29.1153 413.742 101.725 483.875 190.452 483.875C279.178 483.875 351.788 413.861 351.788 328.122C351.788 242.252 279.178 172.487 190.452 172.487C101.737 172.368 29.1153 242.252 29.1153 328.122ZM23.6636 328.122C23.6636 239.276 98.7492 167.035 190.452 167.035C282.273 167.035 357.359 239.276 357.359 328.122C357.359 416.717 282.273 489.208 190.452 489.208C98.6301 489.089 23.6636 416.717 23.6636 328.122ZM210.021 292.555L300.223 382.388C310.508 366.033 315.709 349.309 315.709 326.134C315.709 285.734 292.165 248.941 269.489 232.586L255.86 246.096C266.139 253.983 274.841 263.735 281.511 274.843L256.479 295.781C250.527 284.377 244.207 276.331 233.434 268.772L210.021 292.555ZM324.387 406.433C308.151 433.072 283.368 454.141 254.003 466.782L239.398 452.403L212.139 425.514C205.824 426.887 199.389 427.633 192.927 427.74V450.296H161.705V424.276C114.866 412.004 82.5251 369.628 83.025 323.658C83.144 315.98 84.2629 308.541 86.1198 301.351L70.7528 286.234C66.17 298.625 63.5632 312.005 63.0752 326.253C62.2063 354.749 75.0975 385.602 96.5352 405.302L73.9786 427.478C47.4582 398.732 32.96 366.391 32.96 327.479C32.96 270.724 65.1821 221.159 115.854 193.901L152.159 230.575C164.181 226.361 177.81 224.254 190.321 224.254C203.831 224.373 216.091 226.73 227.125 230.575L264.049 193.52C315.102 220.909 347.312 270.474 347.312 327.586C347.431 356.582 339.385 382.853 324.387 406.397V406.433ZM161.562 375.83L114.985 329.979C116.104 355.63 132.328 379.913 161.574 390.697L161.562 375.83ZM229.732 235.55L228.494 236.788C216.353 232.112 203.463 229.68 190.452 229.611C176.822 229.611 163.562 232.086 150.802 236.8L114.866 200.614C69.3958 225.897 38.5426 273.474 38.5426 327.503C38.5426 363.189 51.8028 394.292 74.2285 419.574L88.7266 405.326C76.2164 392.816 56.3856 363.069 57.5045 326.027C58.9924 284.139 76.9544 251.929 110.414 225.54L131.971 247.096C106.451 265.677 88.8457 291.829 88.4767 323.67C87.8577 370.14 121.068 409.04 167.157 420.074V444.857H187.357V422.407C217.591 422.157 246.337 410.885 266.168 388.578L250.551 373.342C235.434 389.447 210.651 402.588 187.238 401.35V376.818H218.71V359.713H187.238V340.263H219.079V325.265H167.038V398.124C132.959 387.102 108.557 361.939 109.414 325.634C110.033 298.375 123.413 276.438 146.219 261.071L190.214 304.815L232.589 261.69C243.373 268.748 251.551 276.438 257.991 287.341L274.227 273.831C266.918 262.678 258.24 254.75 247.337 246.823L268.644 225.754C300.866 247.311 321.054 288.948 321.054 326.241C321.054 361.058 308.913 382.996 290.32 404.921L306.806 420.907C329.361 395.057 341.778 361.905 341.754 327.598C341.754 273.2 310.9 225.623 265.049 200.221L229.732 235.55ZM166.169 252.155C173.609 250.548 181.405 248.81 189.095 249.06C197.391 249.31 204.95 250.798 212.889 252.774L190.333 275.819L166.169 252.155ZM177.191 255.381L190.202 268.272L202.343 255.881C198.01 255.012 193.546 254.643 188.833 254.512C185.988 254.393 181.655 254.762 177.191 255.381ZM274.096 147.204L275.214 151.537L275.714 153.025L276.583 152.525L280.797 150.299L279.678 146.086L279.428 145.217L274.096 147.204ZM282.392 139.396C285.618 140.515 288.463 137.289 286.975 134.563L286.106 132.825C291.808 134.563 296.021 134.563 300.973 130.838C304.937 133.444 308.532 132.944 312.245 130.219C315.84 127.493 317.947 122.291 313.733 118.946C316.959 114.852 317.078 110.4 312.245 107.543C313.114 106.174 313.614 105.067 313.614 103.329C313.614 98.7465 310.02 96.8896 306.056 96.1397C308.413 94.2828 310.27 92.7949 310.27 89.5691C310.27 84.8554 306.425 82.8795 302.211 82.5105C303.33 80.7726 304.199 79.6656 304.199 77.4278C304.199 73.5831 300.973 70.4882 296.89 70.4882C295.652 70.4882 294.414 70.8572 293.176 71.2262C293.914 69.6193 294.545 68.5004 294.545 66.7625C294.545 62.9178 291.32 59.8229 287.237 59.8229C285.249 59.8229 284.142 60.4419 282.523 61.3108C282.642 60.4419 282.892 59.4539 282.892 58.585C282.858 56.6802 282.069 54.8669 280.698 53.5435C279.328 52.22 277.488 51.4945 275.583 51.5264C273.358 51.5264 272.12 52.3953 270.382 53.5142C269.513 49.8004 267.406 46.8246 262.942 46.8246C259.716 46.8246 257.86 48.5625 256.253 50.9193C254.515 49.0624 252.908 47.8245 250.182 47.8245C249.063 47.8245 247.956 48.0744 246.956 48.3244C247.575 46.9555 248.075 45.8485 248.075 44.3606C248.075 40.5159 244.849 37.4211 240.767 37.4211C238.41 37.4211 237.172 38.29 235.315 39.4089C235.434 38.54 235.684 37.4211 235.684 36.4331C235.684 32.5883 232.458 29.4935 228.375 29.4935C226.018 29.4935 224.781 30.3624 222.924 31.6004C222.055 27.8866 219.948 24.9108 215.615 24.9108C212.889 24.9108 211.401 26.0297 209.663 27.7556C208.176 24.7798 206.319 22.673 202.605 22.673C201.486 22.673 200.748 22.9229 199.76 23.2919C197.858 21.0279 195.228 19.4961 192.32 18.9592V11.5196H198.391V6.9369H192.32V1.61615H187.488V6.9488H181.417V11.2816H187.488V18.7211C184.393 19.4591 182.405 20.578 180.048 23.0539C179.147 22.6724 178.182 22.4624 177.203 22.4349C173.49 22.4349 171.502 24.6608 170.145 27.5176C168.407 25.7797 166.8 24.6727 164.193 24.6727C159.729 24.6727 157.623 27.7675 156.754 31.3623C155.016 30.1244 153.659 29.2554 151.421 29.2554C147.457 29.2554 144.112 32.3503 144.112 36.195C144.112 37.183 144.362 38.3019 144.612 39.1708C142.755 38.0519 141.387 37.064 139.161 37.064C138.233 37.0466 137.31 37.2124 136.447 37.552C135.583 37.8915 134.794 38.3981 134.127 39.0426C133.459 39.6872 132.925 40.4572 132.555 41.3084C132.185 42.1597 131.987 43.0755 131.971 44.0035C131.971 45.4914 132.471 46.6103 133.09 47.9673C131.971 47.7173 130.983 47.4674 129.864 47.4674C127.138 47.4674 125.531 48.7053 123.794 50.5622C122.187 48.0863 120.33 46.4675 117.104 46.4675C112.64 46.4675 110.533 49.5623 109.795 53.1571C108.426 52.1692 107.07 51.3002 104.844 51.3002C102.939 51.2684 101.099 51.9938 99.7288 53.3173C98.3585 54.6408 97.5695 56.454 97.535 58.3588C97.535 59.2278 97.785 60.2157 97.904 61.0847C96.5116 60.1304 94.8665 59.6124 93.1785 59.5968C89.2147 59.5968 85.8699 62.6916 85.8699 66.5363C85.8699 68.2742 86.4888 69.5122 87.2387 71.0001C86.1198 70.7501 85.0128 70.3811 83.644 70.3811C79.6802 70.3811 76.3354 73.4759 76.3354 77.3207C76.3354 79.4275 77.2043 80.6655 78.3232 82.4033C74.2285 82.7723 70.5147 84.7602 70.5147 89.462C70.5147 92.6877 72.3716 94.2947 74.7284 96.0325C70.7647 96.9015 67.1699 98.6393 67.1699 103.222C67.1699 104.96 67.6698 106.067 68.5388 107.436C63.8251 110.412 63.8251 114.875 67.0509 118.958C60.1113 124.529 70.6456 136.92 79.8111 130.849C84.7629 134.563 88.9766 134.563 94.6783 132.837C93.9403 134.444 92.9404 135.813 93.8093 137.551C94.0061 137.988 94.2888 138.381 94.6406 138.706C94.9924 139.032 95.4061 139.283 95.857 139.445C96.308 139.607 96.7869 139.677 97.2654 139.65C97.7439 139.623 98.212 139.5 98.642 139.289C126.519 126.648 157.623 119.589 190.464 119.589C223.424 119.708 254.527 126.779 282.404 139.42L282.392 139.396ZM106.808 147.204L102.963 145.836L101.475 145.336L101.225 146.205L100.106 150.299L104.32 152.525L105.189 153.025L105.558 151.418L106.808 147.204ZM104.332 153.894L98.7611 150.918L100.13 145.586C98.0231 145.336 97.0351 142.979 98.0231 141.372C96.8804 141.539 95.7143 141.341 94.6906 140.807C93.6669 140.273 92.8378 139.429 92.3214 138.396C91.8215 137.408 91.7025 136.408 91.8215 135.42C89.754 135.836 87.624 135.83 85.5586 135.405C83.4931 134.98 81.5344 134.143 79.7992 132.944C70.0148 138.646 58.4925 125.017 64.8012 118.696C61.9563 114.602 62.6943 109.65 66.2891 106.924C65.6837 105.782 65.3843 104.502 65.4201 103.21C65.4201 99.6154 67.777 96.5206 70.9908 95.1517C69.5575 93.5992 68.7626 91.5631 68.7649 89.4501C68.7649 85.3553 71.7407 82.0105 75.5855 81.0226C74.9801 79.8804 74.6807 78.601 74.7165 77.3088C74.7165 72.4761 78.6803 68.6313 83.644 68.6313H84.5129C84.2042 67.3318 84.1967 65.9789 84.491 64.6761C84.7853 63.3733 85.3736 62.155 86.2109 61.1143C87.0482 60.0737 88.1124 59.2383 89.3221 58.672C90.5318 58.1057 91.8549 57.8235 93.1904 57.847C94.1119 57.8391 95.0299 57.9633 95.9162 58.216C95.9162 53.5023 100.011 49.6695 104.844 49.6695C106.267 49.672 107.67 50.0105 108.938 50.6574C110.176 47.3126 113.521 44.9558 117.366 44.9558C118.688 44.9537 119.995 45.2414 121.193 45.7988C122.392 46.3561 123.455 47.1694 124.305 48.1816C125.966 46.7778 128.083 46.0286 130.257 46.0747H130.876C130.757 45.4557 130.626 44.8368 130.626 44.2178C130.626 39.3851 134.59 35.5403 139.553 35.5403C140.791 35.5403 141.91 35.7903 142.898 36.1593C143.017 31.4456 146.993 27.6128 151.826 27.6128C153.433 27.6128 154.92 27.9818 156.158 28.7317C157.396 25.3869 160.741 23.0301 164.586 23.0301C166.693 23.0301 168.55 23.649 170.038 24.887C171.645 22.5301 174.37 20.9232 177.596 20.9232C178.465 20.9232 179.203 21.0422 179.953 21.2922C181.441 19.8043 183.179 18.6854 185.286 17.8283L186.155 17.4593V12.9956H180.084V5.32996H186.155V-0.00268555H194.451V5.32996H200.522V13.0075H194.451V17.4712L195.32 17.8403C197.345 18.5603 199.172 19.7469 200.653 21.3041C201.391 21.0541 202.141 20.9351 203.01 20.9351C206.235 20.9351 208.961 22.542 210.568 24.8989C212.056 23.78 214.032 23.042 216.02 23.042C219.864 23.042 223.209 25.3988 224.447 28.7436C225.685 28.0056 227.173 27.6247 228.78 27.6247C233.732 27.6247 237.707 31.4694 237.707 36.1712C238.695 35.8022 239.814 35.5522 241.052 35.5522C246.004 35.5522 249.98 39.397 249.98 44.2297C249.98 44.8487 249.98 45.4676 249.73 46.0866H250.349C252.509 46.1217 254.599 46.8615 256.3 48.1935C257.907 46.2056 260.395 44.9677 263.24 44.9677C267.085 44.9677 270.429 47.3245 271.667 50.6693C272.935 50.0224 274.338 49.6839 275.762 49.6814C280.714 49.6814 284.689 53.5261 284.689 58.2279C285.576 57.9756 286.494 57.8513 287.415 57.8589C292.367 57.8589 296.343 61.7036 296.343 66.5363C296.343 67.2743 296.224 68.0242 296.093 68.7623H296.962C301.913 68.7623 305.889 72.607 305.889 77.4397C305.889 78.8086 305.52 80.0465 305.02 81.1535C308.984 82.0224 311.841 85.4863 311.841 89.581C311.832 91.7519 310.988 93.8362 309.484 95.4017C311.149 95.9932 312.591 97.085 313.611 98.5276C314.632 99.9702 315.182 101.693 315.186 103.46C315.186 104.829 314.817 106.067 314.317 107.174C317.911 109.9 318.649 114.852 315.804 118.946C319.768 122.91 316.304 129.231 312.96 131.837C309.734 134.313 305.151 135.801 300.687 133.206C297.224 135.563 292.879 136.551 288.665 135.682C289.165 139.146 285.939 142.122 282.475 141.634C283.463 143.241 282.475 145.598 280.369 145.848L281.737 151.18L276.167 154.156C276.905 155.025 277.036 156.263 276.536 157.382C275.798 158.87 274.06 159.739 272.441 158.989C247.409 147.585 219.531 141.265 189.916 141.265C161.494 141.196 133.39 147.24 107.51 158.989C105.903 159.727 104.165 158.87 103.415 157.382C103.534 156.013 103.665 154.775 104.403 153.918L104.332 153.894ZM108.177 146.455L106.439 153.025L106.939 154.144C106.689 154.263 106.32 154.394 105.951 154.644C105.451 155.013 105.082 155.513 105.451 156.382C105.82 157.12 106.57 157.37 107.189 157.12C132.471 145.598 160.598 139.277 190.333 139.277C220.198 139.277 248.194 145.598 273.477 157.12C274.715 157.739 276.94 155.513 273.846 154.144L274.346 153.025L272.608 146.455L278.559 144.348L279.059 143.479C279.559 143.729 279.928 143.729 280.297 143.848C281.904 143.967 281.785 142.241 281.035 141.86C252.583 128.963 221.69 122.334 190.452 122.422C157.992 122.422 127.376 129.362 99.8681 141.872C99.1301 142.241 98.9991 143.979 100.606 143.86C100.975 143.86 101.344 143.741 101.844 143.491L102.213 144.36L108.177 146.455ZM244.23 69.8811C237.172 52.6572 220.567 40.385 198.51 41.5039C198.51 42.9918 198.01 44.3487 197.272 45.5986V51.4193C198.01 52.6572 198.51 54.0261 198.51 55.514C198.51 57.0019 198.01 58.4898 197.272 59.6087V63.3225C212.389 61.3346 230.232 62.8106 244.23 69.8811ZM197.141 65.5484C198.193 67.1249 198.599 69.0452 198.276 70.9126C197.953 72.78 196.924 74.4519 195.403 75.5828C198.129 76.4517 200.236 78.4277 200.974 81.9034C206.426 83.1413 207.914 87.1051 207.914 91.3189C207.914 96.4015 205.807 100.734 198.129 101.103C198.998 103.948 201.724 105.936 204.95 105.936C206.418 105.948 207.852 105.5 209.052 104.654C210.252 103.809 211.157 102.609 211.639 101.222C211.389 100.484 211.389 99.7345 211.389 98.9965C211.389 94.1637 215.484 90.319 220.436 90.319C225.388 90.319 229.482 94.1637 229.482 98.9965C229.482 100.484 229.113 101.841 228.363 103.091C228.482 106.067 230.589 108.543 233.696 109.412C236.791 110.15 239.886 108.912 241.505 106.317C234.196 104.091 233.208 99.3773 234.565 94.4256C235.684 90.3309 238.16 86.8671 243.611 86.9861C244.599 84.9983 245.968 83.7603 247.575 83.0223C247.075 78.9276 246.206 75.0948 244.73 71.3691C230.351 63.6915 211.651 62.3226 197.153 64.4295L197.141 65.5484ZM184.25 41.5039C184.25 42.8727 184.75 43.9797 185.488 45.0986V51.9192C184.75 53.0381 184.25 54.1451 184.25 55.514C184.25 56.8828 184.75 57.9898 185.488 59.1087V66.0483C184.75 67.1672 184.25 68.2742 184.25 69.6431C184.25 73.7378 187.345 74.8448 190.44 76.2137C193.535 74.8448 196.629 73.6069 196.629 69.6431C196.629 68.4052 196.26 67.1672 195.51 66.2983L195.391 59.2397C196.129 58.1208 196.629 57.0138 196.629 55.6449C196.629 54.276 196.129 53.169 195.391 52.0501V45.1105C196.129 43.9916 196.629 42.8846 196.629 41.5158C196.629 41.0158 196.51 40.5278 196.51 39.9088C225.626 37.802 246.575 57.0138 249.42 84.0222C246.813 85.0102 245.825 86.1291 244.707 88.6049C239.624 88.355 237.398 90.3428 236.16 94.7946C234.422 101.115 237.648 103.591 243.969 105.198C242.112 109.293 238.267 112.138 233.315 110.9C231.44 110.469 229.767 109.413 228.573 107.905C227.379 106.397 226.734 104.527 226.745 102.603C227.483 101.506 227.873 100.212 227.863 98.8893C227.829 96.9845 227.04 95.1713 225.67 93.8478C224.299 92.5243 222.46 91.7989 220.555 91.8307C218.65 91.7989 216.81 92.5243 215.44 93.8478C214.07 95.1713 213.281 96.9845 213.246 98.8893C213.249 99.6463 213.373 100.398 213.615 101.115C213.074 102.956 211.946 104.569 210.403 105.71C208.86 106.851 206.987 107.457 205.069 107.436C199.986 107.436 197.01 103.841 196.272 99.3773C202.712 99.3773 206.438 97.7704 206.438 91.1998C206.438 86.4862 204.7 84.1412 199.748 83.1413C198.629 77.3207 195.534 76.9517 190.583 76.2018C185.5 77.0707 182.524 77.3207 181.417 83.1413C176.465 84.1293 174.727 86.4862 174.727 91.1998C174.727 97.7704 178.441 99.3773 184.893 99.3773C184.155 103.841 181.179 107.436 176.096 107.436C174.182 107.438 172.319 106.824 170.78 105.686C169.241 104.548 168.109 102.946 167.55 101.115C167.792 100.398 167.917 99.6463 167.919 98.8893C167.884 96.9845 167.095 95.1713 165.725 93.8478C164.355 92.5243 162.515 91.7989 160.61 91.8307C156.516 91.8307 153.302 94.9255 153.302 98.8893C153.291 100.212 153.681 101.507 154.421 102.603C154.302 106.567 151.814 109.912 147.85 110.9C142.898 112.138 139.053 109.293 137.197 105.198C143.517 103.591 146.612 101.103 145.005 94.7946C143.767 90.3309 141.541 88.355 136.459 88.6049C135.221 86.1291 134.352 85.0102 131.745 84.0222C134.59 57.0138 155.409 37.802 184.655 39.9088C184.429 40.4155 184.304 40.9613 184.286 41.5158L184.25 41.5039ZM136.054 71.5C134.685 75.2138 133.697 79.0585 133.328 83.1533C134.935 83.8913 136.304 85.1411 137.292 87.117C142.863 86.998 145.35 90.4618 146.457 94.5565C147.826 99.5083 146.826 104.222 139.518 106.448C141.125 108.924 144.231 110.293 147.326 109.543C150.421 108.793 152.528 106.198 152.659 103.222C151.915 101.987 151.528 100.569 151.54 99.1274C151.54 94.2947 155.635 90.4499 160.586 90.4499C165.538 90.4499 169.633 94.2947 169.633 99.1274C169.633 99.8654 169.514 100.615 169.383 101.353C169.881 102.73 170.789 103.92 171.986 104.763C173.182 105.606 174.609 106.061 176.073 106.067C179.298 106.067 181.893 104.079 182.893 101.234C175.215 100.865 173.109 96.5206 173.109 91.4498C173.109 87.117 174.597 83.2723 180.048 82.0343C180.354 80.5903 181.027 79.2496 182.003 78.1423C182.979 77.0349 184.225 76.1984 185.619 75.7137C184.713 75.0044 183.975 74.1024 183.461 73.073C182.946 72.0437 182.667 70.9127 182.643 69.7621C182.643 68.2742 183.143 66.7863 183.881 65.6674V64.4295C169.133 62.4416 150.421 63.8224 136.054 71.5ZM182.524 41.5158C160.348 40.2778 143.862 52.6691 136.673 69.8931C150.552 62.9535 168.514 61.2156 183.631 63.3225V59.5968C182.893 58.3588 182.393 56.99 182.393 55.5021C182.393 54.0142 182.893 52.5262 183.631 51.4073V45.5867C182.927 44.3345 182.543 42.9281 182.512 41.492L182.524 41.5158ZM272.727 120.327L273.227 119.958C274.215 120.696 275.084 121.196 276.322 121.565C276.821 121.684 277.44 121.684 277.928 121.815C278.547 124.91 279.666 127.386 281.892 129.623L280.904 130.992C275.572 128.726 270.156 126.662 264.668 124.803L264.918 123.196C267.644 122.946 270.489 121.958 272.727 120.351V120.327ZM273.227 121.934C271.739 122.922 270.001 123.672 268.275 124.16C271.731 125.406 275.16 126.728 278.559 128.124C277.579 126.649 276.866 125.013 276.452 123.291L275.952 123.172C274.965 122.922 274.096 122.434 273.227 121.934ZM189.583 100.996H191.321C191.94 105.46 194.915 109.293 198.998 111.162L198.629 112.768C195.903 112.649 193.177 112.649 190.452 112.649C187.726 112.649 185 112.649 182.274 112.768L181.905 111.162C186 109.174 188.964 105.46 189.583 100.996ZM190.452 104.341C189.464 106.948 187.726 109.174 185.369 110.912C187.107 110.912 188.714 110.793 190.452 110.793C192.147 110.77 193.842 110.81 195.534 110.912C193.272 109.222 191.514 106.958 190.452 104.341ZM100.118 130.861L99.1301 129.493C101.356 127.136 102.475 124.779 103.094 121.684C104.769 121.617 106.378 121.007 107.677 119.946C110.283 121.803 112.878 122.922 116.104 123.041L116.354 124.648C110.866 126.507 105.451 128.571 100.118 130.838V130.861ZM102.475 128.136C105.874 126.74 109.303 125.418 112.759 124.172C111.021 123.672 109.295 122.934 107.808 121.946C107.07 122.446 106.07 122.815 105.201 123.065L104.701 123.184C104.082 124.922 103.463 126.648 102.475 128.136ZM142.743 115.863V117.47C137.493 118.562 132.284 119.844 127.126 121.315L126.388 119.827C129.733 116.982 131.721 112.638 131.102 108.174L132.709 107.805C134.447 112.019 138.28 114.994 142.743 115.863ZM139.28 116.482C136.712 115.403 134.486 113.647 132.84 111.4C132.471 114.125 131.471 116.732 129.745 118.839C132.84 117.97 136.054 117.232 139.28 116.482ZM153.778 115.363L153.159 113.875C156.254 111.888 158.241 109.293 159.479 105.948H160.467C161.455 105.948 162.205 105.698 163.193 105.448C165.3 108.424 167.776 110.531 171.371 111.519L171.252 113.126C165.41 113.73 159.584 114.472 153.778 115.351V115.363ZM160.717 107.686C159.848 109.793 158.491 111.65 156.754 113.257L167.776 111.888C165.723 110.818 163.944 109.29 162.574 107.424C161.955 107.543 161.336 107.674 160.717 107.674V107.686ZM209.663 113.257L209.544 111.65C212.873 110.598 215.752 108.461 217.722 105.579C218.71 105.829 219.46 106.079 220.448 106.079H221.436C222.674 109.424 224.661 112.03 227.756 114.006L227.137 115.494C221.436 114.506 215.615 113.745 209.663 113.257ZM220.198 107.686C219.611 107.673 219.027 107.589 218.46 107.436C217.091 109.293 215.234 110.781 213.127 111.9C216.841 112.269 220.567 112.638 224.15 113.268C222.56 111.785 221.257 110.022 220.305 108.067L220.198 107.686ZM254.646 119.827L253.908 121.315C248.825 119.827 243.623 118.589 238.291 117.47V115.863C242.623 114.994 246.468 112.019 248.206 107.936L249.813 108.305C249.572 110.478 249.89 112.676 250.735 114.693C251.581 116.709 252.927 118.476 254.646 119.827ZM251.301 118.839C249.563 116.732 248.456 114.125 248.206 111.4C246.599 113.626 244.242 115.363 241.766 116.482L251.313 118.839H251.301ZM253.777 90.4618C249.932 89.4739 245.968 91.6998 244.98 95.4136C243.992 99.1274 246.349 102.972 250.182 103.841C254.027 104.829 257.991 102.603 258.978 98.8893C259.966 95.1755 257.61 91.3308 253.777 90.4618ZM254.027 89.3429C258.49 90.4618 261.216 94.7946 260.097 99.1274C258.978 103.46 254.396 106.067 249.932 104.948C248.887 104.711 247.899 104.269 247.027 103.648C246.154 103.026 245.414 102.237 244.849 101.326C244.284 100.416 243.906 99.4021 243.736 98.3441C243.567 97.2861 243.609 96.205 243.861 95.1636C244.98 90.8308 249.563 88.224 254.027 89.3429ZM260.347 76.8326C258.121 76.8326 256.384 78.5705 256.384 80.6774C256.384 82.7842 258.24 84.5221 260.347 84.5221C262.573 84.5221 264.311 82.7842 264.311 80.6774C264.316 80.1609 264.217 79.6487 264.018 79.172C263.819 78.6953 263.525 78.264 263.154 77.9044C262.784 77.5448 262.344 77.2643 261.861 77.08C261.378 76.8958 260.863 76.8116 260.347 76.8326ZM260.347 75.7137C263.192 75.7137 265.549 77.9396 265.549 80.6655C265.549 83.3913 263.192 85.6172 260.347 85.6172C257.502 85.6172 255.146 83.3913 255.146 80.6655C255.146 77.9396 257.502 75.7137 260.347 75.7137ZM257.003 62.9535C254.777 62.9535 253.039 64.6913 253.039 66.7982C253.039 68.9051 254.896 70.643 257.003 70.643C259.228 70.643 260.966 68.9051 260.966 66.7982C260.966 64.6913 259.228 62.9535 257.003 62.9535ZM257.003 61.8346C259.847 61.8346 262.204 64.0605 262.204 66.7863C262.204 69.5122 259.847 71.7381 257.003 71.7381C254.158 71.7381 251.801 69.5122 251.801 66.7863C251.801 64.0605 254.158 61.8346 257.003 61.8346ZM306.568 99.3773C304.342 99.3773 302.604 101.115 302.604 103.222C302.604 105.329 304.342 107.067 306.568 107.067C308.793 107.067 310.531 105.329 310.531 103.222C310.531 101.115 308.793 99.3773 306.568 99.3773ZM306.568 98.2584C309.412 98.2584 311.769 100.484 311.769 103.21C311.769 105.936 309.412 108.162 306.568 108.162C303.723 108.162 301.366 105.936 301.366 103.21C301.366 100.484 303.723 98.2584 306.568 98.2584ZM303.223 85.6172C300.997 85.6172 299.259 87.3551 299.259 89.462C299.259 91.5688 300.997 93.3067 303.223 93.3067C305.449 93.3067 307.187 91.5688 307.187 89.462C307.187 87.3551 305.449 85.6172 303.223 85.6172ZM303.223 84.4983C306.068 84.4983 308.424 86.7242 308.424 89.4501C308.424 92.1759 306.068 94.4018 303.223 94.4018C300.378 94.4018 298.021 92.1759 298.021 89.4501C298.14 86.7242 300.378 84.4983 303.223 84.4983ZM297.271 73.4759C295.045 73.4759 293.307 75.2138 293.307 77.3207C293.307 79.4275 295.164 81.1654 297.271 81.1654C299.497 81.1654 301.235 79.4275 301.235 77.3207C301.235 75.2138 299.497 73.4759 297.271 73.4759ZM297.271 72.357C300.116 72.357 302.473 74.5829 302.473 77.3088C302.473 80.0346 300.116 82.2605 297.271 82.2605C294.426 82.2605 292.069 80.0346 292.069 77.3088C292.069 74.5829 294.426 72.357 297.271 72.357ZM287.725 62.6916C285.499 62.6916 283.761 64.4295 283.761 66.5363C283.761 68.6432 285.499 70.3811 287.725 70.3811C289.951 70.3811 291.689 68.6432 291.689 66.5363C291.689 64.4295 289.951 62.6916 287.725 62.6916ZM287.725 61.5727C290.57 61.5727 292.926 63.7986 292.926 66.5244C292.926 69.2503 290.701 71.5 287.725 71.5C284.88 71.5 282.523 69.2741 282.523 66.5482C282.642 63.8224 284.88 61.5965 287.725 61.5965V61.5727ZM276.072 54.5141C273.846 54.5141 272.108 56.252 272.108 58.3588C272.108 60.4657 273.846 62.2036 276.072 62.2036C278.297 62.2036 280.035 60.4657 280.035 58.3588C280.035 56.252 278.297 54.5141 276.072 54.5141ZM276.072 53.3952C278.916 53.3952 281.273 55.6211 281.273 58.3469C281.273 61.0728 278.916 63.2987 276.072 63.2987C273.227 63.2987 270.87 61.0728 270.87 58.3469C270.87 55.6211 273.227 53.3952 276.072 53.3952ZM263.43 49.6814C261.204 49.6814 259.467 51.4192 259.467 53.5261C259.467 55.633 261.204 57.3709 263.43 57.3709C265.656 57.3709 267.394 55.633 267.394 53.5261C267.513 51.4192 265.656 49.6814 263.43 49.6814ZM263.43 48.5625C266.275 48.5625 268.632 50.7884 268.632 53.5142C268.632 56.2401 266.275 58.466 263.43 58.466C260.585 58.466 258.229 56.2401 258.229 53.5142C258.348 50.7884 260.585 48.5625 263.43 48.5625ZM250.67 50.7884C248.444 50.7884 246.706 52.5263 246.706 54.6331C246.706 56.74 248.444 58.4779 250.67 58.4779C252.896 58.4779 254.634 56.74 254.634 54.6331C254.634 52.5263 252.896 50.7884 250.67 50.7884ZM250.67 49.6695C253.515 49.6695 255.872 51.8954 255.872 54.6212C255.872 57.3471 253.527 59.5968 250.67 59.5968C247.813 59.5968 245.468 57.3709 245.468 54.645C245.468 51.9192 247.825 49.6933 250.67 49.6933V49.6695ZM241.255 40.254C239.029 40.254 237.291 41.9919 237.291 44.0988C237.291 46.2056 239.029 47.9435 241.255 47.9435C243.48 47.9435 245.218 46.2056 245.218 44.0988C245.337 41.9919 243.48 40.254 241.255 40.254ZM241.255 39.2661C244.099 39.2661 246.456 41.492 246.456 44.2178C246.456 46.9436 244.099 49.1695 241.255 49.1695C238.41 49.1695 236.053 46.9436 236.053 44.2178C236.172 41.492 238.41 39.2661 241.255 39.2661ZM228.982 32.4455C226.756 32.4455 225.019 34.1834 225.019 36.2902C225.019 38.3971 226.756 40.135 228.982 40.135C231.208 40.135 232.946 38.3971 232.946 36.2902C232.946 34.1834 231.208 32.4455 228.982 32.4455ZM228.982 31.3266C231.827 31.3266 234.184 33.5525 234.184 36.2783C234.184 39.0042 231.827 41.2301 228.982 41.2301C226.137 41.2301 223.781 39.0042 223.781 36.2783C223.9 33.5525 226.137 31.3266 228.982 31.3266ZM216.222 27.8628C213.996 27.8628 212.258 29.6006 212.258 31.7075C212.258 33.8144 213.996 35.5522 216.222 35.5522C218.448 35.5522 220.186 33.8144 220.186 31.7075C220.305 29.6006 218.448 27.8628 216.222 27.8628ZM216.222 26.7439C219.067 26.7439 221.424 28.9698 221.424 31.6956C221.424 34.4214 219.067 36.6473 216.222 36.6473C213.377 36.6473 211.02 34.4214 211.02 31.6956C211.139 28.9698 213.377 26.7439 216.222 26.7439ZM203.212 25.625C200.986 25.625 199.248 27.3628 199.248 29.4697C199.248 31.5766 200.986 33.3144 203.212 33.3144C205.438 33.3144 207.176 31.5766 207.176 29.4697C207.176 27.3628 205.438 25.625 203.212 25.625ZM203.212 24.5061C206.057 24.5061 208.414 26.732 208.414 29.4578C208.414 32.1836 206.057 34.4095 203.212 34.4095C202.552 34.4206 201.897 34.301 201.284 34.0576C200.671 33.8143 200.112 33.4521 199.64 32.9918C199.167 32.5315 198.791 31.9823 198.531 31.3757C198.272 30.7692 198.135 30.1174 198.129 29.4578C198.01 26.732 200.355 24.5061 203.212 24.5061ZM79.4302 127.35C82.8941 125.493 84.1439 121.279 82.2751 117.934C81.3115 116.305 79.755 115.111 77.9313 114.603C76.1076 114.095 74.158 114.312 72.4906 115.209C69.0268 117.066 67.777 121.279 69.6458 124.624C71.5146 127.969 75.9664 129.207 79.4302 127.35ZM79.9302 128.338C75.8355 130.445 70.8837 129.076 68.6578 125.112C68.1308 124.184 67.7989 123.157 67.6824 122.096C67.5659 121.034 67.6674 119.96 67.9805 118.94C68.2937 117.919 68.8119 116.973 69.5035 116.159C70.1951 115.346 71.0455 114.682 72.0026 114.209C76.0973 112.102 81.1681 113.471 83.275 117.435C83.8003 118.364 84.1308 119.39 84.2463 120.451C84.3619 121.512 84.2601 122.585 83.9471 123.605C83.6341 124.626 83.1165 125.572 82.4258 126.385C81.7352 127.199 80.8861 127.863 79.9302 128.338ZM130.733 103.805C134.578 102.817 136.923 99.0917 135.935 95.3779C134.947 91.6641 130.983 89.4263 127.138 90.4261C123.294 91.426 120.949 95.1398 121.937 98.8536C122.474 100.659 123.692 102.184 125.334 103.108C126.975 104.032 128.911 104.282 130.733 103.805ZM131.102 104.924C128.983 105.48 126.73 105.182 124.829 104.093C122.927 103.005 121.53 101.213 120.937 99.1036C120.669 98.0616 120.615 96.9763 120.778 95.913C120.941 94.8497 121.318 93.8304 121.885 92.9163C122.452 92.0022 123.198 91.2123 124.078 90.5941C124.959 89.9759 125.955 89.5422 127.007 89.3191C131.471 88.2002 136.054 90.807 137.173 95.1398C138.292 99.4726 135.566 103.817 131.102 104.924ZM190.452 96.5325C194.415 96.5325 197.641 93.4376 197.641 89.5929C197.626 88.6649 197.427 87.749 197.057 86.8978C196.688 86.0465 196.153 85.2766 195.486 84.632C194.818 83.9874 194.029 83.4809 193.166 83.1413C192.302 82.8018 191.38 82.636 190.452 82.6533C189.524 82.636 188.601 82.8018 187.738 83.1413C186.874 83.4809 186.085 83.9874 185.418 84.632C184.75 85.2766 184.216 86.0465 183.846 86.8978C183.476 87.749 183.278 88.6649 183.262 89.5929C183.262 93.4376 186.488 96.5325 190.452 96.5325ZM190.452 97.6514C189.378 97.6671 188.311 97.4712 187.313 97.0747C186.315 96.6782 185.405 96.089 184.634 95.3407C183.864 94.5923 183.248 93.6996 182.823 92.7134C182.398 91.7272 182.171 90.6668 182.155 89.5929C182.155 85.1292 185.869 81.5344 190.452 81.5344C195.034 81.5344 198.748 85.1292 198.748 89.5929C198.867 94.0566 195.034 97.6514 190.452 97.6514ZM120.687 84.5221C122.913 84.5221 124.651 82.7842 124.651 80.6774C124.651 78.5705 122.913 76.8326 120.687 76.8326C118.461 76.8326 116.723 78.5705 116.723 80.6774C116.604 82.7842 118.461 84.5221 120.687 84.5221ZM120.687 85.641C120.027 85.652 119.372 85.5325 118.759 85.2891C118.146 85.0458 117.587 84.6836 117.115 84.2233C116.642 83.763 116.265 83.2138 116.006 82.6072C115.747 82.0007 115.61 81.3489 115.604 80.6893C115.604 77.9634 117.961 75.7375 120.687 75.7375C123.532 75.7375 125.889 77.9634 125.889 80.6893C125.769 83.4151 123.532 85.641 120.687 85.641ZM124.032 70.643C126.258 70.643 127.995 68.9051 127.995 66.7982C127.995 64.6913 126.258 62.9535 124.032 62.9535C121.806 62.9535 120.068 64.6913 120.068 66.7982C119.949 68.9051 121.806 70.643 124.032 70.643ZM124.032 71.7619C121.187 71.7619 118.83 69.536 118.83 66.8101C118.83 64.0843 121.187 61.8584 124.032 61.8584C126.876 61.8584 129.233 64.0843 129.233 66.8101C129.114 69.536 126.757 71.7619 124.032 71.7619ZM74.3475 107.186C76.5734 107.186 78.3113 105.448 78.3113 103.341C78.3113 101.234 76.5734 99.4964 74.3475 99.4964C72.1216 99.4964 70.3838 101.234 70.3838 103.341C70.3838 105.448 72.1216 107.186 74.3475 107.186ZM74.3475 108.305C71.5027 108.305 69.1458 106.079 69.1458 103.353C69.1458 100.627 71.5027 98.4013 74.3475 98.4013C75.0071 98.3903 75.6622 98.5099 76.2753 98.7532C76.8884 98.9965 77.4473 99.3587 77.9197 99.819C78.3922 100.279 78.7689 100.829 79.0281 101.435C79.2874 102.042 79.424 102.693 79.4302 103.353C79.5493 106.079 77.2043 108.305 74.3475 108.305ZM77.6924 93.3067C79.9183 93.3067 81.6561 91.5688 81.6561 89.462C81.6252 88.4315 81.1939 87.4536 80.4539 86.7358C79.7139 86.018 78.7233 85.6168 77.6924 85.6172C75.4665 85.6172 73.7286 87.3551 73.7286 89.462C73.7286 91.5688 75.4665 93.3067 77.6924 93.3067ZM77.6924 94.4256C74.8475 94.4256 72.4906 92.1997 72.4906 89.4739C72.4906 86.748 74.8475 84.5221 77.6924 84.5221C80.5372 84.5221 82.8941 86.748 82.8941 89.4739C82.8941 92.1997 80.5372 94.4256 77.6924 94.4256ZM83.644 81.1654C85.8699 81.1654 87.6077 79.4275 87.6077 77.3207C87.6077 75.2138 85.8699 73.4759 83.644 73.4759C81.4181 73.4759 79.6802 75.2138 79.6802 77.3207C79.6802 79.4275 81.5371 81.1654 83.644 81.1654ZM83.644 82.2843C80.7991 82.2843 78.4423 80.0584 78.4423 77.3326C78.4423 74.6067 80.7991 72.3808 83.644 72.3808C86.4888 72.3808 88.8457 74.6067 88.8457 77.3326C88.8457 80.0584 86.4888 82.2843 83.644 82.2843ZM93.1904 70.393C95.4163 70.393 97.1541 68.6551 97.1541 66.5482C97.1541 64.4414 95.4163 62.7035 93.1904 62.7035C90.9645 62.7035 89.2266 64.4414 89.2266 66.5482C89.2266 68.6551 90.9645 70.393 93.1904 70.393ZM93.1904 71.5119C90.3455 71.5119 87.9886 69.286 87.9886 66.5602C87.9886 63.8343 90.3455 61.6084 93.1904 61.6084C96.0352 61.6084 98.3921 63.8343 98.3921 66.5602C98.3921 69.286 96.0352 71.5 93.1785 71.5L93.1904 71.5119ZM104.844 62.2155C107.07 62.2155 108.807 60.4776 108.807 58.3707C108.807 56.2639 107.07 54.526 104.844 54.526C102.618 54.526 100.88 56.2639 100.88 58.3707C100.88 60.4776 102.737 62.2155 104.844 62.2155ZM104.844 63.3344C101.999 63.3344 99.6419 61.1085 99.6419 58.3826C99.6419 55.6568 101.999 53.4309 104.844 53.4309C107.688 53.4309 110.045 55.6568 110.045 58.3826C110.045 61.1085 107.688 63.3344 104.844 63.3344ZM117.485 57.5137C119.711 57.5137 121.449 55.7758 121.449 53.669C121.449 51.5621 119.711 49.8242 117.485 49.8242C115.259 49.8242 113.521 51.5621 113.521 53.669C113.521 55.7758 115.259 57.5137 117.485 57.5137ZM117.485 58.6326C114.64 58.6326 112.283 56.4067 112.283 53.6809C112.283 50.955 114.64 48.7291 117.485 48.7291C120.33 48.7291 122.687 50.955 122.687 53.6809C122.568 56.4067 120.33 58.6326 117.485 58.6326ZM130.245 58.5136C132.471 58.5136 134.209 56.7757 134.209 54.6688C134.209 52.562 132.471 50.8241 130.245 50.8241C128.019 50.8241 126.281 52.562 126.281 54.6688C126.281 56.7757 128.019 58.5136 130.245 58.5136ZM130.245 59.6325C127.4 59.6325 125.043 57.4066 125.043 54.6807C125.043 51.9549 127.4 49.729 130.245 49.729C133.09 49.729 135.447 51.9549 135.447 54.6807C135.447 57.4066 133.078 59.5968 130.233 59.5968L130.245 59.6325ZM139.661 48.1102C141.886 48.1102 143.624 46.3723 143.624 44.2654C143.624 42.1585 141.886 40.4207 139.661 40.4207C137.435 40.4207 135.697 42.1585 135.697 44.2654C135.697 46.3723 137.435 48.1102 139.661 48.1102ZM139.661 49.2291C136.816 49.2291 134.459 47.0032 134.459 44.2773C134.459 41.5515 136.816 39.3256 139.661 39.3256C142.505 39.3256 144.862 41.5515 144.862 44.2773C144.862 47.0032 142.505 49.2291 139.661 49.2291ZM151.933 40.1826C154.159 40.1826 155.897 38.4447 155.897 36.3379C155.897 34.231 154.159 32.4931 151.933 32.4931C149.707 32.4931 147.969 34.231 147.969 36.3379C147.969 38.4447 149.707 40.1826 151.933 40.1826ZM151.933 41.3015C149.088 41.3015 146.731 39.0756 146.731 36.3498C146.731 33.6239 149.088 31.398 151.933 31.398C154.778 31.398 157.134 33.6239 157.134 36.3498C157.134 39.0756 154.778 41.3015 151.933 41.3015ZM164.693 35.5999C166.919 35.5999 168.657 33.862 168.657 31.7551C168.657 29.6483 166.919 27.9104 164.693 27.9104C162.467 27.9104 160.729 29.6483 160.729 31.7551C160.729 33.862 162.467 35.5999 164.693 35.5999ZM164.693 36.7188C161.848 36.7188 159.491 34.4929 159.491 31.767C159.491 29.0412 161.848 26.8153 164.693 26.8153C167.538 26.8153 169.895 29.0412 169.895 31.767C169.895 34.4929 167.538 36.7188 164.693 36.7188ZM190.452 73.4759C192.678 73.4759 194.415 71.7381 194.415 69.6312C194.415 67.5243 192.678 65.7864 190.452 65.7864C188.226 65.7864 186.488 67.5243 186.488 69.6312C186.488 71.7381 188.226 73.4759 190.452 73.4759ZM190.452 74.5948C187.607 74.5948 185.25 72.3689 185.25 69.6431C185.25 66.9173 187.607 64.6913 190.452 64.6913C193.296 64.6913 195.653 66.9173 195.653 69.6431C195.653 72.3689 193.296 74.5948 190.452 74.5948ZM190.452 59.4777C192.678 59.4777 194.415 57.7399 194.415 55.633C194.415 53.5261 192.678 51.7882 190.452 51.7882C188.226 51.7882 186.488 53.5261 186.488 55.633C186.488 57.7399 188.226 59.4777 190.452 59.4777ZM190.452 60.5966C187.607 60.5966 185.25 58.3707 185.25 55.6449C185.25 52.9191 187.607 50.6931 190.452 50.6931C193.296 50.6931 195.653 52.9191 195.653 55.6449C195.653 58.3707 193.296 60.5966 190.452 60.5966ZM190.452 45.4795C192.678 45.4795 194.415 43.7417 194.415 41.6348C194.415 39.5279 192.678 37.7901 190.452 37.7901C188.226 37.7901 186.488 39.5279 186.488 41.6348C186.488 43.7417 188.226 45.4795 190.452 45.4795ZM190.452 46.4675C187.607 46.4675 185.25 44.2416 185.25 41.5158C185.25 38.7899 187.607 36.564 190.452 36.564C193.296 36.564 195.653 38.7899 195.653 41.5158C195.653 44.3606 193.296 46.4675 190.452 46.4675ZM177.81 33.3382C180.036 33.3382 181.774 31.6004 181.774 29.4935C181.743 28.463 181.312 27.4851 180.572 26.7673C179.832 26.0495 178.841 25.6483 177.81 25.6488C175.584 25.6488 173.716 27.3866 173.716 29.4935C173.716 31.7194 175.573 33.3382 177.81 33.3382ZM177.81 34.5762C174.966 34.5762 172.609 32.3503 172.609 29.6244C172.609 26.8986 174.966 24.6727 177.81 24.6727C180.655 24.6727 183.012 26.8986 183.012 29.6244C182.893 32.3503 180.655 34.5762 177.81 34.5762ZM308.413 115.232C306.743 114.345 304.797 114.133 302.976 114.64C301.154 115.147 299.598 116.335 298.628 117.958C296.771 121.303 298.009 125.517 301.473 127.374C303.143 128.258 305.088 128.469 306.909 127.962C308.729 127.455 310.286 126.269 311.257 124.648C311.73 123.853 312.032 122.968 312.144 122.049C312.256 121.131 312.176 120.199 311.909 119.314C311.641 118.428 311.192 117.608 310.59 116.905C309.988 116.203 309.247 115.633 308.413 115.232ZM309.032 114.244C313.126 116.351 314.483 121.303 312.257 125.148C311.142 127.055 309.332 128.457 307.206 129.058C305.079 129.66 302.803 129.414 300.854 128.374C299.903 127.894 299.061 127.224 298.379 126.406C297.696 125.589 297.188 124.64 296.886 123.619C296.584 122.597 296.494 121.525 296.622 120.468C296.749 119.41 297.092 118.39 297.628 117.47C298.743 115.563 300.554 114.161 302.68 113.56C304.806 112.959 307.082 113.204 309.032 114.244ZM89.5837 116.97C88.4648 114.244 87.1078 112.138 84.132 111.269C86.1198 87.3551 92.4285 76.4517 114.866 65.5484C116.854 66.2864 116.723 66.5363 116.723 66.7863C116.723 70.0121 118.58 71.619 120.937 73.3569C116.973 74.2258 113.378 75.9637 113.378 80.6655C113.378 84.5102 116.104 86.6171 119.568 87.6051C118.449 89.7119 118.199 90.5809 118.449 93.0567C113.866 95.1636 112.878 98.0085 113.985 102.472C115.723 108.793 119.687 109.531 126.008 107.924C126.348 109.892 126.008 111.917 125.045 113.666C124.082 115.415 122.552 116.785 120.707 117.549C118.863 118.314 116.813 118.428 114.894 117.873C112.976 117.317 111.304 116.126 110.152 114.494C110.152 113.875 110.033 113.376 109.902 112.757C108.915 109.162 104.951 106.936 100.975 107.805C97.1303 108.793 94.6544 112.638 95.6424 116.351C96.0114 117.589 96.6304 118.577 97.4993 119.446C97.8683 123.041 96.2614 126.267 93.0356 127.993C89.6908 129.731 87.084 128.981 83.8701 127.874C89.2028 125.398 91.9405 123.041 89.5837 116.97ZM89.9527 91.0689C87.7268 96.4015 86.6079 102.591 85.858 110.15C88.4648 111.269 90.1907 113.864 91.1906 116.47C92.7975 120.434 92.7975 124.529 88.3457 127.624C89.6883 127.77 91.0412 127.464 92.1905 126.755C94.6664 125.386 96.0352 122.91 95.9043 120.315C95.0486 119.304 94.4158 118.124 94.0474 116.851C92.8095 112.138 95.7853 107.436 100.487 106.317C102.768 105.736 105.184 106.055 107.236 107.207C109.288 108.36 110.818 110.257 111.509 112.507C111.628 113.007 111.759 113.495 111.759 113.995C115.854 118.827 124.032 116.351 124.401 110.031C116.842 111.519 113.616 107.805 112.378 102.841C111.259 98.7465 111.759 94.5446 116.592 92.0569C116.549 90.8816 116.718 89.7081 117.092 88.593C115.773 88.047 114.609 87.1849 113.701 86.0826C112.794 84.9803 112.172 83.6718 111.89 82.2724C107.558 83.1413 102.725 84.3793 98.7611 85.9862C94.9163 87.3551 92.0595 89.331 89.9527 91.0689ZM114.985 67.2862C102.475 73.6069 95.1544 80.0465 90.8216 88.9739C93.1058 87.3144 95.6096 85.9804 98.2611 85.0102C102.356 83.4032 107.308 82.1653 111.64 81.2963V80.6655C111.64 77.0707 113.997 73.8449 117.211 72.607C115.882 71.1354 115.097 69.2657 114.985 67.2862ZM287.844 128.124C286.324 127.316 285.084 126.068 284.287 124.542C283.49 123.017 283.174 121.286 283.38 119.577C284.249 118.708 284.868 117.72 285.237 116.482C285.459 115.579 285.5 114.642 285.358 113.723C285.217 112.804 284.895 111.922 284.412 111.128C283.929 110.334 283.293 109.643 282.542 109.095C281.791 108.548 280.939 108.153 280.035 107.936C278.974 107.656 277.863 107.619 276.786 107.828C275.708 108.036 274.691 108.485 273.811 109.14C272.931 109.795 272.209 110.64 271.7 111.613C271.191 112.585 270.907 113.659 270.87 114.756C265.299 121.815 254.015 118.101 255.015 108.186C261.335 109.674 265.299 109.055 267.037 102.734C268.275 98.2703 267.156 95.4255 262.704 93.3186C262.977 91.4265 262.581 89.4986 261.585 87.8669C265.049 86.879 267.775 84.7721 267.775 80.9273C267.775 76.2137 264.18 74.4877 260.216 73.7378C262.573 71.8809 264.549 70.393 264.549 67.1672C264.549 66.9173 264.549 66.5483 264.43 66.2983L266.037 65.7983C288.344 76.5827 295.152 87.855 297.14 111.519C294.045 112.388 292.677 114.494 291.689 117.22C289.332 123.291 292.058 125.648 297.39 128.243C293.795 129.112 291.201 129.85 287.844 128.124ZM269.132 82.2724C268.513 85.1173 266.525 87.4741 263.799 88.593C264.224 89.6954 264.395 90.8793 264.299 92.0569C269.251 94.5327 269.632 98.7465 268.513 102.841C267.144 107.793 264.049 111.519 256.491 110.031C256.86 116.351 265.037 118.827 269.132 113.995C269.132 113.495 269.251 113.007 269.382 112.507C270.62 107.924 275.572 105.067 280.285 106.317C285.118 107.555 287.963 112.269 286.725 116.851C286.356 118.089 285.737 119.327 284.868 120.196C284.825 121.189 284.992 122.18 285.36 123.103C285.728 124.026 286.288 124.861 287.002 125.551C287.717 126.242 288.57 126.774 289.505 127.11C290.44 127.447 291.436 127.581 292.427 127.505C287.963 124.529 287.963 120.446 289.582 116.351C290.57 113.745 292.188 111.15 294.914 110.031C294.295 102.472 293.057 96.2825 290.82 90.9499C288.193 88.7753 285.219 87.0572 282.023 85.8672C278.309 84.4983 273.346 83.2604 269.132 82.2724ZM265.906 67.0363C265.787 69.1432 264.918 71.131 263.549 72.488C265.215 73.0795 266.656 74.1713 267.677 75.6139C268.698 77.0564 269.247 78.7793 269.251 80.5464V81.1654C273.715 82.1534 278.416 83.2723 282.63 84.8792C285.606 85.9981 288.082 87.3551 290.07 88.843C285.737 80.0465 278.416 73.6069 265.906 67.0363ZM239.886 141.634L227.244 133.087L242.612 131.48L255.253 140.027L239.886 141.634ZM216.091 136.682C215.432 136.693 214.776 136.573 214.163 136.33C213.55 136.087 212.991 135.725 212.519 135.264C212.047 134.804 211.67 134.255 211.411 133.648C211.151 133.042 211.015 132.39 211.008 131.73C211.008 129.004 213.365 126.779 216.091 126.779C218.936 126.779 221.293 129.004 221.293 131.73C221.293 134.456 218.936 136.682 216.091 136.682ZM216.091 135.563C218.317 135.563 220.055 133.825 220.055 131.718C220.055 129.612 218.317 127.874 216.091 127.874C213.865 127.874 212.127 129.612 212.127 131.718C212.127 133.825 213.984 135.563 216.091 135.563ZM115.223 148.454C117.449 148.454 119.187 146.716 119.187 144.61C119.187 142.503 117.449 140.765 115.223 140.765C112.997 140.765 111.259 142.503 111.259 144.61C111.259 146.716 112.997 148.454 115.223 148.454ZM115.223 149.573C112.378 149.573 110.022 147.347 110.022 144.622C110.022 141.896 112.378 139.67 115.223 139.67C118.068 139.67 120.425 141.896 120.425 144.622C120.306 147.347 118.068 149.573 115.223 149.573ZM164.788 135.575C167.014 135.575 168.752 133.837 168.752 131.73C168.721 130.7 168.29 129.722 167.55 129.004C166.81 128.286 165.819 127.885 164.788 127.886C162.562 127.886 160.824 129.623 160.824 131.73C160.705 133.837 162.562 135.575 164.788 135.575ZM164.788 136.694C161.943 136.694 159.587 134.468 159.587 131.742C159.587 129.016 161.943 126.79 164.788 126.79C167.633 126.79 169.99 129.016 169.99 131.742C169.871 134.468 167.633 136.694 164.788 136.694ZM265.656 148.466C267.882 148.466 269.62 146.728 269.62 144.622C269.62 142.515 267.882 140.777 265.656 140.777C263.43 140.777 261.692 142.515 261.692 144.622C261.692 146.728 263.43 148.466 265.656 148.466ZM265.656 149.585C262.811 149.585 260.454 147.359 260.454 144.633C260.454 141.908 262.811 139.682 265.656 139.682C268.501 139.682 270.858 141.908 270.858 144.633C270.858 147.359 268.501 149.585 265.656 149.585ZM141.006 141.658L125.639 140.051L138.28 131.504L153.647 133.111L141.006 141.658ZM203.331 130.385L190.452 125.767L177.691 130.35L190.452 134.944L203.331 130.385ZM206.557 130.385L190.452 136.182L174.347 130.361L190.452 124.529L206.557 130.385Z" fill="#004996"/>
</g>
<defs>
<clipPath id="clip0_2003_6565">
<rect width="380.903" height="512" fill="white"/>
</clipPath>
</defs>
</svg>
