<svg width="407" height="512" viewBox="0 0 407 512" fill="none" xmlns="http://www.w3.org/2000/svg">
<path d="M366.687 113.877C339.588 67.1788 309.009 42.0785 288.13 29.2379C279.874 24.153 273.665 21.2292 270.682 19.8218L269.546 19.2779C267.101 18.0515 264.672 17.4356 262.341 17.4356C257.914 17.4356 254.7 19.6219 253.016 21.8388C246.511 29.237 240.23 33.145 234.836 33.145C231.732 33.145 229.244 31.8582 227.564 30.6021C228.561 27.8485 229.757 24.1035 230.5 20.2747C231.363 15.2736 229.721 12.0544 228.186 10.231C224.605 5.979 219.079 5.979 216.717 5.979C213.262 5.979 209.959 8.02665 207.292 10.4057L204.365 9.90501C203.604 9.77174 202.83 9.77174 202.069 9.90501L199.143 10.4066C196.477 8.02665 193.176 5.9799 189.721 5.9799C187.308 5.9799 181.661 5.9799 178.089 10.3345C176.57 12.1886 174.97 15.4437 175.961 20.4089C176.688 24.1593 177.827 27.8557 178.766 30.5733C177.101 31.842 174.632 33.1459 171.539 33.1459C166.174 33.1459 159.895 29.2199 153.378 21.7911C151.672 19.6165 148.416 17.4365 144.013 17.4365C141.661 17.4365 139.236 18.065 136.874 19.2842L135.645 19.8578C132.861 21.15 127.069 23.8378 119.619 28.4824C98.3085 41.395 67.1526 66.6952 39.7633 113.858C17.5948 151.774 12.736 188.7 12.564 213.052L12.5667 218.258C12.754 230.748 13.9048 240.447 14.8439 246.439C24.812 306.744 50.4472 365.298 91.0148 420.427C91.6334 421.284 157.58 506.02 203.215 506.02C252.579 506.02 312.873 423.936 315.391 420.469C355.837 365.509 381.415 306.955 391.387 246.584C392.806 239.016 393.712 228.694 393.869 218.155V212.955C393.522 188.556 388.527 151.557 366.687 113.877Z" fill="white"/>
<path d="M204.232 495.872C238.909 497.232 304.966 424.224 340.223 357.165C368.27 303.823 377.596 267.817 378.982 207.573L26.7615 206.887C29.371 275.294 41.8946 316.532 77.759 374.84C113.524 432.993 154.589 491.109 204.232 495.872Z" fill="#FFDF1C"/>
<path d="M203.221 499.251C165.248 499.251 105.617 429.044 96.4949 416.465C39.0347 338.379 25.7187 270.702 21.5198 245.339C20.6104 239.5 19.51 230.014 19.3308 218.157V213.049C19.51 187.872 24.8038 152.849 45.6026 117.275C73.1486 69.8397 104.158 45.7632 123.126 34.2662C131.889 28.7932 138.093 26.2386 139.911 25.3291C145.575 22.4098 148.124 26.0585 148.124 26.0585C171.656 53.0543 186.617 32.2554 186.617 32.2554C186.617 32.2554 183.876 25.6938 182.609 19.1258C181.329 12.7371 187.161 12.7371 189.721 12.7371C192.455 12.7371 196.839 17.6725 196.839 17.6725L203.222 16.5712L209.604 17.6725C209.604 17.6725 213.983 12.7371 216.723 12.7371C219.277 12.7371 224.936 12.7371 223.834 19.1258C222.56 25.6938 219.636 32.2554 219.636 32.2554C219.636 32.2554 234.781 53.0543 258.32 26.0585C258.32 26.0585 260.688 22.4098 266.521 25.3291C268.345 26.2386 275.099 29.157 284.586 34.9955C303.56 46.6781 333.839 70.7546 360.835 117.274C381.454 152.848 386.742 187.691 387.107 213.048V218.156C386.928 230.012 385.833 239.499 384.739 245.338C380.546 270.7 367.409 338.378 309.943 416.464C301.185 428.5 246.328 499.251 203.221 499.251ZM284.585 52.6977C279.841 45.9442 273.823 38.8315 266.341 31.7134L265.61 33.173C265.61 33.173 275.098 42.6603 284.585 56.8902C294.251 71.3066 303.739 90.454 303.374 109.613C303.374 109.613 306.472 84.0715 284.585 52.6977ZM123.126 56.8911C132.62 42.6603 142.106 33.1739 142.106 33.1739L141.19 31.7143C133.713 38.8324 127.875 45.9451 123.125 52.6986C101.058 84.0724 104.157 109.615 104.157 109.615C103.793 90.454 113.46 71.3066 123.126 56.8911ZM376.166 210.131H340.042V350.817C369.517 288.155 380.192 228.35 376.166 210.131ZM44.5014 171.453H361.934C358.83 165.615 355.36 159.783 351.539 153.759C324.172 112.348 300.64 118.371 300.64 118.371C295.346 114.537 290.052 112.168 284.585 110.887C260.688 105.6 237.149 123.479 234.781 147.376C234.781 147.376 238.059 151.755 235.14 154.308C232.227 156.677 231.132 154.673 231.132 154.673L223.29 146.825C209.604 146.825 203.036 163.795 203.036 163.795C203.036 163.795 196.839 146.825 182.967 146.825L175.31 154.673C175.31 154.673 174.03 156.677 171.297 154.308C168.371 151.754 171.655 147.376 171.655 147.376C169.293 123.838 146.484 106.144 123.125 110.708C117.286 111.797 111.455 114.35 105.802 118.371C105.802 118.371 82.0848 112.347 54.9035 153.759C50.8901 159.783 47.6062 165.8 44.5014 171.453ZM68.5905 354.125V210.131H30.6361C25.0262 246.446 42.8382 302.286 68.5905 354.125ZM146.12 457.846V210.131H107.263V415.834C119.378 431.352 132.681 445.823 146.12 457.846ZM223.655 484.947V347.273C242.32 339.449 255.505 320.939 255.505 299.343C255.505 277.598 242.32 259.057 223.655 251.227V210.131H184.791V250.812C165.502 258.394 151.852 277.208 151.852 299.343C151.852 321.328 165.495 340.111 184.791 347.688V484.65C191.081 487.557 197.123 489.511 202.837 490.347C209.189 490.346 216.216 488.422 223.655 484.947ZM262.506 210.131V456.993C275.865 444.562 289.162 429.632 301.185 413.943V210.131H262.506Z" fill="black"/>
<path d="M340.046 210.13V350.823C340.046 350.823 336.852 357.763 334.725 361.734C323.661 380.912 312.356 399.194 301.206 413.906C301.2 413.914 301.195 413.919 301.189 413.926V210.13H340.046ZM223.659 210.13V251.226C242.324 259.056 255.496 277.591 255.496 299.336C255.496 320.946 242.324 339.449 223.659 347.273V484.754C234.83 479.449 247.99 470.395 262.353 457.137C262.404 457.09 262.458 457.033 262.51 456.985V210.13H223.659ZM146.118 210.13V457.71C147.692 459.142 149.269 460.667 150.84 462.022C163.007 472.51 174.265 479.834 184.796 484.57V347.681C165.494 340.111 151.857 321.329 151.857 299.336C151.857 277.202 165.506 258.395 184.796 250.819V210.13H146.118ZM68.5825 210.13V353.892C68.6699 354.063 68.7464 354.229 68.8337 354.399C73.0326 362.556 77.5538 370.986 82.8908 379.674C90.3259 391.77 98.3751 404.119 107.26 415.75V210.13H68.5825Z" fill="#EE3524"/>
<path d="M203.763 243.443C172.976 243.443 148.047 268.38 148.047 299.339C148.047 330.126 172.976 355.061 203.763 355.061C234.37 355.061 259.3 330.12 259.3 299.339C259.3 268.379 234.382 243.443 203.763 243.443Z" fill="#B23428"/>
<path d="M214.781 347.893C210.767 346.043 207.496 342.994 205.708 338.338C207.545 337.763 209.326 336.959 210.984 335.975C221.981 329.481 223.087 316.649 217.645 306.154C217.459 305.789 217.231 305.399 217.008 305.035C223.322 285.337 212.426 276.617 209.08 274.477C211.152 267.605 216.607 263.95 224.764 265.082C236.768 273.159 240.046 292.27 239.91 305.171C239.73 336.65 220.032 345.636 214.781 347.893ZM161.787 329.903C167.168 337.287 174.453 343.193 182.914 346.904C180.861 343.911 179.024 340.379 178.387 337.225C173.94 332.339 168.523 328.764 161.787 329.903ZM151.873 300.911C152.163 310.756 155.23 319.897 160.265 327.628C167.748 325.896 174.724 329.329 179.789 334.925C182.541 332.717 190.618 328.185 204.323 336.107C218.27 332.223 221.375 318.852 215.4 307.318L215.048 306.7C209.685 308.332 183.234 315.11 151.873 300.911ZM160.086 271.123C155.082 278.928 152.089 288.168 151.866 298.119C168.985 306.11 184.669 307.631 196.141 307.124C204.917 306.74 211.75 304.99 214.626 304.124C217.762 294.161 217.087 282.411 207.582 276.529C200.723 279.646 192.671 280.74 186.276 276.201C176.678 280.777 167.153 279.559 160.449 271.575L160.086 271.123ZM201.88 247.274C185.275 247.867 170.661 256.241 161.588 268.907C161.799 269.211 162.071 269.563 162.393 269.946C168.571 277.306 176.574 277.752 185.072 273.942C184.829 270.552 185.51 259.501 201.88 247.274ZM233.955 257.019C226.07 251.311 216.533 247.78 206.217 247.297C198.22 252.752 188.096 261.936 187.583 272.344C187.546 273.08 187.577 273.643 187.614 274.002C187.911 274.224 188.226 274.453 188.523 274.627C194.089 277.942 200.874 276.934 206.52 274.2C208.814 266.185 215.382 261.138 224.263 262.233L224.962 261.571C227.491 259.239 230.602 257.539 233.955 257.019ZM218.314 349.166C239.768 342.858 255.496 322.944 255.496 299.337C255.496 283.282 248.315 268.971 237.034 259.434C233.194 259.088 229.539 260.814 226.756 263.387C230.9 266.411 242.742 277.506 242.434 305.188C242.266 334.521 225.76 345.381 218.159 349.123L218.314 349.166ZM203.763 351.253C207.22 351.253 210.597 350.912 213.868 350.257C209.193 348.148 205.396 344.592 203.472 339.619C203.268 339.076 203.126 338.624 203.033 338.302C195.834 334.227 187.331 331.846 181.047 337.306C181.233 337.981 181.524 338.896 181.975 339.99C182.921 342.297 184.584 345.383 187.424 348.63C192.57 350.338 198.055 351.253 203.763 351.253Z" fill="#D18816"/>
<path d="M44.5051 171.452H361.933C361.933 171.452 374.073 195.078 376.157 210.131H30.6885C30.6885 210.131 35.0737 186.06 44.5051 171.452Z" fill="#0097D7"/>
<path d="M350.145 199.258H356.169V204.367H350.145V199.258ZM334.456 193.603H347.406V189.217H334.456V183.385H349.416V178.821H328.438V204.363H334.456V193.603ZM315.122 204.367H321.146V199.258H315.122V204.367ZM295.418 205.092C298.702 205.092 301.436 204.182 303.625 202.537C305.814 200.713 307.095 198.524 307.638 195.79H301.621C301.256 197.064 300.711 197.979 299.982 198.709C299.072 199.99 297.422 200.533 295.238 200.533C293.228 200.533 291.583 199.804 290.303 198.344C288.85 196.885 288.299 194.881 288.299 191.956C288.299 189.036 288.849 186.847 290.13 185.209C291.404 183.743 293.228 182.834 295.238 182.834C297.421 182.834 299.072 183.384 300.155 184.479C300.711 185.209 301.255 186.118 301.621 187.398H307.638C307.638 185.76 306.908 184.114 305.635 182.655C303.446 179.736 299.982 178.276 295.054 178.276C291.405 178.276 288.486 179.371 286.117 181.56C283.376 183.928 281.911 187.398 281.911 191.776C281.911 195.975 283.198 199.254 285.566 201.628C287.936 203.997 291.22 205.092 295.418 205.092ZM227.011 204.367H233.029V178.824H227.011V204.367ZM207.301 205.092C210.585 205.092 213.319 204.182 215.514 202.537C217.71 200.713 218.984 198.524 219.528 195.79H213.511C213.146 197.064 212.595 197.979 212.045 198.709C210.95 199.99 209.305 200.533 207.122 200.533C205.118 200.533 203.48 199.804 202.199 198.344C200.739 196.885 200.189 194.881 200.189 191.956C200.189 189.036 200.739 186.847 202.014 185.209C203.288 183.743 205.118 182.834 207.122 182.834C209.305 182.834 210.951 183.384 212.045 184.479C212.595 185.209 213.145 186.118 213.511 187.398H219.528C219.528 185.76 218.798 184.114 217.519 182.655C215.33 179.736 211.86 178.276 206.937 178.276C203.289 178.276 200.376 179.371 198 181.56C195.266 183.928 193.808 187.398 193.808 191.776C193.808 195.975 195.088 199.254 197.456 201.628C199.824 203.997 203.108 205.092 207.301 205.092ZM168.624 186.116L180.671 204.367H186.874V178.824H181.216V196.704L169.36 178.824H162.978V204.367H168.625L168.624 186.116ZM156.039 199.804H140.169V193.057H154.035V188.672H140.169V183.384H155.309V178.82H134.151V204.362H156.039V199.804ZM128.131 199.804H113.535V178.82H107.332V204.362H128.131V199.804ZM60.6287 204.365H66.2872L76.3183 178.822H69.9359L63.5471 198.162L57.1583 178.822H50.5967L60.6287 204.365ZM92.7427 178.825L102.953 204.368H96.3851L94.5608 199.074H89.0941H83.6148L81.6112 204.368H75.408L85.8038 178.825H89.0941H92.7427ZM92.9219 194.695L89.0941 184.657L85.2536 194.695H89.0941H92.9219ZM255.644 178.825L266.046 204.368H259.293L257.475 199.074H252.002H246.714L244.698 204.368H238.316L248.718 178.825H252.002H255.644ZM255.83 194.695L252.187 184.657L248.353 194.695H252.002H255.83Z" fill="white"/>
</svg>
