<svg width="412" height="512" viewBox="0 0 412 512" fill="none" xmlns="http://www.w3.org/2000/svg">
<path fill-rule="evenodd" clip-rule="evenodd" d="M205.101 4.7251C211.936 4.7251 217.599 10.3881 217.599 17.3777C217.599 19.4412 217.102 21.3884 216.226 23.1105L217.001 23.0873C223.983 23.0873 229.646 28.7503 229.646 35.7321C229.646 42.7217 223.983 48.3847 217.001 48.3847C214.41 48.3847 212.13 47.5547 210.043 46.2281C210.128 60.6339 221.64 72.2315 235.945 72.2315C248.156 72.2315 258.396 63.7835 261.126 52.4109C259.218 53.0005 256.573 53.241 254.385 52.7367C247.582 51.1619 243.338 44.3741 244.913 37.5707C246.48 30.7595 253.268 26.5161 260.079 28.0909L260.506 28.1918C260.04 26.3222 259.994 24.3207 260.459 22.3115C262.034 15.5081 268.822 11.2647 275.633 12.8395C282.436 14.4066 286.68 21.2022 285.105 28.0056C284.647 30.0148 283.724 31.8068 282.483 33.2885L283.236 33.4359C290.047 35.0107 294.29 41.7985 292.715 48.6019C291.148 55.4131 284.353 59.6565 277.549 58.0817C275.362 57.5775 273.445 56.5379 271.894 55.1338L271.77 55.545C268.55 69.4776 277.2 83.5498 291.179 86.6063C303.32 89.2594 311.077 85.7918 315.15 81.7113C313.118 81.3467 310.977 80.4545 309.192 78.9573C303.84 74.4657 303.141 66.4832 307.633 61.1382C312.125 55.7855 320.107 55.0873 325.452 59.5789L328.703 62.5811C333.132 54.8235 333.776 53.5358 336.034 50.1069C339.866 44.2655 345.723 45.9256 351.944 49.8897L361.634 56.5767L343.427 75.513C343.954 76.6844 344.078 77.9411 344.078 79.2521C344.078 85.4116 339.09 90.3998 332.931 90.3998C331.146 90.3998 329.486 90.3144 327.989 89.5619C317.477 98.3901 302.901 102.331 288.41 98.9874C276.378 96.2102 266.564 88.9258 260.327 79.3375L260.746 78.8022C251.065 84.4109 239.258 86.4977 227.49 83.7825C218.568 81.7268 210.865 77.1808 205.101 71.0601C199.33 77.1808 191.626 81.7268 182.705 83.7825C170.937 86.4977 159.3 85.0238 149.619 79.415L149.464 79.7253C143.235 89.3214 133.817 96.2102 121.785 98.9874C107.294 102.331 92.7172 98.3901 82.2057 89.5619C80.7085 90.3144 79.0561 90.3998 77.2641 90.3998C71.1124 90.3998 66.1242 85.4116 66.1242 79.2521C66.1242 77.9411 66.2406 76.6844 66.7681 75.513L48.5688 56.5767L58.2581 49.8897C64.4719 45.9256 70.3289 44.2655 74.1688 50.1069C76.4185 53.5358 77.0624 54.8235 81.492 62.5811L84.7424 59.5789C90.0952 55.0873 98.0699 55.7855 102.562 61.1382C107.053 66.4832 106.355 74.4657 101.002 78.9573C99.2181 80.4545 97.0847 81.3467 95.0445 81.7113C99.125 85.7918 106.883 89.2594 119.023 86.6063C132.995 83.5498 141.644 69.4776 138.425 55.545L138.301 55.1338C136.757 56.5379 134.833 57.5775 132.645 58.0817C125.842 59.6565 119.054 55.4131 117.479 48.6019C115.912 41.7985 120.156 35.0107 126.959 33.4359L127.712 33.2885C126.47 31.8068 125.555 30.0148 125.09 28.0056C123.515 21.2022 127.758 14.4066 134.569 12.8395C141.373 11.2647 148.168 15.5081 149.735 22.3115C150.201 24.3207 150.154 26.3222 149.697 28.1918L150.116 28.0909C156.927 26.5161 163.715 30.7595 165.289 37.5707C166.864 44.3741 162.613 51.1619 155.81 52.7367C153.622 53.241 150.977 53.0005 149.068 52.4109C151.807 63.7835 162.039 72.2315 174.257 72.2315C188.554 72.2315 200.067 60.6339 200.152 46.2281C198.065 47.5547 195.784 48.3847 193.201 48.3847C186.212 48.3847 180.548 42.7217 180.548 35.7321C180.548 28.7503 186.212 23.0873 193.201 23.0873L193.969 23.1105C193.092 21.3884 192.596 19.4412 192.596 17.3777C192.596 10.3881 198.259 4.7251 205.101 4.7251Z" fill="#FFE667"/>
<path d="M205.101 4.7251C211.936 4.7251 217.599 10.3881 217.599 17.3777C217.599 19.4412 217.102 21.3884 216.226 23.1106L217.001 23.0873C223.983 23.0873 229.646 28.7503 229.646 35.7321C229.646 42.7217 223.983 48.3847 217.001 48.3847C214.41 48.3847 212.13 47.5547 210.043 46.2281C210.128 60.6339 221.64 72.2315 235.945 72.2315C248.156 72.2315 258.396 63.7835 261.126 52.4109C259.218 53.0005 256.573 53.241 254.385 52.7367C247.582 51.1619 243.338 44.3741 244.913 37.5707C246.48 30.7595 253.268 26.5161 260.079 28.0909L260.506 28.1918C260.04 26.3222 259.994 24.3207 260.459 22.3115C262.034 15.5081 268.822 11.2647 275.633 12.8395C282.436 14.4066 286.68 21.2022 285.105 28.0056C284.647 30.0148 283.724 31.8068 282.483 33.2885L283.236 33.4359C290.047 35.0107 294.29 41.7985 292.715 48.6019C291.148 55.4131 284.353 59.6565 277.549 58.0817C275.362 57.5775 273.445 56.5379 271.894 55.1338L271.77 55.545C268.55 69.4776 277.2 83.5498 291.179 86.6063C303.32 89.2594 311.077 85.7918 315.15 81.7113C313.118 81.3467 310.977 80.4545 309.192 78.9573C303.84 74.4657 303.141 66.4832 307.633 61.1382C312.125 55.7855 320.107 55.0873 325.452 59.5789L328.703 62.5811C333.132 54.8235 333.776 53.5358 336.034 50.1069C339.866 44.2655 345.723 45.9256 351.944 49.8897L361.634 56.5767L343.427 75.513C343.954 76.6844 344.078 77.9411 344.078 79.2521C344.078 85.4116 339.09 90.3998 332.931 90.3998C331.146 90.3998 329.486 90.3144 327.989 89.5619C317.477 98.3901 302.901 102.331 288.41 98.9874C276.378 96.2102 266.564 88.9258 260.327 79.3375L260.746 78.8022C251.065 84.4109 239.258 86.4977 227.49 83.7825C218.568 81.7268 210.865 77.1808 205.101 71.0601C199.33 77.1808 191.626 81.7268 182.705 83.7825C170.937 86.4977 159.3 85.0238 149.619 79.415L149.464 79.7253C143.235 89.3215 133.817 96.2102 121.785 98.9874C107.294 102.331 92.7172 98.3901 82.2057 89.5619C80.7085 90.3144 79.0561 90.3998 77.2641 90.3998C71.1124 90.3998 66.1242 85.4116 66.1242 79.2521C66.1242 77.9411 66.2406 76.6844 66.7681 75.513L48.5688 56.5767L58.2581 49.8897C64.4719 45.9256 70.3289 44.2655 74.1689 50.1069C76.4185 53.5358 77.0624 54.8235 81.492 62.5811L84.7424 59.5789C90.0952 55.0873 98.0699 55.7855 102.562 61.1382C107.053 66.4832 106.355 74.4657 101.002 78.9573C99.2181 80.4545 97.0847 81.3467 95.0445 81.7113C99.125 85.7918 106.883 89.2594 119.023 86.6063C132.995 83.5498 141.644 69.4776 138.425 55.545L138.301 55.1338C136.757 56.5379 134.833 57.5775 132.645 58.0817C125.842 59.6565 119.054 55.4131 117.479 48.6019C115.912 41.7985 120.156 35.0107 126.959 33.4359L127.712 33.2885C126.47 31.8068 125.555 30.0148 125.09 28.0056C123.515 21.2022 127.758 14.4066 134.569 12.8395C141.373 11.2647 148.168 15.5081 149.735 22.3115C150.201 24.3207 150.154 26.3222 149.697 28.1918L150.116 28.0909C156.927 26.5161 163.715 30.7595 165.289 37.5707C166.864 44.3741 162.613 51.1619 155.81 52.7367C153.622 53.241 150.977 53.0005 149.068 52.4109C151.807 63.7835 162.039 72.2315 174.257 72.2315C188.554 72.2315 200.067 60.6339 200.152 46.2281C198.065 47.5547 195.784 48.3847 193.201 48.3847C186.212 48.3847 180.548 42.7217 180.548 35.7321C180.548 28.7503 186.212 23.0873 193.201 23.0873L193.969 23.1106C193.092 21.3884 192.596 19.4412 192.596 17.3777C192.596 10.3881 198.259 4.7251 205.101 4.7251Z" stroke="#005187" stroke-width="1.18691" stroke-miterlimit="3.864"/>
<path d="M205.404 492.599C317.201 492.599 407.83 401.97 407.83 290.173C407.83 178.376 317.201 87.7466 205.404 87.7466C93.6071 87.7466 2.97778 178.376 2.97778 290.173C2.97778 401.97 93.6071 492.599 205.404 492.599Z" fill="white"/>
<path d="M205.404 492.599C317.201 492.599 407.83 401.97 407.83 290.173C407.83 178.376 317.201 87.7466 205.404 87.7466C93.6071 87.7466 2.97778 178.376 2.97778 290.173C2.97778 401.97 93.6071 492.599 205.404 492.599Z" stroke="#005187" stroke-width="1.18691" stroke-miterlimit="3.864"/>
<path d="M10.4561 291.236C10.4561 183.871 97.4883 96.8308 204.861 96.8308C312.233 96.8308 399.273 183.871 399.273 291.236C399.273 398.608 312.233 485.648 204.861 485.648C97.4883 485.648 10.4561 398.608 10.4561 291.236Z" fill="#005187"/>
<path d="M236.496 110.135L279.915 166.859L326.453 167.045V199.914H305.267L372.851 290.359L226.838 488.022L183.341 488.139L37.2119 289.979L105.929 199.564H82.4464V166.603L130.512 166.509L173.474 109.902C173.474 109.902 190.269 107.707 204.527 107.707C216.389 107.707 236.496 110.135 236.496 110.135Z" fill="white"/>
<path d="M147.129 149.675C127.471 149.342 110.242 138.52 101.188 122.578C100.374 121.112 100.087 119.351 100.087 117.559C100.087 113.579 102.298 110.143 105.765 108.467C135.927 94.6586 169.471 86.9631 204.806 86.9631C239.452 86.9631 272.22 94.3639 302.055 107.66L301.861 107.676C305.244 109.289 307.788 112.819 307.788 116.931C307.788 118.831 306.974 121.213 306.066 122.733C296.594 138.854 279.14 149.683 259.164 149.683C256.697 149.683 252.469 149.761 252.469 149.761L147.129 149.675Z" fill="#FFE667"/>
<mask id="mask0_2003_22436" style="mask-type:luminance" maskUnits="userSpaceOnUse" x="100" y="86" width="208" height="64">
<path d="M147.129 149.675C127.471 149.342 110.242 138.52 101.188 122.578C100.374 121.112 100.087 119.351 100.087 117.559C100.087 113.579 102.298 110.143 105.765 108.467C135.927 94.6587 169.471 86.9631 204.806 86.9631C239.452 86.9631 272.22 94.3639 302.055 107.66L301.861 107.676C305.244 109.289 307.788 112.819 307.788 116.931C307.788 118.831 306.974 121.213 306.066 122.733C296.594 138.854 279.14 149.683 259.164 149.683C256.697 149.683 252.469 149.761 252.469 149.761L147.129 149.675Z" fill="white"/>
</mask>
<g mask="url(#mask0_2003_22436)">
<path d="M203.674 509.511C313.496 509.511 402.524 420.482 402.524 310.661C402.524 200.839 313.496 111.811 203.674 111.811C93.8521 111.811 4.82397 200.839 4.82397 310.661C4.82397 420.482 93.8521 509.511 203.674 509.511Z" fill="black"/>
</g>
<mask id="mask1_2003_22436" style="mask-type:luminance" maskUnits="userSpaceOnUse" x="100" y="86" width="208" height="64">
<path d="M147.129 149.675C127.471 149.342 110.242 138.52 101.188 122.578C100.374 121.112 100.087 119.351 100.087 117.559C100.087 113.579 102.298 110.143 105.765 108.467C135.927 94.6587 169.471 86.9631 204.806 86.9631C239.452 86.9631 272.22 94.3639 302.055 107.66L301.861 107.676C305.244 109.289 307.788 112.819 307.788 116.931C307.788 118.831 306.974 121.213 306.066 122.733C296.594 138.854 279.14 149.683 259.164 149.683C256.697 149.683 252.469 149.761 252.469 149.761L147.129 149.675Z" fill="white"/>
</mask>
<g mask="url(#mask1_2003_22436)">
<path d="M203.674 509.511C313.496 509.511 402.524 420.482 402.524 310.661C402.524 200.839 313.496 111.811 203.674 111.811C93.8521 111.811 4.82397 200.839 4.82397 310.661C4.82397 420.482 93.8521 509.511 203.674 509.511Z" stroke="black" stroke-width="2.29624" stroke-miterlimit="3.864"/>
</g>
<mask id="mask2_2003_22436" style="mask-type:luminance" maskUnits="userSpaceOnUse" x="100" y="86" width="208" height="64">
<path d="M147.129 149.675C127.471 149.342 110.242 138.52 101.188 122.578C100.374 121.112 100.087 119.351 100.087 117.559C100.087 113.579 102.298 110.143 105.765 108.467C135.927 94.6587 169.471 86.9631 204.806 86.9631C239.452 86.9631 272.22 94.3639 302.055 107.66L301.861 107.676C305.244 109.289 307.788 112.819 307.788 116.931C307.788 118.831 306.974 121.213 306.066 122.733C296.594 138.854 279.14 149.683 259.164 149.683C256.697 149.683 252.469 149.761 252.469 149.761L147.129 149.675Z" fill="white"/>
</mask>
<g mask="url(#mask2_2003_22436)">
<path d="M97.1237 109.778C98.5976 111.12 87.9852 122.408 99.4664 131.298C116.168 144.23 116.401 112.548 205.893 112.548C267.232 112.548 291.35 132.865 291.35 132.865L281.079 135.456L271.816 136.2L274.043 129.529L271.079 125.456L267.007 130.274L264.408 130.646L262.189 123.703L259.226 129.901L252.174 133.276L263.252 148.791C285.462 147.589 310.721 126.884 310.721 117.171C310.721 100.252 254.626 84.791 204.729 84.791C157.431 84.791 95.6497 108.428 97.1237 109.778Z" fill="#FFE667"/>
</g>
<mask id="mask3_2003_22436" style="mask-type:luminance" maskUnits="userSpaceOnUse" x="100" y="86" width="208" height="64">
<path d="M147.129 149.675C127.471 149.342 110.242 138.52 101.188 122.578C100.374 121.112 100.087 119.351 100.087 117.559C100.087 113.579 102.298 110.143 105.765 108.467C135.927 94.6587 169.471 86.9631 204.806 86.9631C239.452 86.9631 272.22 94.3639 302.055 107.66L301.861 107.676C305.244 109.289 307.788 112.819 307.788 116.931C307.788 118.831 306.974 121.213 306.066 122.733C296.594 138.854 279.14 149.683 259.164 149.683C256.697 149.683 252.469 149.761 252.469 149.761L147.129 149.675Z" fill="white"/>
</mask>
<g mask="url(#mask3_2003_22436)">
<path d="M97.1237 109.778C98.5976 111.12 87.9852 122.408 99.4664 131.298C116.168 144.23 116.401 112.548 205.893 112.548C267.232 112.548 291.35 132.865 291.35 132.865L281.079 135.456L271.816 136.2L274.043 129.529L271.079 125.456L267.007 130.274L264.408 130.646L262.189 123.703L259.226 129.901L252.174 133.276L263.252 148.791C285.462 147.589 310.721 126.884 310.721 117.171C310.721 100.252 254.626 84.791 204.729 84.791C157.431 84.791 95.6497 108.428 97.1237 109.778Z" stroke="black" stroke-width="0.643879" stroke-miterlimit="3.864"/>
</g>
<path d="M147.129 149.675C127.471 149.342 110.242 138.52 101.188 122.578C100.374 121.112 100.087 119.351 100.087 117.559C100.087 113.579 102.298 110.143 105.765 108.467C135.927 94.6586 169.471 86.9631 204.806 86.9631C239.452 86.9631 272.22 94.3639 302.055 107.66L301.861 107.676C305.244 109.289 307.788 112.819 307.788 116.931C307.788 118.831 306.974 121.213 306.066 122.733C296.594 138.854 279.14 149.683 259.164 149.683C256.697 149.683 252.469 149.761 252.469 149.761L147.129 149.675Z" stroke="black" stroke-width="1.18691" stroke-miterlimit="3.864"/>
<path d="M235.759 115.922L367.638 290.235L205.326 509.976L43.0144 289.862L174.8 115.697C174.8 115.697 191.052 113.572 204.837 113.572C216.311 113.572 235.759 115.922 235.759 115.922Z" fill="#FFE667"/>
<mask id="mask4_2003_22436" style="mask-type:luminance" maskUnits="userSpaceOnUse" x="43" y="113" width="325" height="397">
<path d="M235.759 115.922L367.638 290.235L205.326 509.976L43.0144 289.862L174.8 115.697C174.8 115.697 191.052 113.572 204.837 113.572C216.311 113.572 235.759 115.922 235.759 115.922Z" fill="white"/>
</mask>
<g mask="url(#mask4_2003_22436)">
<path d="M113.539 211.581V369.626L77.0315 324.12V257.94L113.539 211.581Z" fill="#E70005"/>
</g>
<mask id="mask5_2003_22436" style="mask-type:luminance" maskUnits="userSpaceOnUse" x="43" y="113" width="325" height="397">
<path d="M235.759 115.922L367.638 290.235L205.326 509.976L43.0144 289.862L174.8 115.697C174.8 115.697 191.052 113.572 204.837 113.572C216.311 113.572 235.759 115.922 235.759 115.922Z" fill="white"/>
</mask>
<g mask="url(#mask5_2003_22436)">
<path d="M113.539 211.581V369.626L77.0315 324.12V257.94L113.539 211.581Z" stroke="#E70005" stroke-width="2.29624" stroke-miterlimit="3.864"/>
</g>
<mask id="mask6_2003_22436" style="mask-type:luminance" maskUnits="userSpaceOnUse" x="43" y="113" width="325" height="397">
<path d="M235.759 115.922L367.638 290.235L205.326 509.976L43.0144 289.862L174.8 115.697C174.8 115.697 191.052 113.572 204.837 113.572C216.311 113.572 235.759 115.922 235.759 115.922Z" fill="white"/>
</mask>
<g mask="url(#mask6_2003_22436)">
<path d="M148.657 165.664V422.517L185.195 469.202L185.18 117.295L148.657 165.664Z" fill="#E70005"/>
</g>
<mask id="mask7_2003_22436" style="mask-type:luminance" maskUnits="userSpaceOnUse" x="43" y="113" width="325" height="397">
<path d="M235.759 115.922L367.638 290.235L205.326 509.976L43.0144 289.862L174.8 115.697C174.8 115.697 191.052 113.572 204.837 113.572C216.311 113.572 235.759 115.922 235.759 115.922Z" fill="white"/>
</mask>
<g mask="url(#mask7_2003_22436)">
<path d="M148.657 165.664V422.517L185.195 469.202L185.18 117.295L148.657 165.664Z" stroke="#E70005" stroke-width="2.29624" stroke-miterlimit="3.864"/>
</g>
<mask id="mask8_2003_22436" style="mask-type:luminance" maskUnits="userSpaceOnUse" x="43" y="113" width="325" height="397">
<path d="M235.759 115.922L367.638 290.235L205.326 509.976L43.0144 289.862L174.8 115.697C174.8 115.697 191.052 113.572 204.837 113.572C216.311 113.572 235.759 115.922 235.759 115.922Z" fill="white"/>
</mask>
<g mask="url(#mask8_2003_22436)">
<path d="M296.928 212.093V368.392L332.814 323.654V258.227L296.928 212.093Z" fill="#E70005"/>
</g>
<mask id="mask9_2003_22436" style="mask-type:luminance" maskUnits="userSpaceOnUse" x="43" y="113" width="325" height="397">
<path d="M235.759 115.922L367.638 290.235L205.326 509.976L43.0144 289.862L174.8 115.697C174.8 115.697 191.052 113.572 204.837 113.572C216.311 113.572 235.759 115.922 235.759 115.922Z" fill="white"/>
</mask>
<g mask="url(#mask9_2003_22436)">
<path d="M296.928 212.093V368.392L332.814 323.654V258.227L296.928 212.093Z" stroke="#E70005" stroke-width="2.29624" stroke-miterlimit="3.864"/>
</g>
<mask id="mask10_2003_22436" style="mask-type:luminance" maskUnits="userSpaceOnUse" x="43" y="113" width="325" height="397">
<path d="M235.759 115.922L367.638 290.235L205.326 509.976L43.0144 289.862L174.8 115.697C174.8 115.697 191.052 113.572 204.837 113.572C216.311 113.572 235.759 115.922 235.759 115.922Z" fill="white"/>
</mask>
<g mask="url(#mask10_2003_22436)">
<path d="M261.987 165.881V421.702L225.729 469.582L225.077 116.256L261.987 165.881Z" fill="#E70005"/>
</g>
<mask id="mask11_2003_22436" style="mask-type:luminance" maskUnits="userSpaceOnUse" x="43" y="113" width="325" height="397">
<path d="M235.759 115.922L367.638 290.235L205.326 509.976L43.0144 289.862L174.8 115.697C174.8 115.697 191.052 113.572 204.837 113.572C216.311 113.572 235.759 115.922 235.759 115.922Z" fill="white"/>
</mask>
<g mask="url(#mask11_2003_22436)">
<path d="M261.987 165.881V421.702L225.729 469.582L225.077 116.256L261.987 165.881Z" stroke="#E70005" stroke-width="2.29624" stroke-miterlimit="3.864"/>
</g>
<path d="M235.759 115.922L367.638 290.235L205.326 509.976L43.0144 289.862L174.8 115.697C174.8 115.697 191.052 113.572 204.837 113.572C216.311 113.572 235.759 115.922 235.759 115.922Z" stroke="#005187" stroke-width="1.18691" stroke-miterlimit="3.864"/>
<path d="M197.53 33.622C197.53 29.2933 201.036 25.7869 205.365 25.7869C209.686 25.7869 213.193 29.2933 213.193 33.622C213.193 37.943 209.686 41.4572 205.365 41.4572C201.036 41.4572 197.53 37.943 197.53 33.622Z" fill="#E70005"/>
<path d="M133.545 41.7288C133.545 37.4078 137.052 33.9014 141.381 33.9014C145.702 33.9014 149.216 37.4078 149.216 41.7288C149.216 46.0575 145.702 49.5639 141.381 49.5639C137.052 49.5639 133.545 46.0575 133.545 41.7288Z" fill="#E70005"/>
<path d="M262.088 41.7288C262.088 37.4078 265.595 33.9014 269.916 33.9014C274.245 33.9014 277.751 37.4078 277.751 41.7288C277.751 46.0575 274.245 49.5639 269.916 49.5639C265.595 49.5639 262.088 46.0575 262.088 41.7288Z" fill="#E70005"/>
<path d="M327.407 82.0991C327.407 77.7782 330.914 74.2717 335.235 74.2717C339.563 74.2717 343.07 77.7782 343.07 82.0991C343.07 86.4278 339.563 89.9343 335.235 89.9343C330.914 89.9343 327.407 86.4278 327.407 82.0991Z" fill="#E70005"/>
<path d="M66.9001 82.0991C66.9001 77.7782 70.4066 74.2717 74.7275 74.2717C79.0563 74.2717 82.5627 77.7782 82.5627 82.0991C82.5627 86.4278 79.0563 89.9343 74.7275 89.9343C70.4066 89.9343 66.9001 86.4278 66.9001 82.0991Z" fill="#E70005"/>
<path d="M204.799 91.7107L186.32 98.8476L204.83 107.272L223.409 99.0417L204.799 91.7107Z" fill="#E70005"/>
<path d="M122.328 107.676L107.627 120.965L127.921 122.198L142.327 107.854L122.328 107.676Z" fill="#005187"/>
<path d="M286.874 107.676L301.574 120.965L281.273 122.198L266.875 107.854L286.874 107.676Z" fill="#005187"/>
<path d="M145.36 245C139.177 241.153 134.034 239.656 127.169 239.656C101.933 239.656 83.571 261.664 83.571 291.802C83.571 320.218 102.275 342.661 125.966 342.661C133.002 342.661 138.324 341.163 145.36 337.316V308.256C140.9 312.53 136.431 314.663 131.459 314.663C119.954 314.663 112.235 305.052 112.235 290.941C112.235 277.691 120.303 267.862 131.109 267.862C136.09 267.862 140.038 269.576 145.36 274.06V245Z" fill="black"/>
<path d="M327.081 262.61V240.943H269.125V342.412H295.376V300.63H324.196V278.963H295.376V262.61H327.081Z" fill="black"/>
<path d="M85.2546 169.411L85.2468 196.903L139.783 196.834L204.442 421.035L266.898 196.834H323.466V169.411H246.542L205.117 320.753L163.389 169.411H85.2546Z" fill="black"/>
<path d="M135.958 127.372L141.52 136.107L141.125 143.655L147.082 143.26L163.373 119.529L135.958 127.372Z" fill="#FFE667"/>
<path d="M135.958 127.372L141.52 136.107L141.125 143.655L147.082 143.26L163.373 119.529L135.958 127.372Z" stroke="black" stroke-width="1.09382" stroke-miterlimit="3.864"/>
</svg>
